<svg id="Layer_1" data-name="Layer 1" xmlns="http://www.w3.org/2000/svg" xmlns:xlink="http://www.w3.org/1999/xlink" width="650" height="500" viewBox="0 0 650 500"><defs><style>.cls-1{fill:url(#radial-gradient);}.cls-2{fill:url(#linear-gradient);}.cls-3{fill:url(#linear-gradient-2);}.cls-4{fill:url(#radial-gradient-2);}.cls-5{fill:url(#radial-gradient-3);}.cls-6{fill:#e58c3c;}.cls-7{fill:#fff18f;}</style><radialGradient id="radial-gradient" cx="1270.15" cy="-131.93" r="263.96" gradientTransform="translate(-578.05 347.62) scale(0.71 0.28)" gradientUnits="userSpaceOnUse"><stop offset="0" stop-opacity="0.5"/><stop offset="0.95" stop-color="#7d5833" stop-opacity="0.05"/><stop offset="1" stop-color="#8c6239" stop-opacity="0"/></radialGradient><linearGradient id="linear-gradient" x1="331.21" y1="158.28" x2="310.13" y2="329.97" gradientUnits="userSpaceOnUse"><stop offset="0" stop-color="#ffce58"/><stop offset="0.47" stop-color="#fecc57"/><stop offset="0.64" stop-color="#f9c554"/><stop offset="0.76" stop-color="#f1ba4f"/><stop offset="0.86" stop-color="#e5a948"/><stop offset="0.94" stop-color="#d6933f"/><stop offset="1" stop-color="#c77e36"/></linearGradient><linearGradient id="linear-gradient-2" x1="331.65" y1="154.7" x2="309.69" y2="333.56" xlink:href="#linear-gradient"/><radialGradient id="radial-gradient-2" cx="325" cy="109.7" r="112.08" gradientUnits="userSpaceOnUse"><stop offset="0" stop-color="#fff18f"/><stop offset="0.33" stop-color="#fff08a"/><stop offset="0.69" stop-color="#ffed7d"/><stop offset="1" stop-color="#ffea6c"/></radialGradient><radialGradient id="radial-gradient-3" cy="109.7" r="115.45" xlink:href="#radial-gradient-2"/></defs><title>Artboard 10</title><ellipse class="cls-1" cx="325" cy="310.89" rx="255" ry="144.11"/><path class="cls-2" d="M462.25,335.08c-20.34-.15-37.72-.21-56.34-.72-12.1-.32,25.28-21.67-39.73-32.5-5.65-.26-22.65-2.13-26,5.05-3.49,7.45,6.56,24-5.37,24.12-52.48-3.46-99.75-9.53-147-19.78l-7.23-169.76,290.4,33.95Z"/><path class="cls-3" d="M462.25,338.7h0l-8-.06c-17.31-.12-32.26-.23-48.44-.67-2.49-.06-4.28-.89-5.31-2.44-1.6-2.41-.56-5.1.36-7.47,1.32-3.39,2.13-6,.57-8.74-2.27-4-10.29-9.62-35.64-13.87l-1.88-.1c-12.27-.76-19.15.29-20.47,3.09-.87,1.87-.27,5.7.26,9.08.8,5.15,1.64,10.47-1.41,14.08-1.67,2-4.18,3-7.45,3h-.28C279.65,331,232.75,324.7,187,314.78a3.62,3.62,0,0,1-2.84-3.38l-7.22-169.76a3.61,3.61,0,0,1,4-3.74l290.4,33.95a3.62,3.62,0,0,1,3.19,3.78l-8.67,159.65A3.62,3.62,0,0,1,462.25,338.7Zm-54.7-7.91c15.52.4,30,.51,46.75.63l4.53,0,8.3-152.82L184.31,145.57l6.93,162.73c44.51,9.5,90.25,15.59,143.64,19.11a2.9,2.9,0,0,0,1.9-.48c.91-1.08.23-5.42-.22-8.3-.72-4.61-1.47-9.39.34-13.25,4.06-8.68,19.28-7.75,27.45-7.25l2,.12a3.13,3.13,0,0,1,.43,0c23.37,3.9,36.38,9.44,40.94,17.45,3.38,5.94,1.19,11.57-.11,14.94A1.17,1.17,0,0,0,407.55,330.79Z"/><path class="cls-4" d="M325,46.13,470.2,173.27s-226.83-13.72-290.4-34C179.8,139.32,221.7,71.42,325,46.13Z"/><path class="cls-5" d="M470.2,176.88H470c-9.28-.56-228-14-291.27-34.12a3.6,3.6,0,0,1-2-5.34c.44-.71,11-17.68,34.58-37.95,21.63-18.63,58.77-43.61,112.83-56.85a3.61,3.61,0,0,1,3.24.8l145.2,127.13a3.61,3.61,0,0,1-2.38,6.33Zm-284.61-39.6c59.46,16.65,230,28.78,274.23,31.71L324,50.09c-51.68,13-87.22,37-108,54.86A196.1,196.1,0,0,0,185.59,137.28Z"/><circle class="cls-6" cx="267.57" cy="198.19" r="18.42"/><path class="cls-7" d="M283.82,207.38a18.43,18.43,0,0,1-25,7.4,19.21,19.21,0,0,1-7.52-25.62c.24,7.12,3.09,11.7,12,16.56S278.35,211.4,283.82,207.38Z"/><circle class="cls-6" cx="228.92" cy="274.41" r="20.23"/><path class="cls-7" d="M245.54,286a20.33,20.33,0,1,1-32.77-24.06c1.46,12.17.3,13.1,9.08,20S236.08,288.64,245.54,286Z"/><circle class="cls-6" cx="311.64" cy="256.71" r="13.36"/><path class="cls-7" d="M324.28,261.38a13.37,13.37,0,0,1-25.3-8.63c1.45,4.69,3.79,8.54,10.77,10.93S321.64,262.39,324.28,261.38Z"/><circle class="cls-6" cx="218.81" cy="200" r="10.11"/><path class="cls-7" d="M228,204.53a10.35,10.35,0,0,1-13.86,4.69c-5-2.58-7.56-9.22-4.07-14.05.46,5.36.95,7.3,5.9,9.89S222.3,207.54,228,204.53Z"/><circle class="cls-6" cx="427.58" cy="293.91" r="10.11"/><path class="cls-7" d="M435.84,300.11a10.12,10.12,0,0,1-14.13,2.22c-4.51-3.29-6.41-9.14-2.08-14.92.05,3.61.54,7.55,5.06,10.83S431.8,300.74,435.84,300.11Z"/><circle class="cls-6" cx="390.38" cy="223.48" r="37.92"/><path class="cls-7" d="M425.44,237.91A37.92,37.92,0,1,1,355.31,209c2.88,19.55,7.09,28.31,26.46,36.29S412.45,248.57,425.44,237.91Z"/><path class="cls-6" d="M400.85,326.42s-.72,3.59-.72,3.61a58.05,58.05,0,0,0,2.89-6.5c.72-5.06,0-.73.72-5.78,2.46-17.23-15.42-28.82-32.8-29.59a33.6,33.6,0,0,0-32.68,46.09C342.54,332.37,403.94,297.91,400.85,326.42Z"/></svg>
