<svg id="Layer_1" data-name="Layer 1" xmlns="http://www.w3.org/2000/svg" xmlns:xlink="http://www.w3.org/1999/xlink" width="500" height="500" viewBox="0 0 500 500"><defs><style>.cls-1{fill:#fff;}.cls-2{fill:#009ff7;}.cls-3{fill:url(#radial-gradient);}.cls-4{fill:none;stroke:#fff;stroke-miterlimit:10;stroke-width:12px;}</style><radialGradient id="radial-gradient" cx="250" cy="250" r="202.5" gradientUnits="userSpaceOnUse"><stop offset="0" stop-color="#fcaccb"/><stop offset="0.33" stop-color="#fba8c9"/><stop offset="0.65" stop-color="#f69cc1"/><stop offset="0.97" stop-color="#ef89b6"/><stop offset="1" stop-color="#ee86b4"/></radialGradient></defs><title>Artboard 20</title><path class="cls-1" d="M250,481.25A231.25,231.25,0,0,1,86.48,86.48a231.25,231.25,0,0,1,327,327A229.73,229.73,0,0,1,250,481.25Z"/><path class="cls-2" d="M250,24.75a225.3,225.3,0,0,1,87.67,432.8A225.31,225.31,0,0,1,162.33,42.45,223.68,223.68,0,0,1,250,24.75m0-12C119,12.75,12.75,119,12.75,250S119,487.25,250,487.25,487.25,381,487.25,250,381,12.75,250,12.75Z"/><circle class="cls-3" cx="250" cy="250" r="202.5"/><circle class="cls-1" cx="333.5" cy="98.5" r="7.5"/><circle class="cls-1" cx="396.5" cy="166.5" r="7.5"/><circle class="cls-1" cx="403.5" cy="323.5" r="7.5"/><circle class="cls-1" cx="333.5" cy="398.5" r="7.5"/><circle class="cls-1" cx="174.5" cy="403.5" r="7.5"/><circle class="cls-1" cx="104.5" cy="338.5" r="7.5"/><circle class="cls-1" cx="163.5" cy="101.5" r="7.5"/><circle class="cls-1" cx="104.5" cy="166.5" r="7.5"/><circle class="cls-2" cx="250" cy="250" r="14"/><line class="cls-4" x1="250" y1="61" x2="250" y2="91"/><line class="cls-4" x1="254" y1="409" x2="254" y2="439"/><line class="cls-4" x1="437" y1="245" x2="407" y2="245"/><line class="cls-4" x1="92" y1="250" x2="62" y2="250"/></svg>
