<svg id="Layer_1" data-name="Layer 1" xmlns="http://www.w3.org/2000/svg" xmlns:xlink="http://www.w3.org/1999/xlink" width="1242" height="2208" viewBox="0 0 1242 2208"><defs><style>.cls-1{fill:url(#linear-gradient);}.cls-2{fill:#bbf7ff;}.cls-3{fill:url(#linear-gradient-2);}.cls-4{fill:url(#radial-gradient);}.cls-5{fill:url(#radial-gradient-2);}.cls-39,.cls-6{fill:#fff;}.cls-7{fill:#009ff7;}.cls-8{fill:url(#radial-gradient-3);}.cls-9{fill:url(#radial-gradient-4);}.cls-10{fill:url(#radial-gradient-5);}.cls-11{fill:url(#radial-gradient-6);}.cls-12{fill:url(#radial-gradient-7);}.cls-13{fill:url(#radial-gradient-8);}.cls-14{fill:url(#radial-gradient-9);}.cls-15{fill:url(#radial-gradient-10);}.cls-16{fill:url(#linear-gradient-3);}.cls-17{fill:url(#linear-gradient-4);}.cls-18{fill:url(#linear-gradient-5);}.cls-19{fill:url(#linear-gradient-6);}.cls-20{fill:url(#linear-gradient-7);}.cls-21{fill:url(#linear-gradient-8);}.cls-22{fill:#916f39;}.cls-23{fill:url(#radial-gradient-11);}.cls-24{fill:url(#radial-gradient-12);}.cls-25{fill:url(#radial-gradient-13);}.cls-26{fill:url(#linear-gradient-9);}.cls-27{fill:url(#linear-gradient-10);}.cls-28{fill:url(#linear-gradient-11);}.cls-29,.cls-31,.cls-42{fill:none;}.cls-29{stroke:#050402;}.cls-29,.cls-30,.cls-42{stroke-miterlimit:10;}.cls-30{fill:#bc5c5c;stroke:#874848;}.cls-30,.cls-42{stroke-width:5px;}.cls-31{stroke:#606060;stroke-width:8px;}.cls-31,.cls-39,.cls-42{stroke-linecap:round;}.cls-31,.cls-39{stroke-linejoin:round;}.cls-32{fill:url(#linear-gradient-12);}.cls-33{fill:url(#linear-gradient-13);}.cls-34{fill:url(#linear-gradient-14);}.cls-35{fill:url(#linear-gradient-15);}.cls-36{fill:url(#linear-gradient-16);}.cls-37{fill:url(#radial-gradient-14);}.cls-38{fill:url(#radial-gradient-15);}.cls-39{stroke:#fff;stroke-width:17px;}.cls-40{fill:url(#radial-gradient-16);}.cls-41{fill:url(#radial-gradient-17);}.cls-42{stroke:#000;}.cls-43{fill:url(#linear-gradient-17);}.cls-44{fill:url(#linear-gradient-18);}.cls-45{fill:url(#radial-gradient-18);}.cls-46{fill:url(#radial-gradient-19);}.cls-47{fill:#e58c3c;}.cls-48{fill:#fff18f;}</style><linearGradient id="linear-gradient" x1="621" y1="2208" x2="621" y2="445" gradientUnits="userSpaceOnUse"><stop offset="0" stop-color="#7a8a2a"/><stop offset="1" stop-color="#c9dd6f"/></linearGradient><linearGradient id="linear-gradient-2" x1="620" y1="536.51" x2="620" y2="714.09" gradientUnits="userSpaceOnUse"><stop offset="0" stop-color="#dbc9a1"/><stop offset="1" stop-color="#dbc9a1"/></linearGradient><radialGradient id="radial-gradient" cx="277.5" cy="128.56" r="192.74" gradientTransform="translate(0 77.14) scale(1 0.4)" gradientUnits="userSpaceOnUse"><stop offset="0" stop-color="#fff" stop-opacity="0.8"/><stop offset="0.45" stop-color="#fff" stop-opacity="0.79"/><stop offset="0.61" stop-color="#fff" stop-opacity="0.77"/><stop offset="0.72" stop-color="#fff" stop-opacity="0.72"/><stop offset="0.82" stop-color="#fff" stop-opacity="0.65"/><stop offset="0.9" stop-color="#fff" stop-opacity="0.57"/><stop offset="0.97" stop-color="#fff" stop-opacity="0.46"/><stop offset="1" stop-color="#fff" stop-opacity="0.4"/></radialGradient><radialGradient id="radial-gradient-2" cx="707.5" cy="341.56" r="192.74" gradientTransform="translate(0 204.94) scale(1 0.4)" xlink:href="#radial-gradient"/><radialGradient id="radial-gradient-3" cx="367.79" cy="597.38" r="77.9" gradientUnits="userSpaceOnUse"><stop offset="0" stop-color="#fcaccb"/><stop offset="0.33" stop-color="#fba8c9"/><stop offset="0.65" stop-color="#f69cc1"/><stop offset="0.97" stop-color="#ef89b6"/><stop offset="1" stop-color="#ee86b4"/></radialGradient><radialGradient id="radial-gradient-4" cx="542.84" cy="607.86" r="68.94" xlink:href="#radial-gradient-3"/><radialGradient id="radial-gradient-5" cx="725.06" cy="607.65" r="73.33" xlink:href="#radial-gradient-3"/><radialGradient id="radial-gradient-6" cx="888.55" cy="606.69" r="58.92" xlink:href="#radial-gradient-3"/><radialGradient id="radial-gradient-7" cx="387.05" cy="804.48" r="79.6" xlink:href="#radial-gradient-3"/><radialGradient id="radial-gradient-8" cx="561.67" cy="815.5" r="66.87" xlink:href="#radial-gradient-3"/><radialGradient id="radial-gradient-9" cx="712.65" cy="813.69" r="58.92" xlink:href="#radial-gradient-3"/><radialGradient id="radial-gradient-10" cx="860.8" cy="816.05" r="66.02" xlink:href="#radial-gradient-3"/><linearGradient id="linear-gradient-3" x1="435.51" y1="1436.01" x2="639.15" y2="1436.01" gradientTransform="translate(-22.74 -50.38) rotate(-1.16)" gradientUnits="userSpaceOnUse"><stop offset="0" stop-color="#754c24"/><stop offset="0.29" stop-color="#8c633a"/><stop offset="0.61" stop-color="#9f754c"/><stop offset="0.83" stop-color="#a67c52"/><stop offset="0.89" stop-color="#bb9055"/><stop offset="0.95" stop-color="#cda158"/><stop offset="1" stop-color="#d3a759"/></linearGradient><linearGradient id="linear-gradient-4" x1="207.37" y1="939.26" x2="207.37" y2="741.45" gradientTransform="translate(109.14 475.8) rotate(8.93)" gradientUnits="userSpaceOnUse"><stop offset="0" stop-color="#754c24"/><stop offset="0.34" stop-color="#8c633a"/><stop offset="0.71" stop-color="#9f754c"/><stop offset="0.97" stop-color="#a67c52"/><stop offset="0.98" stop-color="#bb9055"/><stop offset="0.99" stop-color="#cda158"/><stop offset="1" stop-color="#d3a759"/></linearGradient><linearGradient id="linear-gradient-5" x1="237.75" y1="1042.11" x2="136.26" y2="940.62" gradientTransform="translate(84.34 313.45) rotate(5.92)" gradientUnits="userSpaceOnUse"><stop offset="0" stop-color="#b26295"/><stop offset="0.02" stop-color="#b46497"/><stop offset="0.33" stop-color="#d190c3"/><stop offset="0.6" stop-color="#e6b0e2"/><stop offset="0.84" stop-color="#f2c3f5"/><stop offset="1" stop-color="#f7cafc"/></linearGradient><linearGradient id="linear-gradient-6" x1="497.36" y1="1396.54" x2="631.82" y2="1318.91" gradientTransform="translate(-2.2 6.19) rotate(0.02)" xlink:href="#linear-gradient-5"/><linearGradient id="linear-gradient-7" x1="510.27" y1="2133.22" x2="510.27" y2="1978.71" gradientUnits="userSpaceOnUse"><stop offset="0" stop-color="#d3a759"/><stop offset="0.16" stop-color="#ab8243"/><stop offset="0.33" stop-color="#855f2f"/><stop offset="0.5" stop-color="#68441f"/><stop offset="0.67" stop-color="#533114"/><stop offset="0.84" stop-color="#46250d"/><stop offset="1" stop-color="#42210b"/></linearGradient><linearGradient id="linear-gradient-8" x1="307.94" y1="2133.95" x2="307.94" y2="1979.45" gradientUnits="userSpaceOnUse"><stop offset="0" stop-color="#d3a759"/><stop offset="0.04" stop-color="#c79c52"/><stop offset="0.19" stop-color="#9e763d"/><stop offset="0.34" stop-color="#7d582b"/><stop offset="0.49" stop-color="#63401d"/><stop offset="0.65" stop-color="#512e13"/><stop offset="0.82" stop-color="#46240d"/><stop offset="1" stop-color="#42210b"/></linearGradient><radialGradient id="radial-gradient-11" cx="-6185.95" cy="2148.67" r="396.68" gradientTransform="matrix(-1, 0, 0, 0.2, -5766.59, 1691.81)" gradientUnits="userSpaceOnUse"><stop offset="0" stop-opacity="0.5"/><stop offset="1" stop-color="#8c6239" stop-opacity="0"/></radialGradient><radialGradient id="radial-gradient-12" cx="410.18" cy="1687.36" r="362.13" gradientUnits="userSpaceOnUse"><stop offset="0" stop-color="#d3a759"/><stop offset="0.44" stop-color="#d1a558"/><stop offset="0.62" stop-color="#ca9e55"/><stop offset="0.76" stop-color="#be924f"/><stop offset="0.87" stop-color="#ac8147"/><stop offset="0.97" stop-color="#956b3d"/><stop offset="1" stop-color="#8c6239"/></radialGradient><radialGradient id="radial-gradient-13" cx="399.18" cy="1823.47" r="218.22" gradientTransform="translate(0 182.35) scale(1 0.9)" gradientUnits="userSpaceOnUse"><stop offset="0" stop-color="#f2f2f2"/><stop offset="0.34" stop-color="#f2f2f2" stop-opacity="0.99"/><stop offset="0.48" stop-color="#f2f2f2" stop-opacity="0.96"/><stop offset="0.58" stop-color="#f2f2f2" stop-opacity="0.91"/><stop offset="0.67" stop-color="#f2f2f2" stop-opacity="0.84"/><stop offset="0.74" stop-color="#f2f2f2" stop-opacity="0.75"/><stop offset="0.8" stop-color="#f2f2f2" stop-opacity="0.63"/><stop offset="0.86" stop-color="#f2f2f2" stop-opacity="0.49"/><stop offset="0.91" stop-color="#f2f2f2" stop-opacity="0.33"/><stop offset="0.96" stop-color="#f2f2f2" stop-opacity="0.16"/><stop offset="1" stop-color="#f2f2f2" stop-opacity="0"/></radialGradient><linearGradient id="linear-gradient-9" x1="350.81" y1="1226.58" x2="350.81" y2="1350.38" gradientUnits="userSpaceOnUse"><stop offset="0" stop-color="#c69c6d"/><stop offset="0.28" stop-color="#a67c52"/><stop offset="1" stop-color="#42210b"/></linearGradient><linearGradient id="linear-gradient-10" x1="499.06" y1="2106.77" x2="499.06" y2="2226.16" gradientTransform="translate(-260.84 -605.83) rotate(-12.1)" gradientUnits="userSpaceOnUse"><stop offset="0" stop-color="#c69c6d"/><stop offset="0.28" stop-color="#8c6239"/><stop offset="1" stop-color="#42210b"/></linearGradient><linearGradient id="linear-gradient-11" x1="500.04" y1="2103.01" x2="500.04" y2="2226.82" xlink:href="#linear-gradient-10"/><linearGradient id="linear-gradient-12" x1="296.48" y1="1863.63" x2="296.48" y2="1832.72" gradientTransform="translate(87.52 -617.92) scale(1 1.19)" gradientUnits="userSpaceOnUse"><stop offset="0" stop-color="#666"/><stop offset="1" stop-color="#b3b3b3"/></linearGradient><linearGradient id="linear-gradient-13" x1="420.17" y1="1579.2" x2="420.17" y2="1657.19" gradientUnits="userSpaceOnUse"><stop offset="0" stop-color="#cfcfcf"/><stop offset="0.4" stop-color="#adadad"/><stop offset="1" stop-color="#7d7d7d"/></linearGradient><linearGradient id="linear-gradient-14" x1="366.8" y1="1620.4" x2="366.8" y2="1582.14" gradientUnits="userSpaceOnUse"><stop offset="0" stop-color="#999"/><stop offset="1" stop-color="#ccc"/></linearGradient><linearGradient id="linear-gradient-15" x1="145.71" y1="1624.82" x2="145.71" y2="1800.66" gradientUnits="userSpaceOnUse"><stop offset="0" stop-color="#d3a759" stop-opacity="0"/><stop offset="0.01" stop-color="#d1a658" stop-opacity="0.02"/><stop offset="0.17" stop-color="#bc914f" stop-opacity="0.32"/><stop offset="0.33" stop-color="#ab8047" stop-opacity="0.56"/><stop offset="0.49" stop-color="#9d7341" stop-opacity="0.76"/><stop offset="0.65" stop-color="#94693c" stop-opacity="0.89"/><stop offset="0.82" stop-color="#8e643a" stop-opacity="0.97"/><stop offset="1" stop-color="#8c6239"/></linearGradient><linearGradient id="linear-gradient-16" x1="-3438.09" y1="-2319.22" x2="-3438.09" y2="-2075.32" gradientTransform="translate(-2726.8 4121.64) rotate(110.64)" gradientUnits="userSpaceOnUse"><stop offset="0" stop-color="#d3a759" stop-opacity="0"/><stop offset="0" stop-color="#d3a759" stop-opacity="0.01"/><stop offset="0.07" stop-color="#d3a759" stop-opacity="0.31"/><stop offset="0.14" stop-color="#d3a759" stop-opacity="0.55"/><stop offset="0.2" stop-color="#d3a759" stop-opacity="0.75"/><stop offset="0.26" stop-color="#d3a759" stop-opacity="0.89"/><stop offset="0.31" stop-color="#d3a759" stop-opacity="0.97"/><stop offset="0.34" stop-color="#d3a759"/><stop offset="0.72" stop-color="#a77d45"/><stop offset="1" stop-color="#8c6239"/></linearGradient><radialGradient id="radial-gradient-14" cx="-167.9" cy="1418.27" r="35.69" gradientTransform="translate(426.69 188.32) scale(1.15 0.92)" gradientUnits="userSpaceOnUse"><stop offset="0" stop-color="#422f14"/><stop offset="0.49" stop-color="#422f14" stop-opacity="0.97"/><stop offset="0.66" stop-color="#422f14" stop-opacity="0.87"/><stop offset="0.79" stop-color="#422f14" stop-opacity="0.69"/><stop offset="0.89" stop-color="#422f14" stop-opacity="0.43"/><stop offset="0.98" stop-color="#422f14" stop-opacity="0.11"/><stop offset="1" stop-color="#422f14" stop-opacity="0"/></radialGradient><radialGradient id="radial-gradient-15" cx="-152.07" cy="1437.54" r="40.42" gradientTransform="translate(634.36 360.44) scale(1.23 0.79)" xlink:href="#radial-gradient-14"/><radialGradient id="radial-gradient-16" cx="241.73" cy="1459.27" r="24.28" gradientUnits="userSpaceOnUse"><stop offset="0" stop-color="#94e8ff"/><stop offset="0.14" stop-color="#90e2f9"/><stop offset="0.33" stop-color="#83d2e9"/><stop offset="0.54" stop-color="#6fb6cf"/><stop offset="0.76" stop-color="#5290aa"/><stop offset="1" stop-color="#2f617c"/></radialGradient><radialGradient id="radial-gradient-17" cx="442.59" cy="1451.18" r="27.96" xlink:href="#radial-gradient-16"/><linearGradient id="linear-gradient-17" x1="887.66" y1="970.18" x2="879.82" y2="1034.07" gradientUnits="userSpaceOnUse"><stop offset="0" stop-color="#ffce58"/><stop offset="0.47" stop-color="#fecc57"/><stop offset="0.64" stop-color="#f9c554"/><stop offset="0.76" stop-color="#f1ba4f"/><stop offset="0.86" stop-color="#e5a948"/><stop offset="0.94" stop-color="#d6933f"/><stop offset="1" stop-color="#c77e36"/></linearGradient><linearGradient id="linear-gradient-18" x1="887.83" y1="968.85" x2="879.65" y2="1035.41" xlink:href="#linear-gradient-17"/><radialGradient id="radial-gradient-18" cx="885.35" cy="952.1" r="41.71" gradientUnits="userSpaceOnUse"><stop offset="0" stop-color="#fff18f"/><stop offset="0.33" stop-color="#fff08a"/><stop offset="0.69" stop-color="#ffed7d"/><stop offset="1" stop-color="#ffea6c"/></radialGradient><radialGradient id="radial-gradient-19" cx="885.35" cy="952.1" r="42.97" xlink:href="#radial-gradient-18"/></defs><title>game</title><rect class="cls-1" y="445" width="1242" height="1763"/><rect class="cls-2" width="1242" height="445"/><path class="cls-3" d="M-1,553.22s192.46-39,400.48,2.15,204.17-13,464.59-9.43S1241,570.87,1241,570.87V714.09S820.5,671.5,614.5,697.5,239,686,239,686,58.5,671.63-1,705Z"/><path class="cls-4" d="M489.74,101.62a65,65,0,0,0-92.49-31,85.64,85.64,0,0,0-108-16.2,85.63,85.63,0,0,0-82.75,0A85.66,85.66,0,0,0,83.09,95.08q-2.79-.27-5.64-.27a58.45,58.45,0,1,0,36.81,103.84,85.65,85.65,0,0,0,89.36,4,85.65,85.65,0,0,0,88.48,0,85.59,85.59,0,0,0,106.1-18.94A65.1,65.1,0,0,0,449.33,189a51,51,0,1,0,40.41-87.34Z"/><path class="cls-5" d="M919.74,314.62a65,65,0,0,0-92.49-31,85.64,85.64,0,0,0-108-16.2,85.63,85.63,0,0,0-82.75,0,85.66,85.66,0,0,0-123.4,40.66q-2.79-.27-5.64-.27a58.45,58.45,0,1,0,36.81,103.84,85.65,85.65,0,0,0,89.36,4,85.65,85.65,0,0,0,88.48,0,85.59,85.59,0,0,0,106.1-18.94A65.1,65.1,0,0,0,879.33,402a51,51,0,1,0,40.41-87.34Z"/><rect class="cls-6" x="207.07" y="375" width="822.29" height="1226" rx="121.59" ry="121.59"/><path class="cls-7" d="M907.78,381a116,116,0,0,1,115.59,115.59v982.82A116,116,0,0,1,907.78,1595H328.66a116,116,0,0,1-115.59-115.59V496.59A116,116,0,0,1,328.66,381H907.78m0-12H328.66c-70.17,0-127.59,57.42-127.59,127.59v982.82c0,70.17,57.42,127.59,127.59,127.59H907.78c70.17,0,127.59-57.42,127.59-127.59V496.59C1035.37,426.42,978,369,907.78,369Z"/><path class="cls-8" d="M324.13,666.5l13.27,7.7h16.69q15.84,0,26.33-5.78,11.55-6,13.48-16.9c.28,3.28.57,5.78.85,7.49a28.44,28.44,0,0,0,1.72,9.2c.42.86.92,1.28,1.49,1.28a5.7,5.7,0,0,0,1.72-.21h27.17a2.52,2.52,0,0,1,.43-.64h.64l.43.43a5.27,5.27,0,0,0,2.14.21h.64l4.71-.21a58.91,58.91,0,0,1,8.35-.43q1.06-2.35,1.5-11.13.42-5.34.42-18.83v-1.07a11.55,11.55,0,0,1,.22-2.36q.21-1.07.42-1.92V598.88a8.15,8.15,0,0,1-.21-1.93,7.87,7.87,0,0,0-1-4.39,6.06,6.06,0,0,0-3.75-2c-1.14-.14-3.63-.22-7.49-.22q-3.21.23-13.26.22H398.39a16.33,16.33,0,0,1-3.64-.22,3,3,0,0,0-2.35.75,4.21,4.21,0,0,0-.64,2.68v5.78q0,9.63.21,14.55l.22,4.71c.28,4.56.42,8,.42,10.27a34.35,34.35,0,0,1-12.84,3,14.63,14.63,0,0,1-13.27-7.27q-5.34-7.71-5.34-25.68,0-19.7,8.34-28,7.06-7.26,20.54-7.27a54.12,54.12,0,0,1,8.35.85q5.57.87,17.34,3.86c1.71.42,3.24.85,4.6,1.28s2.53.79,3.53,1.07l8.34-36.38q-29.1-13.9-56.49-13.91a111,111,0,0,0-34.46,5.14,81.75,81.75,0,0,0-27.6,15,66.93,66.93,0,0,0-18.41,24.61q-6.42,14.55-6.42,32.74,0,25.68,10.7,44.51Q309.15,659.22,324.13,666.5Z"/><path class="cls-9" d="M492.76,669.07h17.12a7.18,7.18,0,0,0,.86-.11c.43-.07,1-.18,1.71-.32h6l8.13-.43a3.66,3.66,0,0,1,1.07.43,2.48,2.48,0,0,0,1.72.43h.42c.57-.14,1.07-.29,1.5-.43l1.29-.43c.85-1.42,1.78-4.21,2.78-8.35s1.57-6.56,1.71-7.27a34.78,34.78,0,0,1,1.07-5.35H549a74.64,74.64,0,0,0,10.28-.64q3.21,16.68,5.56,21.61c2.28,0,5.14.14,8.56.43a11.6,11.6,0,0,1,3.85.43h2.14a.38.38,0,0,0,.43-.43l.64-.43a1.75,1.75,0,0,1,1.29.43l.21.43h11.77a3.58,3.58,0,0,0,1.71.21h12.84a33,33,0,0,0,4.28.21H615a3.28,3.28,0,0,0,3-2.14,25.58,25.58,0,0,0,.43-4.06,37.05,37.05,0,0,0-.86-6.85,24.79,24.79,0,0,1-.64-4.06q-4.07-18.84-11.13-46l-15.19-56.49c0-.71-.5-1.43-1.5-2.14h-1.92a4.66,4.66,0,0,1-2.14-.43,11.24,11.24,0,0,0-1.07-.43,4.15,4.15,0,0,0-1.29-.21h-8.13q-4.07,0-6.21-.22h-6q-3.85-.21-7.92-.21h-7.06l-9.41.43a16.71,16.71,0,0,0-4.07.43l-11.13.21a47.92,47.92,0,0,1-7.92-.64c-1.71-.14-4.28-.22-7.7-.22a31.71,31.71,0,0,0-4.49.22,10.54,10.54,0,0,1-4.07.64H497a8.64,8.64,0,0,0-1.28,1.07,1.76,1.76,0,0,0-.64,1.07l-14.56,56.92q-6,22.7-10.91,46a7.8,7.8,0,0,1-.21,1.6,11.12,11.12,0,0,0-.22,2.46,18.61,18.61,0,0,0-1.07,5.78q-.86,7.28-.85,7.27h6.63a28.1,28.1,0,0,0,4.07-.21h5.13c4,0,6.64-.07,7.92-.21ZM542,614.71a46.6,46.6,0,0,1,.86-5.56l.64-4.71,1.71-9.85,1.5-8.77c.28-1.28.5-2.46.64-3.53s.29-2,.43-2.68a8.88,8.88,0,0,1,.43-1.81,2.54,2.54,0,0,0,.21-.75v-1.5l.43-1.29.21,1.29a2.62,2.62,0,0,1,.43,1.5l.43,2.56a9.37,9.37,0,0,1,.64,2.89c.14,1.36.29,2.46.43,3.32.28,1.28.54,2.68.75,4.17a46,46,0,0,0,1,4.82c.14,1.43.36,3,.64,4.6s.57,3.46.86,5.46l1.71,10.27c.14.85.22,1.28.22,1.28s.42,2.43,1.28,7.28a8,8,0,0,1-2.57-.43l-1.39-.43a6.85,6.85,0,0,0-1.82-.21H551a1.32,1.32,0,0,0-.64.32,5.4,5.4,0,0,0-.64.53h-9.42Q540.06,624.35,542,614.71Z"/><path class="cls-10" d="M796.64,669.49h1.71l8.14-1.92.64-1.5v-2.14a37.18,37.18,0,0,1-.22-5.14q0-4.27-.21-6.84l-.21-9c0-3.28-.08-5.85-.22-7.71v-6.42q1.71-18,1.71-27.6v-10.7q0-16.49-.42-24.61,0-6.63-.65-17.55c-.42-1.85-.71-2.78-.85-2.78a21,21,0,0,1-3.85-.21h-38.1l-14.55.21a1.37,1.37,0,0,0-1.28.85,20.82,20.82,0,0,0-3.43,4.5,29.16,29.16,0,0,0-1.92,3.64q-.85,1.92-1.29,3.21l-3.21,6.84q-3,6.64-3.63,7.71-2.58,5.56-3,6.42l-3.42,7.92a10.3,10.3,0,0,1-1.29,2.78c-.71,1.85-1.71,2.78-3,2.78q-2.15,0-3.86-5.56-2.36-5.14-5.77-13.91-4.29-10.71-5.78-15a38,38,0,0,0-3.21-6.85,25.57,25.57,0,0,0-3.43-4.5,7.27,7.27,0,0,0-1.07-.85l-14.55-.21H655.19a27.73,27.73,0,0,0-7.49.85q-5.15,1.5-5.14,4.71a2.09,2.09,0,0,0,.64,1.5v4.92l.22,5.13-.22,11.35a72.56,72.56,0,0,0-.64,9.63l.22,1.28v2.14a13.64,13.64,0,0,1,.42,3.64q0,13.28-.42,19.26-.64,9.19-.65,19c0,2.72.08,4.86.22,6.42l.21,16.27a60.23,60.23,0,0,0,.43,6.63l.21,5.78v2.14l.65,1.5,8.13,1.92h8.56l1.07.43h1.92q8.78,0,17.44-.75c5.78-.49,9.31-.82,10.6-1l.85.21h1.07c.29,0,.54-.21.75-.64a7.26,7.26,0,0,0,.54-1.5q1.28-4.49,1.28-13.69.21-5.77.22-18.83V625.2a1.32,1.32,0,0,1,1.49-1.5l1.5,2.14c.29.85.68,1.85,1.18,3s1,2.57,1.6,4.28A203.48,203.48,0,0,0,716,658.58a19.88,19.88,0,0,0,3.43.21,26.17,26.17,0,0,0,4.06.22h6.64a8.23,8.23,0,0,0,5.78-2.78A47.43,47.43,0,0,0,744.21,643l1.71-3.43,1.5-4.49q.65-1.92,3.85-9.63.65-1.71,1.29-1.71a1.33,1.33,0,0,1,1.5,1.5q0,9.19.42,14.55,0,19.05,1.07,24.61c0,2.71.43,4.06,1.29,4.06h1.07l.85-.21c1.43.14,5.07.47,10.92,1s11.55.75,17.12.75a10.17,10.17,0,0,0,3.21-.43h6.63Z"/><path class="cls-11" d="M943,559.93a37.1,37.1,0,0,0-1.29-6.85,21,21,0,0,0-1.6-5.57,3,3,0,0,0-2.68-1.92h-6.84a1.76,1.76,0,0,0-1.07-.64q-10.71,0-18.19.43a95.77,95.77,0,0,0-14.56,1.92l-1.07-.86h-3.21a16.92,16.92,0,0,1-3.21.22q-9.19,0-18.19-.64-6-.43-18.19-.43H841.15c-4.85.85-7.27,2.14-7.27,3.85q-1.29,16.48-1.29,46.87,0,11.34.22,15.19.21,3.64.21,10.06v5.13c0,3,.07,5.35.22,7.07q0,5.78.85,15.62a34,34,0,0,0,2.78,10.7,10.69,10.69,0,0,0,1.07,2.78,11.94,11.94,0,0,0,2.14,4.71c.14.57.36.85.65.85h67.83q3.21-1.49,11.13-1.49l1.71.21a1.75,1.75,0,0,0,1.29.43h3.21l2.57-.22v1.07a14.9,14.9,0,0,1,1.49-.85l1.29-.64a2.69,2.69,0,0,1,1.5.42,11.82,11.82,0,0,0,3,.22h2.14l1.71-1.5v-6.63l-1.49-6.21a36.36,36.36,0,0,1-1.29-6,8.57,8.57,0,0,0-.43-2.78,5.58,5.58,0,0,0-.42-2.25c-.29-.64-.65-1-1.07-1q-9.63,0-19.48.64-10,.65-19.69.64v-5.35a33,33,0,0,1,.22-4.49l.21-4.71a3.74,3.74,0,0,1-.21-1.5v-.86a5.51,5.51,0,0,1,.85-3.42,2.37,2.37,0,0,1,1.93-1.6,22.52,22.52,0,0,1,4.49-.33h15.63q11.55,0,15.62-.85,7.06-1.06,6.42-4.5l-4.5-14.12a4.83,4.83,0,0,0-1.07-2.78,3.32,3.32,0,0,0-3-1.29,21,21,0,0,1-5.14-1.28,6.33,6.33,0,0,0-3.21-.64,1.87,1.87,0,0,0-.85.21,1.49,1.49,0,0,0-.65.64H904.28a2.78,2.78,0,0,0-1.07-.64,3.51,3.51,0,0,0-1.07-.21,2.89,2.89,0,0,1-2.14.85,3.12,3.12,0,0,1-2.46-.85,5,5,0,0,1-.75-3.21,37.12,37.12,0,0,1,.22-4.28,32.87,32.87,0,0,1,1.92-10.06c.43-1.42.93-2.14,1.5-2.14v.43a12.71,12.71,0,0,1,4.5-1.29c2.7-.28,7.13-.42,13.26-.42a33.1,33.1,0,0,0,5.68-.43c1.63-.29,2.74-.5,3.31-.64a18.8,18.8,0,0,1,4.5-.65,5.34,5.34,0,0,1,1.92.22,3.46,3.46,0,0,0,2.14.64,6.08,6.08,0,0,0,2.78-.64,4.57,4.57,0,0,1,2.36-.22l.85.22c.29.43.5.64.65.64,1.42,0,2.14-2,2.14-6A44.58,44.58,0,0,1,943,559.93Z"/><path class="cls-12" d="M425.14,733.11a104,104,0,0,0-34.24-5.56q-23.32,0-39.48,4.6T325,746.6q-10.28,9.84-15.2,25.25t-4.92,37.45q0,30.81,12.41,48.15Q328,872,348.53,877.35q14.76,4.06,40.23,4.07,27,0,42.16-5.78a54.17,54.17,0,0,0,28.46-24q9.84-18.4,9.84-51.36,0-28.24-13.48-45.58Q444.84,740.18,425.14,733.11Zm-28.25,68.7v8.56q0,12-1.28,25.46-1.29,14.77-4.5,21.62c-1,2.14-2.35,3.21-4.06,3.21q-4.71,0-6.85-11.13a148.27,148.27,0,0,1-2.14-23.33q-.65-7.91-.64-20.11,0-18.2.64-26.75a133,133,0,0,1,2.14-22.47q2.15-9,6.85-9,2.35,0,4.06,3.64,3.21,7.49,4.5,22,1.27,13.49,1.28,22.9Z"/><path class="cls-13" d="M629.94,754.09h-6.42a41,41,0,0,1-4.71.21l-8.13.21H597.41a.45.45,0,0,1-.11.33.44.44,0,0,0-.1.32c0,.14-.51.21-1.5.21-.15,0-.29-.21-.43-.64l-.21-.22h-.43l-1.5.22h-3.42a66.34,66.34,0,0,1-9,.64,17.58,17.58,0,0,0-1.71,4.71,116.1,116.1,0,0,0-3,13.69l-1.07,5.14q-1.5,6.42-2.35,11.77a3.84,3.84,0,0,1-.22.86,14.85,14.85,0,0,0-.43,2.56c-.28,1.43-.57,3-.85,4.71s-.64,3.5-1.07,5.35l-1.29,7.71q-1.71,11.55-3,17.76l-.43,3.21a4.52,4.52,0,0,0-.21,1.71.87.87,0,0,1-.22.64.9.9,0,0,0-.21.64,7.51,7.51,0,0,1-.22-1.92v-1.07l-.42-3.21q-2.14-10.7-3.21-17.76-1.5-7.5-3.21-17.77l-.65-3.42-1.07-5.14-1.28-6.63-1.93-10.27c-1.42-7.28-2.64-11.7-3.63-13.27a69.75,69.75,0,0,1-11.13-.64q-3.85,0-6-.22h-.86l-1.71.22a1.42,1.42,0,0,1-.64.64,2.27,2.27,0,0,1-1.18-.32,3.47,3.47,0,0,1-.75-.54h-13l-3-.21h-6.42q-4.5,0-7.06-.21H493a2.67,2.67,0,0,0-2.78,2.14,10.64,10.64,0,0,0-.43,3.63,43.3,43.3,0,0,0,.85,7.07c.14.71.29,1.39.43,2a8.59,8.59,0,0,1,.22,1.82q5.13,24.39,10.7,45.37l17.12,57.78c0,.71.56,1.42,1.71,2.14h1.92a7.65,7.65,0,0,1,2.36.42l1.07.43h2.14a48.32,48.32,0,0,0,7.49-.43q5.13-.42,7.92-.42l2.14.21h4.49a39,39,0,0,1,4.71.64h16.69a103.89,103.89,0,0,0,12-.43,4,4,0,0,0,2.36-.42,37.86,37.86,0,0,1,5.13.42,21.33,21.33,0,0,0,4.93.43,4.75,4.75,0,0,0,2.14-.43,7.07,7.07,0,0,1,2.14-.42h1.71a5.62,5.62,0,0,0,1.17-1.07,1.87,1.87,0,0,0,.54-1.07L621,816.15q4.5-16,10.7-45.37a33.2,33.2,0,0,1,.86-3.85l1.07-5.78C633.58,756.44,632.36,754.09,629.94,754.09Z"/><path class="cls-14" d="M765.83,760.08a21.33,21.33,0,0,0-1.61-5.57,2.94,2.94,0,0,0-2.67-1.92H754.7a1.76,1.76,0,0,0-1.07-.64q-10.71,0-18.19.43a95.47,95.47,0,0,0-14.55,1.92l-1.07-.86h-3.21a17.06,17.06,0,0,1-3.21.22q-9.21,0-18.19-.64-6-.43-18.19-.43H665.25c-4.86.85-7.28,2.14-7.28,3.85q-1.29,16.48-1.28,46.87,0,11.34.21,15.19.21,3.64.21,10.06v5.13c0,3,.07,5.35.22,7.07q0,5.78.85,15.62a33.68,33.68,0,0,0,2.79,10.7,10,10,0,0,0,1.07,2.78,11.8,11.8,0,0,0,2.14,4.71c.14.57.35.85.64.85h67.84q3.21-1.49,11.12-1.49l1.72.21a1.71,1.71,0,0,0,1.28.43H750l2.57-.22v1.07a15.14,15.14,0,0,1,1.5-.85l1.28-.64a2.69,2.69,0,0,1,1.5.42,11.88,11.88,0,0,0,3,.22H762l1.72-1.5v-6.63l-1.5-6.21a37.42,37.42,0,0,1-1.29-6,8.85,8.85,0,0,0-.42-2.78,5.57,5.57,0,0,0-.43-2.25c-.29-.64-.64-1-1.07-1q-9.63,0-19.48.64-10.05.65-19.68.64v-5.35a35.15,35.15,0,0,1,.21-4.49l.21-4.71a3.74,3.74,0,0,1-.21-1.5v-.86a5.44,5.44,0,0,1,.86-3.42,2.35,2.35,0,0,1,1.92-1.6,22.64,22.64,0,0,1,4.5-.33h15.62q11.55,0,15.62-.85,7.07-1.06,6.42-4.5l-4.49-14.12a4.9,4.9,0,0,0-1.07-2.78,3.35,3.35,0,0,0-3-1.29,21,21,0,0,1-5.14-1.28,6.33,6.33,0,0,0-3.21-.64,1.9,1.9,0,0,0-.85.21,1.42,1.42,0,0,0-.64.64H728.38a2.94,2.94,0,0,0-1.07-.64,3.62,3.62,0,0,0-1.07-.21,2.93,2.93,0,0,1-2.14.85,3.13,3.13,0,0,1-2.47-.85,5,5,0,0,1-.74-3.21,39.67,39.67,0,0,1,.21-4.28A32.83,32.83,0,0,1,723,784.26c.43-1.42.92-2.14,1.49-2.14v.43a12.77,12.77,0,0,1,4.5-1.29q4.07-.42,13.27-.42a32.89,32.89,0,0,0,5.67-.43c1.64-.29,2.74-.5,3.31-.64a18.87,18.87,0,0,1,4.5-.65,5.3,5.3,0,0,1,1.92.22,3.46,3.46,0,0,0,2.14.64,6.15,6.15,0,0,0,2.79-.64,4.53,4.53,0,0,1,2.35-.22l.86.22c.28.43.49.64.64.64,1.42,0,2.14-2,2.14-6a44.58,44.58,0,0,1-1.5-7.06A38,38,0,0,0,765.83,760.08Z"/><path class="cls-15" d="M928.68,854a21.26,21.26,0,0,1-1.71-3.63q-5.36-6.63-9.42-12.2a39.74,39.74,0,0,1-2.89-3.64,36.7,36.7,0,0,0-2.46-3.21q-6.21-9.63-7.49-12.84A40.12,40.12,0,0,0,915.2,811q6.84-8.13,6.84-20.12A41.15,41.15,0,0,0,920.23,778a23.19,23.19,0,0,0-6.1-9.53q-9.86-8.34-34.24-11.77-24.82-3.42-74.9-3.42a28.26,28.26,0,0,0-7.92.86q-5.36,1.27-5.35,4.28a1.85,1.85,0,0,0,.64,1.28v5.14a10.65,10.65,0,0,0,.22,2.78v2.14q0,5.77-.43,12.2a34.74,34.74,0,0,1-.22,4.49l-.21,5.35V793a5.47,5.47,0,0,1,.43,2.36v2.14l.21,1.71a8.09,8.09,0,0,1-.21,1.93v3.63a10.06,10.06,0,0,1-.43,3.43v1.92a52.21,52.21,0,0,0,.21,5.35l.22,6.42,1.07,11.77q0,1.5.43,6.64.21,5.35,1.06,16.9.43,4.08,1.08,13.06a11.15,11.15,0,0,0,.1,1.28c.07.57.25.86.54.86l.43,1.5,6.63,2.14H805a19.67,19.67,0,0,0,3.42.21h7.28q10.69,0,34.24-1.71h2.14c.14,0,.5-.78,1.07-2.36l.21-6.42q.85-10.69.86-18.61,0-12.21.21-15l.86-.43h1.07l.43.43,3.63,5.77q9.84,15.84,14.55,22l6.64,9.41,9.42,9.2c.28.43,1.07.29,2.35-.42a68.66,68.66,0,0,0,11.77-5.14A63.86,63.86,0,0,0,916.91,866a20.79,20.79,0,0,0,2.57-2.14q8.34-4.92,10.06-7.49a2.31,2.31,0,0,0,.32-1.39C929.78,854.63,929.39,854.31,928.68,854Zm-57.14-58.63a28.89,28.89,0,0,1-5.56,4.28,25,25,0,0,1-6.42,2.57,36.08,36.08,0,0,1-7.49,1.07q0-9,.43-13.27l.21-4.5c.28-4,.43-6.91.43-8.77h9.2a12.29,12.29,0,0,1,7.92,2.57A13.05,13.05,0,0,1,873.9,789,9.63,9.63,0,0,1,871.54,795.39Z"/><path class="cls-16" d="M639.9,1287.28a18.21,18.21,0,0,0-16.45-6.14l-167.83,24.52a17.57,17.57,0,0,0-13.81,10.56,16.29,16.29,0,0,0,2.64,16.71l105.86,126.68a18.21,18.21,0,0,0,16.45,6.14,17.6,17.6,0,0,0,13.82-10.56l62-151.21A16.27,16.27,0,0,0,639.9,1287.28Z"/><path class="cls-17" d="M289.8,1307.2a17.66,17.66,0,0,0-10.8-14l-158.34-64.59a17.66,17.66,0,0,0-24.2,18.71l24.16,168.27a17.67,17.67,0,0,0,10.8,14,18,18,0,0,0,5.09,1.24,17.65,17.65,0,0,0,12.41-3.61l134.18-103.7A17.65,17.65,0,0,0,289.8,1307.2Z"/><path class="cls-18" d="M264.84,1328.48a7.35,7.35,0,0,0-4.06-5.91L133.46,1260a7.19,7.19,0,0,0-2.5-.73,7.36,7.36,0,0,0-8,8.64l26.77,138.33a7.37,7.37,0,0,0,4.56,5.53,7.26,7.26,0,0,0,1.92.46,7.39,7.39,0,0,0,5.19-1.44L261.94,1335A7.33,7.33,0,0,0,264.84,1328.48Z"/><path class="cls-19" d="M617.58,1305.27a7.35,7.35,0,0,0-5.67-2.67,7.25,7.25,0,0,0-1.79.22l-141.8,35.47a7.35,7.35,0,0,0-3.89,11.82l80.18,97.08a7.37,7.37,0,0,0,5.67,2.67,7.54,7.54,0,0,0,.94-.06,7.35,7.35,0,0,0,5.73-4.2l61.63-132.54A7.36,7.36,0,0,0,617.58,1305.27Z"/><ellipse class="cls-20" cx="510.27" cy="2055.96" rx="40.47" ry="77.25"/><ellipse class="cls-21" cx="307.94" cy="2056.7" rx="40.47" ry="77.25"/><path class="cls-22" d="M683.6,1803.1s51.07-140.15-23.86-211.83c-104.5-100,26.82-197.13,26.82-197.13s-118,99.28-30.22,182.91,46.17,226.24,46.17,226.24Z"/><path class="cls-22" d="M680.2,1805.46a4.14,4.14,0,0,1-.49-3.78,329.36,329.36,0,0,0,15.93-77.93c3-39.25-1.23-93.58-38.76-129.49-29.57-28.29-43.52-59.16-41.46-91.75,2.09-33.12,20.7-61.76,35.93-79.94a212.1,212.1,0,0,1,32.75-31.76,4.14,4.14,0,0,1,5.12,6.49,225.8,225.8,0,0,0-30,32.4c-13.71,18-30.26,45.73-31.18,75.52-.78,25.24,9.71,48.4,31.16,68.84,36.73,35,56.54,86,57.3,147.42.57,46.2-9.58,81.49-10,83a4.14,4.14,0,0,1-4,3l-18.91-.19A4.16,4.16,0,0,1,680.2,1805.46Zm28-83.87a251,251,0,0,0-6.24-53.47,236.42,236.42,0,0,1,1.91,56.27A341.58,341.58,0,0,1,689.34,1799l10,.1A314.86,314.86,0,0,0,708.22,1721.59Z"/><ellipse class="cls-23" cx="419.36" cy="2121.54" rx="538.99" ry="155.55"/><path class="cls-24" d="M670.67,1625.66c-35.74-39.32-72.22-48.59-78-83.25-2.95-17.65,5.88-30.9-4.42-70.63-3.13-12.06-13.24-39.73-16.18-55.91-19.57-107.64-93.75-119.19-214.84-119.19-113.56,0-191.68-1.23-229.55,103-15.68,40.84-29.43,55.92-30.9,103-.64,20.34,14.39,61.51,11.77,82.41-2.79,22.26-21.62,64.74-25,91.23-4.45,34.72-5.87,51.94-2.94,89.07,1.47,16.6,2.94,30.43,5.88,49.8,21.84,143.71,154,262.85,344,262.85s310.85-109.4,310.85-254.57C741.3,1766.87,710.49,1668.56,670.67,1625.66Z"/><ellipse class="cls-25" cx="399.18" cy="1823.47" rx="236.17" ry="198.65"/><path class="cls-26" d="M446.38,1325l-28.32-16.33,10.8-8.9a2.21,2.21,0,0,0-.9-3.86l-18.1-4.18,5.29-2.61a2.23,2.23,0,0,0,1.23-2,2.2,2.2,0,0,0-1.2-2l-21.45-11-3-37.11a2.21,2.21,0,0,0-3.68-1.47l-8.89,8-1.79-14.67a2.21,2.21,0,0,0-3.77-1.27l-16.86,17.19L349.14,1228a2.21,2.21,0,0,0-3.95-.33l-15.12,25.13-22.43-4.06a2.21,2.21,0,0,0-2.37,3.15l7.82,15.84-26.84-6.41a2.2,2.2,0,0,0-2.53,3l6.76,15.17-34.27,2.1a2.2,2.2,0,0,0-2,1.55,2.23,2.23,0,0,0,.76,2.4l36,27.81-15.08,23.31a2.2,2.2,0,0,0,2.73,3.22l18.44-8.07-2.22,5.18a2.2,2.2,0,0,0,3.18,2.75l24.34-14.87,10.75,24.18a2.22,2.22,0,0,0,1.66,1.29,2.32,2.32,0,0,0,2-.69l15.79-17.22L372.8,1340a2.21,2.21,0,0,0,4.21,0l5.35-17.4,62.68,6.53a2.19,2.19,0,0,0,2.33-1.51A2.22,2.22,0,0,0,446.38,1325Z"/><polyline class="cls-27" points="713.97 1452.89 713.99 1433.32 747.81 1428.94 734.54 1417.46 741.33 1404.82 723.64 1402.9 729.94 1396.09 712.06 1388.07 701.93 1351.04 695.96 1363.41 690.41 1345.29 681.35 1367.3 671.74 1348.87 666.38 1377.05 649.08 1376.33 660.07 1394.49 636.97 1391.77 646.28 1408.26 621.1 1416 652.97 1438.88 647.13 1465.72 661.1 1452.19 660.23 1462.91 674.98 1443.19 688.6 1467.36 695.99 1447.71"/><path class="cls-28" d="M734.81,1417.76a2.42,2.42,0,0,1-1.11-1.53,2.71,2.71,0,0,1,.15-2l5-9.35-14.5-1.57a2.08,2.08,0,0,1-1.56-1.6,2.54,2.54,0,0,1,.36-2.37l4-4.34-14.78-6.63a2.38,2.38,0,0,1-1.19-1.57l-9-32.73-4.33,9a1.21,1.21,0,0,1-1.45.74,2.19,2.19,0,0,1-1.35-1.55l-4.2-13.76-7.56,18.34a1.27,1.27,0,0,1-1.25.9,1.81,1.81,0,0,1-1.39-1.08l-7.61-14.61-4.58,24.1c-.16.84-.7,1.38-1.35,1.35l-14.18-.59,8.83,14.6a3,3,0,0,1,.32,2.34,1.32,1.32,0,0,1-1.37,1.08l-19.9-2.35,7.21,12.77a3.1,3.1,0,0,1,.34,2,1.59,1.59,0,0,1-1,1.29l-21.24,6.53,27.93,20a2.86,2.86,0,0,1,1,2.8l-4.4,20.23,10-9.67a1.23,1.23,0,0,1,1.76.09,2.92,2.92,0,0,1,.84,2.31l-.33,4.1,11.46-15.32a1.16,1.16,0,0,1,1.19-.49,1.92,1.92,0,0,1,1.19,1l12,21.36,6.34-16.88a1.25,1.25,0,0,1,2.11-.59,2.9,2.9,0,0,1,.75,3l-7.39,19.64a1.39,1.39,0,0,1-1,.94,1.06,1.06,0,0,1-.25,0,1.77,1.77,0,0,1-1.41-1l-12.44-22.07-13.55,18.12a1.21,1.21,0,0,1-1.83.17,2.87,2.87,0,0,1-.93-2.39l.43-5.39-10.93,10.6a1.27,1.27,0,0,1-1.89-.21,3,3,0,0,1-.66-2.54l5.44-25-30.5-21.9a2.8,2.8,0,0,1-1-2.23,1.79,1.79,0,0,1,1-1.81l23-7.08-7.81-13.84a3,3,0,0,1-.27-2.31,1.32,1.32,0,0,1,1.36-1l19.74,2.33-8.68-14.35a3,3,0,0,1-.33-2.28,1.34,1.34,0,0,1,1.3-1.14l16.21.67,5.1-26.79A1.46,1.46,0,0,1,672,1345a1.73,1.73,0,0,1,1.58,1.08l8.09,15.52,7.94-19.29a1.25,1.25,0,0,1,1.46-.87,2.19,2.19,0,0,1,1.39,1.57l4.31,14.08,4.4-9.14a1.22,1.22,0,0,1,1.49-.74,2.27,2.27,0,0,1,1.34,1.63l9.81,35.85,17,7.64a2.7,2.7,0,0,1,.8,3.86l-3.07,3.32,13.27,1.44a2,2,0,0,1,1.48,1.36,2.82,2.82,0,0,1-.05,2.27l-5.53,10.3,11,10.33a2.71,2.71,0,0,1,1.23,2.39c0,1-.55,1.79-1.28,1.83l-32.55,4.29,0,17.8c0,1.19-.7,2-1.58,1.83a2.48,2.48,0,0,1-1.58-2.48l0-19.57c0-1,.54-1.82,1.28-1.86"/><path class="cls-29" d="M361.66,1550.21c49.21-15.49,53.7-21.78,53.7-21.78"/><path class="cls-29" d="M362.19,1555.87c51.37-4.68,57.59-.95,57.59-.95"/><path class="cls-29" d="M363.42,1564.71c51.46,3.54,53.41,7.87,53.41,7.87"/><path class="cls-29" d="M322,1550.21c-49.2-15.49-56.73-14.42-56.73-14.42"/><path class="cls-29" d="M321.48,1555.87c-51.38-4.68-56.21.52-56.21.52"/><path class="cls-29" d="M320.25,1564.71c-51.47,3.54-53.51,10.81-53.51,10.81"/><circle cx="341.05" cy="1557.13" r="8.83"/><circle class="cls-30" cx="346.94" cy="1605.69" r="20.6"/><path class="cls-31" d="M480.11,1610.84s6.06-28.12,34.44-11.9,19.82-18,12.76-28.48,7-18.75,7-18.75,10.2-10.45-16-28.84c-16.15-11.35-1.91-16.22,2.87-20.19"/><ellipse class="cls-32" cx="384" cy="1582.68" rx="15.45" ry="18.4" transform="translate(-198.36 61.76) rotate(-7.31)"/><ellipse class="cls-33" cx="420.17" cy="1618.2" rx="68.81" ry="38.99"/><ellipse class="cls-34" cx="366.8" cy="1601.27" rx="15.45" ry="19.13"/><path class="cls-35" d="M192.43,1624.82c0,66.21-4.45,175.84-46.72,175.84C109.37,1800.66,99,1723,99,1656.79"/><path class="cls-36" d="M638.29,1767.55c-71.52-26.94-226.64-97.62-210.31-133.47,17.81-39.13,152.77,5.91,223.69,34.33"/><ellipse class="cls-37" cx="234.37" cy="1487.97" rx="46.35" ry="35.32"/><ellipse class="cls-38" cx="447.74" cy="1489.44" rx="59.6" ry="33.84"/><path class="cls-39" d="M207.14,1485.47s-1-56.39,27.23-53.47,27.22,50.55,27.22,50.55Z"/><path class="cls-6" d="M410,1482.85s3.57-78.08,42.31-71.59,33.25,72.29,33.25,72.29Z"/><path class="cls-6" d="M485.58,1495.33h-.11l-75.56-.71a11.77,11.77,0,0,1-11.65-12.31c.26-5.65,3.22-55.72,27.33-75.2a35.24,35.24,0,0,1,28.68-7.46c14.7,2.46,33.7,12.77,40.75,47.87a147.31,147.31,0,0,1,2.29,37A11.78,11.78,0,0,1,485.58,1495.33Zm-62.64-24.14,51,.48c-.46-16.31-4.05-45.52-23.58-48.8a11.66,11.66,0,0,0-10,2.55C430.87,1433.1,425.26,1454.18,422.94,1471.19Z"/><circle class="cls-40" cx="241.73" cy="1459.27" r="24.28"/><circle cx="241.73" cy="1459.27" r="12.51"/><circle class="cls-41" cx="442.59" cy="1451.18" r="27.96"/><circle cx="441.85" cy="1451.92" r="15.45"/><path class="cls-42" d="M492.62,1385s-25.65-15.85-55.25-1.53-26.05,22.39-35,9.62"/><path class="cls-42" d="M188,1424.69s26.74-17.11,58.68-2.42,28.43,23.26,37.48,9.65"/><ellipse class="cls-6" cx="455.83" cy="1440.88" rx="7.36" ry="5.89"/><ellipse class="cls-6" cx="249.82" cy="1451.18" rx="7.36" ry="5.89"/><path class="cls-7" d="M284.9,1023.06a19.89,19.89,0,0,1-6.27-.84,14.71,14.71,0,0,1-3.95-1.89,7.32,7.32,0,0,1-2-2,3.72,3.72,0,0,1-.58-1.25,6.21,6.21,0,0,1,.47-2.24,10.81,10.81,0,0,1,1.16-2.21,8.75,8.75,0,0,1,1.51-1.71,2.35,2.35,0,0,1,1.45-.7c.54,0,1,.35,1.34,1l.58.58a6.64,6.64,0,0,0,1.31,1,10.63,10.63,0,0,0,2.09.9,9.51,9.51,0,0,0,2.93.41,8.29,8.29,0,0,0,6-2.24,8,8,0,0,0,2.32-6.07A9.06,9.06,0,0,0,292,1001a16.44,16.44,0,0,0-3.28-3.89,41.19,41.19,0,0,0-4.65-3.52q-2.61-1.71-5.34-3.57c-1.82-1.24-3.61-2.58-5.35-4a27,27,0,0,1-4.65-4.94,24.74,24.74,0,0,1-3.28-6.3,25,25,0,0,1,.09-15.89,32.46,32.46,0,0,1,3.69-7.53,39.55,39.55,0,0,1,5.54-6.68,40.63,40.63,0,0,1,6.92-5.41,35.41,35.41,0,0,1,7.76-3.6,26.19,26.19,0,0,1,8.1-1.31,16.85,16.85,0,0,1,6.28,1.11,12.84,12.84,0,0,1,4.7,3.11,13.8,13.8,0,0,1,3,4.82,18.18,18.18,0,0,1,1,6.3,18.79,18.79,0,0,1-1.16,6.51,27.6,27.6,0,0,1-3.08,6,35.24,35.24,0,0,1-4.33,5.25,36.27,36.27,0,0,1-4.94,4.19,25.87,25.87,0,0,1-4.91,2.76,11.1,11.1,0,0,1-4.18,1,5.56,5.56,0,0,1-2.82-.73A7.46,7.46,0,0,1,285,973a9,9,0,0,1-1.31-2.27,5.89,5.89,0,0,1-.46-2.12,1.7,1.7,0,0,1,.2-1,.67.67,0,0,1,.58-.2,7,7,0,0,1,1,.17,5.38,5.38,0,0,0,1.34.15,11.06,11.06,0,0,0,5.4-1.69,25.74,25.74,0,0,0,5.58-4.3,27,27,0,0,0,4.39-5.75,12.37,12.37,0,0,0,1.77-6.1,7.1,7.1,0,0,0-1.48-4.76q-1.48-1.76-5-1.75a15.3,15.3,0,0,0-4.79.85,26.8,26.8,0,0,0-5.2,2.35,31.72,31.72,0,0,0-5.06,3.66,28.25,28.25,0,0,0-4.3,4.73,24.19,24.19,0,0,0-3,5.58,17.43,17.43,0,0,0-1.13,6.25,14.32,14.32,0,0,0,1.25,6.13A18.37,18.37,0,0,0,278,977.8a30.39,30.39,0,0,0,4.68,4.07q2.61,1.86,5.34,3.69t5.35,3.77a30,30,0,0,1,4.67,4.3,20.17,20.17,0,0,1,3.32,5.23,16.5,16.5,0,0,1,1.24,6.6,17.53,17.53,0,0,1-5.11,12.43,17.87,17.87,0,0,1-5.63,3.78A17.54,17.54,0,0,1,284.9,1023.06Z"/><path class="cls-7" d="M332.14,1022.08a20.9,20.9,0,0,1-7.67-1.46,19.23,19.23,0,0,1-6.59-4.3,20.72,20.72,0,0,1-4.59-7,25.3,25.3,0,0,1-1.72-9.7A35.36,35.36,0,0,1,313,989.54a32,32,0,0,1,4-8.81,21.85,21.85,0,0,1,6.13-6.24A13.77,13.77,0,0,1,331,972.1a10.28,10.28,0,0,1,5.23,1.25,11.75,11.75,0,0,1,3.49,3,11.91,11.91,0,0,1,1.94,3.8,12.66,12.66,0,0,1,.61,3.6,3.72,3.72,0,0,1-.61,2.1,5.8,5.8,0,0,1-1.48,1.56,6.18,6.18,0,0,1-1.92,1,5.2,5.2,0,0,1-1.86.27,1.91,1.91,0,0,1-1.3-.59,1.73,1.73,0,0,1-.32-1.56,17.27,17.27,0,0,1-.44-1.86,7.88,7.88,0,0,0-.7-2.12,5.27,5.27,0,0,0-1.36-1.75,3.63,3.63,0,0,0-2.38-.72,4.5,4.5,0,0,0-3.17,1.54,13.69,13.69,0,0,0-2.73,4.21,30.66,30.66,0,0,0-1.92,6.22,37.87,37.87,0,0,0-.72,7.55,19.73,19.73,0,0,0,.9,6.27,13,13,0,0,0,2.52,4.59,10.74,10.74,0,0,0,3.87,2.82,12.17,12.17,0,0,0,4.85,1,13.18,13.18,0,0,0,6.07-1.31,13.68,13.68,0,0,0,4.39-3.45,18.25,18.25,0,0,0,2.9-4.83,27.62,27.62,0,0,0,1.63-5.4,3.55,3.55,0,0,1,1.66-2.64,3.32,3.32,0,0,1,2.55-.32,4.4,4.4,0,0,1,2.27,1.48,3.39,3.39,0,0,1,.78,2.7,31.88,31.88,0,0,1-.84,4.13,26.09,26.09,0,0,1-1.77,4.7,26.92,26.92,0,0,1-2.94,4.68,19.9,19.9,0,0,1-4.32,4.1,22,22,0,0,1-6,2.9A25,25,0,0,1,332.14,1022.08Z"/><path class="cls-7" d="M392,999.12a1.75,1.75,0,0,1,.79-1.16,4,4,0,0,1,1.54-.64,5.11,5.11,0,0,1,1.83,0,3.54,3.54,0,0,1,1.68.79,3.39,3.39,0,0,1,1.05,1.68,5.47,5.47,0,0,1-.09,2.76,16.25,16.25,0,0,1-1.71,4.56,14.75,14.75,0,0,1-3,3.75,13.2,13.2,0,0,1-4.24,2.56,15.26,15.26,0,0,1-5.46.93,24.3,24.3,0,0,1-3.05-.18,12.88,12.88,0,0,1-2.76-.64,18.43,18.43,0,0,1-5.69,6.19,15,15,0,0,1-8.6,2.36,16.07,16.07,0,0,1-7.79-1.78,15.71,15.71,0,0,1-5.4-4.82,21.06,21.06,0,0,1-3.17-7.06,34.27,34.27,0,0,1-1-8.48,41.7,41.7,0,0,1,1.54-11.77,43.15,43.15,0,0,1,3.58-8.83,23.87,23.87,0,0,1,4-5.55q2-1.92,3-1.92a2.87,2.87,0,0,1,2.12,1,6.13,6.13,0,0,1,1.39,2.38,6,6,0,0,1,.23,2.76,2.94,2.94,0,0,1-1.36,2.15c-.47.74-1,1.59-1.66,2.56a19.16,19.16,0,0,0-1.8,3.63,29.47,29.47,0,0,0-1.42,5.32,41.91,41.91,0,0,0-.58,7.55,28.81,28.81,0,0,0,.66,6.57,15.59,15.59,0,0,0,1.86,4.67,8.6,8.6,0,0,0,2.73,2.82,6.28,6.28,0,0,0,3.29.93,6.75,6.75,0,0,0,4.21-1.25,10.7,10.7,0,0,0,2.82-3.28,22.8,22.8,0,0,1-6.36-9.15,32.4,32.4,0,0,1-2.18-12,22.47,22.47,0,0,1,.61-5.32,14.77,14.77,0,0,1,1.8-4.44,9.28,9.28,0,0,1,3-3,7.66,7.66,0,0,1,4.18-1.14,6.24,6.24,0,0,1,4,1.51,13.16,13.16,0,0,1,3.25,4.19,24.83,24.83,0,0,1,2.18,6.33,38.24,38.24,0,0,1,.78,8,53.16,53.16,0,0,1-.4,6.57,41.94,41.94,0,0,1-1.28,6.27,3.66,3.66,0,0,0,1.19.26c.37,0,.76,0,1.19,0a7.68,7.68,0,0,0,5.93-2.55,9.64,9.64,0,0,0,1.68-2.73A15.09,15.09,0,0,0,392,999.12Zm-22.72-11a23.2,23.2,0,0,0,1.25,7.62,22.43,22.43,0,0,0,3.28,6.27,43.54,43.54,0,0,0,.35-5.46c0-2,0-3.88-.08-5.61a34.08,34.08,0,0,0-.41-4.44,10.34,10.34,0,0,0-.87-2.94,1.67,1.67,0,0,0-1.48-1.07Q369.27,982.45,369.27,988.08Z"/><path class="cls-7" d="M418,1022.08a15.41,15.41,0,0,1-4.27-.64,10.41,10.41,0,0,1-3.95-2.21,11.67,11.67,0,0,1-2.9-4.16,16.24,16.24,0,0,1-1.13-6.53,52.59,52.59,0,0,1,1.53-12.18,120.44,120.44,0,0,1,4.45-14.14h-10.4q-.06,1.74-.21,4.41c-.09,1.78-.26,3.68-.49,5.7s-.53,4-.9,6.1a48,48,0,0,1-1.36,5.69c-.39,1.24-1,2-1.83,2.15a3.19,3.19,0,0,1-2.47-.44,5.28,5.28,0,0,1-2-2.12,3.82,3.82,0,0,1-.35-2.9,37.75,37.75,0,0,0,.81-4.39c.24-1.72.42-3.54.56-5.46s.24-3.84.32-5.75.13-3.63.17-5.14A11.79,11.79,0,0,1,389.9,977a7.17,7.17,0,0,1-1.45-4.51,5,5,0,0,1,.49-2.23,5.7,5.7,0,0,1,1.31-1.75,5.51,5.51,0,0,1,1.92-1.1,7,7,0,0,1,2.26-.38,8.9,8.9,0,0,1,2.18.29,6.32,6.32,0,0,1,2.15,1.05,7.73,7.73,0,0,1,1.83,2,11.06,11.06,0,0,1,1.34,3c1,.11,1.79.2,2.47.26l1.71.14c.47,0,.85.06,1.16.06h7.15a3.33,3.33,0,0,1,1.54.64,11.61,11.61,0,0,1,3.66,3.83,3.32,3.32,0,0,1,.5,2.21,8.59,8.59,0,0,1-.41,1.69c-.27.89-.6,2-1,3.37s-.81,2.91-1.28,4.68-.89,3.61-1.28,5.54-.71,4-1,6a45.19,45.19,0,0,0-.41,6.07,9.94,9.94,0,0,0,.29,2.38,6.76,6.76,0,0,0,.87,2.07,4.37,4.37,0,0,0,1.48,1.42,4.14,4.14,0,0,0,2.12.52A5.07,5.07,0,0,0,423,1013a10.68,10.68,0,0,0,2.44-3.19,21.5,21.5,0,0,0,1.6-4.16c.4-1.49.74-2.89,1-4.21a5.14,5.14,0,0,1,1.16-2.7,2.35,2.35,0,0,1,1.68-.84,2.93,2.93,0,0,1,1.46.43,5.57,5.57,0,0,1,1.36,1.13,6,6,0,0,1,1,1.57,4.42,4.42,0,0,1,.38,1.75,1.42,1.42,0,0,1-.06.46,1.07,1.07,0,0,0-.06.35,57.32,57.32,0,0,1-2.12,6.22,26.63,26.63,0,0,1-3.34,6,18.29,18.29,0,0,1-4.88,4.53A12.27,12.27,0,0,1,418,1022.08Z"/><path class="cls-7" d="M456,984.13a21.79,21.79,0,0,1-1.14,6.8,23.83,23.83,0,0,1-3.37,6.6,25.77,25.77,0,0,1-5.52,5.57,23.58,23.58,0,0,1-7.58,3.75,13.33,13.33,0,0,0,1.54,2.88,10.06,10.06,0,0,0,2.3,2.35,10.88,10.88,0,0,0,3.1,1.57,13.09,13.09,0,0,0,4.1.58,12.63,12.63,0,0,0,6-1.31,13,13,0,0,0,4.22-3.45,18.67,18.67,0,0,0,2.76-4.83,31.28,31.28,0,0,0,1.57-5.4,3.57,3.57,0,0,1,1.65-2.64,3.35,3.35,0,0,1,2.56-.32,4.34,4.34,0,0,1,2.26,1.48,3.39,3.39,0,0,1,.79,2.7,41.78,41.78,0,0,1-.79,4.13,24.67,24.67,0,0,1-1.65,4.7,26.7,26.7,0,0,1-2.82,4.68,19.32,19.32,0,0,1-4.21,4.1,21.17,21.17,0,0,1-5.87,2.9,24.69,24.69,0,0,1-7.73,1.11,20.24,20.24,0,0,1-7.87-1.6,20.49,20.49,0,0,1-6.74-4.59,22.37,22.37,0,0,1-4.71-7.38,26.49,26.49,0,0,1-1.77-10,33.85,33.85,0,0,1,1.57-10.49,30,30,0,0,1,4.12-8.39,20.57,20.57,0,0,1,5.81-5.55,12.58,12.58,0,0,1,6.69-2,11.22,11.22,0,0,1,4.5.88,9.35,9.35,0,0,1,3.4,2.47,10.91,10.91,0,0,1,2.12,3.8A15.67,15.67,0,0,1,456,984.13Zm-19.18,14.06a9.24,9.24,0,0,0,.06,1,9.73,9.73,0,0,1,.06,1.1,16.31,16.31,0,0,0,4-2.67A16.77,16.77,0,0,0,444,994a17.92,17.92,0,0,0,2-4.56,18.6,18.6,0,0,0,.7-5.14,5.92,5.92,0,0,0-.67-3.08,2,2,0,0,0-1.83-1.1,3.87,3.87,0,0,0-2.59,1,8.89,8.89,0,0,0-2,2.59,18.12,18.12,0,0,0-1.4,3.6c-.36,1.34-.66,2.68-.9,4a38,38,0,0,0-.46,3.86A27.45,27.45,0,0,0,436.79,998.19Z"/><path class="cls-43" d="M936.43,1036c-7.57-.06-14-.08-21-.27-4.5-.12,9.41-8.07-14.79-12.1-2.1-.09-8.42-.79-9.67,1.88s2.44,8.93-2,9a369.35,369.35,0,0,1-54.73-7.36l-2.69-63.18,108.08,12.63Z"/><path class="cls-44" d="M936.43,1037.32h0l-3,0c-6.44,0-12-.08-18-.25a2.26,2.26,0,0,1-2-.91c-.6-.89-.21-1.89.13-2.78.49-1.26.79-2.23.21-3.25-.84-1.48-3.83-3.58-13.26-5.16l-.7,0c-4.56-.28-7.13.11-7.62,1.15a7.55,7.55,0,0,0,.1,3.38c.3,1.92.61,3.9-.52,5.24a3.5,3.5,0,0,1-2.78,1.13h-.1a368.91,368.91,0,0,1-54.92-7.39,1.34,1.34,0,0,1-1.06-1.26L830.24,964a1.34,1.34,0,0,1,.43-1,1.4,1.4,0,0,1,1.07-.35l108.07,12.64a1.34,1.34,0,0,1,1.19,1.41l-3.23,59.41A1.35,1.35,0,0,1,936.43,1037.32Zm-20.36-2.94c5.78.15,11.18.19,17.4.23h1.69l3.09-56.87L833,965.45l2.58,60.56a366.33,366.33,0,0,0,53.46,7.11,1.05,1.05,0,0,0,.7-.18c.34-.4.09-2-.08-3.08-.27-1.72-.54-3.5.13-4.94,1.51-3.23,7.17-2.88,10.21-2.69l.74,0,.16,0c8.7,1.44,13.54,3.51,15.24,6.49a6.14,6.14,0,0,1,0,5.56Z"/><path class="cls-45" d="M885.35,928.44l54,47.32S855,970.65,831.31,963.12C831.31,963.12,846.91,937.85,885.35,928.44Z"/><path class="cls-46" d="M939.39,977.1h-.08c-3.46-.21-84.86-5.2-108.4-12.7a1.33,1.33,0,0,1-.74-2c.16-.27,4.11-6.58,12.87-14.13a100.88,100.88,0,0,1,42-21.15,1.33,1.33,0,0,1,1.21.29l54,47.32a1.34,1.34,0,0,1-.88,2.35ZM833.47,962.36c22.13,6.2,85.57,10.71,102,11.8L885,929.92a98.06,98.06,0,0,0-40.2,20.41A73.53,73.53,0,0,0,833.47,962.36Z"/><circle class="cls-47" cx="863.98" cy="985.03" r="6.86"/><path class="cls-48" d="M870,988.45a6.84,6.84,0,0,1-9.29,2.75,7.14,7.14,0,0,1-2.8-9.53c.09,2.65,1.15,4.36,4.48,6.16S868,990,870,988.45Z"/><circle class="cls-47" cx="849.59" cy="1013.4" r="7.53"/><path class="cls-48" d="M855.78,1017.7a7.57,7.57,0,1,1-12.2-9c.55,4.53.12,4.88,3.38,7.45S852.26,1018.69,855.78,1017.7Z"/><circle class="cls-47" cx="880.38" cy="1006.81" r="4.97"/><path class="cls-48" d="M885.08,1008.55a5,5,0,1,1-9.41-3.22,5.59,5.59,0,0,0,4,4.07C882.28,1010.29,884.1,1008.93,885.08,1008.55Z"/><circle class="cls-47" cx="845.83" cy="985.7" r="3.76"/><path class="cls-48" d="M849.23,987.39a3.84,3.84,0,0,1-5.15,1.75,3.65,3.65,0,0,1-1.52-5.23c.17,2,.35,2.72,2.2,3.68S847.13,988.51,849.23,987.39Z"/><circle class="cls-47" cx="923.53" cy="1020.65" r="3.76"/><path class="cls-48" d="M926.6,1023a3.77,3.77,0,0,1-5.26.83,3.73,3.73,0,0,1-.77-5.56,4.51,4.51,0,0,0,1.88,4C924.13,1023.49,925.1,1023.2,926.6,1023Z"/><circle class="cls-47" cx="909.68" cy="994.44" r="14.11"/><path class="cls-48" d="M922.73,999.81a14.11,14.11,0,1,1-26.1-10.75c1.07,7.28,2.64,10.54,9.85,13.51S917.9,1003.78,922.73,999.81Z"/><path class="cls-47" d="M913.58,1032.75l-.27,1.35a19.77,19.77,0,0,0,1.07-2.42c.27-1.89,0-.27.27-2.15.92-6.42-5.73-10.73-12.2-11a12.48,12.48,0,0,0-12.16,17.15C891.88,1035,914.73,1022.14,913.58,1032.75Z"/><path class="cls-7" d="M950.16,912a8.86,8.86,0,0,1,8.84,8.84v129.32a8.86,8.86,0,0,1-8.84,8.84H513.84a8.86,8.86,0,0,1-8.84-8.84V920.84a8.86,8.86,0,0,1,8.84-8.84H950.16m0-7H513.84A15.84,15.84,0,0,0,498,920.84v129.32A15.84,15.84,0,0,0,513.84,1066H950.16A15.84,15.84,0,0,0,966,1050.16V920.84A15.84,15.84,0,0,0,950.16,905Z"/></svg>
