<svg id="Layer_1" data-name="Layer 1" xmlns="http://www.w3.org/2000/svg" xmlns:xlink="http://www.w3.org/1999/xlink" width="1242" height="2208" viewBox="0 0 1242 2208"><defs><style>.cls-1,.cls-68,.cls-75,.cls-81{fill:none;}.cls-1{stroke:#fff;}.cls-1,.cls-68,.cls-81{stroke-linecap:round;stroke-linejoin:round;}.cls-1,.cls-68{stroke-width:8px;}.cls-2{fill:url(#linear-gradient);}.cls-3{fill:#bbf7ff;}.cls-4{fill:url(#radial-gradient);}.cls-5{fill:url(#radial-gradient-2);}.cls-6{fill:url(#radial-gradient-3);}.cls-7{fill:url(#linear-gradient-2);}.cls-8{fill:url(#linear-gradient-3);}.cls-9{fill:url(#linear-gradient-4);}.cls-10{fill:url(#linear-gradient-5);}.cls-11{fill:url(#linear-gradient-6);}.cls-12{fill:url(#radial-gradient-4);}.cls-13{fill:url(#linear-gradient-7);}.cls-14{fill:url(#linear-gradient-8);}.cls-15{fill:url(#linear-gradient-9);}.cls-16{fill:url(#linear-gradient-10);}.cls-17{fill:url(#linear-gradient-11);}.cls-18{fill:url(#radial-gradient-5);}.cls-19{fill:url(#linear-gradient-12);}.cls-20{fill:url(#linear-gradient-13);}.cls-21{fill:url(#linear-gradient-14);}.cls-22{fill:url(#linear-gradient-15);}.cls-23{fill:url(#linear-gradient-16);}.cls-24{fill:url(#radial-gradient-6);}.cls-25{fill:url(#linear-gradient-17);}.cls-26{fill:url(#linear-gradient-18);}.cls-27{fill:url(#linear-gradient-19);}.cls-28{fill:url(#linear-gradient-20);}.cls-29{fill:url(#linear-gradient-21);}.cls-30{fill:url(#radial-gradient-7);}.cls-31{fill:url(#linear-gradient-22);}.cls-32{fill:url(#linear-gradient-23);}.cls-33{fill:url(#linear-gradient-24);}.cls-34{fill:url(#linear-gradient-25);}.cls-35{fill:url(#linear-gradient-26);}.cls-36{fill:url(#radial-gradient-8);}.cls-37{fill:url(#linear-gradient-27);}.cls-38{fill:url(#linear-gradient-28);}.cls-39{fill:url(#linear-gradient-29);}.cls-40{fill:url(#linear-gradient-30);}.cls-41{fill:url(#linear-gradient-31);}.cls-42{fill:url(#radial-gradient-9);}.cls-43{fill:url(#linear-gradient-32);}.cls-44{fill:url(#linear-gradient-33);}.cls-45{fill:url(#linear-gradient-34);}.cls-46{fill:url(#linear-gradient-35);}.cls-47{fill:url(#linear-gradient-36);}.cls-48{fill:url(#radial-gradient-10);}.cls-49{fill:url(#linear-gradient-37);}.cls-50{fill:url(#linear-gradient-38);}.cls-51{fill:url(#linear-gradient-39);}.cls-52{fill:url(#linear-gradient-40);}.cls-53{fill:url(#linear-gradient-41);}.cls-54{fill:url(#radial-gradient-11);}.cls-55{fill:url(#linear-gradient-42);}.cls-56{fill:url(#linear-gradient-43);}.cls-57{fill:url(#linear-gradient-44);}.cls-58{fill:url(#linear-gradient-45);}.cls-59{fill:url(#linear-gradient-46);}.cls-60{fill:url(#linear-gradient-47);}.cls-61{fill:url(#linear-gradient-48);}.cls-62{fill:url(#linear-gradient-49);}.cls-63{fill:url(#radial-gradient-12);}.cls-64{fill:url(#radial-gradient-13);}.cls-65{fill:#e58c3c;}.cls-66{fill:#fff18f;}.cls-67{fill:url(#radial-gradient-14);}.cls-68,.cls-81{stroke:#000;}.cls-69{fill:#727272;}.cls-70{fill:url(#radial-gradient-15);}.cls-71{fill:url(#radial-gradient-16);}.cls-72{fill:url(#linear-gradient-50);}.cls-73{fill:url(#linear-gradient-51);}.cls-74{fill:url(#radial-gradient-17);}.cls-75{stroke:#050402;stroke-miterlimit:10;}.cls-76{fill:url(#radial-gradient-18);}.cls-77{fill:url(#linear-gradient-52);}.cls-78{fill:url(#linear-gradient-53);}.cls-79{fill:url(#linear-gradient-54);}.cls-80{fill:url(#linear-gradient-55);}.cls-81{stroke-width:3px;}.cls-82{fill:url(#radial-gradient-19);}.cls-83{fill:url(#radial-gradient-20);}</style><linearGradient id="linear-gradient" x1="621" y1="2208" x2="621" y2="445" gradientUnits="userSpaceOnUse"><stop offset="0" stop-color="#7a8a2a"/><stop offset="1" stop-color="#c9dd6f"/></linearGradient><radialGradient id="radial-gradient" cx="275.5" cy="148.56" r="192.74" gradientTransform="translate(0 89.14) scale(1 0.4)" gradientUnits="userSpaceOnUse"><stop offset="0" stop-color="#fff" stop-opacity="0.8"/><stop offset="0.45" stop-color="#fff" stop-opacity="0.79"/><stop offset="0.61" stop-color="#fff" stop-opacity="0.77"/><stop offset="0.72" stop-color="#fff" stop-opacity="0.72"/><stop offset="0.82" stop-color="#fff" stop-opacity="0.65"/><stop offset="0.9" stop-color="#fff" stop-opacity="0.57"/><stop offset="0.97" stop-color="#fff" stop-opacity="0.46"/><stop offset="1" stop-color="#fff" stop-opacity="0.4"/></radialGradient><radialGradient id="radial-gradient-2" cx="864.5" cy="218.56" r="192.74" gradientTransform="translate(0 131.14) scale(1 0.4)" xlink:href="#radial-gradient"/><radialGradient id="radial-gradient-3" cx="257.5" cy="1435.18" r="225.95" gradientTransform="translate(0 871.89) scale(1 0.35)" gradientUnits="userSpaceOnUse"><stop offset="0" stop-opacity="0.5"/><stop offset="1" stop-color="#8c6239" stop-opacity="0"/></radialGradient><linearGradient id="linear-gradient-2" x1="138.06" y1="1331.95" x2="378.27" y2="1331.95" gradientUnits="userSpaceOnUse"><stop offset="0" stop-color="#8bb54a"/><stop offset="0.01" stop-color="#86af48"/><stop offset="0.03" stop-color="#799f41"/><stop offset="0.04" stop-color="#648536"/><stop offset="0.06" stop-color="#476127"/><stop offset="0.36" stop-color="#729237"/><stop offset="0.76" stop-color="#9bcc5c"/><stop offset="1" stop-color="#729237"/></linearGradient><linearGradient id="linear-gradient-3" x1="260.49" y1="1385.17" x2="260.49" y2="1278.73" gradientUnits="userSpaceOnUse"><stop offset="0" stop-color="#0d7f00" stop-opacity="0"/><stop offset="0.36" stop-color="#0c7600" stop-opacity="0.08"/><stop offset="0.69" stop-color="#075b00" stop-opacity="0.32"/><stop offset="1" stop-color="#002f00" stop-opacity="0.7"/></linearGradient><linearGradient id="linear-gradient-4" x1="105.49" y1="1249.94" x2="415.49" y2="1249.94" xlink:href="#linear-gradient-2"/><linearGradient id="linear-gradient-5" x1="-1691.12" y1="897.33" x2="-1691.12" y2="790.66" gradientTransform="translate(-1433 2177.82) rotate(180)" gradientUnits="userSpaceOnUse"><stop offset="0" stop-color="#0d7f00" stop-opacity="0"/><stop offset="0.53" stop-color="#0e7c00" stop-opacity="0.03"/><stop offset="0.72" stop-color="#117200" stop-opacity="0.14"/><stop offset="0.86" stop-color="#176000" stop-opacity="0.33"/><stop offset="0.97" stop-color="#1f4700" stop-opacity="0.6"/><stop offset="1" stop-color="#223e00" stop-opacity="0.7"/></linearGradient><linearGradient id="linear-gradient-6" x1="-102.23" y1="1482.17" x2="-102.23" y2="1409.17" gradientTransform="translate(362 -196)" gradientUnits="userSpaceOnUse"><stop offset="0" stop-color="#0d7f00" stop-opacity="0"/><stop offset="0.23" stop-color="#108103" stop-opacity="0.01"/><stop offset="0.39" stop-color="#1b870e" stop-opacity="0.05"/><stop offset="0.52" stop-color="#2e9120" stop-opacity="0.12"/><stop offset="0.65" stop-color="#489f39" stop-opacity="0.21"/><stop offset="0.76" stop-color="#6bb159" stop-opacity="0.33"/><stop offset="0.87" stop-color="#95c881" stop-opacity="0.48"/><stop offset="0.97" stop-color="#c5e2b0" stop-opacity="0.65"/><stop offset="1" stop-color="#d3e9bd" stop-opacity="0.7"/></linearGradient><radialGradient id="radial-gradient-4" cx="621" cy="1435.18" r="225.95" xlink:href="#radial-gradient-3"/><linearGradient id="linear-gradient-7" x1="501.56" y1="1331.95" x2="741.77" y2="1331.95" xlink:href="#linear-gradient-2"/><linearGradient id="linear-gradient-8" x1="623.99" y1="1385.17" x2="623.99" y2="1278.73" xlink:href="#linear-gradient-3"/><linearGradient id="linear-gradient-9" x1="468.99" y1="1249.94" x2="778.99" y2="1249.94" xlink:href="#linear-gradient-2"/><linearGradient id="linear-gradient-10" x1="-2054.62" y1="897.33" x2="-2054.62" y2="790.66" xlink:href="#linear-gradient-5"/><linearGradient id="linear-gradient-11" x1="261.27" y1="1482.17" x2="261.27" y2="1409.17" xlink:href="#linear-gradient-6"/><radialGradient id="radial-gradient-5" cx="984.5" cy="1435.18" r="225.95" xlink:href="#radial-gradient-3"/><linearGradient id="linear-gradient-12" x1="865.06" y1="1331.95" x2="1105.27" y2="1331.95" xlink:href="#linear-gradient-2"/><linearGradient id="linear-gradient-13" x1="987.49" y1="1385.17" x2="987.49" y2="1278.73" xlink:href="#linear-gradient-3"/><linearGradient id="linear-gradient-14" x1="832.49" y1="1249.94" x2="1142.49" y2="1249.94" xlink:href="#linear-gradient-2"/><linearGradient id="linear-gradient-15" x1="-2418.12" y1="897.33" x2="-2418.12" y2="790.66" xlink:href="#linear-gradient-5"/><linearGradient id="linear-gradient-16" x1="624.77" y1="1482.17" x2="624.77" y2="1409.17" xlink:href="#linear-gradient-6"/><radialGradient id="radial-gradient-6" cx="938.5" cy="1218.1" r="175.82" gradientTransform="translate(0 567.09) scale(1 0.35)" xlink:href="#radial-gradient-3"/><linearGradient id="linear-gradient-17" x1="839.31" y1="961.58" x2="1033.8" y2="961.58" xlink:href="#linear-gradient-2"/><linearGradient id="linear-gradient-18" x1="936.44" y1="1004.67" x2="936.44" y2="918.49" xlink:href="#linear-gradient-3"/><linearGradient id="linear-gradient-19" x1="812.94" y1="895.18" x2="1063.94" y2="895.18" xlink:href="#linear-gradient-2"/><linearGradient id="linear-gradient-20" x1="-2369.44" y1="1259.33" x2="-2369.44" y2="1173.16" xlink:href="#linear-gradient-5"/><linearGradient id="linear-gradient-21" x1="576.44" y1="1120.67" x2="576.44" y2="1061.67" xlink:href="#linear-gradient-6"/><radialGradient id="radial-gradient-7" cx="621" cy="1218.1" r="175.82" gradientTransform="translate(0 567.09) scale(1 0.35)" xlink:href="#radial-gradient-3"/><linearGradient id="linear-gradient-22" x1="521.81" y1="961.58" x2="716.3" y2="961.58" xlink:href="#linear-gradient-2"/><linearGradient id="linear-gradient-23" x1="618.94" y1="1004.67" x2="618.94" y2="918.49" xlink:href="#linear-gradient-3"/><linearGradient id="linear-gradient-24" x1="495.44" y1="895.18" x2="746.44" y2="895.18" xlink:href="#linear-gradient-2"/><linearGradient id="linear-gradient-25" x1="-2051.94" y1="1259.33" x2="-2051.94" y2="1173.16" xlink:href="#linear-gradient-5"/><linearGradient id="linear-gradient-26" x1="258.94" y1="1120.67" x2="258.94" y2="1061.67" xlink:href="#linear-gradient-6"/><radialGradient id="radial-gradient-8" cx="303.5" cy="1218.1" r="175.82" gradientTransform="translate(0 567.09) scale(1 0.35)" xlink:href="#radial-gradient-3"/><linearGradient id="linear-gradient-27" x1="204.31" y1="961.58" x2="398.8" y2="961.58" xlink:href="#linear-gradient-2"/><linearGradient id="linear-gradient-28" x1="301.44" y1="1004.67" x2="301.44" y2="918.49" xlink:href="#linear-gradient-3"/><linearGradient id="linear-gradient-29" x1="177.94" y1="895.18" x2="428.94" y2="895.18" xlink:href="#linear-gradient-2"/><linearGradient id="linear-gradient-30" x1="-1734.44" y1="1259.33" x2="-1734.44" y2="1173.16" xlink:href="#linear-gradient-5"/><linearGradient id="linear-gradient-31" x1="-58.56" y1="1120.67" x2="-58.56" y2="1061.67" xlink:href="#linear-gradient-6"/><radialGradient id="radial-gradient-9" cx="1010" cy="1704.1" r="248.38" gradientTransform="translate(0 1249.47) scale(1 0.35)" xlink:href="#radial-gradient-3"/><linearGradient id="linear-gradient-32" x1="873.5" y1="1798.57" x2="1146.25" y2="1798.57" xlink:href="#linear-gradient-2"/><linearGradient id="linear-gradient-33" x1="1009.52" y1="1857" x2="1009.52" y2="1736.14" xlink:href="#linear-gradient-3"/><linearGradient id="linear-gradient-34" x1="836.52" y1="1705.45" x2="1188.52" y2="1705.45" xlink:href="#linear-gradient-2"/><linearGradient id="linear-gradient-35" x1="-2442.15" y1="438.67" x2="-2442.15" y2="317.82" xlink:href="#linear-gradient-5"/><linearGradient id="linear-gradient-36" x1="650.52" y1="1943" x2="650.52" y2="1860.26" xlink:href="#linear-gradient-6"/><radialGradient id="radial-gradient-10" cx="621" cy="1704.1" r="248.38" gradientTransform="translate(0 1249.47) scale(1 0.35)" xlink:href="#radial-gradient-3"/><linearGradient id="linear-gradient-37" x1="484.5" y1="1798.57" x2="757.25" y2="1798.57" xlink:href="#linear-gradient-2"/><linearGradient id="linear-gradient-38" x1="620.52" y1="1857" x2="620.52" y2="1736.14" xlink:href="#linear-gradient-3"/><linearGradient id="linear-gradient-39" x1="447.52" y1="1705.45" x2="799.52" y2="1705.45" xlink:href="#linear-gradient-2"/><linearGradient id="linear-gradient-40" x1="-2053.15" y1="438.67" x2="-2053.15" y2="317.82" xlink:href="#linear-gradient-5"/><linearGradient id="linear-gradient-41" x1="261.52" y1="1943" x2="261.52" y2="1860.26" xlink:href="#linear-gradient-6"/><radialGradient id="radial-gradient-11" cx="232" cy="1704.1" r="248.38" gradientTransform="translate(0 1249.47) scale(1 0.35)" xlink:href="#radial-gradient-3"/><linearGradient id="linear-gradient-42" x1="95.5" y1="1798.57" x2="368.25" y2="1798.57" xlink:href="#linear-gradient-2"/><linearGradient id="linear-gradient-43" x1="231.52" y1="1857" x2="231.52" y2="1736.14" xlink:href="#linear-gradient-3"/><linearGradient id="linear-gradient-44" x1="58.52" y1="1705.45" x2="410.52" y2="1705.45" xlink:href="#linear-gradient-2"/><linearGradient id="linear-gradient-45" x1="-1664.15" y1="438.67" x2="-1664.15" y2="317.82" xlink:href="#linear-gradient-5"/><linearGradient id="linear-gradient-46" x1="-127.48" y1="1943" x2="-127.48" y2="1860.26" xlink:href="#linear-gradient-6"/><linearGradient id="linear-gradient-47" x1="621" y1="523.51" x2="621" y2="701.09" gradientUnits="userSpaceOnUse"><stop offset="0" stop-color="#dbc9a1"/><stop offset="1" stop-color="#dbc9a1"/></linearGradient><linearGradient id="linear-gradient-48" x1="864.59" y1="2082.3" x2="853.24" y2="2174.71" gradientUnits="userSpaceOnUse"><stop offset="0" stop-color="#ffce58"/><stop offset="0.47" stop-color="#fecc57"/><stop offset="0.64" stop-color="#f9c554"/><stop offset="0.76" stop-color="#f1ba4f"/><stop offset="0.86" stop-color="#e5a948"/><stop offset="0.94" stop-color="#d6933f"/><stop offset="1" stop-color="#c77e36"/></linearGradient><linearGradient id="linear-gradient-49" x1="864.82" y1="2080.38" x2="853" y2="2176.64" xlink:href="#linear-gradient-48"/><radialGradient id="radial-gradient-12" cx="861.24" cy="2056.16" r="60.32" gradientUnits="userSpaceOnUse"><stop offset="0" stop-color="#fff18f"/><stop offset="0.33" stop-color="#fff08a"/><stop offset="0.69" stop-color="#ffed7d"/><stop offset="1" stop-color="#ffea6c"/></radialGradient><radialGradient id="radial-gradient-13" cx="861.24" cy="2056.16" r="62.14" xlink:href="#radial-gradient-12"/><radialGradient id="radial-gradient-14" cx="647.43" cy="625.5" r="279.25" gradientTransform="translate(0 500.4) scale(1 0.2)" xlink:href="#radial-gradient-3"/><radialGradient id="radial-gradient-15" cx="171.44" cy="1617.3" r="40.9" gradientTransform="translate(478.1 -1674.27) scale(1.42 1.14)" gradientUnits="userSpaceOnUse"><stop offset="0" stop-color="#eec4e5"/><stop offset="0.43" stop-color="#ecc3e3"/><stop offset="0.59" stop-color="#e5bedd"/><stop offset="0.7" stop-color="#dab6d2"/><stop offset="0.79" stop-color="#c9abc2"/><stop offset="0.86" stop-color="#b39dae"/><stop offset="0.93" stop-color="#978b95"/><stop offset="0.99" stop-color="#787678"/><stop offset="1" stop-color="#727272"/></radialGradient><radialGradient id="radial-gradient-16" cx="-1241.21" cy="2298.95" r="40.9" gradientTransform="matrix(0, -1.42, 1.14, 0, -2118.37, -1600.3)" xlink:href="#radial-gradient-15"/><linearGradient id="linear-gradient-50" x1="697.24" y1="625.26" x2="697.24" y2="540.22" gradientUnits="userSpaceOnUse"><stop offset="0" stop-color="#c1c1c1"/><stop offset="0.68" stop-color="#1a1a1a"/></linearGradient><linearGradient id="linear-gradient-51" x1="585.88" y1="625.67" x2="585.88" y2="540.63" gradientUnits="userSpaceOnUse"><stop offset="0" stop-color="#c1c1c1"/><stop offset="0.72" stop-color="#333"/></linearGradient><radialGradient id="radial-gradient-17" cx="643.83" cy="356.38" r="213.27" gradientUnits="userSpaceOnUse"><stop offset="0" stop-color="#c1c1c1"/><stop offset="0.49" stop-color="#bfbfbf"/><stop offset="0.67" stop-color="#b8b8b8"/><stop offset="0.79" stop-color="#adadad"/><stop offset="0.89" stop-color="#9c9c9c"/><stop offset="0.98" stop-color="#868686"/><stop offset="1" stop-color="gray"/></radialGradient><radialGradient id="radial-gradient-18" cx="636.09" cy="454.78" r="120.1" gradientTransform="translate(0 45.48) scale(1 0.9)" gradientUnits="userSpaceOnUse"><stop offset="0" stop-color="#f2f2f2"/><stop offset="0.38" stop-color="#f2f2f2" stop-opacity="0.99"/><stop offset="0.51" stop-color="#f0f0f0" stop-opacity="0.96"/><stop offset="0.61" stop-color="#eee" stop-opacity="0.92"/><stop offset="0.69" stop-color="#eaeaea" stop-opacity="0.85"/><stop offset="0.75" stop-color="#e6e6e6" stop-opacity="0.75"/><stop offset="0.81" stop-color="#e0e0e0" stop-opacity="0.64"/><stop offset="0.87" stop-color="#dadada" stop-opacity="0.51"/><stop offset="0.92" stop-color="#d2d2d2" stop-opacity="0.35"/><stop offset="0.96" stop-color="#cacaca" stop-opacity="0.18"/><stop offset="1" stop-color="#c1c1c1" stop-opacity="0"/></radialGradient><linearGradient id="linear-gradient-52" x1="496.59" y1="345.45" x2="496.59" y2="442.23" gradientUnits="userSpaceOnUse"><stop offset="0" stop-color="#c1c1c1" stop-opacity="0"/><stop offset="0.02" stop-color="#bdbdbd" stop-opacity="0.04"/><stop offset="0.21" stop-color="#9e9e9e" stop-opacity="0.39"/><stop offset="0.41" stop-color="#858585" stop-opacity="0.65"/><stop offset="0.6" stop-color="#747474" stop-opacity="0.85"/><stop offset="0.8" stop-color="#696969" stop-opacity="0.96"/><stop offset="1" stop-color="#666"/></linearGradient><linearGradient id="linear-gradient-53" x1="462.87" y1="-111.23" x2="462.87" y2="5.01" gradientTransform="translate(245.9 295.36) rotate(14.7)" gradientUnits="userSpaceOnUse"><stop offset="0.1" stop-color="#c1c1c1" stop-opacity="0"/><stop offset="0.17" stop-color="#b8b8b8" stop-opacity="0.09"/><stop offset="0.73" stop-color="#7d7d7d" stop-opacity="0.74"/><stop offset="1" stop-color="#666"/></linearGradient><linearGradient id="linear-gradient-54" x1="615.95" y1="93.47" x2="615.95" y2="159.18" gradientUnits="userSpaceOnUse"><stop offset="0" stop-color="#ccc"/><stop offset="0.28" stop-color="gray"/><stop offset="1" stop-color="#4d4d4d"/></linearGradient><linearGradient id="linear-gradient-55" x1="615.95" y1="92.25" x2="615.95" y2="160.39" xlink:href="#linear-gradient-54"/><radialGradient id="radial-gradient-19" cx="6482.8" cy="-4042.82" r="120.1" gradientTransform="translate(-879.64 861.23) scale(0.24 0.14)" gradientUnits="userSpaceOnUse"><stop offset="0" stop-color="#ffc0e7" stop-opacity="0.5"/><stop offset="0.18" stop-color="#fdc0e6" stop-opacity="0.48"/><stop offset="0.36" stop-color="#f7c0e2" stop-opacity="0.44"/><stop offset="0.53" stop-color="#eec0dc" stop-opacity="0.36"/><stop offset="0.71" stop-color="#e0c0d4" stop-opacity="0.25"/><stop offset="0.88" stop-color="#cfc1ca" stop-opacity="0.11"/><stop offset="1" stop-color="#c1c1c1" stop-opacity="0"/></radialGradient><radialGradient id="radial-gradient-20" cx="5756.22" cy="-3980.35" r="120.1" gradientTransform="translate(-879.64 862.2) scale(0.24 0.14)" xlink:href="#radial-gradient-19"/></defs><title>start</title><line class="cls-1" x1="71.92" y1="2070.06" x2="71.92" y2="2070.83"/><rect class="cls-2" y="445" width="1242" height="1763"/><rect class="cls-3" width="1242" height="445"/><path class="cls-4" d="M487.74,121.62a65,65,0,0,0-92.49-31,85.64,85.64,0,0,0-108-16.2,85.63,85.63,0,0,0-82.75,0,85.66,85.66,0,0,0-123.4,40.66q-2.79-.27-5.64-.27a58.45,58.45,0,1,0,36.81,103.84,85.65,85.65,0,0,0,89.36,4,85.65,85.65,0,0,0,88.48,0,85.59,85.59,0,0,0,106.1-18.94A65.1,65.1,0,0,0,447.33,209a51,51,0,1,0,40.41-87.34Z"/><path class="cls-5" d="M1076.74,191.62a65,65,0,0,0-92.49-31,85.64,85.64,0,0,0-108-16.2,85.63,85.63,0,0,0-82.75,0,85.66,85.66,0,0,0-123.4,40.66q-2.79-.27-5.64-.27a58.45,58.45,0,1,0,36.81,103.84,85.65,85.65,0,0,0,89.36,4,85.65,85.65,0,0,0,88.48,0,85.59,85.59,0,0,0,106.1-18.94,65.1,65.1,0,0,0,51.13,5.21,51,51,0,1,0,40.41-87.34Z"/><ellipse class="cls-6" cx="257.5" cy="1375.67" rx="307.01" ry="155.5"/><rect class="cls-7" x="138.06" y="1278.73" width="240.21" height="106.44" rx="12" ry="12"/><rect class="cls-8" x="140.39" y="1278.73" width="240.21" height="106.44" rx="12" ry="12"/><rect class="cls-9" x="105.49" y="1213.59" width="310" height="72.7" rx="12" ry="12"/><rect class="cls-10" x="137.75" y="1280.49" width="240.74" height="106.67" rx="12" ry="12"/><rect class="cls-11" x="104.49" y="1213.17" width="310.56" height="73" rx="12" ry="12"/><ellipse class="cls-12" cx="621" cy="1375.67" rx="307.01" ry="155.5"/><rect class="cls-13" x="501.56" y="1278.73" width="240.21" height="106.44" rx="12" ry="12"/><rect class="cls-14" x="503.89" y="1278.73" width="240.21" height="106.44" rx="12" ry="12"/><rect class="cls-15" x="468.99" y="1213.59" width="310" height="72.7" rx="12" ry="12"/><rect class="cls-16" x="501.25" y="1280.49" width="240.74" height="106.67" rx="12" ry="12"/><rect class="cls-17" x="467.99" y="1213.17" width="310.56" height="73" rx="12" ry="12"/><ellipse class="cls-18" cx="984.5" cy="1375.67" rx="307.01" ry="155.5"/><rect class="cls-19" x="865.06" y="1278.73" width="240.21" height="106.44" rx="12" ry="12"/><rect class="cls-20" x="867.39" y="1278.73" width="240.21" height="106.44" rx="12" ry="12"/><rect class="cls-21" x="832.49" y="1213.59" width="310" height="72.7" rx="12" ry="12"/><rect class="cls-22" x="864.75" y="1280.49" width="240.74" height="106.67" rx="12" ry="12"/><rect class="cls-23" x="831.49" y="1213.17" width="310.56" height="73" rx="12" ry="12"/><ellipse class="cls-24" cx="938.5" cy="994.67" rx="238.89" ry="121"/><rect class="cls-25" x="839.31" y="918.49" width="194.49" height="86.18" rx="12" ry="12"/><rect class="cls-26" x="839.19" y="918.49" width="194.49" height="86.18" rx="12" ry="12"/><rect class="cls-27" x="812.94" y="865.75" width="251" height="58.86" rx="12" ry="12"/><rect class="cls-28" x="839.19" y="918.49" width="194.49" height="86.18" rx="12" ry="12"/><rect class="cls-29" x="812.94" y="865.67" width="251" height="59" rx="12" ry="12"/><ellipse class="cls-30" cx="621" cy="994.67" rx="238.89" ry="121"/><rect class="cls-31" x="521.81" y="918.49" width="194.49" height="86.18" rx="12" ry="12"/><rect class="cls-32" x="521.69" y="918.49" width="194.49" height="86.18" rx="12" ry="12"/><rect class="cls-33" x="495.44" y="865.75" width="251" height="58.86" rx="12" ry="12"/><rect class="cls-34" x="521.69" y="918.49" width="194.49" height="86.18" rx="12" ry="12"/><rect class="cls-35" x="495.44" y="865.67" width="251" height="59" rx="12" ry="12"/><ellipse class="cls-36" cx="303.5" cy="994.67" rx="238.89" ry="121"/><rect class="cls-37" x="204.31" y="918.49" width="194.49" height="86.18" rx="12" ry="12"/><rect class="cls-38" x="204.19" y="918.49" width="194.49" height="86.18" rx="12" ry="12"/><rect class="cls-39" x="177.94" y="865.75" width="251" height="58.86" rx="12" ry="12"/><rect class="cls-40" x="204.19" y="918.49" width="194.49" height="86.18" rx="12" ry="12"/><rect class="cls-41" x="177.94" y="865.67" width="251" height="59" rx="12" ry="12"/><ellipse class="cls-42" cx="1010" cy="1847.64" rx="337.49" ry="170.94"/><rect class="cls-43" x="873.5" y="1738.14" width="272.75" height="120.86" rx="12" ry="12"/><rect class="cls-44" x="873.14" y="1736.14" width="272.75" height="120.86" rx="12" ry="12"/><rect class="cls-45" x="836.52" y="1664.18" width="352" height="82.55" rx="12" ry="12"/><rect class="cls-46" x="872.78" y="1739.15" width="272.74" height="120.85" rx="12" ry="12"/><rect class="cls-47" x="836.52" y="1664.26" width="352" height="82.74" rx="12" ry="12"/><ellipse class="cls-48" cx="621" cy="1847.64" rx="337.49" ry="170.94"/><rect class="cls-49" x="484.5" y="1738.14" width="272.75" height="120.86" rx="12" ry="12"/><rect class="cls-50" x="484.14" y="1736.14" width="272.75" height="120.86" rx="12" ry="12"/><rect class="cls-51" x="447.52" y="1664.18" width="352" height="82.55" rx="12" ry="12"/><rect class="cls-52" x="483.78" y="1739.15" width="272.74" height="120.85" rx="12" ry="12"/><rect class="cls-53" x="447.52" y="1664.26" width="352" height="82.74" rx="12" ry="12"/><ellipse class="cls-54" cx="232" cy="1847.64" rx="337.49" ry="170.94"/><rect class="cls-55" x="95.5" y="1738.14" width="272.75" height="120.86" rx="12" ry="12"/><rect class="cls-56" x="95.14" y="1736.14" width="272.75" height="120.86" rx="12" ry="12"/><rect class="cls-57" x="58.52" y="1664.18" width="352" height="82.55" rx="12" ry="12"/><rect class="cls-58" x="94.78" y="1739.15" width="272.74" height="120.85" rx="12" ry="12"/><rect class="cls-59" x="58.52" y="1664.26" width="352" height="82.74" rx="12" ry="12"/><path class="cls-60" d="M0,540.22s192.46-39,400.48,2.15,204.17-13,464.59-9.43S1242,557.87,1242,557.87V701.09S821.5,658.5,615.5,684.5,240,673,240,673,59.5,658.63,0,692Z"/><path class="cls-61" d="M935.11,2177.46c-10.94-.08-20.3-.12-30.32-.39-6.51-.17,13.61-11.66-21.39-17.49-3-.14-12.18-1.15-14,2.72s3.53,12.9-2.89,13c-28.25-1.87-53.69-5.13-79.15-10.65l-3.88-91.37,156.29,18.28Z"/><path class="cls-62" d="M935.11,2179.4h0l-4.3,0c-9.31-.06-17.35-.12-26.06-.36a3.26,3.26,0,0,1-2.86-1.31c-.86-1.3-.3-2.74.19-4,.71-1.83,1.15-3.23.31-4.71-1.22-2.14-5.54-5.17-19.18-7.46l-1-.06c-6.61-.4-10.31.16-11,1.67-.47,1-.15,3.07.14,4.88.43,2.78.88,5.64-.76,7.58a5,5,0,0,1-4,1.64h-.15c-29.56-1.95-54.79-5.35-79.43-10.69a2,2,0,0,1-1.53-1.82l-3.89-91.36a2,2,0,0,1,.62-1.51,2,2,0,0,1,1.55-.51L940,2089.61a1.93,1.93,0,0,1,1.71,2l-4.66,85.93A1.94,1.94,0,0,1,935.11,2179.4Zm-29.44-4.25c8.36.22,16.17.27,25.16.34h2.44l4.47-82.24-152.22-17.8,3.73,87.59c24,5.11,48.57,8.38,77.31,10.28a1.55,1.55,0,0,0,1-.26c.49-.58.13-2.92-.11-4.46-.39-2.49-.8-5.06.18-7.14,2.18-4.67,10.37-4.17,14.77-3.9l1.07.06.23,0c12.58,2.09,19.58,5.08,22,9.39,1.82,3.2.64,6.23-.06,8Z"/><path class="cls-63" d="M861.24,2021.94l78.15,68.43S817.31,2083,783.1,2072.1C783.1,2072.1,805.65,2035.55,861.24,2021.94Z"/><path class="cls-64" d="M939.39,2092.31h-.12c-5-.3-122.71-7.52-156.76-18.36a1.94,1.94,0,0,1-1.07-2.87c.24-.39,5.94-9.52,18.61-20.43,11.65-10,31.64-23.47,60.73-30.59a1.9,1.9,0,0,1,1.74.42l78.15,68.43a1.94,1.94,0,0,1-1.28,3.4ZM786.21,2071c32,9,123.76,15.49,147.6,17.06l-73.08-64c-27.82,7-47,19.89-58.14,29.53A105.81,105.81,0,0,0,786.21,2071Z"/><circle class="cls-65" cx="830.33" cy="2103.78" r="9.91"/><path class="cls-66" d="M839.08,2108.73a9.91,9.91,0,0,1-13.44,4,10.33,10.33,0,0,1-4-13.79c.13,3.84,1.66,6.3,6.47,8.91S836.14,2110.89,839.08,2108.73Z"/><circle class="cls-65" cx="809.53" cy="2144.8" r="10.89"/><path class="cls-66" d="M818.48,2151a10.95,10.95,0,1,1-17.64-12.95c.79,6.55.16,7,4.89,10.77S813.39,2152.46,818.48,2151Z"/><circle class="cls-65" cx="854.05" cy="2135.28" r="7.19"/><path class="cls-66" d="M860.85,2137.79a7.19,7.19,0,1,1-13.61-4.65A8.09,8.09,0,0,0,853,2139C856.8,2140.31,859.44,2138.34,860.85,2137.79Z"/><circle class="cls-65" cx="804.09" cy="2104.76" r="5.44"/><path class="cls-66" d="M809,2107.19a5.57,5.57,0,0,1-7.46,2.53c-2.66-1.39-4.07-5-2.19-7.56.25,2.88.51,3.93,3.18,5.32S806,2108.82,809,2107.19Z"/><circle class="cls-65" cx="916.45" cy="2155.3" r="5.44"/><path class="cls-66" d="M920.9,2158.64a5.44,5.44,0,0,1-7.6,1.19,5.37,5.37,0,0,1-1.12-8,6.48,6.48,0,0,0,2.72,5.83C917.33,2159.4,918.73,2159,920.9,2158.64Z"/><circle class="cls-65" cx="896.43" cy="2117.39" r="20.41"/><path class="cls-66" d="M915.3,2125.16a20.41,20.41,0,1,1-37.74-15.55c1.55,10.52,3.81,15.24,14.24,19.53S908.31,2130.9,915.3,2125.16Z"/><path class="cls-65" d="M902.07,2172.79s-.39,1.94-.39,1.95a29.6,29.6,0,0,0,1.55-3.5c.39-2.72,0-.39.39-3.11,1.33-9.27-8.29-15.51-17.65-15.92a18.09,18.09,0,0,0-17.59,24.8C870.69,2176,903.73,2157.46,902.07,2172.79Z"/><ellipse class="cls-67" cx="647.43" cy="625.5" rx="379.43" ry="109.5"/><path class="cls-68" d="M772.15,355.57s9.92-46,56.36-19.46,32.42-29.39,20.87-46.6,11.48-30.68,11.48-30.68,16.7-17.1-26.09-47.19c-26.43-18.57-3.13-26.54,4.7-33"/><ellipse class="cls-69" cx="722.34" cy="163.63" rx="78.56" ry="63.58" transform="matrix(0.65, -0.76, 0.76, 0.65, 128.99, 606.9)"/><ellipse class="cls-70" cx="722.39" cy="163.24" rx="58.28" ry="46.47" transform="translate(129.31 606.8) rotate(-49.53)"/><ellipse class="cls-69" cx="493.96" cy="168.49" rx="63.58" ry="78.56" transform="translate(-5.26 320.69) rotate(-35.79)"/><ellipse class="cls-71" cx="493.59" cy="168.35" rx="46.47" ry="58.28" transform="translate(-5.25 320.45) rotate(-35.79)"/><ellipse class="cls-72" cx="697.24" cy="582.74" rx="22.27" ry="42.52"/><ellipse class="cls-73" cx="585.88" cy="583.15" rx="22.27" ry="42.52"/><path class="cls-74" d="M785.51,345.91c-35.65-39.23-49.41-54.83-53.45-107.36-4.26-60.06-56-120.68-122.7-120.68-62.5,0-99.21,44.54-120,101.91-22.21,57.84-34.59,126.45-28.56,203,.81,9.14,1.62,16.75,3.24,27.41,12,79.1,84.76,144.67,189.31,144.67s175.14-60.21,175.14-140.11C828.44,423.63,807.43,369.52,785.51,345.91Z"/><path class="cls-75" d="M617.87,309.24c27.08-8.52,29.56-12,29.56-12"/><path class="cls-75" d="M618.16,312.36c28.28-2.58,31.7-.52,31.7-.52"/><path class="cls-75" d="M618.84,317.22c28.32,1.95,29.4,4.34,29.4,4.34"/><path class="cls-75" d="M596,309.24c-27.08-8.52-31.22-7.93-31.22-7.93"/><path class="cls-75" d="M595.76,312.36c-28.28-2.58-30.94.29-30.94.29"/><path class="cls-75" d="M595.08,317.22c-28.33,1.95-29.45,6-29.45,6"/><circle cx="606.53" cy="313.05" r="4.86"/><ellipse class="cls-76" cx="636.09" cy="454.78" rx="129.99" ry="109.33"/><path class="cls-77" d="M522.3,345.45c0,36.44-2.45,96.78-25.71,96.78-20,0-25.72-42.74-25.72-79.19"/><path class="cls-78" d="M737.92,342.35c-10.18,38.8-24.88,82.15-45.12,75.41-22.08-7.36-6-80.27,5-118.83"/><polyline class="cls-79" points="629.21 154.32 632.45 143.79 667.94 147.49 650.84 137.62 658.13 131.61 644.86 128.53 650.82 125.59 638.42 119.21 636.73 98.11 630.1 104.09 628.83 93.69 618.24 104.49 613.9 93.47 605.14 108.02 591.98 105.63 597.43 116.67 580.13 112.54 584.57 122.49 563.96 123.75 584.66 139.74 575.75 153.51 588.71 147.84 586.28 153.51 600.86 144.6 607.34 159.18 616.25 149.46"/><path class="cls-80" d="M607.34,160.39a.68.68,0,0,1-.2,0,1.21,1.21,0,0,1-.91-.7l-5.92-13.31-13.39,8.18a1.21,1.21,0,0,1-1.75-1.51l1.22-2.85-10.15,4.44a1.22,1.22,0,0,1-1.41-.33,1.2,1.2,0,0,1-.1-1.44L583,140l-19.83-15.31a1.22,1.22,0,0,1,.67-2.17l18.87-1.16L579,113a1.22,1.22,0,0,1,.18-1.28,1.2,1.2,0,0,1,1.21-.4l14.78,3.53-4.3-8.72a1.21,1.21,0,0,1,.11-1.27,1.2,1.2,0,0,1,1.19-.46l12.35,2.23,8.32-13.83a1.21,1.21,0,0,1,1.14-.59,1.23,1.23,0,0,1,1,.77l3.66,9.28L628,92.84a1.21,1.21,0,0,1,2.07.71l1,8.07,4.89-4.41a1.22,1.22,0,0,1,2,.81l1.63,20.42,11.81,6.07a1.21,1.21,0,0,1,0,2.17l-2.91,1.44,10,2.3a1.21,1.21,0,0,1,.5,2.12L653,137.45l15.59,9a1.24,1.24,0,0,1,.55,1.43,1.2,1.2,0,0,1-1.29.83l-34.5-3.59-2.94,9.57a1.21,1.21,0,1,1-2.32-.71l3.23-10.53a1.22,1.22,0,0,1,1.29-.85l29.82,3.11-12.16-7a1.17,1.17,0,0,1-.6-.95,1.2,1.2,0,0,1,.43-1l5.4-4.46-10.87-2.51a1.24,1.24,0,0,1-.94-1.05,1.22,1.22,0,0,1,.67-1.23l3.8-1.87-10.26-5.28a1.23,1.23,0,0,1-.66-1l-1.48-18.65-4.8,4.33a1.25,1.25,0,0,1-1.24.24,1.2,1.2,0,0,1-.78-1l-1-7.89-8.82,9a1.18,1.18,0,0,1-1.11.34,1.22,1.22,0,0,1-.89-.74l-3.44-8.74-7.48,12.44a1.23,1.23,0,0,1-1.26.57l-10.8-1.95,4.39,8.87a1.25,1.25,0,0,1-.14,1.3,1.22,1.22,0,0,1-1.24.42l-14.9-3.56,3.44,7.7a1.25,1.25,0,0,1-.07,1.13,1.21,1.21,0,0,1-1,.58l-17.38,1.07,18.15,14a1.2,1.2,0,0,1,.27,1.62L579,150.77l9.26-4.05a1.22,1.22,0,0,1,1.6,1.6l-.93,2.16,11.33-6.92a1.19,1.19,0,0,1,1-.12,1.17,1.17,0,0,1,.75.66L607.7,157l7.65-8.35a1.21,1.21,0,1,1,1.79,1.64l-8.9,9.72A1.24,1.24,0,0,1,607.34,160.39Z"/><path class="cls-81" d="M655.33,282.21s-9.07-37.12,15.36-39.71c22.87-2.42,24.12,33.47,24.12,33.47"/><path class="cls-81" d="M708.73,264.34s-2.54,6.79-14.18,4.43"/><path class="cls-81" d="M705.63,258.15s-1.73,6.7-12.57,4.26"/><path class="cls-81" d="M709.5,271.59s-2.61,6.31-14.25,4"/><path class="cls-81" d="M552.45,288.76s9.18-37.09-15.23-39.75c-22.87-2.49-24.23,33.4-24.23,33.4"/><path class="cls-81" d="M499.11,270.74s2.52,6.79,14.17,4.47"/><path class="cls-81" d="M502.23,264.56s1.71,6.7,12.55,4.29"/><path class="cls-81" d="M498.32,278s2.58,6.32,14.23,4"/><ellipse class="cls-82" cx="695.62" cy="295.24" rx="31.59" ry="17.01"/><ellipse class="cls-83" cx="519.06" cy="304.95" rx="31.59" ry="17.01"/></svg>
