<svg id="Layer_1" data-name="Layer 1" xmlns="http://www.w3.org/2000/svg" xmlns:xlink="http://www.w3.org/1999/xlink" width="200" height="200" viewBox="0 0 200 200"><defs><style>.cls-1{fill:url(#radial-gradient);}.cls-2{fill:none;stroke:#fff;stroke-linecap:round;stroke-linejoin:round;stroke-width:8px;}</style><radialGradient id="radial-gradient" cx="99.81" cy="101.89" r="79.71" gradientUnits="userSpaceOnUse"><stop offset="0" stop-color="#fcaccb"/><stop offset="0.33" stop-color="#fba8c9"/><stop offset="0.65" stop-color="#f69cc1"/><stop offset="0.97" stop-color="#ef89b6"/><stop offset="1" stop-color="#ee86b4"/></radialGradient></defs><title>Artboard 7</title><path class="cls-1" d="M172.75,40.2c-17.89-17.89-49.19-15.87-69.55,4.5l-3.39,3.39-3.4-3.39C76.05,24.33,44.75,22.31,26.86,40.2S11,89.39,31.36,109.75l3.4,3.39,60.91,60.92a5.85,5.85,0,0,0,8.27,0l60.92-60.92,3.39-3.39C188.62,89.39,190.64,58.09,172.75,40.2Z"/><path class="cls-2" d="M28.49,59.69C37.77,37.53,62,41.26,62,41.26"/><line class="cls-2" x1="25.92" y1="72.06" x2="25.92" y2="72.83"/></svg>
