<svg id="Layer_1" data-name="Layer 1" xmlns="http://www.w3.org/2000/svg" xmlns:xlink="http://www.w3.org/1999/xlink" width="500" height="500" viewBox="0 0 500 500"><defs><style>.cls-1{fill:#fff;}.cls-2{fill:#009ff7;}.cls-3{fill:url(#radial-gradient);}.cls-4{fill:#e58c3c;}.cls-5{fill:#fff18f;}</style><radialGradient id="radial-gradient" cx="262.72" cy="248.5" r="113.12" gradientUnits="userSpaceOnUse"><stop offset="0" stop-color="#ffdf2b"/><stop offset="0.15" stop-color="#ffdc31"/><stop offset="0.36" stop-color="#ffd541"/><stop offset="0.43" stop-color="#ffd249"/><stop offset="1" stop-color="#e1b73c"/></radialGradient></defs><title>Artboard 8</title><circle class="cls-1" cx="249.5" cy="250.5" r="207.5"/><path class="cls-2" d="M249.5,49a200.81,200.81,0,1,1-78.43,15.83A200.31,200.31,0,0,1,249.5,49m0-12C131.59,37,36,132.59,36,250.5S131.59,464,249.5,464,463,368.41,463,250.5,367.41,37,249.5,37Z"/><path class="cls-3" d="M365.4,233.67,175.3,135.85A16.67,16.67,0,0,0,151,150.67V346.33a16.67,16.67,0,0,0,24.3,14.82l190.1-97.82a16.68,16.68,0,0,0,0-29.66Z"/><circle class="cls-4" cx="182.26" cy="173.14" r="14"/><path class="cls-5" d="M193.56,181.4A14,14,0,1,1,171,164.87c-.69,7.27,0,10.78,6.29,15.34S188,184.08,193.56,181.4Z"/><circle class="cls-4" cx="174.63" cy="217.77" r="6.37"/><path class="cls-5" d="M179.77,221.53A6.37,6.37,0,1,1,169.48,214c-.31,3.31,0,4.9,2.87,7S177.22,222.75,179.77,221.53Z"/><circle class="cls-4" cx="338.63" cy="242.77" r="11.37"/><path class="cls-5" d="M347.81,249.48a11.37,11.37,0,1,1-18.36-13.42c-.56,5.9,0,8.75,5.11,12.46S343.26,251.66,347.81,249.48Z"/><circle class="cls-4" cx="246.33" cy="195.07" r="11.07"/><path class="cls-5" d="M255.26,201.61a11.07,11.07,0,1,1-17.87-13.08c-.54,5.75,0,8.52,5,12.13S250.84,203.73,255.26,201.61Z"/><circle class="cls-4" cx="273.63" cy="218.77" r="6.37"/><path class="cls-5" d="M278.77,222.53A6.37,6.37,0,1,1,268.48,215c-.31,3.31,0,4.9,2.87,7S276.22,223.75,278.77,222.53Z"/><circle class="cls-4" cx="246.33" cy="245.07" r="7.07"/><path class="cls-5" d="M252,249.25a7.07,7.07,0,0,1-11.41-8.35c-.35,3.66,0,5.44,3.18,7.75S249.21,250.6,252,249.25Z"/><circle class="cls-4" cx="304.25" cy="260.14" r="14"/><path class="cls-5" d="M315.55,268.4A14,14,0,1,1,293,251.87c-.69,7.27.05,10.78,6.29,15.34S310,271.09,315.55,268.4Z"/><circle class="cls-4" cx="187.33" cy="312.07" r="17.07"/><path class="cls-5" d="M201.1,322.14A17.07,17.07,0,1,1,173.55,302c-.84,8.85.06,13.14,7.67,18.7S194.28,325.41,201.1,322.14Z"/><circle class="cls-4" cx="226.13" cy="310.27" r="7.87"/><path class="cls-5" d="M232.48,314.92a7.87,7.87,0,1,1-12.71-9.3c-.38,4.09,0,6.06,3.54,8.63S229.33,316.43,232.48,314.92Z"/><circle class="cls-4" cx="214.33" cy="289.07" r="6.07"/><path class="cls-5" d="M219.23,292.66a6.08,6.08,0,0,1-9.81-7.17c-.29,3.15,0,4.67,2.73,6.65S216.8,293.82,219.23,292.66Z"/><circle class="cls-4" cx="193.13" cy="202.27" r="3.87"/><path class="cls-5" d="M196.25,204.56A3.87,3.87,0,1,1,190,200c-.19,2,0,3,1.74,4.24A3.8,3.8,0,0,0,196.25,204.56Z"/><circle class="cls-4" cx="194.83" cy="251.57" r="3.57"/><path class="cls-5" d="M197.71,253.68a3.57,3.57,0,1,1-5.77-4.22c-.17,1.86,0,2.75,1.61,3.92A3.5,3.5,0,0,0,197.71,253.68Z"/></svg>
