<svg id="Layer_1" data-name="Layer 1" xmlns="http://www.w3.org/2000/svg" xmlns:xlink="http://www.w3.org/1999/xlink" width="200" height="200" viewBox="0 0 200 200"><defs><style>.cls-1{fill:url(#radial-gradient);}.cls-2{fill:none;stroke:#fff;stroke-linecap:round;stroke-linejoin:round;stroke-width:16px;}.cls-3{fill:#f9fff6;}</style><radialGradient id="radial-gradient" cx="102.5" cy="100.5" r="77.5" gradientUnits="userSpaceOnUse"><stop offset="0" stop-color="#fcaccb"/><stop offset="0.33" stop-color="#fba8c9"/><stop offset="0.65" stop-color="#f69cc1"/><stop offset="0.97" stop-color="#ef89b6"/><stop offset="1" stop-color="#ee86b4"/></radialGradient></defs><title>settingsicon</title><circle class="cls-1" cx="102.5" cy="100.5" r="77.5"/><path class="cls-2" d="M147.62,94a41.21,41.21,0,0,1,.55,6.7c0,23.73-20.45,43-45.67,43s-45.67-19.25-45.67-43c0-17.29,10.85-32.2,26.5-39"/><path class="cls-3" d="M88.11,83.24A8.28,8.28,0,0,1,79.84,75V48.35a8.27,8.27,0,0,1,12.32-7.21L115.9,54.45a8.28,8.28,0,0,1,0,14.43L92.16,82.18A8.22,8.22,0,0,1,88.11,83.24Z"/></svg>
