<svg id="Layer_1" data-name="Layer 1" xmlns="http://www.w3.org/2000/svg" width="350" height="200" viewBox="0 0 350 200"><defs><style>.cls-1{fill:#fc2929;}</style></defs><title>Artboard 17</title><path class="cls-1" d="M81.9,57.42A8.26,8.26,0,0,0,81.64,55a4.18,4.18,0,0,1-.26-1.4,1.69,1.69,0,0,1,.93-1.45,4,4,0,0,1,2.2-.58,7.19,7.19,0,0,1,4.8,1.54,4.71,4.71,0,0,1,1.83,3.75V95.71a30.18,30.18,0,0,0,5-1.4,29.85,29.85,0,0,0,5.4-2.64,32.06,32.06,0,0,0,5.23-4,26.65,26.65,0,0,0,4.47-5.58,30.08,30.08,0,0,0,3.14-7.23,32.24,32.24,0,0,0,1.19-9.09,23.43,23.43,0,0,0-1.13-7,19.94,19.94,0,0,0-3.52-6.56,18.43,18.43,0,0,0-6.13-4.88,19.44,19.44,0,0,0-9-1.92,28.52,28.52,0,0,0-11.86,2.26,23.47,23.47,0,0,0-8.25,6.08,24.82,24.82,0,0,0-4.82,8.68,32.77,32.77,0,0,0-1.57,10.11A28,28,0,0,0,70,79.18a23.51,23.51,0,0,0,1.48,4.41A11.67,11.67,0,0,0,73,86.12l.81.93c.66-.19,1.13-.12,1.4.23a2.24,2.24,0,0,1,.41,1.4A8.54,8.54,0,0,1,75,91.12a13.65,13.65,0,0,1-1.48,3,6.68,6.68,0,0,1-2.15,2.15,2.07,2.07,0,0,1-2.5-.26c-.46-.43-1.18-1.2-2.15-2.33a22.22,22.22,0,0,1-2.87-4.5,36.89,36.89,0,0,1-2.53-6.8,34.4,34.4,0,0,1-1.1-9.21,42.31,42.31,0,0,1,2.55-15A33.69,33.69,0,0,1,70,46.58a32.19,32.19,0,0,1,11.18-7.5,38.16,38.16,0,0,1,14.47-2.64,31.53,31.53,0,0,1,11.85,2.15,26.35,26.35,0,0,1,15.11,15.22,31.7,31.7,0,0,1,2.09,11.68A36.18,36.18,0,0,1,123,76.94a37.72,37.72,0,0,1-4.85,9.76,40.32,40.32,0,0,1-7.18,7.85,38.74,38.74,0,0,1-8.8,5.57,17.1,17.1,0,0,1,4.91,4.1,27.85,27.85,0,0,1,3.31,5.17,45.49,45.49,0,0,1,2.38,5.78c.68,2,1.37,4,2.07,6a53.57,53.57,0,0,0,2.38,5.66,19.44,19.44,0,0,0,3.37,4.89,1.44,1.44,0,0,0,.61.43l.75.29a2.27,2.27,0,0,1,.64.35.65.65,0,0,1,.26.55,3.05,3.05,0,0,1-1,1.95,15.64,15.64,0,0,1-2.33,2,17.23,17.23,0,0,1-2.7,1.6,5.44,5.44,0,0,1-2.06.64,2.15,2.15,0,0,1-1.57-.7,28,28,0,0,1-4.53-6.88,60.55,60.55,0,0,1-2.73-7.09c-.74-2.35-1.42-4.62-2-6.83a30.41,30.41,0,0,0-2.41-6.1A17.07,17.07,0,0,0,97.59,107a16,16,0,0,0-6.45-3.2v16.5a2.31,2.31,0,0,1-1,2.13,4.38,4.38,0,0,1-2.32.61,8,8,0,0,1-2.1-.29,9.12,9.12,0,0,1-1.88-.76,5.39,5.39,0,0,1-1.4-1.07,1.93,1.93,0,0,1-.55-1.31Z"/><path class="cls-1" d="M155.93,85.13a21.79,21.79,0,0,1-1.14,6.8,23.83,23.83,0,0,1-3.37,6.6,25.77,25.77,0,0,1-5.52,5.57,23.58,23.58,0,0,1-7.58,3.75,13.33,13.33,0,0,0,1.54,2.88,10.22,10.22,0,0,0,2.29,2.35,10.94,10.94,0,0,0,3.11,1.57,13.09,13.09,0,0,0,4.1.58,12.63,12.63,0,0,0,6-1.31,13.13,13.13,0,0,0,4.22-3.45,18.67,18.67,0,0,0,2.76-4.83,31.28,31.28,0,0,0,1.57-5.4,3.57,3.57,0,0,1,1.65-2.64,3.35,3.35,0,0,1,2.56-.32,4.34,4.34,0,0,1,2.26,1.48,3.39,3.39,0,0,1,.79,2.7,41.78,41.78,0,0,1-.79,4.13,24.44,24.44,0,0,1-1.65,4.7,26.7,26.7,0,0,1-2.82,4.68,19.32,19.32,0,0,1-4.21,4.1,21.31,21.31,0,0,1-5.87,2.9,24.69,24.69,0,0,1-7.73,1.11,20.21,20.21,0,0,1-7.87-1.6,20.49,20.49,0,0,1-6.74-4.59,22.37,22.37,0,0,1-4.71-7.38,26.49,26.49,0,0,1-1.77-10,33.85,33.85,0,0,1,1.57-10.49,30,30,0,0,1,4.12-8.39,20.57,20.57,0,0,1,5.81-5.55,12.57,12.57,0,0,1,6.69-2,11.22,11.22,0,0,1,4.5.87,9.35,9.35,0,0,1,3.4,2.47,10.91,10.91,0,0,1,2.12,3.8A15.67,15.67,0,0,1,155.93,85.13ZM136.75,99.19a9.24,9.24,0,0,0,.06,1,9.73,9.73,0,0,1,.06,1.1,16.31,16.31,0,0,0,4-2.67A16.77,16.77,0,0,0,144,95a17.92,17.92,0,0,0,2-4.56,18.6,18.6,0,0,0,.7-5.14,5.92,5.92,0,0,0-.67-3.08,2,2,0,0,0-1.83-1.1,3.83,3.83,0,0,0-2.59,1,8.89,8.89,0,0,0-2,2.59,18.36,18.36,0,0,0-1.4,3.6c-.36,1.34-.66,2.68-.9,4a38,38,0,0,0-.46,3.86A27.45,27.45,0,0,0,136.75,99.19Z"/><path class="cls-1" d="M153.14,63.81c.89.08,1.88.13,3,.17s2.05.13,3.37.15l4.42.08V44.05a7.84,7.84,0,0,0-.21-2,7.75,7.75,0,0,0-.4-1.19,4.18,4.18,0,0,0-.41-.7.85.85,0,0,1-.2-.55A.67.67,0,0,1,163,39a3.69,3.69,0,0,1,.93-.41,7.89,7.89,0,0,1,1.25-.26,9.84,9.84,0,0,1,1.31-.09,6.77,6.77,0,0,1,4.68,1.54,4.81,4.81,0,0,1,1.71,3.69V64.33q5.46,0,11.54-.12t12.17-.4c.54-.58,1-.8,1.31-.64a1.35,1.35,0,0,1,.64,1.1,8.89,8.89,0,0,1,0,2.15,12.4,12.4,0,0,1-.46,2.47,6.93,6.93,0,0,1-1,2.07,1.7,1.7,0,0,1-1.36.87q-7.15.17-12.64.2l-10.26,0v37.71A6.32,6.32,0,0,0,174,114a3.68,3.68,0,0,0,3,1.28,4.27,4.27,0,0,0,3.11-1.28,11.53,11.53,0,0,0,2.26-3.19,22.11,22.11,0,0,0,1.57-4.16c.41-1.49.75-2.89,1-4.21a5.22,5.22,0,0,1,1.16-2.7,2.37,2.37,0,0,1,1.69-.84,2.9,2.9,0,0,1,1.45.43,5.39,5.39,0,0,1,1.36,1.13,6,6,0,0,1,1,1.57,4.42,4.42,0,0,1,.38,1.75V104a1.81,1.81,0,0,1-.12.52,49.09,49.09,0,0,1-2.06,6.22,25.61,25.61,0,0,1-3.37,6,18.4,18.4,0,0,1-4.91,4.53,12.23,12.23,0,0,1-6.68,1.81,12.92,12.92,0,0,1-4.39-.73A8.61,8.61,0,0,1,167,120a11.29,11.29,0,0,1-2.26-4.1,19.75,19.75,0,0,1-.81-6V72.06c-1.32,0-2.49,0-3.52,0s-1.89,0-2.58-.09l-2.16-.11a3.19,3.19,0,0,1-2.46-1.25,7.44,7.44,0,0,1-1.52-2.76,5.24,5.24,0,0,1-.11-2.76A1.5,1.5,0,0,1,153.14,63.81Z"/><path class="cls-1" d="M211.36,123.08a15.3,15.3,0,0,1-4.27-.64,10.33,10.33,0,0,1-4-2.21,11.69,11.69,0,0,1-2.91-4.16,16.24,16.24,0,0,1-1.13-6.53,52.09,52.09,0,0,1,1.54-12.18,119.07,119.07,0,0,1,4.44-14.15h-10.4c0,1.17-.11,2.64-.2,4.42s-.26,3.68-.5,5.7-.53,4-.9,6.1a48,48,0,0,1-1.36,5.69c-.39,1.24-1,2-1.83,2.15a3.23,3.23,0,0,1-2.47-.44,5.42,5.42,0,0,1-2-2.12,3.81,3.81,0,0,1-.35-2.9,37.54,37.54,0,0,0,.82-4.39q.34-2.58.55-5.46c.14-1.92.24-3.84.32-5.75s.13-3.63.17-5.14A11.79,11.79,0,0,1,183.29,78a7.17,7.17,0,0,1-1.45-4.51,5,5,0,0,1,.49-2.23,5.7,5.7,0,0,1,1.31-1.75,5.51,5.51,0,0,1,1.92-1.1,7,7,0,0,1,2.27-.38,8.88,8.88,0,0,1,2.17.29,6.23,6.23,0,0,1,2.15,1,7.73,7.73,0,0,1,1.83,2,10.76,10.76,0,0,1,1.34,3c1,.11,1.79.2,2.47.26l1.71.14q.7.06,1.17.06h7.14a3.29,3.29,0,0,1,1.54.64,11.39,11.39,0,0,1,2,1.65A10.89,10.89,0,0,1,213,79.26a3.34,3.34,0,0,1,.5,2.21,8.43,8.43,0,0,1-.41,1.69c-.27.89-.6,2-1,3.37s-.81,2.91-1.28,4.68-.89,3.61-1.27,5.54-.72,4-1,6a46.9,46.9,0,0,0-.41,6.07,9.94,9.94,0,0,0,.29,2.38,7.29,7.29,0,0,0,.87,2.07,4.39,4.39,0,0,0,1.49,1.42,4.11,4.11,0,0,0,2.12.52,5.06,5.06,0,0,0,3.48-1.28,10.68,10.68,0,0,0,2.44-3.19,21.5,21.5,0,0,0,1.6-4.16c.41-1.49.75-2.89,1-4.21a5.22,5.22,0,0,1,1.16-2.7,2.35,2.35,0,0,1,1.69-.84,2.93,2.93,0,0,1,1.45.43,5.39,5.39,0,0,1,1.36,1.13,6,6,0,0,1,1,1.57,4.42,4.42,0,0,1,.38,1.75,1.42,1.42,0,0,1-.06.46,1.07,1.07,0,0,0-.06.35,57.32,57.32,0,0,1-2.12,6.22,26.24,26.24,0,0,1-3.34,6,18.14,18.14,0,0,1-4.88,4.53A12.26,12.26,0,0,1,211.36,123.08Z"/><path class="cls-1" d="M264.23,102.39a7.61,7.61,0,0,1,1.22-2.7,2.08,2.08,0,0,1,1.63-.84,2.87,2.87,0,0,1,1.45.43,5.43,5.43,0,0,1,1.37,1.13,6.22,6.22,0,0,1,1,1.57,4.4,4.4,0,0,1,.37,1.75v.46a2.13,2.13,0,0,1-.11.7,53.81,53.81,0,0,1-3.52,9.15,50.09,50.09,0,0,1-4.3,7.12,51,51,0,0,1-4.73,5.61q-2.44,2.46-4.88,4.56V151.9a25.24,25.24,0,0,1-1.08,7.93,15.17,15.17,0,0,1-2.82,5.23,10.21,10.21,0,0,1-3.95,2.87,12.09,12.09,0,0,1-4.47.87,9.82,9.82,0,0,1-4.59-1.07,11.29,11.29,0,0,1-3.63-2.94,13.67,13.67,0,0,1-2.39-4.35,16.7,16.7,0,0,1-.84-5.35,24.92,24.92,0,0,1,1.19-8,25.58,25.58,0,0,1,3.23-6.39,34.8,34.8,0,0,1,4.7-5.43c1.79-1.69,3.66-3.4,5.64-5.14V115a21.79,21.79,0,0,1-5,5.9,10.31,10.31,0,0,1-6.68,2.29,11.06,11.06,0,0,1-9.3-4.68,16.39,16.39,0,0,1-2.47-5.4,27.51,27.51,0,0,1-.84-7.06,67.43,67.43,0,0,1,.67-9.47c.45-3.18.94-6,1.48-8.6q.93-4.47,2.15-8.66a8.21,8.21,0,0,0,.44-1.54,3.05,3.05,0,0,1,.67-1.42,3.62,3.62,0,0,1,1.65-1,11.3,11.3,0,0,1,3.52-.4c1.47,0,2.42.26,2.84.78a2.25,2.25,0,0,1,.5,1.83,6.92,6.92,0,0,1-.7,2.15,9,9,0,0,0-.72,1.8c-.55,2.21-1,4.23-1.46,6s-.78,3.65-1.07,5.49-.52,3.75-.67,5.75-.23,4.23-.23,6.71q0,4.88,1.42,7.38a4.44,4.44,0,0,0,4,2.5,5,5,0,0,0,3.34-1.34,13,13,0,0,0,2.79-3.57,28.56,28.56,0,0,0,2.18-5.12,41.87,41.87,0,0,0,1.45-6V80.14a9.31,9.31,0,0,0-.23-2.44,4.64,4.64,0,0,1-.23-1.4,1.61,1.61,0,0,1,.9-1.42,4.06,4.06,0,0,1,2.18-.55A6.71,6.71,0,0,1,252,75.87a4.78,4.78,0,0,1,1.72,3.68v41.78a51.12,51.12,0,0,0,6-8.19A46.41,46.41,0,0,0,264.23,102.39ZM241.4,161.31a2.28,2.28,0,0,0,2.09-1.16,7.8,7.8,0,0,0,1-2.7,19.1,19.1,0,0,0,.26-3.11V139.17a24,24,0,0,0-4.68,6.57,20.57,20.57,0,0,0-1.77,9,11.52,11.52,0,0,0,.84,4.68C239.66,160.68,240.43,161.31,241.4,161.31Z"/></svg>
