<svg id="Layer_1" data-name="Layer 1" xmlns="http://www.w3.org/2000/svg" xmlns:xlink="http://www.w3.org/1999/xlink" width="1100" height="1100" viewBox="0 0 1100 1100"><defs><style>.cls-1{fill:#fff;}.cls-2{fill:#009ff7;}.cls-3{fill:url(#radial-gradient);}.cls-4{fill:url(#radial-gradient-2);}.cls-5{fill:url(#radial-gradient-3);}.cls-6{fill:url(#radial-gradient-4);}.cls-7{fill:url(#radial-gradient-5);}.cls-8{fill:url(#radial-gradient-6);}.cls-9{fill:url(#radial-gradient-7);}.cls-10{fill:url(#radial-gradient-8);}.cls-11{fill:#fc2929;}</style><radialGradient id="radial-gradient" cx="214.41" cy="291.35" r="47.01" gradientUnits="userSpaceOnUse"><stop offset="0" stop-color="#fcaccb"/><stop offset="0.33" stop-color="#fba8c9"/><stop offset="0.65" stop-color="#f69cc1"/><stop offset="0.97" stop-color="#ef89b6"/><stop offset="1" stop-color="#ee86b4"/></radialGradient><radialGradient id="radial-gradient-2" cx="309.21" cy="297.33" r="38.27" xlink:href="#radial-gradient"/><radialGradient id="radial-gradient-3" cx="398.59" cy="297.68" r="40.76" xlink:href="#radial-gradient"/><radialGradient id="radial-gradient-4" cx="489.35" cy="297.68" r="40.76" xlink:href="#radial-gradient"/><radialGradient id="radial-gradient-5" cx="563.02" cy="298.02" r="33.08" xlink:href="#radial-gradient"/><radialGradient id="radial-gradient-6" cx="644.37" cy="297.61" r="42.99" xlink:href="#radial-gradient"/><radialGradient id="radial-gradient-7" cx="747.75" cy="298.02" r="43.72" xlink:href="#radial-gradient"/><radialGradient id="radial-gradient-8" cx="841.72" cy="297.12" r="40.83" xlink:href="#radial-gradient"/></defs><title>gameover</title><rect class="cls-1" x="111.07" y="125" width="835.93" height="674" rx="121.59" ry="121.59"/><path class="cls-2" d="M825.41,131A116,116,0,0,1,941,246.59V677.41A116,116,0,0,1,825.41,793H232.66A116,116,0,0,1,117.07,677.41V246.59A116,116,0,0,1,232.66,131H825.41m0-12H232.66c-70.17,0-127.59,57.42-127.59,127.59V677.41c0,70.17,57.42,127.59,127.59,127.59H825.41C895.58,805,953,747.58,953,677.41V246.59C953,176.42,895.58,119,825.41,119Z"/><path class="cls-3" d="M223.66,271.4l4.58-1a69.72,69.72,0,0,1,10.84-1h3.34l12.93,1.67a6.69,6.69,0,0,0,2.5-4,21,21,0,0,0,.42-5,62.5,62.5,0,0,0-.42-7.5,25.54,25.54,0,0,1-.42-4.45l-.28-2.92h-.27c-.37,0-.75-.33-1.12-1-.18-.19-.39-.42-.62-.7s-.4-.42-.49-.42a44.13,44.13,0,0,1-7-.83l-4.17-.83c-1.48-.19-2.64-.37-3.47-.56a164.5,164.5,0,0,0-19.18-1.53,93.44,93.44,0,0,0-21.69,2.36q-11.4,2.92-18.07,9.73-7.65,7.65-7.64,20.16a27.8,27.8,0,0,0,1.53,9.45,28.59,28.59,0,0,0,10.14,13.07,118.41,118.41,0,0,0,15.29,8.61l7.37,3.62a4.18,4.18,0,0,1-2.5,2.64,23.25,23.25,0,0,1-6.54,1l-2.22-.14h-3.34a34,34,0,0,1-10.7-1.6,49.8,49.8,0,0,1-10.15-4.79,3.34,3.34,0,0,0-1.8,2.5v.42q1.24,9.31,2.08,14.32a66.47,66.47,0,0,0,2.5,10,54.29,54.29,0,0,0,16.27,6.4,91.48,91.48,0,0,0,19.87,2.22q12.51,0,21.41-3.2a40.8,40.8,0,0,0,17.1-10,30.39,30.39,0,0,0,7.92-18.07,19.56,19.56,0,0,0,.56-4.45,15.66,15.66,0,0,0-1.95-7.23,27.62,27.62,0,0,0-5.42-7.09,41.65,41.65,0,0,0-17.79-10.15c-.37-.18-1.25-.53-2.64-1a33.2,33.2,0,0,1-4.17-1.87c-2.88-2-4.31-4-4.31-6.26C222,271.78,222.54,271.59,223.66,271.4Z"/><path class="cls-4" d="M343.75,262.51a13.77,13.77,0,0,0-1-3.62,1.93,1.93,0,0,0-1.74-1.25h-4.45a1.17,1.17,0,0,0-.69-.41c-4.64,0-8.57.09-11.82.27a63.24,63.24,0,0,0-9.45,1.26l-.69-.56h-2.09a11.71,11.71,0,0,1-2.08.14q-6,0-11.82-.42-3.88-.27-11.81-.28h-7.65c-3.15.56-4.73,1.39-4.73,2.51q-.82,10.69-.83,30.44,0,7.37.14,9.87t.14,6.53v3.33c0,1.95,0,3.48.14,4.59,0,2.5.18,5.89.55,10.15a22.16,22.16,0,0,0,1.81,6.95,6.91,6.91,0,0,0,.7,1.81,7.58,7.58,0,0,0,1.39,3.05c.09.37.23.56.41.56h44.07c1.39-.65,3.79-1,7.22-1l1.12.14a1.14,1.14,0,0,0,.83.27h2.08l1.67-.14v.7a8.54,8.54,0,0,1,1-.56l.83-.41a1.75,1.75,0,0,1,1,.27,7.72,7.72,0,0,0,1.95.14h1.39l1.11-1v-4.31l-1-4a24.46,24.46,0,0,1-.84-3.89,5.87,5.87,0,0,0-.27-1.81,3.69,3.69,0,0,0-.28-1.46c-.19-.42-.42-.62-.7-.62q-6.26,0-12.65.41t-12.78.42v-3.47a23.33,23.33,0,0,1,.13-2.92l.14-3.06a2.44,2.44,0,0,1-.14-1v-.56a3.54,3.54,0,0,1,.56-2.22,1.55,1.55,0,0,1,1.25-1.05,15,15,0,0,1,2.92-.21h10.15A59.64,59.64,0,0,0,339,305.6c3.06-.46,4.45-1.44,4.17-2.92l-2.91-9.17a3.21,3.21,0,0,0-.7-1.81,2.16,2.16,0,0,0-1.95-.84,13.39,13.39,0,0,1-3.33-.83,4.14,4.14,0,0,0-2.09-.42,1.25,1.25,0,0,0-.55.14.9.9,0,0,0-.42.42H319.43a1.82,1.82,0,0,0-.7-.42,2.39,2.39,0,0,0-.69-.14,1.92,1.92,0,0,1-1.39.56,2,2,0,0,1-1.6-.56,3.21,3.21,0,0,1-.49-2.08,25.93,25.93,0,0,1,.14-2.78,21.19,21.19,0,0,1,1.25-6.53c.28-.93.6-1.39,1-1.39v.27a8.14,8.14,0,0,1,2.92-.83c1.76-.19,4.64-.28,8.62-.28a21.12,21.12,0,0,0,3.68-.28c1.07-.18,1.79-.32,2.16-.41a12.12,12.12,0,0,1,2.92-.42,3.51,3.51,0,0,1,1.25.14,2.23,2.23,0,0,0,1.39.42,4,4,0,0,0,1.81-.42,2.91,2.91,0,0,1,1.52-.14l.56.14c.19.28.32.42.42.42.92,0,1.39-1.3,1.39-3.9a28.57,28.57,0,0,1-1-4.58A23.48,23.48,0,0,0,343.75,262.51Z"/><path class="cls-5" d="M439.1,258a3.4,3.4,0,0,1-.41-.35l-1.95-.14c-1-.09-2.92-.13-5.7-.13h-5.42l-3.61.13q-1.39,0-4.17-.27a21.56,21.56,0,0,0-4-.28,6.44,6.44,0,0,0-1.81.28,4.45,4.45,0,0,0-1.81.27h-3.47c-2.23,0-3.94,0-5.15-.13H373.36c-2.14.09-5.24.13-9.32.13h-2.78l-2.5-.13-.55.55-.14,1.11v2.78a12.41,12.41,0,0,1-.28,3.06v1.81a79.07,79.07,0,0,0,.56,11c.64,4.63,2,6.95,4,6.95h13.76l.41.42q0,12.09-.13,17.65L376.28,318a119.73,119.73,0,0,0,.55,13.34c.28,3.43.84,5.8,1.67,7.09h29.61c.37,0,1.67-.14,3.89-.41,2-.19,3.1-1.72,3.2-4.59q.27-2.77.27-6.95a30,30,0,0,1,.28-4.59c0-1.11.09-2.87.28-5.28a93.33,93.33,0,0,0,.56-10.56v-3.9c-.1-.92-.14-2.31-.14-4.17v-4.17a26.08,26.08,0,0,1,.28-4.44q.69-5.29,2.78-5.29h5.28a59.37,59.37,0,0,1,11.95,1,4.49,4.49,0,0,0,1.74-1.25,2.81,2.81,0,0,0,.9-1.81V258.34C439.38,258.25,439.29,258.13,439.1,258Z"/><path class="cls-6" d="M529.87,258a2.94,2.94,0,0,1-.42-.35l-1.94-.14c-1-.09-2.92-.13-5.7-.13h-5.42l-3.62.13q-1.38,0-4.17-.27a21.49,21.49,0,0,0-4-.28,6.38,6.38,0,0,0-1.8.28,4.42,4.42,0,0,0-1.81.27h-3.48c-2.22,0-3.94,0-5.14-.13H464.12q-3.19.13-9.31.13H452l-2.5-.13-.56.55-.14,1.11v2.78a12.52,12.52,0,0,1-.27,3.06v1.81a81,81,0,0,0,.55,11q1,6.94,4,6.95H466.9l.42.42q0,12.09-.14,17.65L467,318a119.23,119.23,0,0,0,.56,13.34c.28,3.43.83,5.8,1.67,7.09h29.6c.37,0,1.67-.14,3.9-.41,2-.19,3.1-1.72,3.19-4.59q.29-2.77.28-6.95a28.79,28.79,0,0,1,.28-4.59c0-1.11.09-2.87.28-5.28a93.44,93.44,0,0,0,.55-10.56v-3.9c-.09-.92-.14-2.31-.14-4.17v-4.17a27.17,27.17,0,0,1,.28-4.44c.47-3.53,1.39-5.29,2.78-5.29h5.28a59.48,59.48,0,0,1,12,1,4.64,4.64,0,0,0,1.74-1.25,2.81,2.81,0,0,0,.9-1.81V258.34C530.15,258.25,530.06,258.13,529.87,258Z"/><path class="cls-7" d="M573.38,257a2.64,2.64,0,0,1-.84-.21,2.79,2.79,0,0,0-1-.21.59.59,0,0,0-.42.14,1.94,1.94,0,0,0-.83.14,1.15,1.15,0,0,0-.7.14h-.55a1.33,1.33,0,0,1-1-.42H562l-.56.42a53.67,53.67,0,0,1-6.53-.28c-.65,0-1.62-.07-2.92-.21a33.83,33.83,0,0,0-3.61-.21,14,14,0,0,0-3.89.42c-1.67.37-2.51.93-2.51,1.67v33.78q0,5.83.84,18.07l.41,5.28q.56,8.76.7,12.79a16.1,16.1,0,0,1,.14,2.78,19.18,19.18,0,0,0,.42,3.75l.69,5h2.5l3.2-.28,3.34-.41,3.61-.7h12.37c.09-.37.37-.55.84-.55L573,338a27.67,27.67,0,0,0,3.2.41,3.46,3.46,0,0,1,1-.41h.7c0-.1.09-.14.27-.14l.42.14.14.13a3.29,3.29,0,0,0,2.64-1,5.88,5.88,0,0,0,.91-2.71,43.61,43.61,0,0,0,.2-4.66,32.56,32.56,0,0,1,.28-5.69l.42-5.29V291.7q0-2.93.42-7.92a13.28,13.28,0,0,1,.34-2,6.08,6.08,0,0,0,.21-.9L583.66,257Z"/><path class="cls-8" d="M688.05,259.31a7.28,7.28,0,0,0-4.17-1h-4.45c-1.85,0-3.24,0-4.17-.14h-4.17c-.92-.09-2.08-.14-3.47-.14h-8.34a5.43,5.43,0,0,0-3.48,1,7.51,7.51,0,0,0-1.94,1.81c-.09,0-.14.47-.14,1.39a10.46,10.46,0,0,1-.14,1.46,13.63,13.63,0,0,0-.14,2q-.29,5.84-.28,10.56c0,2.41,0,4.26-.13,5.56v4.86c-.75-1.2-1.44-2.27-2.09-3.19s-1.21-1.76-1.67-2.5q-4.72-6.81-8.06-12.24-3.62-5.13-3.48-5l-2.77-4c-.19-.28-.45-.7-.77-1.25a3.33,3.33,0,0,0-1-1.18,4.83,4.83,0,0,0-1.95-.49c-1.94,0-3.61.05-5,.14-.84,0-2.92.09-6.26.28q-10,.4-12.37.41a13.53,13.53,0,0,0-4.59.56q-2.91,1-3.47,3.2c-.28.09-.28.23,0,.41l.14.56.14,3.2c.09.92.14,2,.14,3.19,0,1.58,0,2.83-.14,3.76v1.8l-.14.7v1.39a12.94,12.94,0,0,0-.14,2.36v6a4.61,4.61,0,0,0,.14,1.39v2.08a13.07,13.07,0,0,0-.14,2.37v3.19q0,9.32.83,18.07V316c.1,1.12.14,2.83.14,5.15s0,4.17.14,5.28l.14,5.28a25.13,25.13,0,0,1,.14,2.92c0,.93.05,1.39.14,1.39l.28.83,5.42,1.53h7.37q7.21,0,18.2-1h.35a1.19,1.19,0,0,1,.49.14,1.87,1.87,0,0,0,1-.14,3.25,3.25,0,0,0,.42-.7q.42-2.09.42-2.22a2,2,0,0,1,.13-.83v-5.42c0-1.76,0-3.15.14-4.17v-4a31.57,31.57,0,0,1,.14-3.47v-2.36a1,1,0,0,1,.28-.63.86.86,0,0,1,.69-.35c.28,0,.65.24,1.12.7l1.8,1.67c1.3,1.48,2.18,2.55,2.64,3.19L654.14,336a5.43,5.43,0,0,0,2.36,1.53,9.69,9.69,0,0,0,3.47.69,3.43,3.43,0,0,0,1.12-.14h16.26a68.32,68.32,0,0,0,7.37.28,3.9,3.9,0,0,0,1-.14,3.09,3.09,0,0,1,.76-.14c.84-.09,1.48-1.2,2-3.33l.42-4.59q.27-4,.27-19V291.7l.14-16V272.1a4,4,0,0,0-.14-1.25v-1c0-1.3.05-2.41.14-3.34a28.93,28.93,0,0,0,.14-3.06,9.67,9.67,0,0,0-.28-2.71A2.62,2.62,0,0,0,688.05,259.31Z"/><path class="cls-9" d="M791.88,294.06l-.55-.28h-3.06a1.78,1.78,0,0,1-.42-.07,3.19,3.19,0,0,0-.69-.07,20.27,20.27,0,0,1-2.64-.13,36.07,36.07,0,0,1-3.62-.14l-1.67.41a6.84,6.84,0,0,0-2.08.28,34,34,0,0,1-3.48.14c-1.94,0-3.1.19-3.47.56a7.28,7.28,0,0,1-1.39-.14,6.63,6.63,0,0,0-1.25-.14,16.56,16.56,0,0,0-2.64-.28,13,13,0,0,0-1.67.28,2.63,2.63,0,0,0-.83.14,2.74,2.74,0,0,1-.84.14h-.69c-.56,0-.84.32-.84,1v5.42a56,56,0,0,1,1.12,7.09c0,1.67,0,3.13.13,4.38s.19,2.34.28,3.26a17.58,17.58,0,0,1-7.23,1.53,8.61,8.61,0,0,1-7.36-3.89q-2.93-5-2.92-14.32,0-11,4.72-16,4-4,11.26-4a29.44,29.44,0,0,1,4.73.55,87.08,87.08,0,0,1,9.87,2.23c1.39.46,2.92.88,4.58,1.25l4.87-20.43q-17-7.94-31.83-7.93A61.8,61.8,0,0,0,733,257.78a45.44,45.44,0,0,0-15.43,8.48,39.11,39.11,0,0,0-10.36,13.9,44.42,44.42,0,0,0-3.68,18.35q0,14.73,5.84,25a36.49,36.49,0,0,0,30.58,17.65q8.9,0,15-3.19,6.26-3.35,7.64-9.46a33.17,33.17,0,0,0,.7,7.23c.28,1.86.74,2.78,1.39,2.78a2.41,2.41,0,0,0,1-.14H780.9l.56-.28.14.28h4.31a30,30,0,0,1,4.58-.28,22,22,0,0,0,1-6.25c.18-2,.28-5.51.28-10.43v-.69a5.33,5.33,0,0,1,.13-1.25,3.66,3.66,0,0,1,.14-1.11V300a11.84,11.84,0,0,0-.14-2.09Z"/><path class="cls-10" d="M877.79,306.15a20.82,20.82,0,0,0-7.79-10,73.92,73.92,0,0,0-12.79-7.23q-6-2.78-7.22-3.48a3.63,3.63,0,0,1-1.39-1.25,3.4,3.4,0,0,1-.28-1.53,5.35,5.35,0,0,1,1.39-3.47q2.22-2.51,7.92-3.48c1.11-.18,3.48-.5,7.09-1l3.2-.42c.64,0,2.08-.14,4.31-.41,2-.47,3-1.07,3-1.81a1.14,1.14,0,0,0-.27-.83q-.42-10.71-.84-12.93a8.64,8.64,0,0,0-.69-2.78c-.56-1-1.67-1.58-3.34-1.67a15.6,15.6,0,0,1-3.06-.83,244.81,244.81,0,0,0-25.57,1.11q-15.85,2-24.89,7.64-11.11,7-11.11,19.88,0,3.06,2.08,10.43,2.5,7.22,6,7.22v.7c0,.65.41,1.2,1.25,1.67a8.6,8.6,0,0,0,2,1.46,18.3,18.3,0,0,1,1.6.9c.28.09.42.19.42.28s-.09.14-.28.14l.84.41a10.16,10.16,0,0,0,2.36,1.39.66.66,0,0,0,.28.35.24.24,0,0,1,.14.21,23.06,23.06,0,0,0,4.44,1.53l4.45,1.67a11.82,11.82,0,0,1,4,2.57,5.1,5.1,0,0,1,1.39,3.68,2.65,2.65,0,0,1-1.25,2.36c-1.58.93-4.12,1.39-7.64,1.39-1-.09-2.46-.13-4.31-.13a49.24,49.24,0,0,1-17.79-3.48,1.12,1.12,0,0,0-.91.63,3.85,3.85,0,0,0-.21,1.46v.69l3.06,17.24a2.23,2.23,0,0,0,1.39,1.11,6.14,6.14,0,0,0,2.92,1,51.59,51.59,0,0,0,7.65,1.67l3.19.56,1.67.41,20.43-.41a33.43,33.43,0,0,0,9.87-1.6,47.18,47.18,0,0,0,9.87-4.38q10-5.84,13.62-15a20.29,20.29,0,0,0,1-6.68A16.46,16.46,0,0,0,877.79,306.15Z"/><path class="cls-11" d="M189.93,513.06a19.89,19.89,0,0,1-6.27-.84,14.71,14.71,0,0,1-3.95-1.89,7.45,7.45,0,0,1-2-2,3.51,3.51,0,0,1-.58-1.25,6.18,6.18,0,0,1,.46-2.24,11.36,11.36,0,0,1,1.17-2.21,8.75,8.75,0,0,1,1.51-1.71,2.38,2.38,0,0,1,1.45-.7c.54,0,1,.35,1.34,1,.07.08.27.27.58.58a6.35,6.35,0,0,0,1.31,1,10.38,10.38,0,0,0,2.09.9,9.51,9.51,0,0,0,2.93.41,8.29,8.29,0,0,0,6-2.24,8.07,8.07,0,0,0,2.32-6.07A9.18,9.18,0,0,0,197,491a16.68,16.68,0,0,0-3.28-3.89,42.11,42.11,0,0,0-4.65-3.52q-2.61-1.71-5.35-3.57t-5.34-4a26.62,26.62,0,0,1-4.65-4.94,24.43,24.43,0,0,1-3.28-6.3,23.83,23.83,0,0,1-1.25-8.05,24.32,24.32,0,0,1,1.33-7.84,33.28,33.28,0,0,1,3.69-7.53,40.89,40.89,0,0,1,12.47-12.09,35.56,35.56,0,0,1,7.75-3.6,26.3,26.3,0,0,1,8.11-1.31,16.85,16.85,0,0,1,6.28,1.11,12.93,12.93,0,0,1,4.7,3.11,13.8,13.8,0,0,1,3,4.82,18.18,18.18,0,0,1,1,6.3,19,19,0,0,1-1.16,6.51,28,28,0,0,1-3.08,6.05,35.24,35.24,0,0,1-4.33,5.25,36.89,36.89,0,0,1-4.94,4.19,25.87,25.87,0,0,1-4.91,2.76,11.11,11.11,0,0,1-4.18,1,5.53,5.53,0,0,1-2.82-.72A7.46,7.46,0,0,1,190,463a9,9,0,0,1-1.31-2.27,5.89,5.89,0,0,1-.46-2.12,1.62,1.62,0,0,1,.2-1,.67.67,0,0,1,.58-.2,7,7,0,0,1,1,.17,5.38,5.38,0,0,0,1.34.15,11.09,11.09,0,0,0,5.4-1.69,26,26,0,0,0,5.58-4.3A27,27,0,0,0,206.7,446a12.37,12.37,0,0,0,1.77-6.1,7.15,7.15,0,0,0-1.48-4.76q-1.49-1.75-5-1.75a15.3,15.3,0,0,0-4.79.85,27.14,27.14,0,0,0-5.21,2.35,32.11,32.11,0,0,0-5.05,3.66,28.25,28.25,0,0,0-4.3,4.73,24.19,24.19,0,0,0-3,5.58,17.44,17.44,0,0,0-1.14,6.25,14.5,14.5,0,0,0,1.25,6.13,18.64,18.64,0,0,0,3.32,4.91,30.78,30.78,0,0,0,4.67,4.07q2.63,1.86,5.35,3.69t5.35,3.77a30,30,0,0,1,4.67,4.3,19.87,19.87,0,0,1,3.31,5.23,16.32,16.32,0,0,1,1.25,6.6,17.53,17.53,0,0,1-5.11,12.43,17.8,17.8,0,0,1-5.64,3.78A17.49,17.49,0,0,1,189.93,513.06Z"/><path class="cls-11" d="M261.69,489.12a1.75,1.75,0,0,1,.79-1.16,4.09,4.09,0,0,1,1.54-.64,5.11,5.11,0,0,1,1.83,0,3.54,3.54,0,0,1,1.68.79,3.39,3.39,0,0,1,1.05,1.68,5.47,5.47,0,0,1-.09,2.76,16.25,16.25,0,0,1-1.71,4.56,14.75,14.75,0,0,1-3,3.75,13.2,13.2,0,0,1-4.24,2.56,15.22,15.22,0,0,1-5.46.93,24.42,24.42,0,0,1-3.05-.18,12.88,12.88,0,0,1-2.76-.64,18.43,18.43,0,0,1-5.69,6.19,15,15,0,0,1-8.6,2.36,16.07,16.07,0,0,1-7.79-1.78,15.71,15.71,0,0,1-5.4-4.82,21.06,21.06,0,0,1-3.17-7.06,34.27,34.27,0,0,1-1-8.48,41.7,41.7,0,0,1,1.54-11.77,44,44,0,0,1,3.57-8.83,24.16,24.16,0,0,1,4-5.55q2-1.92,3-1.92a2.87,2.87,0,0,1,2.12,1,6.13,6.13,0,0,1,1.39,2.38,6,6,0,0,1,.23,2.76,2.94,2.94,0,0,1-1.36,2.15c-.47.74-1,1.59-1.66,2.56a19.16,19.16,0,0,0-1.8,3.63,29.47,29.47,0,0,0-1.42,5.32,41.91,41.91,0,0,0-.58,7.55,28.81,28.81,0,0,0,.66,6.57,15.7,15.7,0,0,0,1.86,4.67,8.6,8.6,0,0,0,2.73,2.82,6.28,6.28,0,0,0,3.29.93,6.75,6.75,0,0,0,4.21-1.25,10.7,10.7,0,0,0,2.82-3.28,22.8,22.8,0,0,1-6.36-9.15,32.4,32.4,0,0,1-2.18-12,22.47,22.47,0,0,1,.61-5.32,14.77,14.77,0,0,1,1.8-4.44,9.28,9.28,0,0,1,3-3.05,7.67,7.67,0,0,1,4.19-1.14,6.21,6.21,0,0,1,4,1.51,13.31,13.31,0,0,1,3.25,4.19,24.83,24.83,0,0,1,2.18,6.33,38.24,38.24,0,0,1,.78,8,53.16,53.16,0,0,1-.4,6.57,40.72,40.72,0,0,1-1.28,6.27,3.66,3.66,0,0,0,1.19.26c.37,0,.76,0,1.19,0a7.68,7.68,0,0,0,5.93-2.55,9.42,9.42,0,0,0,1.68-2.73A15.09,15.09,0,0,0,261.69,489.12Zm-22.72-11a23.2,23.2,0,0,0,1.25,7.62A22.43,22.43,0,0,0,243.5,492a43.54,43.54,0,0,0,.35-5.46c0-2,0-3.88-.08-5.61a34.08,34.08,0,0,0-.41-4.44,10.34,10.34,0,0,0-.87-2.94,1.68,1.68,0,0,0-1.48-1.07Q239,472.45,239,478.08Z"/><path class="cls-11" d="M294.46,512.08a10.35,10.35,0,0,1-3.69-.64,9.21,9.21,0,0,1-2.9-1.78,9.54,9.54,0,0,1-2.06-2.67,10.52,10.52,0,0,1-1.11-3.34,21.82,21.82,0,0,1-5.05,6.16,10.49,10.49,0,0,1-6.86,2.38,11.06,11.06,0,0,1-9.3-4.68,16.19,16.19,0,0,1-2.47-5.4,27.51,27.51,0,0,1-.84-7.06,67.43,67.43,0,0,1,.67-9.47c.44-3.18.94-6,1.48-8.6q.93-4.47,2.15-8.66a9,9,0,0,0,.44-1.54,3.14,3.14,0,0,1,.66-1.42,3.72,3.72,0,0,1,1.66-1.05,11.3,11.3,0,0,1,3.52-.4c1.47,0,2.42.26,2.84.78a2.29,2.29,0,0,1,.5,1.83,6.92,6.92,0,0,1-.7,2.15,9.79,9.79,0,0,0-.73,1.8q-.81,3.31-1.45,6c-.43,1.82-.78,3.65-1.07,5.49s-.52,3.75-.67,5.75-.23,4.23-.23,6.71q0,4.88,1.42,7.38a4.43,4.43,0,0,0,4,2.5,5,5,0,0,0,3.34-1.34,13.43,13.43,0,0,0,2.79-3.57,28.56,28.56,0,0,0,2.18-5.12,41.87,41.87,0,0,0,1.45-6V469.14a8.47,8.47,0,0,0-.2-2,8.84,8.84,0,0,0-.41-1.19,3.93,3.93,0,0,0-.41-.7,1,1,0,0,1-.2-.61.66.66,0,0,1,.35-.52,3.72,3.72,0,0,1,.93-.41,8.6,8.6,0,0,1,1.25-.26,9.65,9.65,0,0,1,1.3-.08,6.72,6.72,0,0,1,4.68,1.54,4.78,4.78,0,0,1,1.72,3.68v30.22c0,.27,0,.71,0,1.31a8.08,8.08,0,0,0,.35,1.83,4.22,4.22,0,0,0,.93,1.62,2.31,2.31,0,0,0,1.8.7,4.27,4.27,0,0,0,3.11-1.28,11.76,11.76,0,0,0,2.27-3.19,22.82,22.82,0,0,0,1.57-4.16c.4-1.49.74-2.89,1-4.21a5.22,5.22,0,0,1,1.17-2.7,2.35,2.35,0,0,1,1.68-.84,2.87,2.87,0,0,1,1.45.43,5.43,5.43,0,0,1,1.37,1.13,6.22,6.22,0,0,1,1,1.57,4.4,4.4,0,0,1,.37,1.75V493a1.71,1.71,0,0,1-.11.52,57.32,57.32,0,0,1-2.12,6.22,26.63,26.63,0,0,1-3.34,6,18.29,18.29,0,0,1-4.88,4.53A12.27,12.27,0,0,1,294.46,512.08Z"/><path class="cls-11" d="M305,469.14a8.26,8.26,0,0,0-.26-2.44,4.18,4.18,0,0,1-.26-1.4,1.63,1.63,0,0,1,.93-1.42,4.18,4.18,0,0,1,2.2-.55,6.72,6.72,0,0,1,4.68,1.54,4.77,4.77,0,0,1,1.71,3.68v5.35a43.06,43.06,0,0,1,2.65-4.65,22.34,22.34,0,0,1,3.08-3.75,13.41,13.41,0,0,1,3.54-2.49,9.42,9.42,0,0,1,4.1-.9,9.66,9.66,0,0,1,4.88,1.1,8.45,8.45,0,0,1,3,2.85,11.36,11.36,0,0,1,1.54,3.89,21.07,21.07,0,0,1,.44,4.18v24.64c0,.27,0,.71.06,1.31a7.54,7.54,0,0,0,.34,1.83,4.58,4.58,0,0,0,.9,1.62,2.23,2.23,0,0,0,1.78.7,4.24,4.24,0,0,0,3.1-1.28,11.55,11.55,0,0,0,2.27-3.19,22.82,22.82,0,0,0,1.57-4.16c.41-1.49.75-2.89,1-4.21a5.22,5.22,0,0,1,1.16-2.7,2.35,2.35,0,0,1,1.68-.84,2.93,2.93,0,0,1,1.46.43,5.39,5.39,0,0,1,1.36,1.13,6,6,0,0,1,1,1.57,4.42,4.42,0,0,1,.38,1.75V493a1.81,1.81,0,0,1-.12.52,49.09,49.09,0,0,1-2.06,6.22,26,26,0,0,1-3.37,6,18.56,18.56,0,0,1-4.91,4.53,12.26,12.26,0,0,1-6.68,1.81,9.32,9.32,0,0,1-4.22-.91,9.76,9.76,0,0,1-3.13-2.41,10.05,10.05,0,0,1-2-3.54,13.87,13.87,0,0,1-.67-4.3V476.75c0-.93,0-1.8-.06-2.62a10.09,10.09,0,0,0-.31-2.15,3.75,3.75,0,0,0-.76-1.48,1.74,1.74,0,0,0-1.37-.55c-.85,0-1.89.58-3.13,1.74a24.31,24.31,0,0,0-3.66,4.53,34.43,34.43,0,0,0-3.17,6.31,27,27,0,0,0-1.72,7.06V507c0,.58,0,1.17,0,1.77a4.43,4.43,0,0,1-.35,1.63,3.08,3.08,0,0,1-1,1.22,3.26,3.26,0,0,1-1.95.5,9.41,9.41,0,0,1-1.89-.21,5.39,5.39,0,0,1-1.86-.75,4.27,4.27,0,0,1-1.39-1.57,5.65,5.65,0,0,1-.55-2.7Z"/><path class="cls-11" d="M361.29,512.08a16,16,0,0,1-6.34-1.22,12.84,12.84,0,0,1-4.85-3.64,16.74,16.74,0,0,1-3.08-6A28.68,28.68,0,0,1,346,493a36.22,36.22,0,0,1,1.91-12.23,29,29,0,0,1,5.23-9.24,26,26,0,0,1,7.67-6.16,28.21,28.21,0,0,1,9.24-3V435.43a8.38,8.38,0,0,0-.2-2,7.62,7.62,0,0,0-.41-1.19,3.93,3.93,0,0,0-.41-.7.91.91,0,0,1-.2-.55.7.7,0,0,1,.35-.58,3.39,3.39,0,0,1,.93-.41,8.89,8.89,0,0,1,1.25-.26,9.72,9.72,0,0,1,1.31-.09,6.76,6.76,0,0,1,4.67,1.54,4.79,4.79,0,0,1,1.72,3.69v63.92a8,8,0,0,0,.23,2,5.63,5.63,0,0,0,.73,1.74,4,4,0,0,0,1.27,1.28,3.39,3.39,0,0,0,1.83.49,4.27,4.27,0,0,0,3.11-1.28,11.76,11.76,0,0,0,2.27-3.19A22.82,22.82,0,0,0,390,495.6c.4-1.49.74-2.89,1-4.21a5.14,5.14,0,0,1,1.16-2.7,2.35,2.35,0,0,1,1.68-.84,2.87,2.87,0,0,1,1.45.43,5.43,5.43,0,0,1,1.37,1.13,6,6,0,0,1,1,1.57,4.42,4.42,0,0,1,.38,1.75V493a1.81,1.81,0,0,1-.12.52,49.09,49.09,0,0,1-2.06,6.22,26.34,26.34,0,0,1-3.37,6,18.71,18.71,0,0,1-4.91,4.53,12.27,12.27,0,0,1-6.69,1.81,11.05,11.05,0,0,1-5.4-1.28,9.93,9.93,0,0,1-3.66-3.37,17.19,17.19,0,0,1-4.56,3.34A13.2,13.2,0,0,1,361.29,512.08Zm1.8-7.85a6.32,6.32,0,0,0,4-1.34,11.53,11.53,0,0,0,2.88-3.31v-29.4a19.3,19.3,0,0,0-5.61,1.95,15.1,15.1,0,0,0-4.76,4,19.14,19.14,0,0,0-3.28,6.48,32,32,0,0,0-1.23,9.5,20.26,20.26,0,0,0,.67,5.55,11.72,11.72,0,0,0,1.75,3.74,6.74,6.74,0,0,0,2.52,2.15A6.86,6.86,0,0,0,363.09,504.23Z"/><path class="cls-11" d="M418.93,474.13a21.79,21.79,0,0,1-1.14,6.8,23.83,23.83,0,0,1-3.37,6.6,25.77,25.77,0,0,1-5.52,5.57,23.58,23.58,0,0,1-7.58,3.75,13.33,13.33,0,0,0,1.54,2.88,10.22,10.22,0,0,0,2.29,2.35,10.94,10.94,0,0,0,3.11,1.57,13.09,13.09,0,0,0,4.1.58,12.63,12.63,0,0,0,6-1.31,13.13,13.13,0,0,0,4.22-3.45,18.67,18.67,0,0,0,2.76-4.83,31.28,31.28,0,0,0,1.57-5.4,3.57,3.57,0,0,1,1.65-2.64,3.35,3.35,0,0,1,2.56-.32,4.34,4.34,0,0,1,2.26,1.48,3.39,3.39,0,0,1,.79,2.7,41.78,41.78,0,0,1-.79,4.13,24.44,24.44,0,0,1-1.65,4.7,26.7,26.7,0,0,1-2.82,4.68,19.32,19.32,0,0,1-4.21,4.1,21.31,21.31,0,0,1-5.87,2.9,24.69,24.69,0,0,1-7.73,1.11,20.21,20.21,0,0,1-7.87-1.6,20.49,20.49,0,0,1-6.74-4.59,22.37,22.37,0,0,1-4.71-7.38,26.49,26.49,0,0,1-1.77-10,33.85,33.85,0,0,1,1.57-10.49,30,30,0,0,1,4.12-8.39,20.57,20.57,0,0,1,5.81-5.55,12.57,12.57,0,0,1,6.69-2,11.22,11.22,0,0,1,4.5.87,9.35,9.35,0,0,1,3.4,2.47,10.91,10.91,0,0,1,2.12,3.8A15.67,15.67,0,0,1,418.93,474.13Zm-19.18,14.06a9.24,9.24,0,0,0,.06,1.05,9.73,9.73,0,0,1,.06,1.1,16.31,16.31,0,0,0,4-2.67A16.77,16.77,0,0,0,407,484a17.92,17.92,0,0,0,2-4.56,18.6,18.6,0,0,0,.7-5.14,5.92,5.92,0,0,0-.67-3.08,2,2,0,0,0-1.83-1.1,3.83,3.83,0,0,0-2.59,1,8.89,8.89,0,0,0-2,2.59,18.36,18.36,0,0,0-1.4,3.6c-.36,1.34-.66,2.68-.9,4a38,38,0,0,0-.46,3.86A27.45,27.45,0,0,0,399.75,488.19Z"/><path class="cls-11" d="M435.89,473.9v2.62a100.36,100.36,0,0,1,7.35,10.13,66.83,66.83,0,0,1,5.58,11,68.25,68.25,0,0,1,3.55,12.14,72,72,0,0,1,1.24,13.77,77.33,77.33,0,0,1-1.13,13.74,46.27,46.27,0,0,1-3.19,10.87,20.64,20.64,0,0,1-5,7.12,9.67,9.67,0,0,1-6.48,2.55,8.56,8.56,0,0,1-5.23-1.54,11,11,0,0,1-3.34-4.06,21.15,21.15,0,0,1-1.8-5.73,37.94,37.94,0,0,1-.55-6.5v-64a5,5,0,0,1-.38-.4c-.14-.16-.26-.31-.38-.47-.93-.93-1.77-1.79-2.53-2.58a3.79,3.79,0,0,1-1.13-2.65,3,3,0,0,1,.64-1.77A2.8,2.8,0,0,1,425.2,467a5,5,0,0,0,.7-.06,6.9,6.9,0,0,1,1-.06V433.05a7.84,7.84,0,0,0-.21-2,7.75,7.75,0,0,0-.4-1.19,4.18,4.18,0,0,0-.41-.7.85.85,0,0,1-.2-.55A.67.67,0,0,1,426,428a3.69,3.69,0,0,1,.93-.41,7.89,7.89,0,0,1,1.25-.26,9.84,9.84,0,0,1,1.31-.09,6.77,6.77,0,0,1,4.68,1.54,4.81,4.81,0,0,1,1.71,3.69v33.7l4.19-.32,4.06-.29c1.32-.09,2.53-.16,3.63-.2s2.07-.06,2.88-.06a7.26,7.26,0,0,1,3.43.76,2.68,2.68,0,0,1,1.45,2.61,18.5,18.5,0,0,1-.14,1.86c-.1.81-.24,1.65-.41,2.5a9.74,9.74,0,0,1-.7,2.21c-.29.62-.63.93-1,.93a.5.5,0,0,1-.44-.21,2.17,2.17,0,0,0-.46-.43,4.41,4.41,0,0,0-.93-.47,7.88,7.88,0,0,0-1.83-.35Zm8.72,49.62a67.74,67.74,0,0,0-.55-8.39,78.59,78.59,0,0,0-1.66-8.78,85.39,85.39,0,0,0-2.73-8.83,76.18,76.18,0,0,0-3.78-8.51v51c0,.93,0,1.93.12,3a19.12,19.12,0,0,0,.43,3,7.87,7.87,0,0,0,.88,2.24,1.62,1.62,0,0,0,1.42.9c.85,0,1.64-.62,2.38-1.86A18.06,18.06,0,0,0,443,542a66.44,66.44,0,0,0,1.19-8.08Q444.6,529.22,444.61,523.52Z"/><path class="cls-11" d="M467.79,473.9v2.62a100.36,100.36,0,0,1,7.35,10.13,66.83,66.83,0,0,1,5.58,11,68.25,68.25,0,0,1,3.55,12.14,72,72,0,0,1,1.24,13.77,77.33,77.33,0,0,1-1.13,13.74,46.75,46.75,0,0,1-3.19,10.87,20.64,20.64,0,0,1-5,7.12,9.67,9.67,0,0,1-6.48,2.55,8.58,8.58,0,0,1-5.23-1.54,11,11,0,0,1-3.34-4.06,21.15,21.15,0,0,1-1.8-5.73,37.94,37.94,0,0,1-.55-6.5v-64a5,5,0,0,1-.38-.4c-.14-.16-.26-.31-.38-.47-.93-.93-1.77-1.79-2.53-2.58a3.79,3.79,0,0,1-1.13-2.65,3,3,0,0,1,.64-1.77A2.79,2.79,0,0,1,457.1,467a5,5,0,0,0,.7-.06,6.9,6.9,0,0,1,1-.06V433.05a7.84,7.84,0,0,0-.21-2,7.75,7.75,0,0,0-.4-1.19,4.18,4.18,0,0,0-.41-.7.85.85,0,0,1-.2-.55.67.67,0,0,1,.34-.58,3.69,3.69,0,0,1,.93-.41,7.89,7.89,0,0,1,1.25-.26,9.84,9.84,0,0,1,1.31-.09,6.77,6.77,0,0,1,4.68,1.54,4.81,4.81,0,0,1,1.71,3.69v33.7l4.19-.32,4.06-.29c1.32-.09,2.53-.16,3.63-.2s2.07-.06,2.88-.06a7.26,7.26,0,0,1,3.43.76,2.68,2.68,0,0,1,1.45,2.61,18.5,18.5,0,0,1-.14,1.86c-.1.81-.24,1.65-.41,2.5a9.74,9.74,0,0,1-.7,2.21c-.29.62-.63.93-1,.93a.5.5,0,0,1-.44-.21,2.17,2.17,0,0,0-.46-.43,4.41,4.41,0,0,0-.93-.47,7.88,7.88,0,0,0-1.84-.35Zm8.72,49.62a67.74,67.74,0,0,0-.55-8.39,76.38,76.38,0,0,0-1.66-8.78,85.39,85.39,0,0,0-2.73-8.83,76.18,76.18,0,0,0-3.78-8.51v51c0,.93,0,1.93.12,3a19.12,19.12,0,0,0,.43,3,8.18,8.18,0,0,0,.87,2.24,1.65,1.65,0,0,0,1.43.9c.85,0,1.65-.62,2.38-1.86a18.06,18.06,0,0,0,1.86-5.26,66.44,66.44,0,0,0,1.19-8.08Q476.51,529.22,476.51,523.52Z"/><path class="cls-11" d="M518.05,474.13a21.77,21.77,0,0,1-1.13,6.8,23.83,23.83,0,0,1-3.37,6.6A25.77,25.77,0,0,1,508,493.1a23.69,23.69,0,0,1-7.58,3.75,12.91,12.91,0,0,0,1.54,2.88,10.22,10.22,0,0,0,2.29,2.35,10.94,10.94,0,0,0,3.11,1.57,13.09,13.09,0,0,0,4.1.58,12.63,12.63,0,0,0,6-1.31,13,13,0,0,0,4.21-3.45,18.41,18.41,0,0,0,2.77-4.83,30.38,30.38,0,0,0,1.56-5.4,3.58,3.58,0,0,1,1.66-2.64,3.34,3.34,0,0,1,2.56-.32,4.38,4.38,0,0,1,2.26,1.48,3.43,3.43,0,0,1,.79,2.7,41.78,41.78,0,0,1-.79,4.13,25.13,25.13,0,0,1-1.65,4.7A26.7,26.7,0,0,1,528,504a19.32,19.32,0,0,1-4.21,4.1,21.31,21.31,0,0,1-5.87,2.9,24.73,24.73,0,0,1-7.73,1.11,20.21,20.21,0,0,1-7.87-1.6,20.49,20.49,0,0,1-6.74-4.59,22.37,22.37,0,0,1-4.71-7.38,26.49,26.49,0,0,1-1.77-10,33.85,33.85,0,0,1,1.57-10.49,30,30,0,0,1,4.12-8.39,20.57,20.57,0,0,1,5.81-5.55,12.56,12.56,0,0,1,6.68-2,11.23,11.23,0,0,1,4.51.87,9.44,9.44,0,0,1,3.4,2.47,10.91,10.91,0,0,1,2.12,3.8A15.67,15.67,0,0,1,518.05,474.13Zm-19.17,14.06a9.24,9.24,0,0,0,.06,1.05c0,.35.05.72.05,1.1a15.94,15.94,0,0,0,4-2.67,16.5,16.5,0,0,0,3.08-3.72,17.94,17.94,0,0,0,2-4.56,19,19,0,0,0,.7-5.14,6,6,0,0,0-.67-3.08,2,2,0,0,0-1.83-1.1,3.83,3.83,0,0,0-2.59,1,8.89,8.89,0,0,0-2,2.59,17.76,17.76,0,0,0-1.4,3.6,40.53,40.53,0,0,0-.9,4,35.39,35.39,0,0,0-.46,3.86A27.45,27.45,0,0,0,498.88,488.19Z"/><path class="cls-11" d="M545,512.08a20.9,20.9,0,0,1-7.67-1.46,19.32,19.32,0,0,1-6.59-4.3,20.72,20.72,0,0,1-4.59-7,25.49,25.49,0,0,1-1.71-9.7,35.35,35.35,0,0,1,1.45-10,32.3,32.3,0,0,1,4-8.81,21.85,21.85,0,0,1,6.13-6.24,13.76,13.76,0,0,1,7.81-2.38,10.28,10.28,0,0,1,5.23,1.24,11.62,11.62,0,0,1,3.49,3,11.91,11.91,0,0,1,1.94,3.8,12.66,12.66,0,0,1,.61,3.6,3.72,3.72,0,0,1-.61,2.1,6,6,0,0,1-1.48,1.57,6.44,6.44,0,0,1-1.91.95,5.26,5.26,0,0,1-1.86.27,1.91,1.91,0,0,1-1.31-.59,1.73,1.73,0,0,1-.32-1.56,17.27,17.27,0,0,1-.44-1.86,8.23,8.23,0,0,0-.69-2.12,5.3,5.3,0,0,0-1.37-1.75,3.63,3.63,0,0,0-2.38-.72,4.5,4.5,0,0,0-3.17,1.54,13.69,13.69,0,0,0-2.73,4.21,30.66,30.66,0,0,0-1.92,6.22,37.87,37.87,0,0,0-.72,7.55,20,20,0,0,0,.9,6.27,13.22,13.22,0,0,0,2.52,4.6,10.72,10.72,0,0,0,3.87,2.81,12.17,12.17,0,0,0,4.85,1,13.18,13.18,0,0,0,6.07-1.31,13.68,13.68,0,0,0,4.39-3.45,18.25,18.25,0,0,0,2.9-4.83,27.62,27.62,0,0,0,1.63-5.4A3.55,3.55,0,0,1,563,486.6a3.32,3.32,0,0,1,2.55-.32,4.36,4.36,0,0,1,2.27,1.48,3.43,3.43,0,0,1,.79,2.7,33.87,33.87,0,0,1-.85,4.13,25.1,25.1,0,0,1-1.77,4.7,27.46,27.46,0,0,1-2.93,4.68,20.18,20.18,0,0,1-4.33,4.1,22,22,0,0,1-6,2.9A25,25,0,0,1,545,512.08Z"/><path class="cls-11" d="M550.59,452.81c.89.08,1.88.13,3,.17.93.08,2.05.13,3.37.15l4.41.08V433.05a8.38,8.38,0,0,0-.2-2,7.62,7.62,0,0,0-.41-1.19,3.62,3.62,0,0,0-.4-.7.86.86,0,0,1-.21-.55.68.68,0,0,1,.35-.58,3.39,3.39,0,0,1,.93-.41,7.66,7.66,0,0,1,1.25-.26,9.72,9.72,0,0,1,1.31-.09,6.76,6.76,0,0,1,4.67,1.54,4.79,4.79,0,0,1,1.72,3.69v20.86q5.46,0,11.53-.12t12.17-.4c.55-.58,1-.8,1.31-.64a1.35,1.35,0,0,1,.64,1.1,8.35,8.35,0,0,1,0,2.15,13.16,13.16,0,0,1-.46,2.47,7.46,7.46,0,0,1-1,2.07,1.72,1.72,0,0,1-1.37.87q-7.14.17-12.64.2l-10.25,0v37.71a6.38,6.38,0,0,0,1.1,4.18,3.71,3.71,0,0,0,3,1.28,4.24,4.24,0,0,0,3.1-1.28,11.55,11.55,0,0,0,2.27-3.19,22.82,22.82,0,0,0,1.57-4.16c.41-1.49.74-2.89,1-4.21a5.22,5.22,0,0,1,1.16-2.7,2.35,2.35,0,0,1,1.68-.84,2.93,2.93,0,0,1,1.46.43,5.57,5.57,0,0,1,1.36,1.13,6,6,0,0,1,1,1.57,4.42,4.42,0,0,1,.38,1.75V493a1.81,1.81,0,0,1-.12.52,49.09,49.09,0,0,1-2.06,6.22,26,26,0,0,1-3.37,6,18.56,18.56,0,0,1-4.91,4.53,12.26,12.26,0,0,1-6.68,1.81,12.88,12.88,0,0,1-4.39-.73,8.54,8.54,0,0,1-3.46-2.32,11.14,11.14,0,0,1-2.26-4.1,19.43,19.43,0,0,1-.82-6V461.06q-2,0-3.51,0c-1,0-1.89,0-2.59-.09l-2.15-.11a3.21,3.21,0,0,1-2.47-1.25,7.28,7.28,0,0,1-1.51-2.76,5.25,5.25,0,0,1-.12-2.76A1.51,1.51,0,0,1,550.59,452.81Z"/><path class="cls-11" d="M235.29,663.5a1,1,0,0,1,.29,1.39,5.52,5.52,0,0,1-1.51,1.89,10.9,10.9,0,0,1-2.61,1.66,6.71,6.71,0,0,1-3,.64,6,6,0,0,1-2.85-.88,7.36,7.36,0,0,1-2.47-2.52,15.2,15.2,0,0,1-1.74-4.27,24.22,24.22,0,0,1-.67-6.11V600.22A16,16,0,0,0,220,595a6.76,6.76,0,0,0-1.57-2.7,3.55,3.55,0,0,0-1.86-1,11.73,11.73,0,0,0-1.54-.14,9.27,9.27,0,0,0-1.62.17,3.46,3.46,0,0,0-1.89,1.13,7.74,7.74,0,0,0-1.54,3,20.76,20.76,0,0,0-.64,5.89v64.27a.55.55,0,0,1,.38.2.59.59,0,0,1,.2.38c0,.31-.22.63-.67,1a8.66,8.66,0,0,1-1.65.93,12.79,12.79,0,0,1-4.59,1,6.85,6.85,0,0,1-2.07-.29q-.9-.3-.9-2V600.22a17.4,17.4,0,0,0-.61-5.23,6.51,6.51,0,0,0-1.48-2.7,3.4,3.4,0,0,0-1.83-1,12.21,12.21,0,0,0-1.66-.14,11.87,11.87,0,0,0-1.54.14,3.71,3.71,0,0,0-1.88,1,6.55,6.55,0,0,0-1.6,2.7,16,16,0,0,0-.67,5.23v52.7q0,7.91-2.61,12a8.49,8.49,0,0,1-7.62,4.13,5.76,5.76,0,0,1-2.76-.59,5.08,5.08,0,0,1-1.71-1.45,5.34,5.34,0,0,1-.9-1.86,6.85,6.85,0,0,1-.26-1.8c0-.27.08-.44.26-.52a1.75,1.75,0,0,1,.73-.12l1,0a4.05,4.05,0,0,0,1.22-.26,3.11,3.11,0,0,0,1.19-.93,6.06,6.06,0,0,0,1.08-2,18.19,18.19,0,0,0,.75-3.37,35.25,35.25,0,0,0,.29-5V601.38a26.1,26.1,0,0,1,1.31-8.83,17.23,17.23,0,0,1,3.4-5.87,12.19,12.19,0,0,1,4.74-3.25,15,15,0,0,1,5.31-1,18.52,18.52,0,0,1,2,.15,13.57,13.57,0,0,1,2.81.66,15.45,15.45,0,0,1,3.11,1.49,12.62,12.62,0,0,1,3,2.58,9.93,9.93,0,0,1,2.44-2.58,12.65,12.65,0,0,1,2.64-1.49,10,10,0,0,1,2.5-.66,16.74,16.74,0,0,1,2.06-.15,15.84,15.84,0,0,1,5.49,1,12.48,12.48,0,0,1,4.83,3.25,17.3,17.3,0,0,1,3.45,5.87,25.56,25.56,0,0,1,1.34,8.83v52.94a11.86,11.86,0,0,0,.43,3.34,9.76,9.76,0,0,0,1.17,2.61,7.55,7.55,0,0,0,1.71,1.92A12.25,12.25,0,0,0,235.29,663.5Z"/><path class="cls-11" d="M274.22,669.08a10.26,10.26,0,0,1-3.68-.64,9.15,9.15,0,0,1-2.91-1.78,9.54,9.54,0,0,1-2.06-2.67,10.78,10.78,0,0,1-1.11-3.34,21.82,21.82,0,0,1-5,6.16,10.47,10.47,0,0,1-6.86,2.38,11.09,11.09,0,0,1-9.3-4.68,16.18,16.18,0,0,1-2.46-5.4,27.06,27.06,0,0,1-.85-7.06,69,69,0,0,1,.67-9.47c.45-3.18.94-6,1.48-8.6q.93-4.47,2.15-8.66a8.21,8.21,0,0,0,.44-1.54,3.16,3.16,0,0,1,.67-1.42,3.68,3.68,0,0,1,1.65-1.05,11.3,11.3,0,0,1,3.52-.4q2.21,0,2.85.78a2.28,2.28,0,0,1,.49,1.83,6.92,6.92,0,0,1-.7,2.15,9,9,0,0,0-.72,1.8c-.55,2.21-1,4.23-1.46,6s-.78,3.65-1.07,5.49-.52,3.75-.67,5.75S249,649,249,651.47q0,4.88,1.42,7.38a4.44,4.44,0,0,0,4,2.5,5,5,0,0,0,3.34-1.34,13,13,0,0,0,2.79-3.57,28.56,28.56,0,0,0,2.18-5.12,41.87,41.87,0,0,0,1.45-6V626.14a8.47,8.47,0,0,0-.2-2,7.62,7.62,0,0,0-.41-1.19,3.93,3.93,0,0,0-.41-.7,1,1,0,0,1-.2-.61.66.66,0,0,1,.35-.52,3.72,3.72,0,0,1,.93-.41,8.89,8.89,0,0,1,1.25-.26,9.7,9.7,0,0,1,1.31-.08,6.71,6.71,0,0,1,4.67,1.54,4.75,4.75,0,0,1,1.72,3.68v30.22c0,.27,0,.71.05,1.31a8.08,8.08,0,0,0,.35,1.83,4.35,4.35,0,0,0,.93,1.62,2.32,2.32,0,0,0,1.81.7,4.24,4.24,0,0,0,3.1-1.28,11.55,11.55,0,0,0,2.27-3.19,22.82,22.82,0,0,0,1.57-4.16c.41-1.49.74-2.89,1-4.21a5.22,5.22,0,0,1,1.16-2.7,2.35,2.35,0,0,1,1.68-.84,2.87,2.87,0,0,1,1.45.43,5.43,5.43,0,0,1,1.37,1.13,6,6,0,0,1,1,1.57,4.42,4.42,0,0,1,.38,1.75V650a1.81,1.81,0,0,1-.12.52,57.32,57.32,0,0,1-2.12,6.22,26.63,26.63,0,0,1-3.34,6,18.29,18.29,0,0,1-4.88,4.53A12.27,12.27,0,0,1,274.22,669.08Z"/><path class="cls-11" d="M291.54,649.44a2.9,2.9,0,0,1-1.74,2.29,3.46,3.46,0,0,1-2.53-.09,4.61,4.61,0,0,1-2.09-1.8,3.47,3.47,0,0,1-.5-2.79,82.38,82.38,0,0,1,2.53-8.74q1.67-4.8,3.28-9.56a14.42,14.42,0,0,1-1.39-2.7,8,8,0,0,1-.52-2.88,5.68,5.68,0,0,1,1.13-3.16,15.68,15.68,0,0,1,2.73-3,17.46,17.46,0,0,1,3.31-2.3,6.6,6.6,0,0,1,2.94-.9,3.73,3.73,0,0,1,3.22,1.45,6.4,6.4,0,0,1,1.08,3.9,8.31,8.31,0,0,1-.44,2.64,23.85,23.85,0,0,1-1,2.44q-.52,1.13-1,1.95a6.7,6.7,0,0,0-.49,1,50.26,50.26,0,0,0,4.36,6.57c1.51,1.9,2.89,3.77,4.15,5.63a29.67,29.67,0,0,1,3.11,5.93,20.38,20.38,0,0,1,1.22,7.38,17.75,17.75,0,0,1-.14,2.15,14.56,14.56,0,0,1-.44,2.09,12.84,12.84,0,0,0,3.69-1.28,13.34,13.34,0,0,0,2.79-2,11.81,11.81,0,0,0,2-2.47,16.84,16.84,0,0,0,1.3-2.79,8.65,8.65,0,0,1,1.28-2.44,1.9,1.9,0,0,1,1.45-.76,2.86,2.86,0,0,1,1.54.5,5.52,5.52,0,0,1,1.4,1.25,7.45,7.45,0,0,1,1,1.57,3.37,3.37,0,0,1,.38,1.45,6,6,0,0,1-.46,2.09,15.34,15.34,0,0,1-1.25,2.5,21.56,21.56,0,0,1-1.77,2.47,15.92,15.92,0,0,1-2,2.06,26,26,0,0,1-6.56,3.81,31.13,31.13,0,0,1-9.36,1.94,18,18,0,0,1-5.08,3,17.32,17.32,0,0,1-6.6,1.2,16.26,16.26,0,0,1-3.8-.47,25.65,25.65,0,0,1-3.72-1.19,23.7,23.7,0,0,1-3.23-1.6,12,12,0,0,1-2.32-1.74,10,10,0,0,1-2.85-4.21,8.16,8.16,0,0,1-.32-3.81,5.77,5.77,0,0,1,1.25-2.76,2.59,2.59,0,0,1,1.92-1.08,5.73,5.73,0,0,1,1.83.5c.83.33,1.79.75,2.88,1.28s2.26,1.07,3.54,1.65,2.56,1.14,3.83,1.66a32.64,32.64,0,0,0,3.75,1.28,12.91,12.91,0,0,0,3.34.49A11.75,11.75,0,0,0,304,656a10.46,10.46,0,0,0,.82-4.18,16.83,16.83,0,0,0-.76-5.17,20.78,20.78,0,0,0-2-4.42,28.89,28.89,0,0,0-2.76-3.81q-1.55-1.77-3.11-3.34-1.4,3.43-2.44,6.77T291.54,649.44Z"/><path class="cls-11" d="M329,608.53a6.67,6.67,0,0,1-2.76-.58,7.26,7.26,0,0,1-2.27-1.57,7.8,7.8,0,0,1-1.54-2.3,6.8,6.8,0,0,1-.58-2.81,7.17,7.17,0,0,1,.58-2.91,7.38,7.38,0,0,1,1.54-2.29,7.21,7.21,0,0,1,5-2.07,7.49,7.49,0,0,1,2.9.56,6.86,6.86,0,0,1,2.3,1.51,7,7,0,0,1,1.51,2.29,7.5,7.5,0,0,1,.55,2.91,7.11,7.11,0,0,1-.55,2.81,7.35,7.35,0,0,1-1.51,2.3,7.2,7.2,0,0,1-5.2,2.15Zm2.73,47.24c0,.27,0,.71.06,1.31a7.57,7.57,0,0,0,.35,1.83,4.1,4.1,0,0,0,.93,1.62,2.29,2.29,0,0,0,1.8.7,4.2,4.2,0,0,0,3.05-1.28,11.74,11.74,0,0,0,2.26-3.19,23.63,23.63,0,0,0,1.6-4.16c.43-1.49.78-2.89,1.05-4.21a5.5,5.5,0,0,1,1.07-2.61,2.4,2.4,0,0,1,1.57-.9,2.62,2.62,0,0,1,1.69.43,6.08,6.08,0,0,1,1.51,1.37,5.72,5.72,0,0,1,1,1.88,3.55,3.55,0,0,1,.09,2,57.32,57.32,0,0,1-2.12,6.22,26.24,26.24,0,0,1-3.34,6,18.14,18.14,0,0,1-4.88,4.53,12.26,12.26,0,0,1-6.68,1.81,9.44,9.44,0,0,1-7.38-3.32,10.48,10.48,0,0,1-1.95-3.54,13.87,13.87,0,0,1-.67-4.3V626.14a7.94,7.94,0,0,0-.26-2.44,4.44,4.44,0,0,1-.26-1.4,1.63,1.63,0,0,1,.93-1.42,4.24,4.24,0,0,1,2.21-.55,6.76,6.76,0,0,1,4.68,1.54,4.77,4.77,0,0,1,1.71,3.68Z"/><path class="cls-11" d="M362.31,669.08a20.9,20.9,0,0,1-7.67-1.46,19.23,19.23,0,0,1-6.59-4.3,20.72,20.72,0,0,1-4.59-7,25.3,25.3,0,0,1-1.72-9.7,35.36,35.36,0,0,1,1.46-10.05,32,32,0,0,1,4-8.81,21.85,21.85,0,0,1,6.13-6.24,13.76,13.76,0,0,1,7.81-2.38,10.28,10.28,0,0,1,5.23,1.24,11.75,11.75,0,0,1,3.49,3,11.91,11.91,0,0,1,1.94,3.8,12.66,12.66,0,0,1,.61,3.6,3.72,3.72,0,0,1-.61,2.1,6,6,0,0,1-1.48,1.57,6.38,6.38,0,0,1-1.92.95,5.2,5.2,0,0,1-1.86.27,1.91,1.91,0,0,1-1.3-.59,1.73,1.73,0,0,1-.32-1.56,17.27,17.27,0,0,1-.44-1.86,7.88,7.88,0,0,0-.7-2.12,5.27,5.27,0,0,0-1.36-1.75,3.63,3.63,0,0,0-2.38-.72,4.5,4.5,0,0,0-3.17,1.54,13.69,13.69,0,0,0-2.73,4.21,30.66,30.66,0,0,0-1.92,6.22,37.87,37.87,0,0,0-.72,7.55,19.73,19.73,0,0,0,.9,6.27,13.22,13.22,0,0,0,2.52,4.6,10.72,10.72,0,0,0,3.87,2.81,12.17,12.17,0,0,0,4.85,1,13.18,13.18,0,0,0,6.07-1.31,13.68,13.68,0,0,0,4.39-3.45,18.25,18.25,0,0,0,2.9-4.83,27.62,27.62,0,0,0,1.63-5.4,3.55,3.55,0,0,1,1.66-2.64,3.32,3.32,0,0,1,2.55-.32,4.4,4.4,0,0,1,2.27,1.48,3.39,3.39,0,0,1,.78,2.7,31.88,31.88,0,0,1-.84,4.13,25.81,25.81,0,0,1-1.77,4.7,26.92,26.92,0,0,1-2.94,4.68,19.9,19.9,0,0,1-4.32,4.1,22,22,0,0,1-6,2.9A25,25,0,0,1,362.31,669.08Z"/></svg>
