<svg id="Layer_1" data-name="Layer 1" xmlns="http://www.w3.org/2000/svg" xmlns:xlink="http://www.w3.org/1999/xlink" width="200" height="200" viewBox="0 0 200 200"><defs><style>.cls-1{fill:url(#radial-gradient);}</style><radialGradient id="radial-gradient" cx="99.5" cy="100.5" r="80.5" gradientUnits="userSpaceOnUse"><stop offset="0" stop-color="gray"/><stop offset="0.39" stop-color="#7b7b7b"/><stop offset="0.83" stop-color="#6e6e6e"/><stop offset="1" stop-color="#666"/></radialGradient></defs><title>Artboard 4</title><path class="cls-1" d="M176.65,86.13H160a61.62,61.62,0,0,0-8-18.87l14.7-14.71a3.34,3.34,0,0,0,0-4.73L155.11,36.18a3.34,3.34,0,0,0-4.73,0L136.2,50.36a61.93,61.93,0,0,0-25.12-10.88V23.35A3.36,3.36,0,0,0,107.73,20H91.27a3.36,3.36,0,0,0-3.35,3.35V39.51a61.94,61.94,0,0,0-23.59,9.86L51.13,36.18a3.34,3.34,0,0,0-4.73,0L34.76,47.82a3.34,3.34,0,0,0,0,4.73L48,65.82a61.84,61.84,0,0,0-9.52,23.1H22.35A3.36,3.36,0,0,0,19,92.27v16.46a3.36,3.36,0,0,0,3.35,3.35H38.48A62,62,0,0,0,48,135.23L34.76,148.45a3.34,3.34,0,0,0,0,4.73L46.4,164.82a3.34,3.34,0,0,0,4.73,0l13.12-13.11a61.65,61.65,0,0,0,23.67,9.92v16A3.36,3.36,0,0,0,91.27,181h16.46a3.36,3.36,0,0,0,3.35-3.35v-16a61.91,61.91,0,0,0,26.79-12.14L150.38,162a3.34,3.34,0,0,0,4.73,0l11.64-11.64a3.34,3.34,0,0,0,0-4.73l-13.59-13.6a61.56,61.56,0,0,0,8-22.77h15.54a3.36,3.36,0,0,0,3.35-3.35V89.48A3.36,3.36,0,0,0,176.65,86.13Zm-77.15,50a36.14,36.14,0,1,1,36.13-36.14A36.13,36.13,0,0,1,99.5,136.08Z"/></svg>
