<svg id="Layer_1" data-name="Layer 1" xmlns="http://www.w3.org/2000/svg" xmlns:xlink="http://www.w3.org/1999/xlink" width="200" height="200" viewBox="0 0 200 200"><defs><style>.cls-1{fill:url(#radial-gradient);}.cls-2,.cls-3{fill:none;stroke-linecap:round;stroke-miterlimit:10;stroke-width:8px;}.cls-2{stroke:url(#radial-gradient-2);}.cls-3{stroke:url(#radial-gradient-3);}</style><radialGradient id="radial-gradient" cx="78.79" cy="100.1" r="43.75" gradientUnits="userSpaceOnUse"><stop offset="0" stop-color="#fcaccb"/><stop offset="0.33" stop-color="#fba8c9"/><stop offset="0.65" stop-color="#f69cc1"/><stop offset="0.97" stop-color="#ef89b6"/><stop offset="1" stop-color="#ee86b4"/></radialGradient><radialGradient id="radial-gradient-2" cx="150.25" cy="99.35" r="34.04" xlink:href="#radial-gradient"/><radialGradient id="radial-gradient-3" cx="140.25" cy="99.1" r="18.6" xlink:href="#radial-gradient"/></defs><title>Artboard 23</title><path class="cls-1" d="M113,143.7c4.82,2.64,8.67.31,8.55-5.19L121,110c-.12-5.5-.31-14.5-.43-20l-.62-28.51c-.12-5.5-4.06-7.67-8.77-4.81L86.76,71.47l-9.33,5.66c-.44.26-5.29.47-10.79.47H46a10,10,0,0,0-10,10v26a10,10,0,0,0,10,10H66.41c5.5,0,10.64.35,11.42.78L88,130Z"/><path class="cls-2" d="M136.5,58.6c15.19,0,27.5,18.25,27.5,40.75s-12.31,40.75-27.5,40.75"/><path class="cls-3" d="M133.5,79.09c7.46,0,13.5,9,13.5,20s-6,20-13.5,20"/></svg>
