<svg id="Layer_1" data-name="Layer 1" xmlns="http://www.w3.org/2000/svg" xmlns:xlink="http://www.w3.org/1999/xlink" width="1242" height="2208" viewBox="0 0 1242 2208"><defs><style>.cls-1{fill:url(#linear-gradient);}.cls-2{fill:#bdf6ff;}.cls-3{fill:url(#radial-gradient);}.cls-4{fill:url(#radial-gradient-2);}.cls-5{fill:url(#radial-gradient-3);}.cls-6{fill:url(#linear-gradient-2);}.cls-7{fill:url(#radial-gradient-4);}.cls-8{fill:url(#radial-gradient-5);}.cls-9{fill:url(#radial-gradient-6);}.cls-10{fill:url(#radial-gradient-7);}.cls-11{fill:url(#radial-gradient-8);}.cls-12{fill:url(#radial-gradient-9);}.cls-13{fill:#896f36;}.cls-14{fill:url(#radial-gradient-10);}.cls-15{fill:url(#radial-gradient-11);}.cls-16{fill:url(#radial-gradient-12);}.cls-17{fill:url(#radial-gradient-13);}.cls-18{fill:url(#radial-gradient-14);}.cls-19{fill:url(#radial-gradient-15);}.cls-20{fill:url(#radial-gradient-16);}.cls-21{fill:url(#radial-gradient-17);}.cls-22{fill:#e58c3c;}.cls-23{fill:#fff18f;}.cls-24{fill:#fc2727;}.cls-25,.cls-32,.cls-37{fill:none;}.cls-25{stroke:#4f4f4f;stroke-width:8px;}.cls-25,.cls-37{stroke-linecap:round;stroke-linejoin:round;}.cls-26{fill:#727272;}.cls-27{fill:url(#radial-gradient-18);}.cls-28{fill:url(#radial-gradient-19);}.cls-29{fill:url(#linear-gradient-3);}.cls-30{fill:url(#linear-gradient-4);}.cls-31{fill:url(#radial-gradient-20);}.cls-32{stroke:#050402;stroke-miterlimit:10;}.cls-33{fill:url(#radial-gradient-21);}.cls-34{fill:url(#linear-gradient-5);}.cls-35{fill:url(#linear-gradient-6);}.cls-36{fill:url(#linear-gradient-7);}.cls-37{stroke:#000;stroke-width:3px;}.cls-38{fill:url(#radial-gradient-22);}.cls-39{fill:url(#radial-gradient-23);}.cls-40{fill:url(#radial-gradient-24);}.cls-41{fill:url(#linear-gradient-8);}.cls-42{fill:url(#linear-gradient-9);}.cls-43{fill:url(#radial-gradient-25);}.cls-44{fill:url(#radial-gradient-26);}.cls-45{fill:url(#linear-gradient-10);}</style><linearGradient id="linear-gradient" x1="621" y1="2209" x2="621" y2="834" gradientUnits="userSpaceOnUse"><stop offset="0" stop-color="#7a8a2a"/><stop offset="1" stop-color="#c9dd6f"/></linearGradient><radialGradient id="radial-gradient" cx="648" cy="94.5" r="117.06" gradientTransform="translate(0 56.7) scale(1 0.4)" gradientUnits="userSpaceOnUse"><stop offset="0" stop-color="#fff" stop-opacity="0.8"/><stop offset="0.45" stop-color="#fff" stop-opacity="0.79"/><stop offset="0.61" stop-color="#fff" stop-opacity="0.77"/><stop offset="0.72" stop-color="#fff" stop-opacity="0.72"/><stop offset="0.82" stop-color="#fff" stop-opacity="0.65"/><stop offset="0.9" stop-color="#fff" stop-opacity="0.57"/><stop offset="0.97" stop-color="#fff" stop-opacity="0.46"/><stop offset="1" stop-color="#fff" stop-opacity="0.4"/></radialGradient><radialGradient id="radial-gradient-2" cx="320.5" cy="184.56" r="192.74" gradientTransform="translate(0 110.74) scale(1 0.4)" xlink:href="#radial-gradient"/><radialGradient id="radial-gradient-3" cx="1085" cy="275.5" r="117.06" gradientTransform="translate(0 165.3) scale(1 0.4)" xlink:href="#radial-gradient"/><linearGradient id="linear-gradient-2" x1="620.72" y1="834" x2="620.72" y2="2208.5" gradientUnits="userSpaceOnUse"><stop offset="0" stop-color="#dbc9a1"/><stop offset="0.2" stop-color="#d6c399"/><stop offset="0.52" stop-color="#c7b384"/><stop offset="0.9" stop-color="#b09961"/><stop offset="1" stop-color="#a99157"/></linearGradient><radialGradient id="radial-gradient-4" cx="1028.5" cy="888.25" r="150.5" gradientTransform="translate(0 710.6) scale(1 0.2)" gradientUnits="userSpaceOnUse"><stop offset="0" stop-opacity="0.5"/><stop offset="1" stop-color="#8c6239" stop-opacity="0"/></radialGradient><radialGradient id="radial-gradient-5" cx="201.38" cy="887.21" r="135.7" gradientTransform="translate(0 709.77) scale(1 0.2)" xlink:href="#radial-gradient-4"/><radialGradient id="radial-gradient-6" cx="1117.5" cy="906.63" r="90.89" gradientTransform="translate(0 725.3) scale(1 0.2)" xlink:href="#radial-gradient-4"/><radialGradient id="radial-gradient-7" cx="1091.5" cy="629.5" r="120.5" gradientUnits="userSpaceOnUse"><stop offset="0" stop-color="#7eaf45"/><stop offset="0.36" stop-color="#7caa43"/><stop offset="0.78" stop-color="#769d3c"/><stop offset="1" stop-color="#729237"/></radialGradient><radialGradient id="radial-gradient-8" cx="1165" cy="760" r="54" xlink:href="#radial-gradient-7"/><radialGradient id="radial-gradient-9" cx="922" cy="739" r="54" xlink:href="#radial-gradient-7"/><radialGradient id="radial-gradient-10" cx="139.39" cy="663.4" r="104.39" xlink:href="#radial-gradient-7"/><radialGradient id="radial-gradient-11" cx="286.22" cy="758.26" r="46.78" xlink:href="#radial-gradient-7"/><radialGradient id="radial-gradient-12" cx="1061.27" cy="390.31" r="97.81" gradientUnits="userSpaceOnUse"><stop offset="0" stop-color="#ffdf2b"/><stop offset="0.15" stop-color="#ffdc31"/><stop offset="0.36" stop-color="#ffd541"/><stop offset="0.43" stop-color="#ffd249"/><stop offset="1" stop-color="#e1b73c"/></radialGradient><radialGradient id="radial-gradient-13" cx="890.08" cy="349.45" r="75.78" xlink:href="#radial-gradient-12"/><radialGradient id="radial-gradient-14" cx="729.96" cy="323.63" r="72.38" xlink:href="#radial-gradient-12"/><radialGradient id="radial-gradient-15" cx="559.43" cy="320.07" r="71.26" xlink:href="#radial-gradient-12"/><radialGradient id="radial-gradient-16" cx="365.66" cy="345.1" r="93.9" xlink:href="#radial-gradient-12"/><radialGradient id="radial-gradient-17" cx="181.96" cy="386.98" r="87.37" xlink:href="#radial-gradient-12"/><radialGradient id="radial-gradient-18" cx="838.91" cy="771.39" r="50.5" gradientTransform="translate(-475.34 -31.4) scale(1.42 1.14)" gradientUnits="userSpaceOnUse"><stop offset="0" stop-color="#eec4e5"/><stop offset="0.43" stop-color="#ecc3e3"/><stop offset="0.59" stop-color="#e5bedd"/><stop offset="0.7" stop-color="#dab6d2"/><stop offset="0.79" stop-color="#c9abc2"/><stop offset="0.86" stop-color="#b39dae"/><stop offset="0.93" stop-color="#978b95"/><stop offset="0.99" stop-color="#787678"/><stop offset="1" stop-color="#727272"/></radialGradient><radialGradient id="radial-gradient-19" cx="1040.79" cy="626.55" r="50.5" gradientTransform="matrix(0, -1.42, 1.14, 0, -274.31, 2334.38)" xlink:href="#radial-gradient-18"/><linearGradient id="linear-gradient-3" x1="689" y1="1415.5" x2="689" y2="1310.5" gradientUnits="userSpaceOnUse"><stop offset="0" stop-color="#c1c1c1"/><stop offset="0.68" stop-color="#1a1a1a"/></linearGradient><linearGradient id="linear-gradient-4" x1="551.5" y1="1416" x2="551.5" y2="1311" gradientUnits="userSpaceOnUse"><stop offset="0" stop-color="#c1c1c1"/><stop offset="0.72" stop-color="#333"/></linearGradient><radialGradient id="radial-gradient-20" cx="623.06" cy="1083.5" r="263.33" gradientUnits="userSpaceOnUse"><stop offset="0" stop-color="#c1c1c1"/><stop offset="0.49" stop-color="#bfbfbf"/><stop offset="0.67" stop-color="#b8b8b8"/><stop offset="0.79" stop-color="#adadad"/><stop offset="0.89" stop-color="#9c9c9c"/><stop offset="0.98" stop-color="#868686"/><stop offset="1" stop-color="gray"/></radialGradient><radialGradient id="radial-gradient-21" cx="613.5" cy="1205" r="148.3" gradientTransform="translate(0 120.5) scale(1 0.9)" gradientUnits="userSpaceOnUse"><stop offset="0" stop-color="#f2f2f2"/><stop offset="0.38" stop-color="#f2f2f2" stop-opacity="0.99"/><stop offset="0.51" stop-color="#f0f0f0" stop-opacity="0.96"/><stop offset="0.61" stop-color="#eee" stop-opacity="0.92"/><stop offset="0.69" stop-color="#eaeaea" stop-opacity="0.85"/><stop offset="0.75" stop-color="#e6e6e6" stop-opacity="0.75"/><stop offset="0.81" stop-color="#e0e0e0" stop-opacity="0.64"/><stop offset="0.87" stop-color="#dadada" stop-opacity="0.51"/><stop offset="0.92" stop-color="#d2d2d2" stop-opacity="0.35"/><stop offset="0.96" stop-color="#cacaca" stop-opacity="0.18"/><stop offset="1" stop-color="#c1c1c1" stop-opacity="0"/></radialGradient><linearGradient id="linear-gradient-5" x1="441.25" y1="1070" x2="441.25" y2="1189.5" gradientUnits="userSpaceOnUse"><stop offset="0" stop-color="#c1c1c1" stop-opacity="0"/><stop offset="0.02" stop-color="#bdbdbd" stop-opacity="0.04"/><stop offset="0.21" stop-color="#9e9e9e" stop-opacity="0.39"/><stop offset="0.41" stop-color="#858585" stop-opacity="0.65"/><stop offset="0.6" stop-color="#747474" stop-opacity="0.85"/><stop offset="0.8" stop-color="#696969" stop-opacity="0.96"/><stop offset="1" stop-color="#666"/></linearGradient><linearGradient id="linear-gradient-6" x1="588.63" y1="758.86" x2="588.63" y2="840" gradientUnits="userSpaceOnUse"><stop offset="0" stop-color="#ccc"/><stop offset="0.28" stop-color="gray"/><stop offset="1" stop-color="#4d4d4d"/></linearGradient><linearGradient id="linear-gradient-7" x1="588.63" y1="757.36" x2="588.63" y2="841.5" xlink:href="#linear-gradient-6"/><radialGradient id="radial-gradient-22" cx="640.27" cy="360.09" r="148.3" gradientTransform="translate(531.42 957.59) scale(0.24 0.14)" gradientUnits="userSpaceOnUse"><stop offset="0" stop-color="#ffc0e7" stop-opacity="0.5"/><stop offset="0.18" stop-color="#fdc0e6" stop-opacity="0.48"/><stop offset="0.36" stop-color="#f7c0e2" stop-opacity="0.44"/><stop offset="0.53" stop-color="#eec0dc" stop-opacity="0.36"/><stop offset="0.71" stop-color="#e0c0d4" stop-opacity="0.25"/><stop offset="0.88" stop-color="#cfc1ca" stop-opacity="0.11"/><stop offset="1" stop-color="#c1c1c1" stop-opacity="0"/></radialGradient><radialGradient id="radial-gradient-23" cx="-256.89" cy="437.24" r="148.3" gradientTransform="translate(531.42 958.79) scale(0.24 0.14)" xlink:href="#radial-gradient-22"/><radialGradient id="radial-gradient-24" cx="630.5" cy="1402.8" r="344.8" gradientTransform="translate(0 1122.24) scale(1 0.2)" xlink:href="#radial-gradient-4"/><linearGradient id="linear-gradient-8" x1="654.72" y1="1117.13" x2="647.96" y2="1172.2" gradientUnits="userSpaceOnUse"><stop offset="0" stop-color="#ffce58"/><stop offset="0.47" stop-color="#fdcc57"/><stop offset="0.64" stop-color="#f6c654"/><stop offset="0.75" stop-color="#ebba50"/><stop offset="0.85" stop-color="#daaa49"/><stop offset="0.93" stop-color="#c49540"/><stop offset="1" stop-color="#ac7e36"/></linearGradient><linearGradient id="linear-gradient-9" x1="654.87" y1="1115.98" x2="647.82" y2="1173.35" xlink:href="#linear-gradient-8"/><radialGradient id="radial-gradient-25" cx="652.73" cy="1101.55" r="35.95" gradientUnits="userSpaceOnUse"><stop offset="0" stop-color="#fff18f"/><stop offset="0.33" stop-color="#fff08a"/><stop offset="0.69" stop-color="#ffed7d"/><stop offset="1" stop-color="#ffea6c"/></radialGradient><radialGradient id="radial-gradient-26" cx="652.73" cy="1101.55" r="37.03" xlink:href="#radial-gradient-25"/><linearGradient id="linear-gradient-10" x1="865.6" y1="1410.61" x2="865.6" y2="1554.13" gradientTransform="translate(1024.91 -596.98) rotate(40.98)" gradientUnits="userSpaceOnUse"><stop offset="0" stop-color="#c1c1c1" stop-opacity="0"/><stop offset="0.01" stop-color="#c1c1c1" stop-opacity="0.2"/><stop offset="0.02" stop-color="#c1c1c1" stop-opacity="0.38"/><stop offset="0.04" stop-color="#c1c1c1" stop-opacity="0.55"/><stop offset="0.05" stop-color="#c1c1c1" stop-opacity="0.69"/><stop offset="0.07" stop-color="#c1c1c1" stop-opacity="0.81"/><stop offset="0.09" stop-color="#c1c1c1" stop-opacity="0.89"/><stop offset="0.12" stop-color="#c1c1c1" stop-opacity="0.96"/><stop offset="0.15" stop-color="#c1c1c1" stop-opacity="0.99"/><stop offset="0.26" stop-color="#c1c1c1"/><stop offset="0.39" stop-color="#bbb"/><stop offset="0.57" stop-color="#a9a9a9"/><stop offset="0.78" stop-color="#8b8b8b"/><stop offset="1" stop-color="#666"/></linearGradient></defs><title>Artboard 1</title><rect class="cls-1" y="834" width="1242" height="1375"/><rect class="cls-2" y="1" width="1242" height="833"/><path class="cls-3" d="M776.9,78.14a39.5,39.5,0,0,0-56.17-18.83,52,52,0,0,0-65.6-9.84,52,52,0,0,0-50.26,0,52,52,0,0,0-74.94,24.7c-1.13-.11-2.27-.17-3.43-.17a35.5,35.5,0,1,0,22.36,63.07,52,52,0,0,0,54.27,2.46,52.06,52.06,0,0,0,53.74,0A52,52,0,0,0,721.31,128a39.25,39.25,0,0,0,19.19,5,39.74,39.74,0,0,0,11.86-1.81,31,31,0,1,0,24.54-53Z"/><path class="cls-4" d="M532.74,157.62a65,65,0,0,0-92.49-31,85.64,85.64,0,0,0-108-16.2,85.63,85.63,0,0,0-82.75,0,85.66,85.66,0,0,0-123.4,40.66q-2.79-.27-5.64-.27a58.45,58.45,0,1,0,36.81,103.84,85.65,85.65,0,0,0,89.36,4,85.65,85.65,0,0,0,88.48,0,85.59,85.59,0,0,0,106.1-18.94A65.1,65.1,0,0,0,492.33,245a51,51,0,1,0,40.41-87.34Z"/><path class="cls-5" d="M1213.9,259.14a39.5,39.5,0,0,0-56.17-18.83,52,52,0,0,0-65.6-9.84,52,52,0,0,0-50.26,0,52,52,0,0,0-74.94,24.7c-1.13-.11-2.27-.17-3.43-.17a35.5,35.5,0,1,0,22.36,63.07,52,52,0,0,0,54.27,2.46,52.06,52.06,0,0,0,53.74,0A52,52,0,0,0,1158.31,309a39.25,39.25,0,0,0,19.19,5,39.74,39.74,0,0,0,11.86-1.81,31,31,0,1,0,24.54-53.05Z"/><path class="cls-6" d="M603.22,834S424.5,864.5,470.5,898.5s288,46,133,87S113,1076,161,1193s87,107,110,269S0,1942,0,1942L-.5,2208.5h1242s20-672-207-834-412-230-193-291c190.81-53.15-65.89-140.08-135.13-161.58a165.91,165.91,0,0,0-30.22-6.35C628.51,910.07,480.84,887.86,603.22,834Z"/><ellipse class="cls-7" cx="1028.5" cy="888.25" rx="204.5" ry="59.02"/><ellipse class="cls-8" cx="201.38" cy="887.21" rx="184.38" ry="53.21"/><ellipse class="cls-9" cx="1117.5" cy="906.63" rx="123.5" ry="35.64"/><circle class="cls-10" cx="1091.5" cy="629.5" r="120.5"/><circle class="cls-11" cx="1165" cy="760" r="54"/><circle class="cls-12" cx="922" cy="739" r="54"/><path class="cls-13" d="M1091,629s-62,63-34,119-31.5,142.5-31.5,142.5l-21-11s57-69,30-156C1027.5,694.5,1061.5,647.5,1091,629Z"/><path class="cls-13" d="M922.43,738.94s49.08,27.55,41.87,66.76,44.5,81.58,44.5,81.58l10.89-10.45s-47.07-32.11-46-90.1C972.87,767.76,943.75,745,922.43,738.94Z"/><path class="cls-13" d="M1045,871a14.48,14.48,0,0,0-2.9.3,17.92,17.92,0,0,0-14.77-7.3,18.52,18.52,0,0,0-11.82,4.13,19.38,19.38,0,0,0-11,0A18.52,18.52,0,0,0,992.67,864c-7.54,0-13.95,4.26-16.34,10.2-.33,0-.66-.05-1-.05-5.15,0-9.33,3.7-9.33,8.26s4.18,8.26,9.33,8.26a10.23,10.23,0,0,0,4.5-1,18.39,18.39,0,0,0,12.84,5,19.45,19.45,0,0,0,5.5-.8,19,19,0,0,0,23.66,0,19.45,19.45,0,0,0,5.5.8,18.78,18.78,0,0,0,10.07-2.86A14.08,14.08,0,0,0,1045,894c7.18,0,13-5.15,13-11.5S1052.18,871,1045,871Z"/><circle class="cls-14" cx="139.39" cy="663.4" r="104.39"/><circle class="cls-15" cx="286.22" cy="758.26" r="46.78"/><path class="cls-13" d="M139.82,663s53.71,54.58,29.45,103.09S196.56,889.5,196.56,889.5L214.75,880s-49.38-59.77-26-135.14C194.83,719.71,165.38,679,139.82,663Z"/><path class="cls-13" d="M285.85,758.21S243.33,782.08,249.58,816,211,886.71,211,886.71l-9.44-9.05s40.78-27.81,39.83-78C242.16,783.17,267.38,763.49,285.85,758.21Z"/><path class="cls-13" d="M179.67,872.61a13,13,0,0,1,2.51.26A15.54,15.54,0,0,1,195,866.55a16.13,16.13,0,0,1,10.25,3.57,16.83,16.83,0,0,1,9.54,0A16.08,16.08,0,0,1,225,866.55c6.53,0,12.09,3.69,14.16,8.83.28,0,.57,0,.86,0,4.46,0,8.08,3.2,8.08,7.15s-3.62,7.16-8.08,7.16a8.94,8.94,0,0,1-3.9-.89A15.94,15.94,0,0,1,225,893.11a16.62,16.62,0,0,1-4.77-.69,16.45,16.45,0,0,1-20.49,0,16.57,16.57,0,0,1-4.77.69,16.2,16.2,0,0,1-8.71-2.47,12.2,12.2,0,0,1-6.59,1.89c-6.22,0-11.26-4.46-11.26-10S173.45,872.61,179.67,872.61Z"/><path class="cls-13" d="M1168.05,762.58s-37.6,31-25.43,63.35-25.41,76.38-25.41,76.38l-10.89-7.23s35.2-34.6,25.35-83.87C1129.48,794.9,1150.82,771.05,1168.05,762.58Z"/><path class="cls-13" d="M1129.65,896.74a8.07,8.07,0,0,0-1.64.17,10.11,10.11,0,0,0-8.34-4.13,10.47,10.47,0,0,0-6.69,2.34,11,11,0,0,0-6.22,0,10.47,10.47,0,0,0-6.69-2.34,9.8,9.8,0,0,0-9.23,5.77,5.25,5.25,0,0,0-.56,0c-2.92,0-5.28,2.09-5.28,4.67s2.36,4.67,5.28,4.67a5.89,5.89,0,0,0,2.54-.58,10.4,10.4,0,0,0,7.25,2.84,11,11,0,0,0,3.12-.45,10.74,10.74,0,0,0,13.36,0,11,11,0,0,0,3.12.45,10.55,10.55,0,0,0,5.68-1.62,7.94,7.94,0,0,0,4.3,1.24c4.06,0,7.35-2.91,7.35-6.5S1133.71,896.74,1129.65,896.74Z"/><path class="cls-16" d="M1148.73,348a7.36,7.36,0,0,1-5-8.7c-5.91-3-12.93-6.31-21.1-10-3.88-1.65-7.75-3.29-11.64-4.9-7.78-3.22-18.39-7.45-31.85-12.44a16.91,16.91,0,0,1-25.57-8.8c-4.21-1.39-9.09-3-14.68-4.93a7.34,7.34,0,0,1-10.76-3.64c-4.74-1.55-8.3-2.55-10.62-3-4.68-.35-7.28.33-7.81,2q-5.75,13.22-10.87,28.39t-9.72,29.5q-4.87,15.25-6.15,20.11c-.6,2.29-1.46,5.24-2.56,8.81.22,0,.44.1.65.16a7.37,7.37,0,0,1-4.38,14.07,2.65,2.65,0,0,1-.3-.11q-1.11,4.54-2.1,7.65-1.34,5-2.66,9.94c-.23,1.27-.54,2.8-.94,4.59s-1,3.83-1.69,6.11q-2.43,10-4.35,15.92c-.2.1-.15.33.18.69a6.41,6.41,0,0,0,1.59,1.14q2.31,1.38,4.61,2.77,3.24,1.32,5.49,2.46a28.89,28.89,0,0,0,3.43,1.53q4.77,1.62,9.53,3.29a5.35,5.35,0,0,1,.11-.55,3.58,3.58,0,1,1,6.83,2.13,3.49,3.49,0,0,1-.35.76c2.73,1,5.46,2,8.18,2.95a20.09,20.09,0,0,1,12.14-1.16c6.17,1.31,10.11,5.21,10.06,9.4,7.37,2.79,16.54,6.41,27.48,11,7.56,3.18,13.15,5.45,16.82,6.7,6.88,2.68,12.3,5,16.28,6.78q4.57,2.1,6.69-2.44a12.77,12.77,0,0,0,1-3.47,119,119,0,0,0,2.21-12.13,83,83,0,0,0,.72-11.49c-.17-1.3-.57-2.1-1.19-2.38-9.77-4.43-17.47-7.5-23-9.37l-.47-.17a7.26,7.26,0,0,1-4.37,1.56,7.37,7.37,0,0,1-7.39-6.09q-4.82-1.92-10.85-4.36,2.31-5.76,3.63-8.32,2.63-5.13,3.79-8a20.89,20.89,0,0,1,3.27-6c1-1,2.48-1.44,4.46-1.16a90.9,90.9,0,0,1,8.64,3.31c2.38,1.17,7.72,3.47,16,7.06,9.55,4.15,16.16,6.71,19.87,7.52,6,2.21,9.56,2.13,10.71-.33l.3-.65q3.43-8.46,6.85-16.93a7.38,7.38,0,0,1-4.31-9,7.27,7.27,0,0,1,.92-1.9l-1.35-.61a228.77,228.77,0,0,0-21.69-10.93l-3.21-1.36a7.37,7.37,0,0,1-12-5.07c-2.37-1-4.74-2-7.12-2.94-1.68-.69-2.67-1.39-3-2.11s-.06-2,.72-4l2.74-5.33q5.49-9.9,7.69-12.36c1.58-1.42,2.63-2,3.14-1.81,3.32,1.19,7.94,2.65,13.83,4.45,2.63.92,5.26,1.87,7.88,2.8a7.36,7.36,0,0,1,12.65,4.37c8,2.76,14.78,5.49,20.41,8.1a18,18,0,0,1,3,1.64c1.69.79,3,.51,3.81-.86.06-.14.32-.59.79-1.34a9.41,9.41,0,0,0,1-2.55q.95-5.36,1.7-9c1.28-4.51,1.88-7.39,1.84-8.64,1.15-5.16.77-8.57-1.08-10.27A7.39,7.39,0,0,1,1148.73,348Z"/><path class="cls-17" d="M966.71,294.67c-.59-2-2.48-3.53-5.68-4.59a36.27,36.27,0,0,1-5.56-3l-1.61-.44a7.37,7.37,0,0,1-13.36-3.44c-3.06-.75-6-1.44-8.93-2.09a14.4,14.4,0,0,1-23-4.34c-1.18-.17-2.35-.35-3.49-.5-21.19-2.63-38.37-1.6-51.33,2.56-1.79.57-3.47,1.21-5.08,1.9a7.37,7.37,0,0,1-9.36,8.72,7.43,7.43,0,0,1-2.41-1.28,34.9,34.9,0,0,0-10.69,20.38c-.6,3.46-.29,9.57.85,18.34a34.94,34.94,0,0,0,2.62,8.51,16.17,16.17,0,0,1,5.08,2.2c4.16,2.77,6.17,7,5.62,10.81l.4.32c1.31,1,2.2,1.68,2.64,2.09s.71.46.68.62-.22.2-.56.13l1.4,1a20.19,20.19,0,0,0,3.86,3.19,1.29,1.29,0,0,0,.39.69.4.4,0,0,1,.19.4,45.89,45.89,0,0,0,7.58,4.23q3.76,2.25,7.5,4.52a21.86,21.86,0,0,1,6.35,5.91,8.44,8.44,0,0,1,1.13,6.74,4.55,4.55,0,0,1-3.13,3.46c-3.17.93-7.88.71-14.18-.61-1.8-.54-4.35-1.15-7.67-1.82a98.15,98.15,0,0,1-18.43-5.72,7.35,7.35,0,0,1-11-5.37c-.49-.26-1-.51-1.46-.79a2.05,2.05,0,0,0-1.81.78,6.29,6.29,0,0,0-.8,2.41c-.07.39-.14.78-.2,1.18q.25,15.06.36,30.13a3.92,3.92,0,0,0,2.1,2.31,11.12,11.12,0,0,0,4.81,2.57,102,102,0,0,0,12.8,5.35q2.69,1,5.37,2l2.75,1.28q6.6,1.21,13.18,2.51a7.36,7.36,0,0,1,13.23,2.66q4.56.95,9.12,1.94a64.51,64.51,0,0,0,17.69,1.52,93.27,93.27,0,0,0,19-2.8c13.31-3.33,23.6-9.27,30.83-18.11a33,33,0,0,0,5-10.49c.32-1.09.58-2.13.8-3.15a7.34,7.34,0,0,1,0-11.17,35.3,35.3,0,0,0-2.55-8.55,7.62,7.62,0,0,1-2-.33,7.37,7.37,0,0,1-4.84-9.22l.18-.48a131.17,131.17,0,0,0-20.16-18.16c-6.61-5-10.65-8-12-9.19a7,7,0,0,1-2.09-2.73,5.29,5.29,0,0,1,.1-2.68,8.62,8.62,0,0,1,4-5.16c3.48-2.1,9-2.79,16.43-2,2.18.24,6.79.86,13.83,1.94,2.08.31,4.15.64,6.23,1,1.22.34,4,.86,8.33,1.59,4.06.33,6.28-.1,6.63-1.32a1.77,1.77,0,0,0-.13-1.53q4.32-17.91,4.57-21.81A12.63,12.63,0,0,0,966.71,294.67Z"/><path class="cls-18" d="M800.81,278.78a36.42,36.42,0,0,0-.51-7.8,21.23,21.23,0,0,0-1.15-6.45,3.84,3.84,0,0,0-3.12-2.62c-2.92-.42-5.85-.82-8.78-1.22a2.37,2.37,0,0,0-1.27-.9c-9.16-1.22-17-2-23.42-2.43a128.34,128.34,0,0,0-18.93.12l-1.28-1.09-4.13-.4a27.05,27.05,0,0,1-4.15-.15c-2.6-.24-5.18-.53-7.76-.8a7.23,7.23,0,0,1-2.79,1.94,7.36,7.36,0,0,1-9.15-3.35c-1.22-.16-2.44-.29-3.65-.45-5.12-.7-12.93-1.41-23.42-2q-3.45-.19-6.9-.36-4.14-.21-8.28-.39a40.1,40.1,0,0,0-4.54.73,7.36,7.36,0,0,1-5.25,13.39,7.48,7.48,0,0,1-.82-.18q-1.51,16.69-2.38,42.23c-.16,4.69-.27,8.48-.31,11.45A13.11,13.11,0,0,1,658.6,337c0,1.18-.08,2.36-.13,3.54-.09,2.66-.11,4.86-.06,6.62a2.89,2.89,0,0,1,1.2.48A3,3,0,0,1,658.4,353c0,3.59.17,7.87.45,12.87a36.93,36.93,0,0,0,2.8,12.06,11.46,11.46,0,0,0,1.11,3.16,13.3,13.3,0,0,0,2.26,5.35c.14.64.37,1,.7,1q9.21.4,18.4.94a7.36,7.36,0,0,1,14,.92q22.78,1.63,45.52,4.18c2.57-.83,6.89-.91,13-.16l1.93.49a2.09,2.09,0,0,0,1.41.66l3.67.47.37,0,.23-.19a7.37,7.37,0,0,1,10.32,1.44,1.7,1.7,0,0,0,.15.22l.2,0,.73.1,1.72.24,2.19-1.37c.09-.63.18-1.26.28-1.89,0-.24.06-.48.1-.71.23-1.58.45-3.16.68-4.73q-.36-3.56-.74-7.11a40.16,40.16,0,0,1-.55-6.84,9.14,9.14,0,0,0-.07-3.14,5.67,5.67,0,0,0-.15-2.56c-.23-.75-.6-1.17-1.1-1.24-7.53-1.05-15.2-1.81-23-2.25q-11.91-.71-23.23-1.82c0-.48.1-.95.14-1.43l.21-2.14.24-2.37a36,36,0,0,1,.75-5l.78-5.21a3.65,3.65,0,0,1-.09-1.69l.09-.95a5.8,5.8,0,0,1,1.4-3.7,2.83,2.83,0,0,1,2.5-1.55,29.61,29.61,0,0,1,5.43.21l6.35.7a7.35,7.35,0,0,1,10.63,1.24l1.77.21c9.24,1.14,15.51,1.7,18.85,1.51,5.75,0,8.56-1.26,8.42-3.86q-1.58-8.2-3.2-16.4a5.23,5.23,0,0,0-.87-3.26,4.32,4.32,0,0,0-3.47-1.92,29.6,29.6,0,0,1-6.1-2.27,8.53,8.53,0,0,0-3.85-1.22,2.52,2.52,0,0,0-1.08.1,1.64,1.64,0,0,0-.88.61q-11.16-1.41-22.33-2.62a3.44,3.44,0,0,0-1.24-.86,4.62,4.62,0,0,0-1.29-.37,3.8,3.8,0,0,1-2.73.67,4.06,4.06,0,0,1-2.93-1.26c-.56-.69-.74-1.91-.57-3.66a40.19,40.19,0,0,1,.75-4.73A32.92,32.92,0,0,1,743,291c.69-1.52,1.4-2.25,2.12-2.18,0,.16,0,.32-.05.48a16.8,16.8,0,0,1,5.78-.83l1.71.05a7.36,7.36,0,0,1,13.58,1.23l1.38.16a49.52,49.52,0,0,0,7.16.42c2.09-.05,3.51-.11,4.25-.17s1.55-.1,2.27-.12a4.22,4.22,0,0,1,3-1.55,5.88,5.88,0,0,1,5.35,3.34l.1,0a8.62,8.62,0,0,0,3.59-.21,6.43,6.43,0,0,1,3,.19l1,.39c.29.53.52.8.7.83q2.67.39,3.66-6.22A44.89,44.89,0,0,1,800.81,278.78Z"/><path class="cls-19" d="M628.8,266.43a7.33,7.33,0,0,1-1.78-8.81,20.91,20.91,0,0,0-2-6.18,3.83,3.83,0,0,0-3.44-2.17h-8.84a2.37,2.37,0,0,0-1.39-.71c-9.22,0-17.05.34-23.49.81a129.82,129.82,0,0,0-15.68,2.12,7.33,7.33,0,0,1-10.71.17c-.6.05-1.25.1-2,.13q-5.88.27-11.72.42a21.24,21.24,0,0,1-21.13,5.67,20.18,20.18,0,0,1-8.43-4.68c-1.81.13-3.68.27-5.67.44l-6.89.59c-2.76.24-5.51.5-8.26.76-6.16,1.55-9.12,3.31-8.92,5.21.07,5.69.39,12.49.93,20.35a13.71,13.71,0,0,1,1.37,16.76q.66,7.13,1.49,15.1,1.3,12.6,2,16.85.67,4,1.42,11.14c.19,1.9.39,3.81.59,5.71.35,3.32.7,5.93,1.07,7.81.15,1.46.36,3.11.63,4.92a7.36,7.36,0,0,1,2.4,13.26,35.57,35.57,0,0,0,4.21,10.63,11.22,11.22,0,0,0,1.54,3,13.34,13.34,0,0,0,3,5c.23.62.5.91.83.88q11.54-1.11,23.08-2a7.36,7.36,0,0,1,11.93-.83q3.12-.21,6.26-.39a.06.06,0,0,1,0,0c.68-1.68,3-2.62,5.22-2.1a4,4,0,0,1,2.53,1.7q14.46-.75,29-1.14c2.43-1.17,6.7-1.84,12.78-1.94l2,.22a2.06,2.06,0,0,0,1.49.45l3.69,0,3-.26c0,.39,0,.79,0,1.19a15.58,15.58,0,0,1,1.72-1l1.48-.73a3.15,3.15,0,0,1,1.73.48,14.87,14.87,0,0,0,3.45.23h2.46l2-1.66c0-.64,0-1.28,0-1.91,0-.24,0-.48,0-.72,0-1.59,0-3.19,0-4.78-.56-2.31-1.14-4.63-1.71-6.94a39.06,39.06,0,0,1-1.48-6.69,9.84,9.84,0,0,0-.11-1.35,7.35,7.35,0,0,1-6.94-5.3q-9,.15-18.22.89-11.88.94-23.23,1.4L571.9,357c0-.72,0-1.43-.08-2.15s-.06-1.59-.1-2.39a36.65,36.65,0,0,1,.06-5c0-1.76,0-3.51.05-5.26a4,4,0,0,1-.32-1.67c0-.31,0-.63,0-.95a5.75,5.75,0,0,1,.88-3.86,2.82,2.82,0,0,1,2.25-1.88,29.2,29.2,0,0,1,5.41-.54c2.33-.08,4.67-.14,7-.2a7.35,7.35,0,0,1,11.8-.25h0c9.29-.15,15.57-.47,18.84-1.11,5.68-.79,8.28-2.43,7.78-5q-2.67-7.9-5.41-15.79a5.17,5.17,0,0,0-1.32-3.11c-.7-1-1.93-1.44-3.69-1.43a29.06,29.06,0,0,1-6.34-1.41,8.53,8.53,0,0,0-4-.68,2.69,2.69,0,0,0-1.06.25,1.68,1.68,0,0,0-.78.73q-11.22.14-22.45.48a3.45,3.45,0,0,0-1.34-.67,4.92,4.92,0,0,0-1.33-.2,3.81,3.81,0,0,1-2.61,1.05,4.07,4.07,0,0,1-3.07-.85c-.64-.61-1-1.79-1.06-3.54a39.15,39.15,0,0,1,.08-4.79,32.87,32.87,0,0,1,2-11.31q.72-2.42,1.8-2.46c0,.16,0,.32,0,.48a16.93,16.93,0,0,1,5.61-1.61c3.39-.42,9-.74,16.68-.87a48.62,48.62,0,0,0,7.14-.58q3.09-.51,4.17-.75a26,26,0,0,1,5.66-.75,7.49,7.49,0,0,1,2.43.24,4.84,4.84,0,0,0,2.7.71,8.53,8.53,0,0,0,3.51-.7,6.43,6.43,0,0,1,3-.23l1.08.25c.35.48.62.72.8.72,1.79,0,2.72-2.2,2.76-6.66A40.73,40.73,0,0,1,628.8,266.43Z"/><path class="cls-20" d="M461.72,341.11a7.49,7.49,0,0,1,1.21-2.31l-1.68-17.32a14.49,14.49,0,0,1-2.14-21.3c-.1-1-.19-1.85-.29-2.6l-.48-5.72c-.07-1.92-.3-4.45-.71-7.62q-1.23-9.36-2.44-18.71-.49-3.79-2.54-4.49a12.32,12.32,0,0,0-4.37-.28,7.36,7.36,0,0,1-9.2,4.75,7.27,7.27,0,0,1-3.95-3,73.56,73.56,0,0,0-7.21,1.52q-8.6,1.54-17.16,3.21c-2.92.49-6.77,1-11.56,1.49a107.66,107.66,0,0,0-12.36,1.74q-6.55,1.22-13.08,2.5c.12.63-.36,1.05-1.45,1.26l-1.36.27-.82.17c.23,1.17.47,2.34.7,3.51a35.54,35.54,0,0,0,.81,5.44,62.33,62.33,0,0,1,1,6.62l1.32,6.56a46.81,46.81,0,0,0,.86,5.67c.23,1.18.47,2.35.7,3.52q1,4.8,1.93,9.6c.06.32-.7.63-2.28.95a11.15,11.15,0,0,0-2.18.69,14,14,0,0,1-2.45.75,16.48,16.48,0,0,1-4.82.51l-2.63.56a16.33,16.33,0,0,0-2.83.85,12.55,12.55,0,0,1-2.05.69,18,18,0,0,1-2.52,1,2.71,2.71,0,0,1-2.62-.65,8.07,8.07,0,0,1-1.3-3.38,68.33,68.33,0,0,1-1.24-6.82l-1.29-7.06a8.79,8.79,0,0,0-.78-2.27l-.36-1.64c-.17-.77-.35-1.55-.52-2.33a13.42,13.42,0,0,1-1-3.2c-.24-1.09-.49-2.18-.73-3.27-.14-.62-.27-1.24-.41-1.87a38.29,38.29,0,0,0-1.31-4.6,4.54,4.54,0,0,0-1.71-2.56,3.83,3.83,0,0,0-2.64-1,21,21,0,0,0-4.55.67l-.8.16a7.35,7.35,0,0,1-11.74,2.32l-3,.69q-7.58,1.84-15.13,3.77c-2.6.66-5.21,1.34-7.81,2-2,.52-4,1.07-5.94,1.6a11.56,11.56,0,0,1-12.67,4.17,9.1,9.1,0,0,1-1.14-.41l-3.38.94a13.87,13.87,0,0,0-3.11.76c-1.15.42-2,.69-2.52.85a10.09,10.09,0,0,1-4,2.16c-.72.21-1,.54-.87,1a39.31,39.31,0,0,0,1.41,5.81l2.55,8.71a37,37,0,0,1,1.22,5.13l1.41,5.8q1.26,5.25,2.51,10.48c.27,1,.55,2.09.82,3.14a7.29,7.29,0,0,1,3.13.27A7.36,7.36,0,0,1,277,354.8q.77,2.58,1.52,5.05a4.33,4.33,0,0,1,1.46.2,5,5,0,0,1,3.13,6.24,4.91,4.91,0,0,1-1.78,2.55q3.81,11.82,7.24,20.78,5,12.48,13.18,35.23a14,14,0,0,0,1,2.68c.25.27.63.69,1.15,1.29a1.62,1.62,0,0,0,1.74.62,73.37,73.37,0,0,0,13.38-1.54c4.63-.94,7-1.39,7-1.39s3.35-.91,10.07-2.65q8.4-2.17,16.83-4.21l1.12-.36a5,5,0,0,1,.14-.52,7.37,7.37,0,0,1,12.26-3c1.05-.26,2.11-.52,3.19-.76a9,9,0,0,0,1.1-.74,2,2,0,0,1,.68-.4c.64-.14,1-.46,1.05-1a2.72,2.72,0,0,1,0-1.1,3.4,3.4,0,0,0-.05-1.34c-.32-1.47-.65-2.95-1-4.43l-8.61-38.72c-.06-.31-.16-.73-.28-1.28a4.68,4.68,0,0,1-.09-1.57c.07-.51.44-.83,1.11-1q5.19-1.14,10.38-2.24l2.63-.07c1.88-.23,4.85-.77,8.91-1.58l2.53-.51q5.11,19.08,10.14,38.18A32.59,32.59,0,0,0,401,405q1.66,2.1,5.07,1.45l4.13-.78c8.11-1.52,14.21-2.49,18.3-3q9.38-.87,18.89-2.32,8.53-1.31,17.09-2.48c1-.14,1.87-.9,2.68-2.3a8.76,8.76,0,0,0,1.06-3.27q-2.18-21.7-4.29-43.43A7.37,7.37,0,0,1,461.72,341.11Z"/><path class="cls-21" d="M242.79,450.65a16.9,16.9,0,0,1,3.72.43l1.2-1c8.27-7.09,14.67-14.32,19.14-21.8q-7.22-18.26-14.53-36.48a151.8,151.8,0,0,1-14.16,15.06c-5.06,4.94-10,8.28-14.85,10a19.21,19.21,0,0,1-7.71,1.17,7.36,7.36,0,0,1-12.26-5.29q-5.67-5.1-10.27-15a49.83,49.83,0,0,1-4.58-9.77c-5.62-14.73-7.15-26.34-4.45-34.84,2.46-8.06,8.61-13.9,18.36-17.34a66.66,66.66,0,0,1,8.23-2.29c.06-.27.12-.54.2-.81a7.37,7.37,0,0,1,13.63-1.1c3.6-.37,7.2-.76,10.8-1.1q-2.43-15.54-4.73-31.11a98.79,98.79,0,0,0-15.43-1.77c-5.44-.21-9-.35-10.63-.47-17.81.67-33.81,3.77-47.75,9.1l-3.49,1.33-3.13,1.47a105.6,105.6,0,0,0-16.1,9.09,14.28,14.28,0,0,1-.6,4.77,13.73,13.73,0,0,1-15.63,9.55c-1.44,1.63-2.82,3.3-4.14,5q-1.68,2.22-3.2,4.52a7.21,7.21,0,0,1-.22,3.44,7.36,7.36,0,0,1-4.45,4.7,79.83,79.83,0,0,0-8,27.93c-2.26,16.11.7,32.35,8.43,48.77q2.34,5,4.9,9.44a7.33,7.33,0,0,1,6.17,9.69,88.11,88.11,0,0,0,12.28,14,42.46,42.46,0,0,0,12.26,7.51,65.76,65.76,0,0,0,18.72,8.12,47.47,47.47,0,0,0,5.72.75c2.18.19,3.83.29,5,.34A99.81,99.81,0,0,0,189,475.1a8.48,8.48,0,0,1,.29-1.38,7.36,7.36,0,0,1,13.19-1.85c6.14-1.81,13.22-4.24,21.29-7.27q1.37-.53,2.73-1.11A16.72,16.72,0,0,1,242.79,450.65Z"/><circle class="cls-22" cx="145.97" cy="365.8" r="16.73"/><path class="cls-23" d="M161.43,372.16a16.73,16.73,0,1,1-30.93-12.74c1.27,8.62,3.13,12.49,11.67,16S155.71,376.87,161.43,372.16Z"/><circle class="cls-22" cx="303.72" cy="328.79" r="16.73"/><path class="cls-23" d="M317.23,338.65a16.73,16.73,0,0,1-27-19.74c-.82,8.67.06,12.87,7.52,18.32S310.54,341.86,317.23,338.65Z"/><circle class="cls-22" cx="438.73" cy="365.82" r="16.73"/><path class="cls-23" d="M448.48,379.41A16.73,16.73,0,0,1,429,352.22c-3.48,8-4,12.25,1.42,19.76S441.13,380.37,448.48,379.41Z"/><ellipse class="cls-22" cx="529.52" cy="292.94" rx="21.44" ry="16.74"/><path class="cls-23" d="M546.5,303.17c-7.24,7.31-20.71,8.67-30.08,3S505.31,290,512.55,282.7c-1.34,8.66-.35,12.89,9,18.54S537.82,306.2,546.5,303.17Z"/><circle class="cls-22" cx="537.27" cy="359.29" r="13.7"/><path class="cls-23" d="M549.94,364.5a13.71,13.71,0,0,1-25.35-10.44c1,7.06,2.57,10.23,9.57,13.11S545.24,368.35,549.94,364.5Z"/><circle class="cls-22" cx="697.36" cy="275.66" r="13.7"/><path class="cls-23" d="M710,280.87a13.71,13.71,0,0,1-25.35-10.44c1.05,7.07,2.57,10.23,9.57,13.12S705.33,284.73,710,280.87Z"/><circle class="cls-22" cx="427.35" cy="303.14" r="13.7"/><path class="cls-23" d="M440,308.35a13.71,13.71,0,0,1-25.35-10.44c1.05,7.06,2.57,10.23,9.56,13.11S435.33,312.2,440,308.35Z"/><circle class="cls-22" cx="716.47" cy="372.43" r="13.7"/><path class="cls-23" d="M729.14,377.64A13.7,13.7,0,0,1,703.8,367.2c1,7.07,2.56,10.23,9.56,13.12S724.45,381.5,729.14,377.64Z"/><circle class="cls-22" cx="867" cy="303.14" r="13.7"/><path class="cls-23" d="M875.2,314.11a13.7,13.7,0,1,1-16.39-22c-2.73,6.6-3,10.09,1.47,16.16S869.2,315,875.2,314.11Z"/><circle class="cls-22" cx="900.45" cy="377.21" r="13.7"/><path class="cls-23" d="M911.65,385.1a13.7,13.7,0,1,1-22.39-15.8c-.55,7.12.23,10.55,6.41,14.91S906.22,387.82,911.65,385.1Z"/><ellipse class="cls-22" cx="1029.48" cy="328.78" rx="15.54" ry="14.9" transform="translate(375.58 1189.21) rotate(-70.48)"/><path class="cls-23" d="M1040.49,339a14.69,14.69,0,0,1-21.16,1.47,15.78,15.78,0,0,1-.85-21.83c-1.61,7.93-1.25,11.86,4.82,17.49S1034.22,341.37,1040.49,339Z"/><ellipse class="cls-22" cx="1040.23" cy="392.09" rx="15.54" ry="14.9" transform="translate(70.78 936.14) rotate(-49.95)"/><path class="cls-23" d="M1047,405.48a14.69,14.69,0,0,1-20.33-6,15.79,15.79,0,0,1,6.85-20.75c-4.29,6.87-5.33,10.68-1.61,18.08S1040.26,405.55,1047,405.48Z"/><circle class="cls-22" cx="177.08" cy="429.15" r="16.73"/><path class="cls-23" d="M191.81,437.07a16.72,16.72,0,0,1-29.45-15.86c.37,8.7,1.82,12.74,9.95,17.12S185.63,441.16,191.81,437.07Z"/><circle class="cls-22" cx="139.02" cy="406.62" r="7.37"/><circle class="cls-22" cx="164.11" cy="322.99" r="7.37"/><path class="cls-23" d="M170,327.53a7.37,7.37,0,1,1-11.89-8.7c0,2.71.59,5.12,3.87,7.52S168.44,327.63,170,327.53Z"/><circle class="cls-22" cx="204.73" cy="322.99" r="7.37"/><path class="cls-23" d="M210.61,327.53a7.37,7.37,0,1,1-11.89-8.7c0,2.71.59,5.12,3.87,7.52S209.06,327.63,210.61,327.53Z"/><circle class="cls-22" cx="314.64" cy="405.43" r="7.37"/><path class="cls-23" d="M320.52,410a7.37,7.37,0,0,1-11.89-8.7c0,2.71.59,5.12,3.87,7.52S319,410.06,320.52,410Z"/><circle class="cls-22" cx="337.34" cy="395.87" r="7.37"/><path class="cls-23" d="M343.22,400.41a7.37,7.37,0,1,1-11.89-8.7c0,2.71.59,5.12,3.87,7.52S341.67,400.51,343.22,400.41Z"/><circle class="cls-22" cx="337.34" cy="346.89" r="7.37"/><path class="cls-23" d="M343.22,351.43a7.37,7.37,0,0,1-11.89-8.7c0,2.71.59,5.12,3.87,7.52S341.67,351.52,343.22,351.43Z"/><circle class="cls-22" cx="410.21" cy="330.16" r="7.37"/><path class="cls-23" d="M416.1,334.7a7.37,7.37,0,1,1-11.9-8.7,8.28,8.28,0,0,0,3.88,7.52C411.36,335.92,414.55,334.8,416.1,334.7Z"/><circle class="cls-22" cx="582.25" cy="260.87" r="7.37"/><path class="cls-23" d="M588.14,265.41a7.37,7.37,0,0,1-11.9-8.7c0,2.71.59,5.12,3.88,7.52S586.58,265.51,588.14,265.41Z"/><circle class="cls-22" cx="553.58" cy="317.02" r="7.37"/><circle class="cls-22" cx="520.13" cy="322.99" r="7.37"/><path class="cls-23" d="M526,327.53a7.37,7.37,0,1,1-11.89-8.7c0,2.71.59,5.12,3.87,7.52S524.46,327.63,526,327.53Z"/><circle class="cls-22" cx="684.99" cy="300.3" r="7.37"/><path class="cls-23" d="M690.88,304.83a7.37,7.37,0,1,1-11.9-8.7,8.28,8.28,0,0,0,3.88,7.52C686.14,306.06,689.33,304.93,690.88,304.83Z"/><circle class="cls-22" cx="735.17" cy="275.21" r="7.37"/><path class="cls-23" d="M741.06,279.74a7.37,7.37,0,0,1-11.9-8.69c0,2.7.59,5.11,3.88,7.52S739.5,279.84,741.06,279.74Z"/><circle class="cls-22" cx="690.97" cy="357.64" r="7.37"/><path class="cls-23" d="M696.85,362.18a7.37,7.37,0,1,1-11.89-8.7c0,2.71.59,5.12,3.87,7.52S695.3,362.28,696.85,362.18Z"/><circle class="cls-22" cx="884.51" cy="398.26" r="7.37"/><path class="cls-23" d="M890.39,402.8a7.37,7.37,0,1,1-11.89-8.7c0,2.71.59,5.12,3.87,7.52S888.84,402.9,890.39,402.8Z"/><circle class="cls-22" cx="835.53" cy="391.09" r="7.37"/><path class="cls-23" d="M841.41,395.63a7.37,7.37,0,1,1-11.89-8.7c0,2.71.59,5.12,3.87,7.52S839.86,395.73,841.41,395.63Z"/><circle class="cls-22" cx="891.68" cy="311.05" r="7.37"/><path class="cls-23" d="M897.56,315.58a7.36,7.36,0,0,1-11.89-8.69c0,2.7.59,5.11,3.87,7.52S896,315.68,897.56,315.58Z"/><circle class="cls-22" cx="846.28" cy="320.61" r="7.37"/><path class="cls-23" d="M852.16,325.14a7.37,7.37,0,1,1-11.89-8.7c0,2.71.59,5.12,3.87,7.52S850.61,325.24,852.16,325.14Z"/><circle class="cls-22" cx="895.26" cy="340.91" r="7.37"/><circle class="cls-22" cx="1052.96" cy="349.28" r="7.37"/><circle class="cls-22" cx="1116.28" cy="338.53" r="7.37"/><path class="cls-23" d="M1122.17,343.06a7.37,7.37,0,0,1-11.9-8.7c0,2.71.59,5.12,3.88,7.52S1120.61,343.16,1122.17,343.06Z"/><circle class="cls-22" cx="1011.15" cy="376.76" r="7.37"/><path class="cls-23" d="M1017,381.29a7.37,7.37,0,1,1-11.89-8.7c0,2.71.59,5.12,3.87,7.53S1015.48,381.39,1017,381.29Z"/><circle class="cls-22" cx="1029.07" cy="428.13" r="7.37"/><path class="cls-23" d="M1035,432.66a7.36,7.36,0,1,1-11.89-8.69,8.28,8.28,0,0,0,3.87,7.52C1030.22,433.89,1033.4,432.76,1035,432.66Z"/><circle class="cls-22" cx="984.86" cy="429.32" r="7.37"/><path class="cls-23" d="M990.75,433.86a7.37,7.37,0,0,1-11.9-8.7,8.28,8.28,0,0,0,3.88,7.52C986,435.08,989.2,434,990.75,433.86Z"/><circle class="cls-22" cx="1079.24" cy="469.94" r="7.37"/><path class="cls-23" d="M1085.13,474.48a7.37,7.37,0,1,1-11.9-8.7,8.28,8.28,0,0,0,3.88,7.52C1080.39,475.7,1083.58,474.58,1085.13,474.48Z"/><path class="cls-24" d="M387.55,500.73a14.4,14.4,0,0,0-.47-4.33,7.9,7.9,0,0,1-.46-2.48,3,3,0,0,1,1.65-2.57,7.23,7.23,0,0,1,3.92-1,12.81,12.81,0,0,1,8.51,2.74,8.4,8.4,0,0,1,3.24,6.65v69a36.85,36.85,0,0,0,8.2-2.07,51.78,51.78,0,0,0,9.43-4.58,56.54,56.54,0,0,0,9.44-7.27,51.1,51.1,0,0,0,8.2-10.11,54.18,54.18,0,0,0,8-29.18,43.27,43.27,0,0,0-1.91-12.37,34.79,34.79,0,0,0-6-11.65,32.18,32.18,0,0,0-10.67-8.66,34,34,0,0,0-15.83-3.41q-12.68,0-21.76,3.92a40.42,40.42,0,0,0-14.79,10.52,41.83,41.83,0,0,0-8.41,15.31,62.52,62.52,0,0,0-2.68,18.41,50,50,0,0,0,1.19,11.8,42.45,42.45,0,0,0,2.63,7.84,20.82,20.82,0,0,0,2.68,4.48c.82,1,1.31,1.52,1.44,1.65,1.17-.34,2-.2,2.48.42a3.9,3.9,0,0,1,.72,2.47,15.13,15.13,0,0,1-1,4.33,23.56,23.56,0,0,1-2.63,5.41,11.86,11.86,0,0,1-3.81,3.82,3.67,3.67,0,0,1-4.44-.46,54.12,54.12,0,0,1-3.81-4.13,39.67,39.67,0,0,1-5.11-8,65.79,65.79,0,0,1-4.48-12.06,61.26,61.26,0,0,1-2-16.35,74.14,74.14,0,0,1,4.64-26.86,59.7,59.7,0,0,1,13-20.57,57.58,57.58,0,0,1,20.06-13.19,68.92,68.92,0,0,1,25.77-4.64,55.6,55.6,0,0,1,21,3.81A46.14,46.14,0,0,1,449.67,478a47.26,47.26,0,0,1,10.26,16.35,57.7,57.7,0,0,1,3.61,20.72,64.84,64.84,0,0,1-5,25.52,72.79,72.79,0,0,1-13.2,20.78,75.3,75.3,0,0,1-41.45,23.2V612.4a4.06,4.06,0,0,1-1.75,3.76,7.69,7.69,0,0,1-4.12,1.08,14,14,0,0,1-3.72-.51,16,16,0,0,1-3.35-1.34,9.76,9.76,0,0,1-2.47-1.91,3.38,3.38,0,0,1-1-2.32Z"/><path class="cls-24" d="M519.43,580.74a9.19,9.19,0,0,1,1.9-4.48,4.41,4.41,0,0,1,2.79-1.55,5.1,5.1,0,0,1,3,.72,9.26,9.26,0,0,1,2.68,2.32,10.29,10.29,0,0,1,1.7,3.25,6.65,6.65,0,0,1,.16,3.56,98.38,98.38,0,0,1-4.13,9.89,52.55,52.55,0,0,1-6.8,10.73,39.72,39.72,0,0,1-9.7,8.56,23.52,23.52,0,0,1-12.78,3.5,26.81,26.81,0,0,1-10.73-2,21.26,21.26,0,0,1-7.78-5.67A24.35,24.35,0,0,1,475,600.8a37.93,37.93,0,0,1-1.6-11.4V493.3a38,38,0,0,1,1.49-10.87,27.6,27.6,0,0,1,4.13-8.56,20,20,0,0,1,6.13-5.57,14.71,14.71,0,0,1,7.43-2,16.54,16.54,0,0,1,7.83,1.7,15.4,15.4,0,0,1,5.26,4.49,22.1,22.1,0,0,1,3.25,6.39,41.45,41.45,0,0,1,1.7,7.37,70.43,70.43,0,0,1,.62,7.43c.07,2.44.1,4.65.1,6.65a97.52,97.52,0,0,1-1.44,16.24q-1.44,8.51-3.66,16.75t-4.85,15.83q-2.62,7.58-5.05,13.45t-4.33,9.59a19.28,19.28,0,0,1-2.63,4.33v12.27a18.68,18.68,0,0,0,2.68,10.47q2.68,4.08,8.56,4.07a11.48,11.48,0,0,0,6.75-2.22,23.51,23.51,0,0,0,5.57-5.56,36.16,36.16,0,0,0,4.07-7.32A42.15,42.15,0,0,0,519.43,580.74Zm-30-31.86a32.36,32.36,0,0,0,2.22-5.83q1.08-3.64,2.06-8.09c.65-3,1.25-6.05,1.8-9.28s1-6.39,1.45-9.49.74-6,1-8.71.36-5,.36-7q0-10.51-1.55-15.41c-1-3.27-2.41-4.9-4.12-4.9a1.8,1.8,0,0,0-1.45.82,7.35,7.35,0,0,0-1,2.12,14,14,0,0,0-.56,2.78,25.06,25.06,0,0,0-.16,2.73Z"/><path class="cls-24" d="M568.51,549.91a38.71,38.71,0,0,1-2,12.07,42.36,42.36,0,0,1-6,11.7,45.88,45.88,0,0,1-9.79,9.9,42.16,42.16,0,0,1-13.46,6.65,23.29,23.29,0,0,0,2.74,5.1,18,18,0,0,0,4.07,4.18,19.39,19.39,0,0,0,5.51,2.78,23.28,23.28,0,0,0,7.27,1A22.56,22.56,0,0,0,567.47,601a23.13,23.13,0,0,0,7.48-6.13,33,33,0,0,0,4.9-8.56,55,55,0,0,0,2.78-9.59q.72-3.51,2.94-4.69a6,6,0,0,1,4.54-.57,7.9,7.9,0,0,1,4,2.63,6.07,6.07,0,0,1,1.39,4.79,74,74,0,0,1-1.39,7.33,45.09,45.09,0,0,1-2.94,8.35,47.54,47.54,0,0,1-5,8.3,34.27,34.27,0,0,1-7.48,7.27,37.49,37.49,0,0,1-10.41,5.15,43.92,43.92,0,0,1-13.71,2,35.71,35.71,0,0,1-14-2.83,36.38,36.38,0,0,1-12-8.15,39.69,39.69,0,0,1-8.35-13.09,46.85,46.85,0,0,1-3.14-17.69,60.07,60.07,0,0,1,2.78-18.61,53.64,53.64,0,0,1,7.32-14.9,36.45,36.45,0,0,1,10.31-9.85,22.34,22.34,0,0,1,11.86-3.55,19.87,19.87,0,0,1,8,1.54,16.9,16.9,0,0,1,6,4.39,19.33,19.33,0,0,1,3.77,6.75A27.57,27.57,0,0,1,568.51,549.91Zm-34,25a16.56,16.56,0,0,0,.1,1.86,17.41,17.41,0,0,1,.11,2,29.41,29.41,0,0,0,7.11-4.74,30.23,30.23,0,0,0,5.47-6.6,32.11,32.11,0,0,0,3.5-8.1,33.19,33.19,0,0,0,1.24-9.12,10.6,10.6,0,0,0-1.19-5.47,3.65,3.65,0,0,0-3.25-2,6.78,6.78,0,0,0-4.58,1.76,15.74,15.74,0,0,0-3.51,4.58,31.7,31.7,0,0,0-2.47,6.4,71.66,71.66,0,0,0-1.6,7.16,66.85,66.85,0,0,0-.83,6.86A49.2,49.2,0,0,0,534.48,574.86Z"/><path class="cls-24" d="M642.33,603.32a7.61,7.61,0,0,0,5.52-2.27,20.7,20.7,0,0,0,4-5.67,40,40,0,0,0,2.78-7.37q1.1-4,1.81-7.48a10.24,10.24,0,0,1,2.11-4.79,4.1,4.1,0,0,1,3-1.49,4.85,4.85,0,0,1,2.53.77,9.68,9.68,0,0,1,2.37,2,10.38,10.38,0,0,1,1.75,2.78,7.7,7.7,0,0,1,.67,3.1v.51a3.1,3.1,0,0,1-.2.93,90,90,0,0,1-3.66,11A47.41,47.41,0,0,1,659.14,606a31.93,31.93,0,0,1-8.71,8,22,22,0,0,1-11.91,3.2,19.06,19.06,0,0,1-9.69-2.37,17.76,17.76,0,0,1-6.5-6.29,29.51,29.51,0,0,1-7.68,6.14,21,21,0,0,1-10.47,2.52A22.39,22.39,0,0,1,585.42,608a29.83,29.83,0,0,1-4.8-10.1,47,47,0,0,1-1.6-12.53,63,63,0,0,1,4.23-23.71,55.62,55.62,0,0,1,11.24-17.89,48.66,48.66,0,0,1,16-11.29,46.43,46.43,0,0,1,18.72-3.92,10.21,10.21,0,0,1,7,2.37,8.22,8.22,0,0,1,2.68,6.5,8.78,8.78,0,0,1-.57,3.76,2.16,2.16,0,0,1-2.11,1.08,22.24,22.24,0,0,1-3-.21,25.57,25.57,0,0,0-3.2-.2,31,31,0,0,0-12.16,2.63,32.36,32.36,0,0,0-11.19,8,42.31,42.31,0,0,0-8.2,13.71,55,55,0,0,0-3.2,19.75q0,8.36,3.2,12.84a10.18,10.18,0,0,0,8.77,4.48,9.23,9.23,0,0,0,7.21-3.25,25.4,25.4,0,0,0,4.64-7.68V559.81a18.47,18.47,0,0,0-.15-2.58c-.1-.68-.21-1.27-.31-1.75s-.19-.91-.26-1.29a6,6,0,0,1-.1-1.08,3,3,0,0,1,1.6-2.63,7.26,7.26,0,0,1,3.86-1,12.15,12.15,0,0,1,8.35,2.73,8.44,8.44,0,0,1,3.1,6.55v34.85a14.28,14.28,0,0,0,.41,3.45,11.05,11.05,0,0,0,1.24,3.1,6.85,6.85,0,0,0,2.21,2.27A6,6,0,0,0,642.33,603.32Z"/><path class="cls-24" d="M669.35,582.39c-.55,2.2-1.59,3.56-3.1,4.07a6.09,6.09,0,0,1-4.48-.15,8.23,8.23,0,0,1-3.71-3.2,6.13,6.13,0,0,1-.88-5,140.92,140.92,0,0,1,4.49-15.51q2.93-8.52,5.82-17a25.07,25.07,0,0,1-2.47-4.79,14.15,14.15,0,0,1-.93-5.1,10,10,0,0,1,2-5.62,28.65,28.65,0,0,1,4.84-5.42,30.72,30.72,0,0,1,5.88-4.07,11.61,11.61,0,0,1,5.21-1.6,6.66,6.66,0,0,1,5.72,2.58,11.37,11.37,0,0,1,1.91,6.91,14.91,14.91,0,0,1-.77,4.69,42.46,42.46,0,0,1-1.71,4.33c-.61,1.34-1.18,2.49-1.7,3.45a11.53,11.53,0,0,0-.87,1.86,87.53,87.53,0,0,0,7.73,11.65q4,5.06,7.37,10a52.51,52.51,0,0,1,5.52,10.52,36.12,36.12,0,0,1,2.16,13.09,29.62,29.62,0,0,1-.25,3.82,24.57,24.57,0,0,1-.78,3.71,22.57,22.57,0,0,0,6.55-2.27,23.35,23.35,0,0,0,5-3.55,19.93,19.93,0,0,0,3.51-4.39,29.31,29.31,0,0,0,2.31-5A15.77,15.77,0,0,1,726,576.2a3.35,3.35,0,0,1,2.58-1.34,5.14,5.14,0,0,1,2.73.88,9.83,9.83,0,0,1,2.48,2.22,13.58,13.58,0,0,1,1.75,2.78,6.17,6.17,0,0,1,.67,2.58,10.7,10.7,0,0,1-.82,3.71,26.57,26.57,0,0,1-2.22,4.43,37.6,37.6,0,0,1-3.15,4.39,28.43,28.43,0,0,1-3.6,3.66,45.68,45.68,0,0,1-11.66,6.75,54.81,54.81,0,0,1-16.6,3.45,32.12,32.12,0,0,1-9,5.42,30.83,30.83,0,0,1-11.7,2.11,29,29,0,0,1-6.75-.82,44.26,44.26,0,0,1-6.6-2.12,42.47,42.47,0,0,1-5.73-2.83,20.91,20.91,0,0,1-4.12-3.1,17.51,17.51,0,0,1-5.05-7.47,14.15,14.15,0,0,1-.57-6.75,10.23,10.23,0,0,1,2.22-4.9,4.61,4.61,0,0,1,3.4-1.91,10,10,0,0,1,3.25.88c1.48.58,3.18,1.34,5.1,2.26s4,1.91,6.29,2.94,4.54,2,6.81,2.94a54.5,54.5,0,0,0,6.65,2.27,23.09,23.09,0,0,0,5.93.88,21.5,21.5,0,0,0,3.19-5.47,18.85,18.85,0,0,0,1.45-7.42,30,30,0,0,0-1.35-9.18,36.83,36.83,0,0,0-3.5-7.84,48,48,0,0,0-4.9-6.75q-2.73-3.14-5.52-5.93-2.46,6.09-4.33,12T669.35,582.39Z"/><path class="cls-24" d="M773.28,549.91a39,39,0,0,1-2,12.07,42.63,42.63,0,0,1-6,11.7,45.93,45.93,0,0,1-9.8,9.9A42.1,42.1,0,0,1,742,590.23a23.25,23.25,0,0,0,2.73,5.1,18.15,18.15,0,0,0,4.07,4.18,19.32,19.32,0,0,0,5.52,2.78,23.28,23.28,0,0,0,7.27,1A22.62,22.62,0,0,0,772.25,601a23.09,23.09,0,0,0,7.47-6.13,33,33,0,0,0,4.9-8.56,54.19,54.19,0,0,0,2.79-9.59q.72-3.51,2.93-4.69a6,6,0,0,1,4.54-.57,7.81,7.81,0,0,1,4,2.63,6,6,0,0,1,1.39,4.79,68.58,68.58,0,0,1-1.39,7.33,43.68,43.68,0,0,1-2.94,8.35,46.34,46.34,0,0,1-5,8.3,34.22,34.22,0,0,1-7.47,7.27,37.69,37.69,0,0,1-10.42,5.15,43.83,43.83,0,0,1-13.71,2,35.74,35.74,0,0,1-14-2.83,36.44,36.44,0,0,1-12-8.15,39.53,39.53,0,0,1-8.35-13.09,46.85,46.85,0,0,1-3.15-17.69,60.07,60.07,0,0,1,2.79-18.61A53.1,53.1,0,0,1,732,542a36.32,36.32,0,0,1,10.31-9.85,22.34,22.34,0,0,1,11.86-3.55,19.91,19.91,0,0,1,8,1.54,16.9,16.9,0,0,1,6,4.39,19.31,19.31,0,0,1,3.76,6.75A27.57,27.57,0,0,1,773.28,549.91Zm-34,25a16.57,16.57,0,0,0,.11,1.86c.06.62.1,1.27.1,2A29.39,29.39,0,0,0,752,567.34a32.5,32.5,0,0,0,3.51-8.1,33.57,33.57,0,0,0,1.23-9.12,10.61,10.61,0,0,0-1.18-5.47,3.66,3.66,0,0,0-3.25-2,6.79,6.79,0,0,0-4.59,1.76,15.91,15.91,0,0,0-3.51,4.58,32.3,32.3,0,0,0-2.47,6.4c-.65,2.37-1.19,4.76-1.6,7.16a64.05,64.05,0,0,0-.82,6.86A49.54,49.54,0,0,0,739.25,574.86Z"/><path class="cls-24" d="M833,582a5.22,5.22,0,0,1-1.19,3.66,5.35,5.35,0,0,1-3,1.65,9.37,9.37,0,0,1-3.86-.1,12.39,12.39,0,0,1-3.87-1.6,10.65,10.65,0,0,1-3-2.79,6.19,6.19,0,0,1-1.18-3.71v-5.67c0-2.06.06-3.78.2-5.16a17.43,17.43,0,0,1,1.44-5.56,14.59,14.59,0,0,1,3.3-4.13q2.68-2.27,6.81-6.24a56.35,56.35,0,0,0,8-10A64.71,64.71,0,0,0,843.45,528a60.33,60.33,0,0,0,2.83-19.39q0-10-2.22-15.93a24.07,24.07,0,0,0-5.41-9,15,15,0,0,0-6.6-4,24,24,0,0,0-5.77-.87,20.68,20.68,0,0,0-7.32,1.34,16.44,16.44,0,0,0-6.45,4.43,23.19,23.19,0,0,0-4.59,8,37,37,0,0,0-1.75,12.17,45.85,45.85,0,0,0,.57,7.06,41.46,41.46,0,0,0,1.55,6.65,18.11,18.11,0,0,0,2.37,4.95,3.77,3.77,0,0,0,2.94,2,2.77,2.77,0,0,0,1.08-.2,2,2,0,0,1,.77-.21,1.68,1.68,0,0,1,1.39.57,2.11,2.11,0,0,1,.47,1.39,6.37,6.37,0,0,1-.88,2.88A12.05,12.05,0,0,1,814,533a13.6,13.6,0,0,1-3.77,2.47,11,11,0,0,1-4.64,1,8.45,8.45,0,0,1-6.23-3,26.33,26.33,0,0,1-4.9-7.63,49.12,49.12,0,0,1-3.2-10.2,54,54,0,0,1-1.13-10.83,50.1,50.1,0,0,1,3.09-18.51,37.37,37.37,0,0,1,8.15-12.84,31.82,31.82,0,0,1,11.6-7.47,38,38,0,0,1,13.35-2.42,33.61,33.61,0,0,1,15.26,3.35,32.38,32.38,0,0,1,11.34,9.38,43,43,0,0,1,7.06,14.33,64.62,64.62,0,0,1,2.43,18.2,71.14,71.14,0,0,1-2.48,19.64,68.12,68.12,0,0,1-15,27.43q-4.8,5.31-9.33,9.74a7.5,7.5,0,0,0-2.17,3.87,22.74,22.74,0,0,0-.41,4.28Zm-8,13.92a10.47,10.47,0,0,1,4,.77,10,10,0,0,1,5.41,5.41,10.3,10.3,0,0,1,.78,4,9.38,9.38,0,0,1-.78,3.76,9.53,9.53,0,0,1-2.16,3.14,11.07,11.07,0,0,1-3.25,2.17,10.26,10.26,0,0,1-8,0,11.07,11.07,0,0,1-3.25-2.17,10.17,10.17,0,0,1-2.22-3.14,8.94,8.94,0,0,1-.82-3.76,9.76,9.76,0,0,1,3-7.27A10,10,0,0,1,824.94,595.9Z"/><path class="cls-25" d="M781.5,1082.5s12.24-56.81,69.59-24,40-36.29,25.77-57.54S891,963.05,891,963.05s20.62-21.12-32.22-58.26C826.19,881.85,855,872,864.62,864"/><ellipse class="cls-26" cx="720" cy="845.5" rx="97" ry="78.5" transform="translate(-390.53 844.38) rotate(-49.53)"/><ellipse class="cls-27" cx="720.06" cy="845.02" rx="71.96" ry="57.38" transform="translate(-390.14 844.26) rotate(-49.53)"/><ellipse class="cls-26" cx="438" cy="851.5" rx="78.5" ry="97" transform="translate(-415.26 416.94) rotate(-35.79)"/><ellipse class="cls-28" cx="437.55" cy="851.32" rx="57.38" ry="71.96" transform="translate(-415.24 416.64) rotate(-35.79)"/><ellipse class="cls-29" cx="689" cy="1363" rx="27.5" ry="52.5"/><ellipse class="cls-30" cx="551.5" cy="1363.5" rx="27.5" ry="52.5"/><path class="cls-31" d="M798,1070.57c-44-48.44-61-67.71-66-132.56-5.26-74.16-69.21-149-151.5-149-77.17,0-122.5,55-148.24,125.83C404.84,986.25,389.55,1071,397,1165.53c1,11.28,2,20.68,4,33.84C415.84,1297,505.65,1378,634.75,1378S851,1303.65,851,1205C851,1166.54,825.06,1099.73,798,1070.57Z"/><path class="cls-32" d="M591,1025.3c33.44-10.53,36.49-14.8,36.49-14.8"/><path class="cls-32" d="M591.36,1029.15c34.91-3.19,39.14-.65,39.14-.65"/><path class="cls-32" d="M592.2,1035.15c35,2.41,36.3,5.35,36.3,5.35"/><path class="cls-32" d="M564.05,1025.3c-33.44-10.53-38.55-9.8-38.55-9.8"/><path class="cls-32" d="M563.7,1029.15c-34.92-3.19-38.2.35-38.2.35"/><path class="cls-32" d="M562.86,1035.15c-35,2.41-36.36,7.35-36.36,7.35"/><circle cx="577" cy="1030" r="6"/><ellipse class="cls-33" cx="613.5" cy="1205" rx="160.5" ry="135"/><path class="cls-34" d="M473,1070c0,45-3,119.5-31.75,119.5-24.69,0-31.75-52.77-31.75-97.77"/><polyline class="cls-35" points="605 834 609 821 652.83 825.57 631.71 813.39 640.72 805.96 624.33 802.16 631.69 798.53 616.37 790.66 614.29 764.61 606.11 771.98 604.54 759.15 591.46 772.48 586.1 758.86 575.29 776.83 559.03 773.88 565.76 787.52 544.41 782.42 549.88 794.7 524.43 796.26 550 816 539 833 555 826 552 833 570 822 578 840 589 828"/><path class="cls-36" d="M578,841.5l-.24,0a1.49,1.49,0,0,1-1.13-.87l-7.31-16.44-16.54,10.11a1.5,1.5,0,0,1-2.16-1.87l1.51-3.52-12.53,5.48a1.5,1.5,0,0,1-1.86-2.18L548,816.34l-24.47-18.89a1.5,1.5,0,0,1,.82-2.69l23.29-1.42L543,783a1.49,1.49,0,0,1,1.71-2.07L563,785.32l-5.32-10.77a1.5,1.5,0,0,1,1.62-2.14l15.24,2.76,10.27-17.08a1.51,1.51,0,0,1,2.69.22L592,769.78l11.46-11.68A1.5,1.5,0,0,1,606,759l1.22,10,6-5.44a1.49,1.49,0,0,1,1.55-.28,1.51,1.51,0,0,1,.95,1.28l2,25.22,14.58,7.49a1.51,1.51,0,0,1,.81,1.35,1.49,1.49,0,0,1-.84,1.33l-3.59,1.77,12.3,2.85a1.5,1.5,0,0,1,.61,2.62l-7.34,6,19.25,11.1a1.5,1.5,0,0,1-.91,2.79l-42.6-4.44-3.64,11.82a1.5,1.5,0,0,1-2.86-.88l4-13a1.47,1.47,0,0,1,1.59-1L646,823.34l-15-8.65a1.51,1.51,0,0,1-.75-1.18,1.49,1.49,0,0,1,.54-1.28l6.67-5.5L624,803.62a1.48,1.48,0,0,1-1.15-1.28,1.51,1.51,0,0,1,.83-1.52l4.68-2.31L615.69,792a1.49,1.49,0,0,1-.81-1.21l-1.84-23-5.93,5.34a1.5,1.5,0,0,1-1.53.3,1.52,1.52,0,0,1-1-1.23l-1.19-9.74-10.9,11.11a1.49,1.49,0,0,1-2.46-.5l-4.25-10.79-9.25,15.36a1.49,1.49,0,0,1-1.55.71l-13.33-2.42,5.41,11a1.5,1.5,0,0,1-1.69,2.13l-18.4-4.4,4.24,9.51A1.49,1.49,0,0,1,550,796.2l-21.47,1.31,22.41,17.3a1.51,1.51,0,0,1,.34,2L543,829.63l11.43-5a1.49,1.49,0,0,1,1.66.31,1.51,1.51,0,0,1,.32,1.65l-1.15,2.68,14-8.55a1.48,1.48,0,0,1,1.23-.15,1.5,1.5,0,0,1,.92.82l7.07,15.91L587.89,827a1.5,1.5,0,0,1,2.22,2l-11,12A1.49,1.49,0,0,1,578,841.5Z"/><path class="cls-37" d="M637.26,991.91s-11.2-45.83,19-49c28.24-3,29.79,41.32,29.79,41.32"/><path class="cls-37" d="M703.19,969.85s-3.13,8.38-17.51,5.47"/><path class="cls-37" d="M699.37,962.21s-2.15,8.28-15.52,5.26"/><path class="cls-37" d="M704.14,978.8s-3.21,7.79-17.59,4.88"/><path class="cls-37" d="M510.23,1000s11.34-45.79-18.81-49.07c-28.24-3.08-29.91,41.23-29.91,41.23"/><path class="cls-37" d="M444.36,977.75s3.11,8.39,17.49,5.52"/><path class="cls-37" d="M448.21,970.12s2.12,8.28,15.5,5.3"/><path class="cls-37" d="M443.39,986.7s3.19,7.79,17.57,4.93"/><ellipse class="cls-38" cx="687" cy="1008" rx="39" ry="21"/><ellipse class="cls-39" cx="469" cy="1020" rx="39" ry="21"/><ellipse class="cls-40" cx="630.5" cy="1402.8" rx="468.5" ry="135.2"/><path class="cls-41" d="M696.76,1173.84c-6.53,0-12.1-.07-18.08-.23-3.88-.11,8.11-6.95-12.74-10.43-1.81-.08-7.26-.68-8.34,1.62s2.1,7.69-1.73,7.74a318.52,318.52,0,0,1-47.16-6.34l-2.32-54.46,93.15,10.89Z"/><path class="cls-42" d="M696.76,1175h0l-2.56,0c-5.55,0-10.35-.07-15.54-.21a2,2,0,0,1-1.7-.79,2.51,2.51,0,0,1,.11-2.39c.43-1.09.69-1.93.19-2.81-.73-1.27-3.31-3.08-11.43-4.44l-.61,0c-3.93-.24-6.14.1-6.56,1a6.45,6.45,0,0,0,.08,2.91c.26,1.65.52,3.36-.45,4.51a3,3,0,0,1-2.39,1h-.09a318.91,318.91,0,0,1-47.34-6.37,1.16,1.16,0,0,1-.91-1.09l-2.32-54.45a1.15,1.15,0,0,1,.37-.89,1.13,1.13,0,0,1,.92-.31l93.15,10.89a1.16,1.16,0,0,1,1,1.22l-2.78,51.2A1.15,1.15,0,0,1,696.76,1175Zm-17.55-2.54c5,.13,9.63.17,15,.2l1.46,0,2.66-49-90.71-10.61,2.22,52.2a315.61,315.61,0,0,0,46.07,6.13,1,1,0,0,0,.61-.15c.29-.35.07-1.74-.07-2.67a7.53,7.53,0,0,1,.11-4.25c1.3-2.78,6.18-2.48,8.8-2.32l.64,0h.14c7.5,1.25,11.67,3,13.13,5.6a5.26,5.26,0,0,1,0,4.79Z"/><path class="cls-43" d="M652.73,1081.16l46.57,40.78s-72.75-4.4-93.14-10.89C606.16,1111.05,619.6,1089.27,652.73,1081.16Z"/><path class="cls-44" d="M699.31,1123.1h-.08c-3-.18-73.13-4.49-93.42-10.95a1.17,1.17,0,0,1-.74-.7,1.2,1.2,0,0,1,.1-1c.14-.23,3.54-5.67,11.09-12.17a87,87,0,0,1,36.2-18.24,1.14,1.14,0,0,1,1,.26l46.58,40.78a1.16,1.16,0,0,1-.76,2ZM608,1110.39c19.07,5.34,73.75,9.23,88,10.17l-43.56-38.13A84.59,84.59,0,0,0,617.78,1100,63,63,0,0,0,608,1110.39Z"/><circle class="cls-22" cx="634.31" cy="1129.93" r="5.91"/><path class="cls-23" d="M639.52,1132.88a5.9,5.9,0,0,1-8,2.37,6.15,6.15,0,0,1-2.41-8.21c.08,2.28,1,3.75,3.86,5.31S637.77,1134.17,639.52,1132.88Z"/><circle class="cls-22" cx="621.91" cy="1154.38" r="6.49"/><path class="cls-23" d="M627.24,1158.09a6.52,6.52,0,1,1-10.51-7.72c.47,3.9.1,4.2,2.92,6.41S624.21,1158.94,627.24,1158.09Z"/><circle class="cls-22" cx="648.45" cy="1148.7" r="4.29"/><path class="cls-23" d="M652.5,1150.2a4.29,4.29,0,0,1-8.11-2.77,4.8,4.8,0,0,0,3.45,3.51C650.08,1151.7,651.65,1150.53,652.5,1150.2Z"/><circle class="cls-22" cx="618.67" cy="1130.51" r="3.24"/><path class="cls-23" d="M621.6,1132a3.31,3.31,0,0,1-4.44,1.51,3.15,3.15,0,0,1-1.31-4.51c.15,1.72.31,2.35,1.89,3.17S619.79,1132.93,621.6,1132Z"/><circle class="cls-22" cx="685.63" cy="1160.63" r="3.24"/><path class="cls-23" d="M688.28,1162.62a3.24,3.24,0,0,1-4.53.72,3.21,3.21,0,0,1-.66-4.79,3.84,3.84,0,0,0,1.62,3.47C686.16,1163.08,687,1162.83,688.28,1162.62Z"/><circle class="cls-22" cx="673.7" cy="1138.04" r="12.16"/><path class="cls-23" d="M685,1142.67a12.17,12.17,0,1,1-22.5-9.27c.93,6.27,2.28,9.09,8.49,11.64S680.78,1146.09,685,1142.67Z"/><path class="cls-22" d="M677.06,1171.06l-.23,1.16a20,20,0,0,0,.93-2.09c.23-1.62,0-.23.23-1.85.79-5.52-5-9.24-10.52-9.49A10.78,10.78,0,0,0,657,1173.58C658.36,1173,678.05,1161.92,677.06,1171.06Z"/><path class="cls-45" d="M750.74,1085.47c-32.48,37.38-72.45,77.34-91.17,58.81-20.43-20.21,37.25-92.14,70.51-128.81"/></svg>
