<svg id="Layer_1" data-name="Layer 1" xmlns="http://www.w3.org/2000/svg" xmlns:xlink="http://www.w3.org/1999/xlink" width="200" height="200" viewBox="0 0 200 200"><defs><style>.cls-1{fill:#fff;}.cls-2{fill:#009ff7;}.cls-3{fill:url(#radial-gradient);}</style><radialGradient id="radial-gradient" cx="135.5" cy="82.53" r="34.57" gradientTransform="matrix(1, 0, 0, -0.94, -71, 161.92)" gradientUnits="userSpaceOnUse"><stop offset="0" stop-color="#fcaccb"/><stop offset="0.33" stop-color="#fba8c9"/><stop offset="0.65" stop-color="#f69cc1"/><stop offset="0.97" stop-color="#ef89b6"/><stop offset="1" stop-color="#ee86b4"/></radialGradient></defs><title>switchicon1</title><rect class="cls-1" x="18.5" y="41.5" width="163" height="86" rx="12.34" ry="12.34"/><path class="cls-2" d="M169.16,45A8.86,8.86,0,0,1,178,53.84v61.32a8.86,8.86,0,0,1-8.84,8.84H30.84A8.86,8.86,0,0,1,22,115.16V53.84A8.86,8.86,0,0,1,30.84,45H169.16m0-7H30.84A15.84,15.84,0,0,0,15,53.84v61.32A15.84,15.84,0,0,0,30.84,131H169.16A15.84,15.84,0,0,0,185,115.16V53.84A15.84,15.84,0,0,0,169.16,38Z"/><rect class="cls-3" x="30" y="52" width="69" height="65" rx="15.84" ry="15.84" transform="translate(129 169) rotate(-180)"/></svg>
