<svg id="Layer_1" data-name="Layer 1" xmlns="http://www.w3.org/2000/svg" xmlns:xlink="http://www.w3.org/1999/xlink" width="1242" height="2208" viewBox="0 0 1242 2208"><defs><style>.cls-1{fill:#fff;}.cls-2{fill:#009ff7;}.cls-3{fill:url(#radial-gradient);}.cls-4{fill:url(#radial-gradient-2);}.cls-5{fill:url(#radial-gradient-3);}.cls-6{fill:url(#radial-gradient-4);}.cls-7{fill:url(#radial-gradient-5);}.cls-8{fill:url(#radial-gradient-6);}.cls-9{fill:url(#radial-gradient-7);}.cls-10{fill:url(#radial-gradient-8);}.cls-11{fill:url(#radial-gradient-9);}.cls-12{fill:url(#radial-gradient-10);}.cls-13{fill:url(#radial-gradient-11);}.cls-14{fill:url(#radial-gradient-12);}.cls-15{fill:url(#radial-gradient-13);}.cls-16{fill:url(#radial-gradient-14);}.cls-17{fill:url(#radial-gradient-15);}.cls-18{fill:url(#radial-gradient-16);}.cls-19{fill:url(#radial-gradient-17);}.cls-20{fill:url(#radial-gradient-18);}.cls-21{fill:url(#radial-gradient-19);}.cls-22{fill:url(#radial-gradient-20);}.cls-23{fill:url(#radial-gradient-21);}.cls-24{fill:url(#radial-gradient-22);}.cls-25{fill:url(#radial-gradient-23);}.cls-26{fill:url(#radial-gradient-24);}.cls-27{fill:url(#radial-gradient-25);}.cls-28{fill:url(#radial-gradient-26);}.cls-29{fill:url(#radial-gradient-27);}.cls-30{fill:url(#radial-gradient-28);}.cls-31{fill:url(#linear-gradient);}.cls-32{fill:url(#linear-gradient-2);}.cls-33{fill:url(#radial-gradient-29);}.cls-34{fill:url(#radial-gradient-30);}.cls-35{fill:#e58c3c;}.cls-36{fill:#fff18f;}.cls-37,.cls-44,.cls-49{fill:none;}.cls-37{stroke:#4f4f4f;stroke-width:8px;}.cls-37,.cls-49{stroke-linecap:round;stroke-linejoin:round;}.cls-38{fill:#727272;}.cls-39{fill:url(#radial-gradient-31);}.cls-40{fill:url(#radial-gradient-32);}.cls-41{fill:url(#linear-gradient-3);}.cls-42{fill:url(#linear-gradient-4);}.cls-43{fill:url(#radial-gradient-33);}.cls-44{stroke:#050402;stroke-miterlimit:10;}.cls-45{fill:url(#radial-gradient-34);}.cls-46{fill:url(#linear-gradient-5);}.cls-47{fill:url(#linear-gradient-6);}.cls-48{fill:url(#linear-gradient-7);}.cls-49{stroke:#000;stroke-width:3px;}.cls-50{fill:url(#radial-gradient-35);}.cls-51{fill:url(#radial-gradient-36);}.cls-52{fill:url(#radial-gradient-37);}.cls-53{fill:url(#linear-gradient-8);}.cls-54{fill:url(#linear-gradient-9);}.cls-55{fill:url(#radial-gradient-38);}.cls-56{fill:url(#radial-gradient-39);}.cls-57{fill:url(#linear-gradient-10);}</style><radialGradient id="radial-gradient" cx="334.07" cy="569.56" r="57.3" gradientUnits="userSpaceOnUse"><stop offset="0" stop-color="#fcaccb"/><stop offset="0.33" stop-color="#fba8c9"/><stop offset="0.65" stop-color="#f69cc1"/><stop offset="0.97" stop-color="#ef89b6"/><stop offset="1" stop-color="#ee86b4"/></radialGradient><radialGradient id="radial-gradient-2" cx="436.48" cy="577.11" r="36.65" xlink:href="#radial-gradient"/><radialGradient id="radial-gradient-3" cx="513.55" cy="577.03" r="43.74" xlink:href="#radial-gradient"/><radialGradient id="radial-gradient-4" cx="610.19" cy="576.72" r="45.16" xlink:href="#radial-gradient"/><radialGradient id="radial-gradient-5" cx="718.22" cy="577.26" r="49.81" xlink:href="#radial-gradient"/><radialGradient id="radial-gradient-6" cx="834.61" cy="578.04" r="47.51" xlink:href="#radial-gradient"/><radialGradient id="radial-gradient-7" cx="947.55" cy="586.01" r="52.99" xlink:href="#radial-gradient"/><radialGradient id="radial-gradient-8" cx="288.31" cy="696.02" r="16.76" xlink:href="#radial-gradient"/><radialGradient id="radial-gradient-9" cx="328.19" cy="696.1" r="19.08" xlink:href="#radial-gradient"/><radialGradient id="radial-gradient-10" cx="372.9" cy="695.87" r="18.25" xlink:href="#radial-gradient"/><radialGradient id="radial-gradient-11" cx="416.78" cy="696.04" r="18.56" xlink:href="#radial-gradient"/><radialGradient id="radial-gradient-12" cx="460.64" cy="696.4" r="18.2" xlink:href="#radial-gradient"/><radialGradient id="radial-gradient-13" cx="506.25" cy="696.07" r="19.01" xlink:href="#radial-gradient"/><radialGradient id="radial-gradient-14" cx="549.65" cy="695.9" r="17.3" xlink:href="#radial-gradient"/><radialGradient id="radial-gradient-15" cx="592.59" cy="696.4" r="18.87" xlink:href="#radial-gradient"/><radialGradient id="radial-gradient-16" cx="633.46" cy="696.07" r="15.83" xlink:href="#radial-gradient"/><radialGradient id="radial-gradient-17" cx="672.99" cy="696.07" r="19.01" xlink:href="#radial-gradient"/><radialGradient id="radial-gradient-18" cx="716.38" cy="695.9" r="17.3" xlink:href="#radial-gradient"/><radialGradient id="radial-gradient-19" cx="747.65" cy="696.04" r="14.04" xlink:href="#radial-gradient"/><radialGradient id="radial-gradient-20" cx="782.02" cy="696.1" r="19.08" xlink:href="#radial-gradient"/><radialGradient id="radial-gradient-21" cx="826.73" cy="695.87" r="18.25" xlink:href="#radial-gradient"/><radialGradient id="radial-gradient-22" cx="295.07" cy="765.93" r="23.03" xlink:href="#radial-gradient"/><radialGradient id="radial-gradient-23" cx="341.47" cy="766.9" r="19.08" xlink:href="#radial-gradient"/><radialGradient id="radial-gradient-24" cx="387.56" cy="767.2" r="18.87" xlink:href="#radial-gradient"/><radialGradient id="radial-gradient-25" cx="460.74" cy="763.98" r="26.5" xlink:href="#radial-gradient"/><radialGradient id="radial-gradient-26" cx="517.46" cy="766.9" r="19.08" xlink:href="#radial-gradient"/><radialGradient id="radial-gradient-27" cx="562.17" cy="766.67" r="18.25" xlink:href="#radial-gradient"/><radialGradient id="radial-gradient-28" cx="596.88" cy="764.6" r="16.05" xlink:href="#radial-gradient"/><linearGradient id="linear-gradient" x1="896.66" y1="919.18" x2="888.82" y2="983.07" gradientUnits="userSpaceOnUse"><stop offset="0" stop-color="#ffce58"/><stop offset="0.47" stop-color="#fecc57"/><stop offset="0.64" stop-color="#f9c554"/><stop offset="0.76" stop-color="#f1ba4f"/><stop offset="0.86" stop-color="#e5a948"/><stop offset="0.94" stop-color="#d6933f"/><stop offset="1" stop-color="#c77e36"/></linearGradient><linearGradient id="linear-gradient-2" x1="896.83" y1="917.85" x2="888.65" y2="984.41" xlink:href="#linear-gradient"/><radialGradient id="radial-gradient-29" cx="894.35" cy="901.1" r="41.71" gradientUnits="userSpaceOnUse"><stop offset="0" stop-color="#fff18f"/><stop offset="0.33" stop-color="#fff08a"/><stop offset="0.69" stop-color="#ffed7d"/><stop offset="1" stop-color="#ffea6c"/></radialGradient><radialGradient id="radial-gradient-30" cx="894.35" cy="901.1" r="42.97" xlink:href="#radial-gradient-29"/><radialGradient id="radial-gradient-31" cx="-2527.84" cy="4772.66" r="67.96" gradientTransform="translate(4191.04 -4087.08) scale(1.42 1.14)" gradientUnits="userSpaceOnUse"><stop offset="0" stop-color="#eec4e5"/><stop offset="0.43" stop-color="#ecc3e3"/><stop offset="0.59" stop-color="#e5bedd"/><stop offset="0.7" stop-color="#dab6d2"/><stop offset="0.79" stop-color="#c9abc2"/><stop offset="0.86" stop-color="#b39dae"/><stop offset="0.93" stop-color="#978b95"/><stop offset="0.99" stop-color="#787678"/><stop offset="1" stop-color="#727272"/></radialGradient><radialGradient id="radial-gradient-32" cx="-7082.39" cy="4333.68" r="67.96" gradientTransform="matrix(0, -1.42, 1.14, 0, -4714.9, -8748.08)" xlink:href="#radial-gradient-31"/><linearGradient id="linear-gradient-3" x1="547.23" y1="2103.14" x2="547.23" y2="1961.83" gradientUnits="userSpaceOnUse"><stop offset="0" stop-color="#c1c1c1"/><stop offset="0.68" stop-color="#1a1a1a"/></linearGradient><linearGradient id="linear-gradient-4" x1="362.18" y1="2103.81" x2="362.18" y2="1962.51" gradientUnits="userSpaceOnUse"><stop offset="0" stop-color="#c1c1c1"/><stop offset="0.72" stop-color="#333"/></linearGradient><radialGradient id="radial-gradient-33" cx="458.49" cy="1656.34" r="354.39" gradientUnits="userSpaceOnUse"><stop offset="0" stop-color="#c1c1c1"/><stop offset="0.49" stop-color="#bfbfbf"/><stop offset="0.67" stop-color="#b8b8b8"/><stop offset="0.79" stop-color="#adadad"/><stop offset="0.89" stop-color="#9c9c9c"/><stop offset="0.98" stop-color="#868686"/><stop offset="1" stop-color="gray"/></radialGradient><radialGradient id="radial-gradient-34" cx="445.62" cy="1819.85" r="199.58" gradientTransform="translate(0 181.99) scale(1 0.9)" gradientUnits="userSpaceOnUse"><stop offset="0" stop-color="#f2f2f2"/><stop offset="0.38" stop-color="#f2f2f2" stop-opacity="0.99"/><stop offset="0.51" stop-color="#f0f0f0" stop-opacity="0.96"/><stop offset="0.61" stop-color="#eee" stop-opacity="0.92"/><stop offset="0.69" stop-color="#eaeaea" stop-opacity="0.85"/><stop offset="0.75" stop-color="#e6e6e6" stop-opacity="0.75"/><stop offset="0.81" stop-color="#e0e0e0" stop-opacity="0.64"/><stop offset="0.87" stop-color="#dadada" stop-opacity="0.51"/><stop offset="0.92" stop-color="#d2d2d2" stop-opacity="0.35"/><stop offset="0.96" stop-color="#cacaca" stop-opacity="0.18"/><stop offset="1" stop-color="#c1c1c1" stop-opacity="0"/></radialGradient><linearGradient id="linear-gradient-5" x1="213.81" y1="1638.17" x2="213.81" y2="1798.99" gradientUnits="userSpaceOnUse"><stop offset="0" stop-color="#c1c1c1" stop-opacity="0"/><stop offset="0.02" stop-color="#bdbdbd" stop-opacity="0.04"/><stop offset="0.21" stop-color="#9e9e9e" stop-opacity="0.39"/><stop offset="0.41" stop-color="#858585" stop-opacity="0.65"/><stop offset="0.6" stop-color="#747474" stop-opacity="0.85"/><stop offset="0.8" stop-color="#696969" stop-opacity="0.96"/><stop offset="1" stop-color="#666"/></linearGradient><linearGradient id="linear-gradient-6" x1="412.15" y1="1219.45" x2="412.15" y2="1328.64" gradientUnits="userSpaceOnUse"><stop offset="0" stop-color="#ccc"/><stop offset="0.28" stop-color="gray"/><stop offset="1" stop-color="#4d4d4d"/></linearGradient><linearGradient id="linear-gradient-7" x1="412.15" y1="1217.43" x2="412.15" y2="1330.66" xlink:href="#linear-gradient-6"/><radialGradient id="radial-gradient-35" cx="17659.01" cy="3554.53" r="199.58" gradientTransform="translate(-3746.44 1057.1) scale(0.24 0.14)" gradientUnits="userSpaceOnUse"><stop offset="0" stop-color="#ffc0e7" stop-opacity="0.5"/><stop offset="0.18" stop-color="#fdc0e6" stop-opacity="0.48"/><stop offset="0.36" stop-color="#f7c0e2" stop-opacity="0.44"/><stop offset="0.53" stop-color="#eec0dc" stop-opacity="0.36"/><stop offset="0.71" stop-color="#e0c0d4" stop-opacity="0.25"/><stop offset="0.88" stop-color="#cfc1ca" stop-opacity="0.11"/><stop offset="1" stop-color="#c1c1c1" stop-opacity="0"/></radialGradient><radialGradient id="radial-gradient-36" cx="16451.64" cy="3658.34" r="199.58" gradientTransform="translate(-3746.44 1058.72) scale(0.24 0.14)" xlink:href="#radial-gradient-35"/><radialGradient id="radial-gradient-37" cx="507.23" cy="2083.04" r="464.02" gradientTransform="translate(-11.43 1666.43) scale(0.93 0.2)" gradientUnits="userSpaceOnUse"><stop offset="0" stop-opacity="0.5"/><stop offset="1" stop-color="#8c6239" stop-opacity="0"/></radialGradient><linearGradient id="linear-gradient-8" x1="501.1" y1="1701.6" x2="492" y2="1775.71" gradientUnits="userSpaceOnUse"><stop offset="0" stop-color="#ffce58"/><stop offset="0.47" stop-color="#fdcc57"/><stop offset="0.64" stop-color="#f6c654"/><stop offset="0.75" stop-color="#ebba50"/><stop offset="0.85" stop-color="#daaa49"/><stop offset="0.93" stop-color="#c49540"/><stop offset="1" stop-color="#ac7e36"/></linearGradient><linearGradient id="linear-gradient-9" x1="501.29" y1="1700.05" x2="491.81" y2="1777.26" xlink:href="#linear-gradient-8"/><radialGradient id="radial-gradient-38" cx="498.42" cy="1680.63" r="48.38" xlink:href="#radial-gradient-29"/><radialGradient id="radial-gradient-39" cx="498.42" cy="1680.63" r="49.84" xlink:href="#radial-gradient-29"/><linearGradient id="linear-gradient-10" x1="-283.55" y1="-1782.68" x2="-283.55" y2="-1589.53" gradientTransform="matrix(0.75, 0.66, -0.66, 0.75, -321.41, 3123.58)" gradientUnits="userSpaceOnUse"><stop offset="0" stop-color="#c1c1c1" stop-opacity="0"/><stop offset="0.01" stop-color="#c1c1c1" stop-opacity="0.2"/><stop offset="0.02" stop-color="#c1c1c1" stop-opacity="0.38"/><stop offset="0.04" stop-color="#c1c1c1" stop-opacity="0.55"/><stop offset="0.05" stop-color="#c1c1c1" stop-opacity="0.69"/><stop offset="0.07" stop-color="#c1c1c1" stop-opacity="0.81"/><stop offset="0.09" stop-color="#c1c1c1" stop-opacity="0.89"/><stop offset="0.12" stop-color="#c1c1c1" stop-opacity="0.96"/><stop offset="0.15" stop-color="#c1c1c1" stop-opacity="0.99"/><stop offset="0.26" stop-color="#c1c1c1"/><stop offset="0.39" stop-color="#bbb"/><stop offset="0.57" stop-color="#a9a9a9"/><stop offset="0.78" stop-color="#8b8b8b"/><stop offset="1" stop-color="#666"/></linearGradient></defs><title>Artboard 24</title><rect class="cls-1" x="216.7" y="404" width="842.28" height="1180" rx="121.59" ry="121.59"/><path class="cls-2" d="M937.39,410A116,116,0,0,1,1053,525.59v936.82A116,116,0,0,1,937.39,1578H338.29A116,116,0,0,1,222.7,1462.41V525.59A116,116,0,0,1,338.29,410h599.1m0-12H338.29c-70.17,0-127.59,57.42-127.59,127.59v936.82c0,70.17,57.42,127.59,127.59,127.59h599.1c70.17,0,127.59-57.42,127.59-127.59V525.59C1065,455.42,1007.56,398,937.39,398Z"/><path class="cls-3" d="M302.27,621.38l-2.31-.46a21.28,21.28,0,0,0-4.16-.46c-.31,0-.46,0-.46.15h-.77c-1-.61-1.54-1.17-1.54-1.69L282.25,570.1q-4.47-16-9.09-38a7,7,0,0,1-.23-1.54,8,8,0,0,0-.39-2,23.23,23.23,0,0,1-.77-5.54,10.24,10.24,0,0,1,.47-3.24,2.11,2.11,0,0,1,2.31-2h5.39a18,18,0,0,0,4,.31l6.93.15h15.55a1.52,1.52,0,0,0,.62.31l.92.31a1,1,0,0,0,.54-.15.8.8,0,0,1,.39-.16,2.8,2.8,0,0,1,1.23-.31h.62l1.54.16q2,.15,8.47.15a26.46,26.46,0,0,0,4.62.31q.92,1.84,3.08,11.24l1.69,8.78q.62,3.24,2.16,9.7c0,.11,0,.36.07.77s.13.93.23,1.54c.21.83.39,1.72.54,2.7a30.44,30.44,0,0,0,.7,3.15c.1.72.51,3.14,1.23,7.24l2.62,12.78.46,2.31v.62c.2.1.31.36.31.77l.15.92.15-.92a1.88,1.88,0,0,1,.47-1.39,6.27,6.27,0,0,1,.07-.69c.05-.36.13-.9.23-1.62q1.23-6.15,2.47-12.78l1.54-7.24c.2-1.23.41-2.31.61-3.23s.36-1.79.47-2.62l.46-2.31c.51-2.15,1.18-5.39,2-9.7l1.69-8c.21-1.13.72-3.69,1.54-7.7a29.34,29.34,0,0,1,1.7-4.31,29.86,29.86,0,0,0,3.39-.15l3.85-.16,3.08-.15,1.23-.16H364a.28.28,0,0,1,.31.31c.1,0,.2.11.31.31a2.85,2.85,0,0,0,1-.15,1.81,1.81,0,0,1,.54-.16v-.31h10.93a26.22,26.22,0,0,0,3.08-.15H384a16.79,16.79,0,0,0,4-.31h5.55q2.78,0,2.77,4.31l-.15,1.85a26,26,0,0,1-.62,4.62,13,13,0,0,0-.54,2.39,3.6,3.6,0,0,1-.23,1.15q-4,20.34-8.93,38l-10.78,48.82c0,.31-.52.87-1.54,1.69h-.46l-.77-.15a4.43,4.43,0,0,0-2,.46,4,4,0,0,1-1.84.46,19.63,19.63,0,0,1-4.16-.46,35.77,35.77,0,0,0-4.16-.31q-19.1.78-56.06.77Z"/><path class="cls-4" d="M416.69,623.39s-.26-1.85-.77-5.55a21.2,21.2,0,0,1-.46-4.16,17.78,17.78,0,0,0-.16-3.08c-.1-3-.36-7.7-.77-14.16l-.46-5.86q-.93-13.55-.92-20V533.14c0-.82.92-1.43,2.77-1.85a16,16,0,0,1,4.31-.46,38.82,38.82,0,0,1,4,.23,31.48,31.48,0,0,0,3.24.23,59.55,59.55,0,0,0,7.24.31l.61-.46h6.78a1.46,1.46,0,0,0,1.08.46h.61a1.24,1.24,0,0,1,.77-.15,2.19,2.19,0,0,1,.93-.16.62.62,0,0,1,.46-.15,3.28,3.28,0,0,1,1.08.23,2.68,2.68,0,0,0,.92.23h11.4l.46,26.49a7.15,7.15,0,0,1-.23,1,14.16,14.16,0,0,0-.39,2.23q-.46,5.55-.46,8.78v30l-.46,5.85a36.28,36.28,0,0,0-.31,6.32,46.45,46.45,0,0,1-.23,5.16,6.46,6.46,0,0,1-1,3,3.67,3.67,0,0,1-2.93,1.08l-.15-.16-.46-.15c-.21,0-.31,0-.31.15h-.77a3.59,3.59,0,0,0-1.08.47,29.55,29.55,0,0,1-3.54-.47l-2.16-.15a.82.82,0,0,0-.92.62H430.7l-4,.77-3.7.46-3.54.31Z"/><path class="cls-5" d="M500,622.62a31.69,31.69,0,0,1-18.17-12.48q-7.24-10.3-7.24-30a67.51,67.51,0,0,1,3.24-21.63,43.91,43.91,0,0,1,9.39-16.25,41.61,41.61,0,0,1,14.32-9.86A45.88,45.88,0,0,1,519.25,529q16,0,33.26,10l-2,17.25-3.54-.77-4.77-1.08a35.52,35.52,0,0,0-7.55-.92q-7.24,0-10.78,4.93-4.62,6.17-4.62,19.86,0,11.25,3.23,16.94A9.47,9.47,0,0,0,530.8,600a19.75,19.75,0,0,0,8.62-2.47,68.94,68.94,0,0,0,9.25-5.39L550.21,614A38.75,38.75,0,0,1,537,622a36.38,36.38,0,0,1-14.63,3.08Q508.77,625.08,500,622.62Z"/><path class="cls-6" d="M613.19,621.85H587.93q-1.38-2.16-1.85-7.86a132.75,132.75,0,0,1-.61-14.78l.15-16.94q.15-6.16.16-19.56l-.46-.46H570.07q-3.39,0-4.47-7.7a89.82,89.82,0,0,1-.61-12.17v-2a13.83,13.83,0,0,0,.3-3.39v-3.08l.16-1.23.62-.62,2.77.16h3.08q6.76,0,10.32-.16H613.5c1.33.11,3.23.16,5.7.16H623a4.71,4.71,0,0,1,2-.31,7.45,7.45,0,0,1,2-.31,24.9,24.9,0,0,1,4.47.31c2.05.21,3.59.31,4.62.31l4-.16h6c3.08,0,5.18.06,6.31.16l2.16.15a3.6,3.6,0,0,0,.46.39c.2.15.31.28.31.38v26.18a3.06,3.06,0,0,1-1,2,4.73,4.73,0,0,1-1.92,1.39,65.85,65.85,0,0,0-13.24-1.08h-5.86c-1.54,0-2.56,2-3.08,5.85a30.5,30.5,0,0,0-.3,4.93V577q0,3.09.15,4.62V586a103.46,103.46,0,0,1-.62,11.71q-.3,4-.3,5.85a32,32,0,0,0-.31,5.08c0,3.08-.11,5.65-.31,7.7-.1,3.19-1.29,4.88-3.54,5.08-2.47.31-3.91.47-4.31.47Z"/><path class="cls-7" d="M711,624.93a13.25,13.25,0,0,0-3.39-.31A51.36,51.36,0,0,1,693.12,622H692a5.2,5.2,0,0,1-2.31-.62,3.17,3.17,0,0,0-.77-.53,7.67,7.67,0,0,1-1.08-.7l-3.24-1.85a26.66,26.66,0,0,1-8.16-7.31,41.39,41.39,0,0,1-5.69-10.4,57.66,57.66,0,0,1,.76-44.81,48.2,48.2,0,0,1,14-18.79,33.86,33.86,0,0,1,21.56-7.7,40.86,40.86,0,0,1,5.7.31c0-.2.15-.31.46-.31h.46q10.79,0,19.25.77a39.7,39.7,0,0,1,13.4,4.47q12.32,8.16,17.71,17.86,5.7,10.79,5.7,25.41a56.6,56.6,0,0,1-6.93,27.41l-1.54,2.47c-.41.61-.67.92-.77.92l-.47.77L759,610q-6.63,9.85-20,13.4-8.94,1.85-24.64,1.84A26.07,26.07,0,0,1,711,624.93ZM719.14,612q1.85-2.78,3.08-10.78c.1-.92.36-3,.77-6.16s.67-6.16.77-8.93q.62-10.47.62-12.94v-4.77a86.77,86.77,0,0,0-.46-9.55,37.28,37.28,0,0,0-1.85-10c-.93-1.23-1.65-1.85-2.16-1.85-1,0-2,.77-2.92,2.31s-1.65,4.37-2.16,8.47l-3.24,24.64v5.08q.46,6.48.47,8.47l.31,3.7.46,4.93a6.93,6.93,0,0,0,.3,2.15l1.7,5.7a1.37,1.37,0,0,0,.85.93,3.26,3.26,0,0,0,1.31.3A2.38,2.38,0,0,0,719.14,612Z"/><path class="cls-8" d="M849.58,616.46l-4.78-6.78q-3.39-4.47-10.47-15.86l-2.62-4.16-.3-.31h-.77l-.62.31q-.15,2-.15,10.78,0,5.7-.62,13.4l-.15,4.62c-.42,1.13-.67,1.69-.77,1.69h-1.54q-16.95,1.25-24.64,1.23h-5.24a14.24,14.24,0,0,1-2.46-.15h-1.08l-4.78-1.54-.3-1.08c-.21,0-.34-.2-.39-.61a8.66,8.66,0,0,1-.08-.93q-.45-6.47-.77-9.39-.62-8.32-.77-12.17-.3-3.69-.3-4.77l-.77-8.47-.16-4.62a38.08,38.08,0,0,1-.15-3.85v-1.39a7.24,7.24,0,0,0,.31-2.46v-2.62a5.86,5.86,0,0,0,.15-1.39l-.15-1.23v-1.54a3.92,3.92,0,0,0-.31-1.69v-.93l.15-3.85a24.94,24.94,0,0,0,.16-3.23q.3-4.62.3-8.78v-1.54a8.15,8.15,0,0,1-.15-2v-3.7a1.29,1.29,0,0,1-.46-.92c0-1.44,1.28-2.46,3.85-3.08a20.33,20.33,0,0,1,5.7-.62q36,0,53.9,2.47,17.55,2.46,24.64,8.47a16.51,16.51,0,0,1,4.38,6.85,29.4,29.4,0,0,1,1.31,9.32,21.71,21.71,0,0,1-4.92,14.47,28.68,28.68,0,0,1-7.55,5.39A72.78,72.78,0,0,0,871.6,589a28.1,28.1,0,0,1,1.77,2.31,25.22,25.22,0,0,0,2.08,2.62q2.92,4,6.78,8.78a15.11,15.11,0,0,0,1.23,2.62q.76.32.84.69a1.6,1.6,0,0,1-.23,1q-1.23,1.85-7.24,5.39A14.1,14.1,0,0,1,875,614a45.46,45.46,0,0,1-8.47,5.08,49.41,49.41,0,0,1-8.47,3.7c-.93.51-1.49.62-1.7.31ZM833.72,568.1a17.51,17.51,0,0,0,4.61-1.85,20.24,20.24,0,0,0,4-3.08,6.92,6.92,0,0,0,1.69-4.62,9.4,9.4,0,0,0-2.61-6.93,8.87,8.87,0,0,0-5.7-1.85H829.1c0,1.34-.11,3.45-.31,6.32l-.16,3.23q-.3,3.09-.3,9.55A25.37,25.37,0,0,0,833.72,568.1Z"/><path class="cls-9" d="M947.68,639.25a9.79,9.79,0,0,1-1.85-.77,5.09,5.09,0,0,0-2-.46,6,6,0,0,1-2.16-.77,3.48,3.48,0,0,0-2-.77l-1.85-.47a3.24,3.24,0,0,1-1.23-.15c-.31,0-.47-.05-.47-.15a44.65,44.65,0,0,1-10-3.55l-10-4.15a1.59,1.59,0,0,1-1.08-1.54,4,4,0,0,1,.46-1.85l4.16-7.24a67.83,67.83,0,0,1,4.31-6.93,11.53,11.53,0,0,0,2.16-3.85A11.33,11.33,0,0,0,927,604a87,87,0,0,0-5.85-9.55c-2.37-4.1-4.26-6.82-5.7-8.16a18.33,18.33,0,0,0-1.39-2.46q-2.46-4.3-2.31-4l-2.61-4.62a36.53,36.53,0,0,1-2.62-4.62,39,39,0,0,1-2-3.85,23,23,0,0,1-1.54-2.77c-.83-.92-2.21-3.39-4.16-7.39s-2.78-6.57-2.78-7.39c0-.41.41-.95,1.24-1.62s1.74-1.36,2.77-2.08a62.41,62.41,0,0,1,6.47-2.77c1.33-.62,2.49-1.13,3.46-1.54s1.77-.77,2.39-1.08q3.54-1.7,9.86-4.16c.82-.4,2.77-1.23,5.85-2.46a11.68,11.68,0,0,1,3.08-.46,2.14,2.14,0,0,1,1.54.61,7.18,7.18,0,0,1,1.84,2.47l5.4,11.7q4.62,9.71,6.46,13.09a8.12,8.12,0,0,1,.62,1.16,3.26,3.26,0,0,0,.62,1c.61.82,1.17,1.23,1.69,1.23a1.1,1.1,0,0,0,.85-.46,5.08,5.08,0,0,0,.54-.77l10.47-27.57a5.14,5.14,0,0,1,2.62-3.08,6.17,6.17,0,0,1,4.15-.77q10,3.24,14.79,5.24a88.74,88.74,0,0,1,13.86,6.77,4.34,4.34,0,0,1,2.08,1.93,2.64,2.64,0,0,1,.07,2.23,5.05,5.05,0,0,1-.77,2.31l-.92,1.85-24.64,53.44-1.23,3.08-15.09,28.8a9.81,9.81,0,0,1-1.93,2.54,3,3,0,0,1-1.92.69A21.63,21.63,0,0,1,947.68,639.25Z"/><path class="cls-10" d="M283.12,713.48a12.14,12.14,0,0,1-7-4.78q-2.78-3.94-2.78-11.5a26.06,26.06,0,0,1,1.24-8.29,17,17,0,0,1,3.6-6.23,15.81,15.81,0,0,1,5.49-3.77,17.39,17.39,0,0,1,6.78-1.3,25.5,25.5,0,0,1,12.75,3.83l-.77,6.61-1.36-.29-1.82-.42a13.91,13.91,0,0,0-2.9-.35,4.75,4.75,0,0,0-4.13,1.89q-1.77,2.36-1.77,7.61a13.54,13.54,0,0,0,1.24,6.49,3.63,3.63,0,0,0,3.19,1.83,7.62,7.62,0,0,0,3.3-.95,27.39,27.39,0,0,0,3.54-2.06l.59,8.38a14.72,14.72,0,0,1-5.07,3.06,13.88,13.88,0,0,1-5.61,1.18A32.29,32.29,0,0,1,283.12,713.48Z"/><path class="cls-11" d="M325.42,714.36a5.69,5.69,0,0,0-1.3-.11,19.74,19.74,0,0,1-5.54-1h-.41a2.07,2.07,0,0,1-.89-.23,1.14,1.14,0,0,0-.3-.21l-.41-.26-1.24-.71a10.09,10.09,0,0,1-3.12-2.81,15.52,15.52,0,0,1-2.19-4,22.09,22.09,0,0,1,.3-17.17,18.26,18.26,0,0,1,5.37-7.19,13,13,0,0,1,8.26-2.95,17,17,0,0,1,2.18.11c0-.07.06-.11.18-.11h.17c2.76,0,5.22.09,7.38.29a15.38,15.38,0,0,1,5.13,1.71,17.73,17.73,0,0,1,9,16.58,21.67,21.67,0,0,1-2.66,10.5l-.59,1c-.15.23-.25.35-.29.35l-.18.3-.41.23a12.71,12.71,0,0,1-7.67,5.13,48.34,48.34,0,0,1-9.44.71A9.54,9.54,0,0,1,325.42,714.36Zm3.13-5a11.61,11.61,0,0,0,1.18-4.13c0-.36.14-1.14.29-2.36s.26-2.36.3-3.42c.16-2.68.23-4.33.23-5v-1.83a32.38,32.38,0,0,0-.17-3.66,14.38,14.38,0,0,0-.71-3.83c-.35-.47-.63-.71-.83-.71-.39,0-.76.3-1.12.89a9.1,9.1,0,0,0-.82,3.24l-1.24,9.44V700c.12,1.65.17,2.73.17,3.24l.12,1.42.18,1.89a2.53,2.53,0,0,0,.12.82l.65,2.19a.52.52,0,0,0,.32.35,1.22,1.22,0,0,0,.5.12A.92.92,0,0,0,328.55,709.41Z"/><path class="cls-12" d="M359.23,713.18h-2.3l-2.3-.64-.12-.36s-.06-.2-.06-.59a10.33,10.33,0,0,0-.06-1.24l-.06-2.24c0-.47-.06-1.22-.06-2.24s0-1.71-.06-2.18v-1.77q-.34-3.72-.35-7.67v-1.36a5.66,5.66,0,0,1,.06-1V691a2,2,0,0,1-.06-.59v-2.54a5.74,5.74,0,0,1,.06-1v-.59L354,686v-.77c0-.39.06-.93.06-1.59a13.46,13.46,0,0,0-.06-1.36l-.06-1.36-.06-.23q-.18-.12,0-.18a2,2,0,0,1,1.47-1.36,5.76,5.76,0,0,1,1.95-.23q1,0,5.25-.18c1.42-.08,2.3-.12,2.66-.12.59,0,1.29-.06,2.12-.06a2.08,2.08,0,0,1,.83.21,1.48,1.48,0,0,1,.44.5c.14.24.24.41.32.53l1.18,1.71s.46.67,1.48,2.13,2.08,3.26,3.42,5.19c.2.31.43.67.71,1.06s.57.85.88,1.36v-2.07c0-.55.06-1.34.06-2.36,0-1.34,0-2.83.12-4.48a5.61,5.61,0,0,1,.06-.86,4.11,4.11,0,0,0,.06-.62c0-.39,0-.59.06-.59a3.08,3.08,0,0,1,.82-.76,2.29,2.29,0,0,1,1.48-.42h3.54q.89,0,1.47.06H386q.6.06,1.77.06h1.89a3.13,3.13,0,0,1,1.77.41,1.14,1.14,0,0,1,.47.62,4.14,4.14,0,0,1,.12,1.15,11.71,11.71,0,0,1-.06,1.3c0,.4-.06.87-.06,1.42v.41a1.79,1.79,0,0,1,.06.53v1.54l-.06,6.78v8.26q0,6.38-.11,8.08l-.18,1.95c-.2.91-.47,1.38-.83,1.42a1.23,1.23,0,0,0-.32.06,2.12,2.12,0,0,1-.44,0c-1.42,0-2.46,0-3.13-.11H380a2,2,0,0,1-.48.06,4,4,0,0,1-1.47-.3,2.19,2.19,0,0,1-1-.65l-5.2-7.31c-.19-.28-.57-.73-1.12-1.36l-.76-.71a.79.79,0,0,0-.48-.29.38.38,0,0,0-.29.14.45.45,0,0,0-.12.27v1a13.1,13.1,0,0,0-.06,1.48v1.71q-.06.64-.06,1.77v2.3a.82.82,0,0,0-.06.35s-.06.36-.17,1a1.52,1.52,0,0,1-.18.29.78.78,0,0,1-.41.06.48.48,0,0,0-.21-.06h-.15c-3.11.28-5.68.41-7.73.41Z"/><path class="cls-13" d="M406.43,712.54a14,14,0,0,1-6-5.67A21.23,21.23,0,0,1,398,696.25a18.85,18.85,0,0,1,1.56-7.79,16.74,16.74,0,0,1,4.4-5.9,19.34,19.34,0,0,1,6.55-3.6,26.3,26.3,0,0,1,8.2-1.23,32.07,32.07,0,0,1,13.51,3.36l-2.06,8.67a19.41,19.41,0,0,1-1.95-.53,35.47,35.47,0,0,0-4.19-.94,11.87,11.87,0,0,0-2-.24,6.47,6.47,0,0,0-4.78,1.71q-2,2.13-2,6.79a12.12,12.12,0,0,0,1.24,6.07,3.64,3.64,0,0,0,3.12,1.66,7.55,7.55,0,0,0,3.07-.65c0-.4-.08-.86-.12-1.39s0-1.15,0-1.86a23.06,23.06,0,0,0-.48-3v-2.3c0-.27.12-.41.36-.41h.29a1.13,1.13,0,0,0,.36-.06,1,1,0,0,1,.35-.06,5.66,5.66,0,0,1,.71-.12,7.14,7.14,0,0,1,1.12.12,2.69,2.69,0,0,1,.53.06,3,3,0,0,0,.59.06,2.6,2.6,0,0,1,1.48-.24,13.9,13.9,0,0,0,1.47-.06,3.17,3.17,0,0,1,.89-.11l.7-.18a14.88,14.88,0,0,0,1.54.06,8.15,8.15,0,0,0,1.12.06,1.17,1.17,0,0,1,.29,0l.18,0h1.3l.23.11V696a4.72,4.72,0,0,1,.06.88v7.79a1.49,1.49,0,0,0-.06.47,2.22,2.22,0,0,0-.05.53v.3c0,2.08,0,3.56-.12,4.42a9.38,9.38,0,0,1-.42,2.66,12.42,12.42,0,0,0-1.94.11h-1.83l-.06-.11-.24.11h-6.49a1,1,0,0,1-.41.06c-.28,0-.47-.39-.59-1.18a13.7,13.7,0,0,1-.29-3.06,6,6,0,0,1-3.25,4,13.7,13.7,0,0,1-6.37,1.35A14.13,14.13,0,0,1,406.43,712.54Z"/><path class="cls-14" d="M466.37,711.12l-1.83-2.6q-1.29-1.71-4-6.07l-1-1.6-.12-.11h-.3l-.23.11c0,.51-.06,1.89-.06,4.13,0,1.46-.08,3.17-.24,5.14l-.06,1.77c-.15.43-.25.65-.29.65h-.59c-4.33.31-7.47.47-9.44.47h-2a5.25,5.25,0,0,1-.94-.06h-.41l-1.83-.59-.12-.41q-.12,0-.15-.24a3.23,3.23,0,0,1,0-.35c-.12-1.66-.21-2.86-.29-3.6-.16-2.13-.26-3.68-.3-4.66s-.12-1.56-.12-1.83l-.29-3.25-.06-1.77a13.77,13.77,0,0,1-.06-1.47v-.53a2.76,2.76,0,0,0,.12-1v-1a2.2,2.2,0,0,0,.06-.53l-.06-.47v-.59a1.42,1.42,0,0,0-.12-.65v-.36l.06-1.47a9.45,9.45,0,0,0,.06-1.24q.12-1.77.12-3.36V683a3.06,3.06,0,0,1-.06-.77v-1.42a.5.5,0,0,1-.18-.35c0-.55.49-1,1.48-1.18a7.62,7.62,0,0,1,2.18-.24,164.5,164.5,0,0,1,20.65.95q6.72.94,9.44,3.24A6.35,6.35,0,0,1,477,685.9a11.43,11.43,0,0,1,.5,3.57,8.29,8.29,0,0,1-1.89,5.54,10.85,10.85,0,0,1-2.89,2.07,28.72,28.72,0,0,0,2.07,3.54c.23.27.46.57.68.88a10.11,10.11,0,0,0,.79,1c.75,1,1.62,2.14,2.6,3.36a6.33,6.33,0,0,0,.47,1q.3.12.33.27a.61.61,0,0,1-.09.38,10,10,0,0,1-2.78,2.07,6.35,6.35,0,0,1-.7.59,17.67,17.67,0,0,1-3.25,1.94,19.44,19.44,0,0,1-3.24,1.42c-.36.19-.57.23-.65.12Zm-6.08-18.53a6.66,6.66,0,0,0,1.77-.7,8.23,8.23,0,0,0,1.54-1.18,2.71,2.71,0,0,0,.65-1.77,3.59,3.59,0,0,0-1-2.66,3.38,3.38,0,0,0-2.18-.71h-2.54c0,.51,0,1.32-.11,2.42l-.06,1.24q-.12,1.18-.12,3.66A9.64,9.64,0,0,0,460.29,692.59Z"/><path class="cls-15" d="M485.43,713.07s.08-.67.23-2a5,5,0,0,1,.3-1.59,3.17,3.17,0,0,1,.06-.68,2.15,2.15,0,0,0,.06-.44q1.35-6.44,3-12.69l4-15.69a.49.49,0,0,1,.18-.3,1.86,1.86,0,0,1,.35-.29H494a2.84,2.84,0,0,0,1.12-.18,8.65,8.65,0,0,1,1.24-.06c1,0,1.65,0,2.13.06a12.91,12.91,0,0,0,2.18.18l3.07-.06a4.52,4.52,0,0,1,1.12-.12l2.59-.12h1.95c.75,0,1.48,0,2.18.06h1.66q.59.06,1.71.06h2.24a1.07,1.07,0,0,1,.35.06l.3.12a1.29,1.29,0,0,0,.59.12H519a.78.78,0,0,1,.41.59l4.19,15.57q1.95,7.5,3.07,12.69a6.58,6.58,0,0,0,.18,1.12,10.58,10.58,0,0,1,.23,1.89,7.25,7.25,0,0,1-.12,1.12.9.9,0,0,1-.82.59h-.65a8.73,8.73,0,0,1-1.18-.06h-3.54c-.28,0-.43,0-.47-.06h-3.25l-.06-.12a.46.46,0,0,0-.35-.12l-.18.12a.11.11,0,0,1-.12.12h-.59a3.15,3.15,0,0,0-1.06-.12c-.94-.08-1.73-.12-2.36-.12a30.66,30.66,0,0,1-1.53-6,19.91,19.91,0,0,1-2.83.18h-3a9.43,9.43,0,0,0-.3,1.48c0,.19-.2.86-.47,2a9.35,9.35,0,0,1-.77,2.3l-.35.12-.41.12h-.12a.65.65,0,0,1-.47-.12,1.05,1.05,0,0,0-.3-.12l-2.24.12h-1.65l-.47.09-.24,0H492q-.54.06-2.19.06h-1.41a7.47,7.47,0,0,1-1.12.06h-1.83Zm24.48-14.64-.06-.35-.47-2.83c-.08-.55-.16-1-.23-1.51s-.14-.87-.18-1.26-.21-.92-.27-1.33-.12-.8-.2-1.15-.08-.54-.12-.92a2.42,2.42,0,0,0-.18-.79l-.12-.71a.76.76,0,0,0-.11-.41l-.06-.36-.12.36v.41a.58.58,0,0,1-.06.2,2.75,2.75,0,0,0-.12.51c0,.19-.08.44-.12.73s-.09.62-.17,1l-.42,2.42-.47,2.71-.18,1.3c-.07.31-.15.82-.23,1.53-.35,1.77-.51,2.58-.47,2.42h2.59l.18-.15a.33.33,0,0,1,.18-.08h.17a2.44,2.44,0,0,1,.51.05l.38.12a2.16,2.16,0,0,0,.71.12Z"/><path class="cls-16" d="M550.8,713.18h-9.68a7,7,0,0,1-.7-3,50,50,0,0,1-.24-5.67l.06-6.49q.06-2.35.06-7.49l-.18-.18h-5.84c-.87,0-1.44-1-1.71-3a33.63,33.63,0,0,1-.24-4.66V682a5,5,0,0,0,.12-1.29V679.5l.06-.48.24-.23,1.06.06H535c1.73,0,3,0,4-.06h12c.51,0,1.24.06,2.18.06h1.48a1.75,1.75,0,0,1,.76-.12,2.78,2.78,0,0,1,.77-.12,9.13,9.13,0,0,1,1.71.12q1.18.12,1.77.12l1.53-.06h2.31c1.18,0,2,0,2.41.06l.83.06.18.14q.12.09.12.15v10a1.18,1.18,0,0,1-.39.77,1.87,1.87,0,0,1-.74.53,24.84,24.84,0,0,0-5.07-.41h-2.24c-.59,0-1,.74-1.18,2.24a11.11,11.11,0,0,0-.12,1.89V696q0,1.17.06,1.77v1.65a39,39,0,0,1-.24,4.48c-.08,1-.11,1.77-.11,2.24a12.35,12.35,0,0,0-.12,2c0,1.18,0,2.16-.12,2.95,0,1.22-.49,1.87-1.36,2s-1.49.17-1.65.17Z"/><path class="cls-17" d="M581.66,714l-1.66-.24a11.19,11.19,0,0,1-2.47-.82,6.34,6.34,0,0,1-2.07-1.65,13.28,13.28,0,0,1-2.53-6.2,37.21,37.21,0,0,1-.36-6.84v-2.6a4.29,4.29,0,0,1,.06-.82V692l.18-.41a.82.82,0,0,1,0-.18,1.88,1.88,0,0,0,0-.41c.11-1.42.17-2.56.17-3.42l.12-2.18c0-1,.06-2.13.06-3.43a6.24,6.24,0,0,0-.06-1.06,7,7,0,0,1-.12-1.12c0-.59.61-.88,1.83-.88h.83a2.41,2.41,0,0,0,.94-.12l7.2.12c.12.11.2.17.24.17l.47-.17c2,0,3.36.19,4,.59a2.31,2.31,0,0,1,.86,1.23,7.93,7.93,0,0,1,.26,2.25c0,.63,0,1.49.12,2.59a20.07,20.07,0,0,1,.12,2.6v.59c-.08,1.14-.16,3-.24,5.6l-.06,2.84v2.53a12,12,0,0,0-.11,1.89v1.77a8.93,8.93,0,0,0,.23,2.3c.2.32.37.47.53.47a14.78,14.78,0,0,0,2.66-.88l1.41-.71c.4-.16.59-.31.59-.47V684.69a14.19,14.19,0,0,1-.17-2,4.8,4.8,0,0,1-.06-.88v-1.48a1.4,1.4,0,0,1,.29-1c.08-.12.28-.18.59-.18a.4.4,0,0,1,.24.09.26.26,0,0,1,.12.21v.11a11.81,11.81,0,0,1,2.53-.41A31.92,31.92,0,0,1,602,679h3.54l6.2.18a.32.32,0,0,1,.2.06q.09.06.09.12s.06,0,.06.12v.29s-.06.06-.06.18l.3-.06a.19.19,0,0,1,.18-.12c.11,0,.17.1.17.3q0,10.32-.09,17.13T612,711a1.8,1.8,0,0,1-.47.89c-.16.19-.29.35-.41.47a.39.39,0,0,1-.18.18.7.7,0,0,0-.18.11,1,1,0,0,0-.41-.14,2.49,2.49,0,0,0-.59-.09l-.18.12a.35.35,0,0,1-.23.11,47,47,0,0,1-7.44.42h-2.59a12.51,12.51,0,0,1-2.6-.24,3.58,3.58,0,0,1-.88-1.47,1.8,1.8,0,0,0-.24-.71c-.08-.2-.18-.3-.29-.3a3.32,3.32,0,0,0-1.48.65,3.42,3.42,0,0,1-.32.27,3,3,0,0,0-.39.32,3.66,3.66,0,0,0-.65.59,12.66,12.66,0,0,1-3.77,1.3,11.53,11.53,0,0,1-2.72.35c-.9,0-1.57,0-2,.06Z"/><path class="cls-18" d="M635.64,713.3l-.76-.12h-1c-.59-.08-1.61-.15-3.07-.23a6.09,6.09,0,0,1-.88-.06,5.4,5.4,0,0,0-.77-.06h-1.3l-.59-.06c-1.26,0-2.18,0-2.77.06a22.78,22.78,0,0,1-2.77.12H620.6l-1.07.06-.17-.24V704.1a12.69,12.69,0,0,0-.12-2.07v-1.41l.24-2.54q.16-2.36.17-6.78a52.91,52.91,0,0,1,.89-10.33,3,3,0,0,1,1.35-2.18l6.91.06c.59,0,1.43.06,2.53.06h2.84c.19,0,.56.07,1.09.11a2.92,2.92,0,0,1,1.21.3,1.66,1.66,0,0,1,.5.79,5.39,5.39,0,0,1,.15,1.45l-.06.47v.71a2.07,2.07,0,0,0-.18.83,2.49,2.49,0,0,0-.06.94v.89a4.29,4.29,0,0,1,.06.82l.06.47v1.36l.06,1.89q.06.59.06,1.65a3.32,3.32,0,0,0,.29,1.12,7.12,7.12,0,0,1-.06.89,7.42,7.42,0,0,0-.06.94c0,.47-.05,1.18-.05,2.12s0,1.58.05,2a6.8,6.8,0,0,0,.3,2,3.8,3.8,0,0,0,1.36.23c1.29,0,2.64,0,4-.06a23.93,23.93,0,0,0,3.74-.35,1.13,1.13,0,0,1,.68.47,1.23,1.23,0,0,1,.33.71l-.42,10.15a.69.69,0,0,1-.47.47,7.8,7.8,0,0,1-2.77.59,25.6,25.6,0,0,1-3.13.35h-1q-1.18,0-1.77.06-1.18.12-1.65.12Z"/><path class="cls-19" d="M652.16,713.07l.24-2a5,5,0,0,1,.29-1.59,3.17,3.17,0,0,1,.06-.68,2.15,2.15,0,0,0,.06-.44q1.35-6.44,3-12.69l4-15.69a.49.49,0,0,1,.18-.3,2.24,2.24,0,0,1,.35-.29h.41a2.9,2.9,0,0,0,1.13-.18,8.39,8.39,0,0,1,1.23-.06q1.43,0,2.13.06a13,13,0,0,0,2.18.18l3.07-.06a4.57,4.57,0,0,1,1.12-.12l2.6-.12h1.94q1.13,0,2.19.06H680q.59.06,1.71.06H684a1.13,1.13,0,0,1,.36.06l.29.12a1.29,1.29,0,0,0,.59.12h.53a.76.76,0,0,1,.41.59l4.19,15.57q1.95,7.5,3.07,12.69a6.58,6.58,0,0,0,.18,1.12,9.73,9.73,0,0,1,.23,1.89,8.42,8.42,0,0,1-.11,1.12.93.93,0,0,1-.83.59h-.65A8.84,8.84,0,0,1,691,713H687.5A1,1,0,0,1,687,713h-3.25l0-.12a.49.49,0,0,0-.36-.12l-.18.12c0,.08,0,.12-.11.12h-.59a3.22,3.22,0,0,0-1.07-.12c-.94-.08-1.73-.12-2.36-.12a30.66,30.66,0,0,1-1.53-6,19.91,19.91,0,0,1-2.83.18h-3a9.43,9.43,0,0,0-.3,1.48c0,.19-.19.86-.47,2a9.45,9.45,0,0,1-.76,2.3l-.36.12-.41.12h-.12a.66.66,0,0,1-.47-.12,1.05,1.05,0,0,0-.3-.12l-2.24.12h-1.65l-.47.09-.24,0h-5.19c-.35,0-1.08.06-2.18.06h-1.42a7.38,7.38,0,0,1-1.12.06h-1.83Zm24.49-14.64a2.83,2.83,0,0,1-.06-.35l-.48-2.83c-.07-.55-.15-1-.23-1.51s-.14-.87-.18-1.26a13.45,13.45,0,0,1-.26-1.33c-.06-.42-.13-.8-.21-1.15s-.08-.54-.12-.92a2.42,2.42,0,0,0-.18-.79l-.11-.71a.69.69,0,0,0-.12-.41l-.06-.36-.12.36v.41a.58.58,0,0,1-.06.2,2.75,2.75,0,0,0-.12.51c0,.19-.07.44-.11.73s-.1.62-.18,1l-.41,2.42-.48,2.71-.17,1.3a12.44,12.44,0,0,0-.24,1.53c-.35,1.77-.51,2.58-.47,2.42h2.6a.92.92,0,0,1,.17-.15.33.33,0,0,1,.18-.08h.18a2.41,2.41,0,0,1,.5.05l.38.12a2.21,2.21,0,0,0,.71.12C676.76,699.1,676.65,698.43,676.65,698.43Z"/><path class="cls-20" d="M717.53,713.18h-9.67a7,7,0,0,1-.71-3,50,50,0,0,1-.24-5.67L707,698q.06-2.35.06-7.49l-.18-.18H701c-.86,0-1.43-1-1.71-3a34,34,0,0,1-.23-4.66V682a5.59,5.59,0,0,0,.11-1.29V679.5l.06-.48.24-.23,1.06.06h1.18c1.73,0,3,0,3.95-.06h12c.51,0,1.24.06,2.18.06h1.48a1.78,1.78,0,0,1,.77-.12,2.72,2.72,0,0,1,.76-.12,9.13,9.13,0,0,1,1.71.12q1.19.12,1.77.12l1.54-.06h2.3c1.18,0,2,0,2.42.06l.82.06.18.14q.12.09.12.15v10a1.18,1.18,0,0,1-.39.77,1.92,1.92,0,0,1-.73.53,25,25,0,0,0-5.08-.41h-2.24c-.59,0-1,.74-1.18,2.24a11.11,11.11,0,0,0-.12,1.89V696q0,1.17.06,1.77v1.65a41.48,41.48,0,0,1-.23,4.48c-.08,1-.12,1.77-.12,2.24a12.35,12.35,0,0,0-.12,2c0,1.18,0,2.16-.12,2.95q-.06,1.83-1.35,2c-1,.12-1.5.17-1.66.17Z"/><path class="cls-21" d="M740.07,713.77s-.1-.7-.29-2.12a8.06,8.06,0,0,1-.18-1.59,6.66,6.66,0,0,0-.06-1.18c0-1.14-.14-3-.29-5.43l-.18-2.24q-.36-5.19-.36-7.67V679.2c0-.31.36-.55,1.07-.71a5.94,5.94,0,0,1,1.65-.17,14,14,0,0,1,1.53.08c.55.06,1,.09,1.24.09a22.78,22.78,0,0,0,2.77.12l.24-.18h2.6a.54.54,0,0,0,.41.18h.24s.13-.06.29-.06a.82.82,0,0,1,.35-.06.24.24,0,0,1,.18-.06,1.13,1.13,0,0,1,.41.09,1.15,1.15,0,0,0,.36.09h4.36l.18,10.15a2.34,2.34,0,0,1-.09.38,5.74,5.74,0,0,0-.15.86c-.11,1.41-.17,2.53-.17,3.36v11.51l-.18,2.24a13.59,13.59,0,0,0-.12,2.42,17,17,0,0,1-.09,2,2.29,2.29,0,0,1-.38,1.15,1.39,1.39,0,0,1-1.12.42l-.06-.06-.18-.06c-.08,0-.11,0-.11.06h-.3a1.48,1.48,0,0,0-.41.17,10.32,10.32,0,0,1-1.36-.17L751,713a.32.32,0,0,0-.35.23h-5.25l-1.53.3-1.42.18-1.36.11Z"/><path class="cls-22" d="M779.25,714.36a5.76,5.76,0,0,0-1.3-.11,19.8,19.8,0,0,1-5.55-1H772a2.1,2.1,0,0,1-.89-.23.94.94,0,0,0-.29-.21,3,3,0,0,1-.41-.26l-1.24-.71A10.23,10.23,0,0,1,766,709a15.8,15.8,0,0,1-2.18-4,22,22,0,0,1,.29-17.17,18.45,18.45,0,0,1,5.37-7.19,13,13,0,0,1,8.26-2.95,17.17,17.17,0,0,1,2.19.11c0-.07,0-.11.17-.11h.18c2.75,0,5.21.09,7.37.29a15.51,15.51,0,0,1,5.14,1.71,17.78,17.78,0,0,1,9,16.58,21.67,21.67,0,0,1-2.66,10.5l-.59,1c-.16.23-.26.35-.29.35l-.18.3-.42.23a12.68,12.68,0,0,1-7.67,5.13,48.27,48.27,0,0,1-9.44.71A9.56,9.56,0,0,1,779.25,714.36Zm3.12-5a11.2,11.2,0,0,0,1.18-4.13c0-.36.14-1.14.3-2.36s.25-2.36.29-3.42c.16-2.68.24-4.33.24-5v-1.83a32.15,32.15,0,0,0-.18-3.66,14.43,14.43,0,0,0-.7-3.83c-.36-.47-.63-.71-.83-.71-.39,0-.77.3-1.12.89a9.06,9.06,0,0,0-.83,3.24l-1.24,9.44V700q.18,2.47.18,3.24l.12,1.42.18,1.89a2.54,2.54,0,0,0,.11.82l.65,2.19a.54.54,0,0,0,.33.35,1.18,1.18,0,0,0,.5.12A.91.91,0,0,0,782.37,709.41Z"/><path class="cls-23" d="M813.05,713.18h-2.3l-2.3-.64-.12-.36s-.06-.2-.06-.59a10.33,10.33,0,0,0-.06-1.24l-.05-2.24c0-.47-.06-1.22-.06-2.24s0-1.71-.06-2.18v-1.77q-.36-3.72-.36-7.67v-1.36a5.66,5.66,0,0,1,.06-1V691a2,2,0,0,1-.06-.59v-2.54a5.74,5.74,0,0,1,.06-1v-.59l.06-.29v-.77c0-.39.06-.93.06-1.59a13.46,13.46,0,0,0-.06-1.36l-.06-1.36-.06-.23q-.16-.12,0-.18a2,2,0,0,1,1.48-1.36,5.68,5.68,0,0,1,2-.23q1,0,5.25-.18c1.41-.08,2.3-.12,2.65-.12q.88-.06,2.13-.06a2,2,0,0,1,.82.21,1.3,1.3,0,0,1,.44.5c.14.24.25.41.33.53l1.18,1.71s.45.67,1.47,2.13,2.09,3.26,3.43,5.19c.19.31.43.67.7,1.06s.57.85.89,1.36v-2.07c0-.55.06-1.34.06-2.36,0-1.34,0-2.83.12-4.48a5.69,5.69,0,0,1,0-.86,4.11,4.11,0,0,0,.06-.62c0-.39,0-.59.06-.59a3.32,3.32,0,0,1,.83-.76,2.25,2.25,0,0,1,1.47-.42h3.54c.59,0,1.08,0,1.48.06h1.77q.58.06,1.77.06h1.89a3.17,3.17,0,0,1,1.77.41,1.19,1.19,0,0,1,.47.62,4.14,4.14,0,0,1,.12,1.15,11.71,11.71,0,0,1-.06,1.3c0,.4-.06.87-.06,1.42v.41a1.79,1.79,0,0,1,.06.53v1.54l-.06,6.78v8.26q0,6.38-.12,8.08l-.18,1.95c-.19.91-.47,1.38-.82,1.42a1.29,1.29,0,0,0-.33.06,2,2,0,0,1-.44,0c-1.42,0-2.46,0-3.13-.11h-6.9a1.92,1.92,0,0,1-.47.06,4.07,4.07,0,0,1-1.48-.3,2.24,2.24,0,0,1-1-.65l-5.19-7.31c-.2-.28-.57-.73-1.12-1.36l-.77-.71c-.2-.2-.35-.29-.47-.29a.39.39,0,0,0-.3.14.43.43,0,0,0-.11.27v1a13.1,13.1,0,0,0-.06,1.48v1.71q-.06.64-.06,1.77v2.3a.82.82,0,0,0-.06.35s-.06.36-.18,1a2.8,2.8,0,0,1-.17.29.82.82,0,0,1-.42.06.48.48,0,0,0-.21-.06h-.14c-3.11.28-5.69.41-7.73.41Z"/><path class="cls-24" d="M297.87,789.06a.35.35,0,0,0-.24.06l-.17.06q-.18,0-.18-.12a.54.54,0,0,1-.3-.36,15.79,15.79,0,0,1-2.65-.59l-2.07-.59H292a.88.88,0,0,1-.47-.11,2.82,2.82,0,0,1-.89-.12,10,10,0,0,1-1.53-.41l-1.54-.54c-.63-.19-1.53-.53-2.71-1a12.77,12.77,0,0,0-1.24-.47l-1.36-.83a1,1,0,0,1-.47-.7,6,6,0,0,1,.53-2.36c.12-.28.29-.61.5-1a9.5,9.5,0,0,0,.62-1.35,4.73,4.73,0,0,1,.65-1.07c.95-1.57,1.46-2.43,1.54-2.59a3.66,3.66,0,0,0,.23-1.18,2.67,2.67,0,0,0-.94-1.83,2.52,2.52,0,0,1-.89-1.71c-.19,0-.29,0-.29.06h-.18a.35.35,0,0,1-.12-.24,46.4,46.4,0,0,1-3.83-5.72,70.56,70.56,0,0,1-4-7.08,12.26,12.26,0,0,1-1.12-2.54,23.56,23.56,0,0,1-1.3-3.24,9.5,9.5,0,0,1-.65-2.36c0-.4.43-.91,1.3-1.54a12.13,12.13,0,0,1,1.24-.71l1.06-.53c.19,0,1-.25,2.48-.65l.82-.29a.87.87,0,0,1,.53-.18,4.55,4.55,0,0,0,1.12-.23,20,20,0,0,0,2-.48l2.12-.47c1.18-.39,1.87-.61,2.07-.65l.12-.06h.29a1.9,1.9,0,0,1,1.65.59,11.53,11.53,0,0,1,1.18,1.66,3.44,3.44,0,0,0,.45.82,4.26,4.26,0,0,0,.44.59l.47.65.41.47a6.24,6.24,0,0,1,.48.71c.15.28.33.57.53.89a41.71,41.71,0,0,0,2.36,3.83c.35.51.65.77.88.77s.32-.22.59-.65,1-1.81,1.95-3.78q.76-1.89,1.83-4.3a11,11,0,0,0,.59-1.3,2.94,2.94,0,0,1,.53-1.36,1.16,1.16,0,0,1,1.06-.47,21.65,21.65,0,0,1,5,.77,33.15,33.15,0,0,1,5.78,2.3,12.27,12.27,0,0,1,3.83,2.83,5.92,5.92,0,0,1-.76,2.95l-5.43,12-5.31,12-.24.06s-.1,0-.17.12q-3.9,7.6-7.14,13.69c-.08.15-.32.23-.71.23Z"/><path class="cls-25" d="M338.7,785.16a5.76,5.76,0,0,0-1.3-.11,19.74,19.74,0,0,1-5.55-1h-.41a2.1,2.1,0,0,1-.89-.23,1.08,1.08,0,0,0-.29-.21,3,3,0,0,1-.41-.26l-1.24-.71a10.21,10.21,0,0,1-3.13-2.8,16,16,0,0,1-2.18-4,22,22,0,0,1,.29-17.17,18.52,18.52,0,0,1,5.37-7.19,13,13,0,0,1,8.26-3,16.88,16.88,0,0,1,2.18.11c0-.07.06-.11.18-.11h.18c2.75,0,5.21.09,7.37.29a15.51,15.51,0,0,1,5.14,1.71,17.74,17.74,0,0,1,9,16.58,21.66,21.66,0,0,1-2.65,10.5l-.59.95c-.16.23-.26.35-.3.35l-.17.3-.42.23a12.68,12.68,0,0,1-7.67,5.13,48.27,48.27,0,0,1-9.44.71A9.56,9.56,0,0,1,338.7,785.16Zm3.12-4.95a11.4,11.4,0,0,0,1.18-4.13c0-.36.14-1.14.3-2.36s.25-2.36.29-3.42c.16-2.68.24-4.33.24-5v-1.83a32.15,32.15,0,0,0-.18-3.66,14,14,0,0,0-.71-3.83c-.35-.47-.63-.71-.82-.71-.4,0-.77.3-1.12.89a9.06,9.06,0,0,0-.83,3.24l-1.24,9.44v2q.18,2.48.18,3.24l.12,1.42.17,1.89a2.53,2.53,0,0,0,.12.82l.65,2.19a.54.54,0,0,0,.33.35,1.18,1.18,0,0,0,.5.12A.91.91,0,0,0,341.82,780.21Z"/><path class="cls-26" d="M376.63,784.81l-1.65-.24a11.28,11.28,0,0,1-2.48-.82,6.31,6.31,0,0,1-2.06-1.65,13.29,13.29,0,0,1-2.54-6.2,37.25,37.25,0,0,1-.35-6.84v-2.6a5.56,5.56,0,0,1,.05-.82V762.8l.18-.41a.82.82,0,0,1,0-.18,1.82,1.82,0,0,0,0-.41q.18-2.13.18-3.42l.12-2.18c0-1,.06-2.13.06-3.43a7.55,7.55,0,0,0-.06-1.06,7,7,0,0,1-.12-1.12c0-.59.61-.88,1.83-.88h.82a2.47,2.47,0,0,0,.95-.12l7.19.12c.12.11.2.17.24.17l.47-.17c2.05,0,3.37.19,4,.59a2.3,2.3,0,0,1,.85,1.23,7.53,7.53,0,0,1,.27,2.25c0,.63,0,1.49.11,2.59a20.07,20.07,0,0,1,.12,2.6v.59c-.08,1.14-.15,3-.23,5.6l-.06,2.84v2.53a11.78,11.78,0,0,0-.12,1.89v1.77a9,9,0,0,0,.24,2.3c.19.32.37.47.53.47a14.82,14.82,0,0,0,2.65-.88l1.42-.71c.39-.16.59-.31.59-.47V755.49a14.52,14.52,0,0,1-.18-2,4.8,4.8,0,0,1-.06-.88v-1.48a1.37,1.37,0,0,1,.3-1c.08-.12.27-.18.59-.18a.37.37,0,0,1,.23.09.26.26,0,0,1,.12.21v.11a11.82,11.82,0,0,1,2.54-.41,31.67,31.67,0,0,1,3.54-.18h3.54l6.19.18a.37.37,0,0,1,.21.06q.09.06.09.12s.06,0,.06.12v.29s-.06.06-.06.18l.29-.06a.19.19,0,0,1,.18-.12q.18,0,.18.3,0,10.32-.09,17.13T407,781.8a1.76,1.76,0,0,1-.48.89,5.5,5.5,0,0,1-.41.47.42.42,0,0,1-.17.18l-.18.11a1.7,1.7,0,0,0-.41-.14,2.57,2.57,0,0,0-.59-.09l-.18.12a.33.33,0,0,1-.24.11,46.86,46.86,0,0,1-7.43.42h-2.6a12.41,12.41,0,0,1-2.59-.24,3.57,3.57,0,0,1-.89-1.47,2,2,0,0,0-.23-.71q-.12-.3-.3-.3a3.32,3.32,0,0,0-1.48.65,1.94,1.94,0,0,1-.32.27,2.38,2.38,0,0,0-.38.32,3.33,3.33,0,0,0-.65.59,12.63,12.63,0,0,1-3.78,1.3,11.45,11.45,0,0,1-2.71.35q-1.37,0-2,.06Z"/><path class="cls-27" d="M447,783.87l-.83-.06h-6.49a2.61,2.61,0,0,1-.94-.18,3.68,3.68,0,0,0-1.06-.18l-.53.06c-.4-.12-.59-.33-.59-.65l-4.13-18.7q-1.61-8-2.84-14.57a3.15,3.15,0,0,1-.53-1.54c0-.47-.06-1.2-.06-2.18a2.68,2.68,0,0,1,.27-1.27.86.86,0,0,1,.8-.5h2.18a6.05,6.05,0,0,0,1.47.12l2.66.06h3l.35.06a.24.24,0,0,0,.18.06l.06.11a.24.24,0,0,0,.14-.06.46.46,0,0,1,.21-.05,1.92,1.92,0,0,1,.47-.12h.18l.53.06c.43,0,1.28.06,2.54.06a6.86,6.86,0,0,0,1.36.11,9.12,9.12,0,0,1,.62,1.83c.21.87.44,1.83.67,2.89.08.59.28,1.83.59,3.72.12.59.26,1.34.42,2.24l.35,1.89a.69.69,0,0,0,.06.21,1,1,0,0,1,.06.38l.18,1.18c.07.32.15.81.23,1.48a3,3,0,0,1,.18.73c0,.3.08.54.12.74s.07.38.11.56a2.6,2.6,0,0,1,.06.56l.12.53.06.24a.37.37,0,0,0,.12.29v.36l.12-.36v-.29l.06-.24a1.76,1.76,0,0,1,.11-.53,4.86,4.86,0,0,1,.18-1.12,4.44,4.44,0,0,0,.18-.74c0-.25.08-.5.12-.73l.23-1.48a4.62,4.62,0,0,0,.18-.71,3.41,3.41,0,0,0,.06-.47l.06-.59q1.71-8.91,2.42-11.33a2.41,2.41,0,0,1,.2-.68,1.1,1.1,0,0,1,.5-.5c0-.08.17-.13.39-.17a4.13,4.13,0,0,0,.5-.12,14.1,14.1,0,0,1,1.77-.18h2.71l2.07.06a11.18,11.18,0,0,0,1.24.06h.17l.12-.12q.24,0,.3.12a.24.24,0,0,1,.17.06c.71,0,1.54.06,2.48.06a12.27,12.27,0,0,0,1.24.06c.35,0,.55,0,.59.11a.46.46,0,0,0,.18-.06.64.64,0,0,1,.23-.05.93.93,0,0,1,.59-.12h1.07c.62,0,1,.08,1.12.23a30.66,30.66,0,0,1,.76,4.43l.18,1.3q.48,3.36,1,5.66l.12.71c.12.82.18,1.34.18,1.53,0,.4.14,1,.29,1.89a9.3,9.3,0,0,0,.3,1.89,10.33,10.33,0,0,0,.12,1.47,2.74,2.74,0,0,0,.12.45.8.8,0,0,1,.05.2,2.09,2.09,0,0,0,.06.53l.06.36a1.38,1.38,0,0,1,.18-.36V764l.06-.65.23-1.47.3-1.89a16.7,16.7,0,0,1,.29-1.89l.18-1.53.09-.47a1.84,1.84,0,0,0,0-.24c.23-1.1.39-1.93.47-2.48l.24-1.24a59.75,59.75,0,0,1,1.35-6,4.76,4.76,0,0,1,.59-1.66,5.4,5.4,0,0,0,.77-.06,7.7,7.7,0,0,1,.83-.05,5.37,5.37,0,0,0,1.06-.12h.12c.12,0,.17,0,.17.12s0,.11.06.11a.84.84,0,0,0,.36-.06.58.58,0,0,1,.17-.05l.06-.12h3.6a9,9,0,0,0,1.12-.06h1.48a6.42,6.42,0,0,0,1.53-.12h2.24a.82.82,0,0,1,.74.53,2.73,2.73,0,0,1,.27,1.24,11,11,0,0,0-.53,2.18c0,.44-.06,1-.06,1.54q-1.95,9.15-4,16.34l-4.13,16.93c-.35.08-.55.2-.59.36v.29l-.59-.06a3,3,0,0,0-.7.06l-.71.06h-2.95q-2.31,0-3.42-.06h-8q-.58-.06-1.65-.06l-.59.06c-.39-.12-.59-.33-.59-.65l-3.95-19.47-3.9,19.47c-.2.63-.82.95-1.89.95h-2.77c-.51,0-1.42.06-2.71.06Z"/><path class="cls-28" d="M514.69,785.16a5.69,5.69,0,0,0-1.3-.11,19.74,19.74,0,0,1-5.54-1h-.42a2.06,2.06,0,0,1-.88-.23,1.14,1.14,0,0,0-.3-.21l-.41-.26-1.24-.71a10.18,10.18,0,0,1-3.12-2.8,15.75,15.75,0,0,1-2.19-4,22.09,22.09,0,0,1,.3-17.17,18.33,18.33,0,0,1,5.37-7.19,12.93,12.93,0,0,1,8.26-3,17,17,0,0,1,2.18.11c0-.07.06-.11.18-.11h.17c2.76,0,5.21.09,7.38.29a15.38,15.38,0,0,1,5.13,1.71,17.73,17.73,0,0,1,9,16.58,21.67,21.67,0,0,1-2.66,10.5l-.59.95c-.15.23-.25.35-.29.35l-.18.3-.41.23a12.71,12.71,0,0,1-7.67,5.13,48.34,48.34,0,0,1-9.44.71A9.54,9.54,0,0,1,514.69,785.16Zm3.13-4.95a11.61,11.61,0,0,0,1.18-4.13c0-.36.14-1.14.29-2.36s.26-2.36.3-3.42c.16-2.68.23-4.33.23-5v-1.83a34.91,34.91,0,0,0-.17-3.66,14.38,14.38,0,0,0-.71-3.83c-.36-.47-.63-.71-.83-.71-.39,0-.76.3-1.12.89a9.1,9.1,0,0,0-.82,3.24l-1.24,9.44v2c.11,1.65.17,2.73.17,3.24l.12,1.42.18,1.89a2.53,2.53,0,0,0,.12.82l.65,2.19a.52.52,0,0,0,.32.35,1.22,1.22,0,0,0,.5.12A.92.92,0,0,0,517.82,780.21Z"/><path class="cls-29" d="M548.5,784h-2.3l-2.3-.64-.12-.36s-.06-.19-.06-.59a10.33,10.33,0,0,0-.06-1.24l-.06-2.24c0-.47-.06-1.22-.06-2.24s0-1.71-.06-2.18v-1.77q-.35-3.72-.35-7.67v-1.36a5.66,5.66,0,0,1,.06-1v-.89a2,2,0,0,1-.06-.59v-2.54a5.74,5.74,0,0,1,.06-1v-.59l.06-.29V756c0-.39,0-.93,0-1.59,0-.51,0-1,0-1.36l-.06-1.36-.06-.23q-.18-.12,0-.18a2,2,0,0,1,1.47-1.36,5.72,5.72,0,0,1,1.95-.23q1,0,5.25-.18c1.42-.08,2.3-.12,2.66-.12.59,0,1.29-.06,2.12-.06a2.08,2.08,0,0,1,.83.21,1.48,1.48,0,0,1,.44.5c.14.24.24.41.32.53l1.18,1.71s.45.67,1.48,2.13,2.08,3.26,3.42,5.19c.2.31.43.67.71,1.06s.57.85.88,1.36V760c0-.55.06-1.34.06-2.36,0-1.34,0-2.83.12-4.48a5.61,5.61,0,0,1,.06-.86,4.11,4.11,0,0,0,.06-.62c0-.39,0-.59.06-.59a3.08,3.08,0,0,1,.82-.76,2.29,2.29,0,0,1,1.48-.42H572q.88,0,1.47.06h1.77q.6.06,1.77.06h1.89a3.13,3.13,0,0,1,1.77.41,1.14,1.14,0,0,1,.47.62,4.14,4.14,0,0,1,.12,1.15,11.71,11.71,0,0,1-.06,1.3c0,.4-.06.87-.06,1.42v.41a1.79,1.79,0,0,1,.06.53v1.54l-.06,6.78v8.26q0,6.38-.11,8.08l-.18,2c-.2.91-.47,1.38-.83,1.42a1.23,1.23,0,0,0-.32.06,2.14,2.14,0,0,1-.45.05c-1.41,0-2.45,0-3.12-.11h-6.91a1.45,1.45,0,0,1-.47.06,4,4,0,0,1-1.47-.3,2.19,2.19,0,0,1-1-.65l-5.2-7.31c-.19-.28-.57-.73-1.12-1.36l-.76-.71a.79.79,0,0,0-.48-.29.38.38,0,0,0-.29.14.45.45,0,0,0-.12.27v1a13.1,13.1,0,0,0-.06,1.48v1.71q-.06.65-.06,1.77V782a.82.82,0,0,0-.06.35s-.06.36-.17.95a1.52,1.52,0,0,1-.18.29.78.78,0,0,1-.41.06.48.48,0,0,0-.21-.06h-.15c-3.11.28-5.68.41-7.73.41Z"/><path class="cls-30" d="M592.27,769.94a8.2,8.2,0,0,1-2-.29,4.35,4.35,0,0,1-.35-1.83,3.41,3.41,0,0,1-.15-.68,4,4,0,0,1,0-.44l-.06-.77a6,6,0,0,1-.06-1.18c-.08-.35-.28-1.67-.59-4a3.25,3.25,0,0,0-.09-.74,2.93,2.93,0,0,1-.09-.5,4.93,4.93,0,0,1-.12-1.18,8.59,8.59,0,0,0-.05-.86,6.73,6.73,0,0,1-.06-.91q-.12-1.18-.12-1.59l-.06-.89a12.09,12.09,0,0,0-.18-1.83,9.68,9.68,0,0,0-.12-1.3,16,16,0,0,1-.47-3.36,8.18,8.18,0,0,0-.41-2.42.34.34,0,0,1,.09-.26.71.71,0,0,1,.26-.15,7.33,7.33,0,0,1,2.66-.41q.53,0,1.47-.06l1.54-.12a2.78,2.78,0,0,0,.82-.18h10a2.07,2.07,0,0,0,.71.36,2.84,2.84,0,0,1,1.42.88,1.24,1.24,0,0,1,.29.89,13.54,13.54,0,0,1-.65,4.36l-1.47,8.62v.41a1.28,1.28,0,0,0-.18.77l-.12.76v.42a17.46,17.46,0,0,1-.53,3.54c-.27,1.1-.59,2.53-.94,4.3q0,.12-.24.24a2,2,0,0,1-.59.18,21.52,21.52,0,0,1-4.48.29h-2.95A15.61,15.61,0,0,1,592.27,769.94Zm5.9,15-.7-.06H594a16.66,16.66,0,0,1-3.48-.3c-.39,0-.59-.07-.59-.23l-.17-5.13c0-.44-.06-1-.06-1.54a3.75,3.75,0,0,1,.06-.82,1.12,1.12,0,0,1,.12-.65v-1.12a.81.81,0,0,1,.29-.59,1.07,1.07,0,0,1,.77-.36,8.25,8.25,0,0,0,1.12-.06h6.43a19.24,19.24,0,0,1,3.3.24c1.1.2,1.65.53,1.65,1,0,1.42,0,2.42.06,3,0,.32,0,1.26.12,2.83v2.19a2.82,2.82,0,0,1-.29,1.2,1.13,1.13,0,0,1-.71.51,2.61,2.61,0,0,0-.53.06,4.83,4.83,0,0,1-.71,0A17.31,17.31,0,0,1,598.17,784.93Z"/><path class="cls-2" d="M293.9,972.06a19.89,19.89,0,0,1-6.27-.84,14.71,14.71,0,0,1-3.95-1.89,7.32,7.32,0,0,1-2-2,3.72,3.72,0,0,1-.58-1.25,6.21,6.21,0,0,1,.47-2.24,10.81,10.81,0,0,1,1.16-2.21,8.75,8.75,0,0,1,1.51-1.71,2.35,2.35,0,0,1,1.45-.7c.54,0,1,.35,1.34,1l.58.58a6.64,6.64,0,0,0,1.31,1,10.63,10.63,0,0,0,2.09.9,9.51,9.51,0,0,0,2.93.41,8.29,8.29,0,0,0,6-2.24,8,8,0,0,0,2.32-6.07A9.06,9.06,0,0,0,301,950a16.44,16.44,0,0,0-3.28-3.89,41.19,41.19,0,0,0-4.65-3.52q-2.61-1.71-5.34-3.57c-1.82-1.24-3.61-2.58-5.35-4a27,27,0,0,1-4.65-4.94,24.74,24.74,0,0,1-3.28-6.3,25,25,0,0,1,.09-15.89,32.46,32.46,0,0,1,3.69-7.53,39.55,39.55,0,0,1,5.54-6.68,40.63,40.63,0,0,1,6.92-5.41,35.41,35.41,0,0,1,7.76-3.6,26.19,26.19,0,0,1,8.1-1.31,16.85,16.85,0,0,1,6.28,1.11,12.84,12.84,0,0,1,4.7,3.11,13.8,13.8,0,0,1,3,4.82,18.18,18.18,0,0,1,1,6.3,18.79,18.79,0,0,1-1.16,6.51,27.6,27.6,0,0,1-3.08,6,35.24,35.24,0,0,1-4.33,5.25,36.27,36.27,0,0,1-4.94,4.19,25.87,25.87,0,0,1-4.91,2.76,11.1,11.1,0,0,1-4.18,1,5.56,5.56,0,0,1-2.82-.73A7.46,7.46,0,0,1,294,922a9,9,0,0,1-1.31-2.27,5.89,5.89,0,0,1-.46-2.12,1.7,1.7,0,0,1,.2-1,.67.67,0,0,1,.58-.2,7,7,0,0,1,1,.17,5.38,5.38,0,0,0,1.34.15,11.06,11.06,0,0,0,5.4-1.69,25.74,25.74,0,0,0,5.58-4.3,27,27,0,0,0,4.39-5.75,12.37,12.37,0,0,0,1.77-6.1,7.1,7.1,0,0,0-1.48-4.76q-1.48-1.76-5-1.75a15.3,15.3,0,0,0-4.79.85,26.8,26.8,0,0,0-5.2,2.35,31.72,31.72,0,0,0-5.06,3.66,28.25,28.25,0,0,0-4.3,4.73,24.19,24.19,0,0,0-3,5.58,17.43,17.43,0,0,0-1.13,6.25,14.32,14.32,0,0,0,1.25,6.13A18.37,18.37,0,0,0,287,926.8a30.39,30.39,0,0,0,4.68,4.07q2.61,1.86,5.34,3.69t5.35,3.77a30,30,0,0,1,4.67,4.3,20.17,20.17,0,0,1,3.32,5.23,16.5,16.5,0,0,1,1.24,6.6,17.53,17.53,0,0,1-5.11,12.43,17.87,17.87,0,0,1-5.63,3.78A17.54,17.54,0,0,1,293.9,972.06Z"/><path class="cls-2" d="M341.14,971.08a20.9,20.9,0,0,1-7.67-1.46,19.23,19.23,0,0,1-6.59-4.3,20.72,20.72,0,0,1-4.59-7,25.3,25.3,0,0,1-1.72-9.7A35.36,35.36,0,0,1,322,938.54a32,32,0,0,1,4-8.81,21.85,21.85,0,0,1,6.13-6.24A13.77,13.77,0,0,1,340,921.1a10.28,10.28,0,0,1,5.23,1.25,11.75,11.75,0,0,1,3.49,3,11.91,11.91,0,0,1,1.94,3.8,12.66,12.66,0,0,1,.61,3.6,3.72,3.72,0,0,1-.61,2.1,5.8,5.8,0,0,1-1.48,1.56,6.18,6.18,0,0,1-1.92,1,5.2,5.2,0,0,1-1.86.27,1.91,1.91,0,0,1-1.3-.59,1.73,1.73,0,0,1-.32-1.56,17.27,17.27,0,0,1-.44-1.86,7.88,7.88,0,0,0-.7-2.12,5.27,5.27,0,0,0-1.36-1.75,3.63,3.63,0,0,0-2.38-.72,4.5,4.5,0,0,0-3.17,1.54,13.69,13.69,0,0,0-2.73,4.21,30.66,30.66,0,0,0-1.92,6.22,37.87,37.87,0,0,0-.72,7.55,19.73,19.73,0,0,0,.9,6.27,13,13,0,0,0,2.52,4.59,10.74,10.74,0,0,0,3.87,2.82,12.17,12.17,0,0,0,4.85,1,13.18,13.18,0,0,0,6.07-1.31,13.68,13.68,0,0,0,4.39-3.45,18.25,18.25,0,0,0,2.9-4.83,27.62,27.62,0,0,0,1.63-5.4,3.55,3.55,0,0,1,1.66-2.64,3.32,3.32,0,0,1,2.55-.32,4.4,4.4,0,0,1,2.27,1.48,3.39,3.39,0,0,1,.78,2.7,31.88,31.88,0,0,1-.84,4.13,26.09,26.09,0,0,1-1.77,4.7,26.92,26.92,0,0,1-2.94,4.68,19.9,19.9,0,0,1-4.32,4.1,22,22,0,0,1-6,2.9A25,25,0,0,1,341.14,971.08Z"/><path class="cls-2" d="M401,948.12a1.75,1.75,0,0,1,.79-1.16,4,4,0,0,1,1.54-.64,5.11,5.11,0,0,1,1.83,0,3.54,3.54,0,0,1,1.68.79,3.39,3.39,0,0,1,1.05,1.68,5.47,5.47,0,0,1-.09,2.76,16.25,16.25,0,0,1-1.71,4.56,14.75,14.75,0,0,1-3,3.75,13.2,13.2,0,0,1-4.24,2.56,15.26,15.26,0,0,1-5.46.93,24.3,24.3,0,0,1-3.05-.18,12.88,12.88,0,0,1-2.76-.64,18.43,18.43,0,0,1-5.69,6.19,15,15,0,0,1-8.6,2.36,16.07,16.07,0,0,1-7.79-1.78,15.71,15.71,0,0,1-5.4-4.82,21.06,21.06,0,0,1-3.17-7.06,34.27,34.27,0,0,1-1-8.48,41.7,41.7,0,0,1,1.54-11.77,43.15,43.15,0,0,1,3.58-8.83,23.87,23.87,0,0,1,4-5.55q2-1.92,3-1.92a2.87,2.87,0,0,1,2.12,1,6.13,6.13,0,0,1,1.39,2.38,6,6,0,0,1,.23,2.76,2.94,2.94,0,0,1-1.36,2.15c-.47.74-1,1.59-1.66,2.56a19.16,19.16,0,0,0-1.8,3.63,29.47,29.47,0,0,0-1.42,5.32,41.91,41.91,0,0,0-.58,7.55,28.81,28.81,0,0,0,.66,6.57,15.59,15.59,0,0,0,1.86,4.67,8.6,8.6,0,0,0,2.73,2.82,6.28,6.28,0,0,0,3.29.93,6.75,6.75,0,0,0,4.21-1.25,10.7,10.7,0,0,0,2.82-3.28,22.8,22.8,0,0,1-6.36-9.15,32.4,32.4,0,0,1-2.18-12,22.47,22.47,0,0,1,.61-5.32,14.77,14.77,0,0,1,1.8-4.44,9.28,9.28,0,0,1,3-3,7.66,7.66,0,0,1,4.18-1.14,6.24,6.24,0,0,1,4,1.51,13.16,13.16,0,0,1,3.25,4.19,24.83,24.83,0,0,1,2.18,6.33,38.24,38.24,0,0,1,.78,8,53.16,53.16,0,0,1-.4,6.57,41.94,41.94,0,0,1-1.28,6.27,3.66,3.66,0,0,0,1.19.26c.37,0,.76,0,1.19,0a7.68,7.68,0,0,0,5.93-2.55,9.64,9.64,0,0,0,1.68-2.73A15.09,15.09,0,0,0,401,948.12Zm-22.72-11a23.2,23.2,0,0,0,1.25,7.62A22.43,22.43,0,0,0,382.8,951a43.54,43.54,0,0,0,.35-5.46c0-2,0-3.88-.08-5.61a34.08,34.08,0,0,0-.41-4.44,10.34,10.34,0,0,0-.87-2.94,1.67,1.67,0,0,0-1.48-1.07Q378.27,931.45,378.27,937.08Z"/><path class="cls-2" d="M427,971.08a15.41,15.41,0,0,1-4.27-.64,10.41,10.41,0,0,1-3.95-2.21,11.67,11.67,0,0,1-2.9-4.16,16.24,16.24,0,0,1-1.13-6.53,52.59,52.59,0,0,1,1.53-12.18,120.44,120.44,0,0,1,4.45-14.14h-10.4q-.06,1.74-.21,4.41c-.09,1.78-.26,3.68-.49,5.7s-.53,4-.9,6.1a48,48,0,0,1-1.36,5.69c-.39,1.24-1,2-1.83,2.15a3.19,3.19,0,0,1-2.47-.44,5.28,5.28,0,0,1-2-2.12,3.82,3.82,0,0,1-.35-2.9,37.75,37.75,0,0,0,.81-4.39c.24-1.72.42-3.54.56-5.46s.24-3.84.32-5.75.13-3.63.17-5.14A11.79,11.79,0,0,1,398.9,926a7.17,7.17,0,0,1-1.45-4.51,5,5,0,0,1,.49-2.23,5.7,5.7,0,0,1,1.31-1.75,5.51,5.51,0,0,1,1.92-1.1,7,7,0,0,1,2.26-.38,8.9,8.9,0,0,1,2.18.29,6.32,6.32,0,0,1,2.15,1.05,7.73,7.73,0,0,1,1.83,2,11.06,11.06,0,0,1,1.34,3c1,.11,1.79.2,2.47.26l1.71.14c.47,0,.85.06,1.16.06h7.15a3.33,3.33,0,0,1,1.54.64,11.61,11.61,0,0,1,3.66,3.83,3.32,3.32,0,0,1,.5,2.21,8.59,8.59,0,0,1-.41,1.69c-.27.89-.6,2-1,3.37s-.81,2.91-1.28,4.68-.89,3.61-1.28,5.54-.71,4-1,6a45.19,45.19,0,0,0-.41,6.07,9.94,9.94,0,0,0,.29,2.38,6.76,6.76,0,0,0,.87,2.07,4.37,4.37,0,0,0,1.48,1.42,4.14,4.14,0,0,0,2.12.52A5.07,5.07,0,0,0,432,962a10.68,10.68,0,0,0,2.44-3.19,21.5,21.5,0,0,0,1.6-4.16c.4-1.49.74-2.89,1-4.21a5.14,5.14,0,0,1,1.16-2.7,2.35,2.35,0,0,1,1.68-.84,2.93,2.93,0,0,1,1.46.43,5.57,5.57,0,0,1,1.36,1.13,6,6,0,0,1,1,1.57,4.42,4.42,0,0,1,.38,1.75,1.42,1.42,0,0,1-.06.46,1.07,1.07,0,0,0-.06.35,57.32,57.32,0,0,1-2.12,6.22,26.63,26.63,0,0,1-3.34,6,18.29,18.29,0,0,1-4.88,4.53A12.27,12.27,0,0,1,427,971.08Z"/><path class="cls-2" d="M465,933.13a21.79,21.79,0,0,1-1.14,6.8,23.83,23.83,0,0,1-3.37,6.6,25.77,25.77,0,0,1-5.52,5.57,23.58,23.58,0,0,1-7.58,3.75,13.33,13.33,0,0,0,1.54,2.88,10.06,10.06,0,0,0,2.3,2.35,10.88,10.88,0,0,0,3.1,1.57,13.09,13.09,0,0,0,4.1.58,12.63,12.63,0,0,0,6-1.31,13,13,0,0,0,4.22-3.45,18.67,18.67,0,0,0,2.76-4.83,31.28,31.28,0,0,0,1.57-5.4,3.57,3.57,0,0,1,1.65-2.64,3.35,3.35,0,0,1,2.56-.32,4.34,4.34,0,0,1,2.26,1.48,3.39,3.39,0,0,1,.79,2.7,41.78,41.78,0,0,1-.79,4.13,24.67,24.67,0,0,1-1.65,4.7,26.7,26.7,0,0,1-2.82,4.68,19.32,19.32,0,0,1-4.21,4.1,21.17,21.17,0,0,1-5.87,2.9,24.69,24.69,0,0,1-7.73,1.11,20.24,20.24,0,0,1-7.87-1.6,20.49,20.49,0,0,1-6.74-4.59,22.37,22.37,0,0,1-4.71-7.38,26.49,26.49,0,0,1-1.77-10,33.85,33.85,0,0,1,1.57-10.49,30,30,0,0,1,4.12-8.39,20.57,20.57,0,0,1,5.81-5.55,12.58,12.58,0,0,1,6.69-2,11.22,11.22,0,0,1,4.5.88,9.35,9.35,0,0,1,3.4,2.47,10.91,10.91,0,0,1,2.12,3.8A15.67,15.67,0,0,1,465,933.13Zm-19.18,14.06a9.24,9.24,0,0,0,.06,1,9.73,9.73,0,0,1,.06,1.1,16.31,16.31,0,0,0,4-2.67A16.77,16.77,0,0,0,453,943a17.92,17.92,0,0,0,2-4.56,18.6,18.6,0,0,0,.7-5.14,5.92,5.92,0,0,0-.67-3.08,2,2,0,0,0-1.83-1.1,3.87,3.87,0,0,0-2.59,1,8.89,8.89,0,0,0-2,2.59,18.12,18.12,0,0,0-1.4,3.6c-.36,1.34-.66,2.68-.9,4a38,38,0,0,0-.46,3.86A27.45,27.45,0,0,0,445.79,947.19Z"/><path class="cls-31" d="M945.43,985c-7.57-.06-14-.08-21-.27-4.5-.12,9.41-8.07-14.79-12.1-2.1-.09-8.42-.79-9.67,1.88s2.44,8.93-2,9a369.35,369.35,0,0,1-54.73-7.36l-2.69-63.18,108.08,12.63Z"/><path class="cls-32" d="M945.43,986.32h0l-3,0c-6.44,0-12-.08-18-.25a2.26,2.26,0,0,1-2-.91c-.6-.89-.21-1.89.13-2.78.49-1.26.79-2.23.21-3.25-.84-1.48-3.83-3.58-13.26-5.16l-.7,0c-4.56-.28-7.13.11-7.62,1.15a7.55,7.55,0,0,0,.1,3.38c.3,1.92.61,3.9-.52,5.24a3.5,3.5,0,0,1-2.78,1.13h-.1A368.91,368.91,0,0,1,843,977.42a1.34,1.34,0,0,1-1.06-1.26L839.24,913a1.34,1.34,0,0,1,.43-1,1.4,1.4,0,0,1,1.07-.35l108.07,12.64a1.34,1.34,0,0,1,1.19,1.41l-3.23,59.41A1.35,1.35,0,0,1,945.43,986.32Zm-20.36-2.94c5.78.15,11.18.19,17.4.23h1.69l3.09-56.87L842,914.45,844.57,975A366.33,366.33,0,0,0,898,982.12a1.05,1.05,0,0,0,.7-.18c.34-.4.09-2-.08-3.08-.27-1.72-.54-3.5.13-4.94,1.51-3.23,7.17-2.88,10.21-2.69l.74,0,.16,0c8.7,1.44,13.54,3.51,15.24,6.49a6.14,6.14,0,0,1,0,5.56Z"/><path class="cls-33" d="M894.35,877.44l54,47.32S864,919.65,840.31,912.12C840.31,912.12,855.91,886.85,894.35,877.44Z"/><path class="cls-34" d="M948.39,926.1h-.08c-3.46-.21-84.86-5.2-108.4-12.7a1.33,1.33,0,0,1-.74-2c.16-.27,4.11-6.58,12.87-14.13a100.88,100.88,0,0,1,42-21.15,1.33,1.33,0,0,1,1.21.29l54,47.32a1.34,1.34,0,0,1-.88,2.35ZM842.47,911.36c22.13,6.2,85.57,10.71,102,11.8L894,878.92a98.06,98.06,0,0,0-40.2,20.41A73.53,73.53,0,0,0,842.47,911.36Z"/><circle class="cls-35" cx="872.98" cy="934.03" r="6.86"/><path class="cls-36" d="M879,937.45a6.84,6.84,0,0,1-9.29,2.75,7.14,7.14,0,0,1-2.8-9.53c.09,2.65,1.15,4.36,4.48,6.16S877,939,879,937.45Z"/><circle class="cls-35" cx="858.59" cy="962.4" r="7.53"/><path class="cls-36" d="M864.78,966.7a7.57,7.57,0,1,1-12.2-9c.55,4.53.12,4.88,3.38,7.45S861.26,967.69,864.78,966.7Z"/><circle class="cls-35" cx="889.38" cy="955.81" r="4.97"/><path class="cls-36" d="M894.08,957.55a5,5,0,1,1-9.41-3.22,5.59,5.59,0,0,0,4,4.07C891.28,959.29,893.1,957.93,894.08,957.55Z"/><circle class="cls-35" cx="854.83" cy="934.7" r="3.76"/><path class="cls-36" d="M858.23,936.39a3.84,3.84,0,0,1-5.15,1.75,3.65,3.65,0,0,1-1.52-5.23c.17,2,.35,2.72,2.2,3.68S856.13,937.51,858.23,936.39Z"/><circle class="cls-35" cx="932.53" cy="969.65" r="3.76"/><path class="cls-36" d="M935.6,972a3.77,3.77,0,0,1-5.26.83,3.73,3.73,0,0,1-.77-5.56,4.51,4.51,0,0,0,1.88,4C933.13,972.49,934.1,972.2,935.6,972Z"/><circle class="cls-35" cx="918.68" cy="943.44" r="14.11"/><path class="cls-36" d="M931.73,948.81a14.11,14.11,0,1,1-26.1-10.75c1.07,7.28,2.64,10.54,9.85,13.51S926.9,952.78,931.73,948.81Z"/><path class="cls-35" d="M922.58,981.75l-.27,1.35a19.77,19.77,0,0,0,1.07-2.42c.27-1.89,0-.27.27-2.15.92-6.42-5.73-10.73-12.2-11a12.48,12.48,0,0,0-12.16,17.15C900.88,984,923.73,971.14,922.58,981.75Z"/><path class="cls-2" d="M959.16,861a8.86,8.86,0,0,1,8.84,8.84V999.16a8.86,8.86,0,0,1-8.84,8.84H522.84a8.86,8.86,0,0,1-8.84-8.84V869.84a8.86,8.86,0,0,1,8.84-8.84H959.16m0-7H522.84A15.84,15.84,0,0,0,507,869.84V999.16A15.84,15.84,0,0,0,522.84,1015H959.16A15.84,15.84,0,0,0,975,999.16V869.84A15.84,15.84,0,0,0,959.16,854Z"/><path class="cls-37" d="M671.71,1655s16.48-76.46,93.65-32.35,53.88-48.84,34.69-77.43c-19.08-28.43,19.08-51,19.08-51s27.75-28.43-43.36-78.42c-43.92-30.87-5.2-44.11,7.81-54.89"/><ellipse class="cls-38" cx="588.95" cy="1336.04" rx="130.54" ry="105.64" transform="translate(-809.67 916.82) rotate(-49.53)"/><ellipse class="cls-39" cx="589.03" cy="1335.4" rx="96.84" ry="77.22" transform="translate(-809.14 916.65) rotate(-49.53)"/><ellipse class="cls-38" cx="209.44" cy="1344.12" rx="105.64" ry="130.54" transform="translate(-746.51 376.29) rotate(-35.79)"/><ellipse class="cls-40" cx="208.83" cy="1343.88" rx="77.22" ry="96.84" transform="translate(-746.48 375.89) rotate(-35.79)"/><ellipse class="cls-41" cx="547.23" cy="2032.49" rx="37.01" ry="70.65"/><ellipse class="cls-42" cx="362.18" cy="2033.16" rx="37.01" ry="70.65"/><path class="cls-43" d="M693.92,1638.94c-59.25-65.19-82.12-91.12-88.82-178.39C598,1360.74,512,1260,401.21,1260c-103.86,0-164.86,74-199.49,169.34-36.91,96.12-57.49,210.12-47.46,337.38,1.35,15.19,2.69,27.84,5.38,45.55,20,131.43,140.84,240.39,314.58,240.39s291-100.05,291-232.82C765.25,1768.09,730.34,1678.18,693.92,1638.94Z"/><path class="cls-44" d="M415.35,1578c45-14.17,49.11-19.91,49.11-19.91"/><path class="cls-44" d="M415.83,1583.19c47-4.28,52.67-.87,52.67-.87"/><path class="cls-44" d="M417,1591.27c47.06,3.24,48.85,7.2,48.85,7.2"/><path class="cls-44" d="M379.08,1578c-45-14.17-51.89-13.18-51.89-13.18"/><path class="cls-44" d="M378.6,1583.19c-47-4.28-51.41.48-51.41.48"/><path class="cls-44" d="M377.47,1591.27c-47.07,3.24-48.93,9.89-48.93,9.89"/><circle cx="396.5" cy="1584.34" r="8.07"/><ellipse class="cls-45" cx="445.62" cy="1819.85" rx="216" ry="181.68"/><path class="cls-46" d="M256.54,1638.17c0,60.56-4.07,160.82-42.73,160.82-33.23,0-42.73-71-42.73-131.58"/><polyline class="cls-47" points="434.18 1320.57 439.57 1303.07 498.55 1309.22 470.12 1292.83 482.25 1282.83 460.19 1277.72 470.1 1272.84 449.49 1262.24 446.69 1227.18 435.67 1237.1 433.56 1219.83 415.96 1237.78 408.75 1219.45 394.2 1243.63 372.31 1239.67 381.37 1258.01 352.64 1251.15 360.01 1267.68 325.76 1269.78 360.16 1296.34 345.36 1319.22 366.89 1309.8 362.86 1319.22 387.08 1304.42 397.85 1328.64 412.65 1312.49"/><path class="cls-48" d="M397.85,1330.66l-.33,0a2,2,0,0,1-1.52-1.17l-9.83-22.12-22.26,13.6a2,2,0,0,1-2.91-2.51l2-4.73-16.86,7.37a2,2,0,0,1-2.5-2.94l13.79-21.32-32.94-25.44a2,2,0,0,1,1.11-3.61l31.35-1.92L350.79,1252a2,2,0,0,1,2.31-2.78l24.56,5.86-7.16-14.49a2,2,0,0,1,.2-2.11,2,2,0,0,1,2-.77l20.52,3.71,13.83-23a2,2,0,0,1,3.6.3l6.08,15.43,15.42-15.72a2,2,0,0,1,3.45,1.17l1.64,13.41,8.12-7.32a2,2,0,0,1,3.37,1.34l2.71,33.94L471,1271a2,2,0,0,1,0,3.61l-4.83,2.38,16.55,3.83a2,2,0,0,1,.83,3.53l-9.88,8.14,25.89,14.94a2,2,0,0,1-1.21,3.75l-57.33-6-4.9,15.91a2,2,0,1,1-3.86-1.19l5.39-17.49a2,2,0,0,1,2.13-1.41l49.55,5.16-20.2-11.65a2,2,0,0,1-.28-3.31l9-7.4-18.07-4.18a2,2,0,0,1-.44-3.78l6.31-3.11L448.56,1264a2,2,0,0,1-1.09-1.63l-2.47-31-8,7.19a2,2,0,0,1-3.36-1.25l-1.6-13.11-14.66,15a2,2,0,0,1-3.32-.67L408.37,1224l-12.44,20.67a2,2,0,0,1-2.09.95l-17.94-3.25,7.28,14.75a2,2,0,0,1-.23,2.15,2,2,0,0,1-2.05.71l-24.75-5.92,5.7,12.8a2,2,0,0,1-.12,1.87,2,2,0,0,1-1.6,1l-28.89,1.76,30.16,23.29a2,2,0,0,1,.46,2.69l-11.16,17.24,15.38-6.73a2,2,0,0,1,2.67,2.65l-1.54,3.6L386,1302.7a2,2,0,0,1,2.89.9l9.52,21.41,12.72-13.88a2,2,0,1,1,3,2.73L399.33,1330A2,2,0,0,1,397.85,1330.66Z"/><path class="cls-49" d="M477.6,1533.08s-15.08-61.68,25.51-66c38-4,40.09,55.61,40.09,55.61"/><path class="cls-49" d="M566.33,1503.4s-4.22,11.27-23.57,7.35"/><path class="cls-49" d="M561.18,1493.12s-2.88,11.13-20.89,7.07"/><path class="cls-49" d="M567.6,1515.44s-4.32,10.48-23.66,6.57"/><path class="cls-49" d="M306.64,1544s15.26-61.63-25.32-66c-38-4.13-40.25,55.5-40.25,55.5"/><path class="cls-49" d="M218,1514s4.19,11.29,23.54,7.43"/><path class="cls-49" d="M223.18,1503.76s2.85,11.14,20.86,7.13"/><path class="cls-49" d="M216.69,1526.07s4.29,10.49,23.64,6.63"/><ellipse class="cls-50" cx="544.54" cy="1554.73" rx="52.49" ry="28.26"/><ellipse class="cls-51" cx="251.16" cy="1570.88" rx="52.49" ry="28.26"/><ellipse class="cls-52" cx="460" cy="2083.04" rx="586" ry="181.96"/><path class="cls-53" d="M557.67,1777.92c-8.78-.07-16.29-.09-24.33-.31-5.22-.14,10.92-9.36-17.15-14-2.43-.11-9.77-.92-11.22,2.18s2.83,10.35-2.32,10.41a426.29,426.29,0,0,1-63.48-8.54l-3.12-73.28L561.41,1709Z"/><path class="cls-54" d="M557.67,1779.48h0l-3.44,0c-7.47-.06-13.92-.1-20.91-.29a2.65,2.65,0,0,1-2.29-1.06c-.69-1-.24-2.2.16-3.22.56-1.46.91-2.59.24-3.78-1-1.71-4.44-4.15-15.38-6l-.81-.05c-5.3-.32-8.27.13-8.84,1.34-.38.81-.12,2.46.11,3.92.35,2.22.71,4.52-.61,6.07a4,4,0,0,1-3.21,1.32h-.12a427.3,427.3,0,0,1-63.71-8.58,1.55,1.55,0,0,1-1.23-1.45l-3.11-73.28a1.56,1.56,0,0,1,.49-1.21,1.58,1.58,0,0,1,1.24-.41l125.36,14.66a1.56,1.56,0,0,1,1.38,1.63L559.22,1778A1.56,1.56,0,0,1,557.67,1779.48Zm-23.62-3.41c6.7.17,13,.22,20.18.27h2l3.58-66-122.08-14.28,3,70.25a425.63,425.63,0,0,0,62,8.25,1.24,1.24,0,0,0,.82-.21c.4-.47.1-2.34-.09-3.58-.31-2-.64-4,.15-5.72,1.75-3.75,8.32-3.35,11.85-3.13l.85,0,.19,0c10.09,1.68,15.7,4.07,17.67,7.53,1.46,2.57.52,5,0,6.45Z"/><path class="cls-55" d="M498.42,1653.19l62.68,54.88s-97.92-5.92-125.36-14.65C435.74,1693.42,453.83,1664.1,498.42,1653.19Z"/><path class="cls-56" d="M561.1,1709.63H561c-4-.24-98.42-6-125.73-14.73a1.56,1.56,0,0,1-.86-2.3c.19-.31,4.77-7.64,14.93-16.39,9.34-8,25.37-18.82,48.71-24.53a1.53,1.53,0,0,1,1.4.34l62.67,54.88a1.56,1.56,0,0,1-1,2.73Zm-122.86-17.1c25.67,7.19,99.26,12.43,118.38,13.69L498,1654.9a113.71,113.71,0,0,0-46.62,23.68A84.63,84.63,0,0,0,438.24,1692.53Z"/><circle class="cls-35" cx="473.63" cy="1718.83" r="7.95"/><path class="cls-36" d="M480.64,1722.79a8,8,0,0,1-10.78,3.2,8.3,8.3,0,0,1-3.25-11.06c.11,3.08,1.34,5,5.2,7.15S478.28,1724.53,480.64,1722.79Z"/><circle class="cls-35" cx="456.95" cy="1751.73" r="8.73"/><path class="cls-36" d="M464.12,1756.72A8.78,8.78,0,1,1,450,1746.33c.63,5.25.13,5.65,3.92,8.63S460,1757.87,464.12,1756.72Z"/><circle class="cls-35" cx="492.65" cy="1744.09" r="5.77"/><path class="cls-36" d="M498.11,1746.11a5.77,5.77,0,0,1-10.92-3.73,6.47,6.47,0,0,0,4.65,4.72C494.85,1748.13,497,1746.54,498.11,1746.11Z"/><circle class="cls-35" cx="452.58" cy="1719.61" r="4.37"/><path class="cls-36" d="M456.53,1721.56a4.47,4.47,0,0,1-6,2c-2.13-1.11-3.26-4-1.76-6.06.21,2.31.42,3.15,2.55,4.26S454.09,1722.87,456.53,1721.56Z"/><circle class="cls-35" cx="542.7" cy="1760.15" r="4.37"/><path class="cls-36" d="M546.27,1762.82a4.37,4.37,0,0,1-6.1,1,4.31,4.31,0,0,1-.9-6.44,5.21,5.21,0,0,0,2.18,4.68C543.4,1763.44,544.52,1763.1,546.27,1762.82Z"/><circle class="cls-35" cx="526.64" cy="1729.74" r="16.37"/><path class="cls-36" d="M541.78,1736a16.37,16.37,0,0,1-30.28-12.47c1.25,8.44,3.06,12.22,11.42,15.67S536.17,1740.58,541.78,1736Z"/><path class="cls-35" d="M531.16,1774.18l-.31,1.56a24.82,24.82,0,0,0,1.25-2.81c.31-2.18,0-.31.31-2.49,1.06-7.44-6.66-12.44-14.16-12.77a14.51,14.51,0,0,0-14.11,19.89C506,1776.75,532.49,1761.88,531.16,1774.18Z"/><path class="cls-57" d="M630.32,1659c-43.71,50.31-97.51,104.09-122.7,79.15-27.5-27.21,50.13-124,94.89-173.35"/></svg>
