<svg id="Layer_1" data-name="Layer 1" xmlns="http://www.w3.org/2000/svg" xmlns:xlink="http://www.w3.org/1999/xlink" width="500" height="100" viewBox="0 0 500 100"><defs><style>.cls-1{fill:url(#radial-gradient);}.cls-2{fill:#009ff7;}.cls-3{fill:#fcfcfc;}.cls-4{fill:none;}.cls-5{fill:url(#radial-gradient-2);}.cls-6{fill:url(#radial-gradient-3);}.cls-7{fill:url(#radial-gradient-4);}.cls-8{fill:url(#radial-gradient-5);}</style><radialGradient id="radial-gradient" cx="50" cy="48.6" r="30.51" gradientTransform="translate(0 19.44) scale(1 0.6)" gradientUnits="userSpaceOnUse"><stop offset="0" stop-color="#fcafcb"/><stop offset="0.33" stop-color="#fbabc9"/><stop offset="0.62" stop-color="#f7a1c3"/><stop offset="0.9" stop-color="#f18eb9"/><stop offset="1" stop-color="#ee86b4"/></radialGradient><radialGradient id="radial-gradient-2" cx="150" cy="50" r="30.51" gradientTransform="translate(0 20) scale(1 0.6)" xlink:href="#radial-gradient"/><radialGradient id="radial-gradient-3" cx="250" cy="50" r="30.51" gradientTransform="translate(0 20) scale(1 0.6)" xlink:href="#radial-gradient"/><radialGradient id="radial-gradient-4" cx="350" cy="50" r="30.51" gradientTransform="translate(0 20) scale(1 0.6)" xlink:href="#radial-gradient"/><radialGradient id="radial-gradient-5" cx="450" cy="50" r="30.51" gradientTransform="translate(0 20) scale(1 0.6)" gradientUnits="userSpaceOnUse"><stop offset="0" stop-color="#ccc"/><stop offset="0.41" stop-color="#c8c8c8"/><stop offset="0.78" stop-color="#bebebe"/><stop offset="1" stop-color="#b3b3b3"/></radialGradient></defs><title>Artboard 1</title><rect class="cls-1" x="11.5" y="29.13" width="77" height="38.95" rx="14.34" ry="14.34"/><path class="cls-2" d="M74.16,30.63A12.85,12.85,0,0,1,87,43.47V53.74A12.85,12.85,0,0,1,74.16,66.58H25.84A12.85,12.85,0,0,1,13,53.74V43.47A12.85,12.85,0,0,1,25.84,30.63H74.16m0-3H25.84A15.84,15.84,0,0,0,10,43.47V53.74A15.84,15.84,0,0,0,25.84,69.58H74.16A15.84,15.84,0,0,0,90,53.74V43.47A15.84,15.84,0,0,0,74.16,27.63Z"/><rect class="cls-3" x="54.39" y="34.21" width="28.78" height="28.78" rx="10.24" ry="10.24"/><rect class="cls-4" y="-1.4" width="100" height="100"/><rect class="cls-5" x="111.5" y="30.52" width="77" height="38.95" rx="14.34" ry="14.34"/><path class="cls-2" d="M174.16,32A12.85,12.85,0,0,1,187,44.86V55.14A12.85,12.85,0,0,1,174.16,68H125.84A12.85,12.85,0,0,1,113,55.14V44.86A12.85,12.85,0,0,1,125.84,32h48.32m0-3H125.84A15.84,15.84,0,0,0,110,44.86V55.14A15.84,15.84,0,0,0,125.84,71h48.32A15.84,15.84,0,0,0,190,55.14V44.86A15.84,15.84,0,0,0,174.16,29Z"/><rect class="cls-3" x="144.39" y="35.61" width="28.78" height="28.78" rx="10.24" ry="10.24"/><rect class="cls-4" x="100" width="100" height="100"/><rect class="cls-6" x="211.5" y="30.52" width="77" height="38.95" rx="14.34" ry="14.34"/><path class="cls-2" d="M274.16,32A12.85,12.85,0,0,1,287,44.86V55.14A12.85,12.85,0,0,1,274.16,68H225.84A12.85,12.85,0,0,1,213,55.14V44.86A12.85,12.85,0,0,1,225.84,32h48.32m0-3H225.84A15.84,15.84,0,0,0,210,44.86V55.14A15.84,15.84,0,0,0,225.84,71h48.32A15.84,15.84,0,0,0,290,55.14V44.86A15.84,15.84,0,0,0,274.16,29Z"/><rect class="cls-3" x="234.39" y="35.61" width="28.78" height="28.78" rx="10.24" ry="10.24"/><rect class="cls-4" x="200" width="100" height="100"/><rect class="cls-7" x="311.5" y="30.52" width="77" height="38.95" rx="14.34" ry="14.34"/><path class="cls-2" d="M374.16,32A12.85,12.85,0,0,1,387,44.86V55.14A12.85,12.85,0,0,1,374.16,68H325.84A12.85,12.85,0,0,1,313,55.14V44.86A12.85,12.85,0,0,1,325.84,32h48.32m0-3H325.84A15.84,15.84,0,0,0,310,44.86V55.14A15.84,15.84,0,0,0,325.84,71h48.32A15.84,15.84,0,0,0,390,55.14V44.86A15.84,15.84,0,0,0,374.16,29Z"/><rect class="cls-3" x="324.39" y="35.61" width="28.78" height="28.78" rx="10.24" ry="10.24"/><rect class="cls-4" x="300" width="100" height="100"/><rect class="cls-8" x="411.5" y="30.52" width="77" height="38.95" rx="14.34" ry="14.34"/><path class="cls-2" d="M474.16,32A12.85,12.85,0,0,1,487,44.86V55.14A12.85,12.85,0,0,1,474.16,68H425.84A12.85,12.85,0,0,1,413,55.14V44.86A12.85,12.85,0,0,1,425.84,32h48.32m0-3H425.84A15.84,15.84,0,0,0,410,44.86V55.14A15.84,15.84,0,0,0,425.84,71h48.32A15.84,15.84,0,0,0,490,55.14V44.86A15.84,15.84,0,0,0,474.16,29Z"/><rect class="cls-3" x="416.39" y="35.61" width="28.78" height="28.78" rx="10.24" ry="10.24"/><rect class="cls-4" x="400" width="100" height="100"/></svg>